<?xml version="1.0" encoding="utf-8" standalone="no"?>
<!DOCTYPE svg PUBLIC "-//W3C//DTD SVG 1.1//EN"
  "http://www.w3.org/Graphics/SVG/1.1/DTD/svg11.dtd">
<svg xmlns:xlink="http://www.w3.org/1999/xlink" width="712.736562pt" height="496.709062pt" viewBox="0 0 712.736562 496.709062" xmlns="http://www.w3.org/2000/svg" version="1.1">
 <metadata>
  <rdf:RDF xmlns:dc="http://purl.org/dc/elements/1.1/" xmlns:cc="http://creativecommons.org/ns#" xmlns:rdf="http://www.w3.org/1999/02/22-rdf-syntax-ns#">
   <cc:Work>
    <dc:type rdf:resource="http://purl.org/dc/dcmitype/StillImage"/>
    <dc:date>2025-09-30T00:09:47.502509</dc:date>
    <dc:format>image/svg+xml</dc:format>
    <dc:creator>
     <cc:Agent>
      <dc:title>Matplotlib v3.10.5, https://matplotlib.org/</dc:title>
     </cc:Agent>
    </dc:creator>
   </cc:Work>
  </rdf:RDF>
 </metadata>
 <defs>
  <style type="text/css">*{stroke-linejoin: round; stroke-linecap: butt}</style>
 </defs>
 <g id="figure_1">
  <g id="patch_1">
   <path d="M 0 496.709062 
L 712.736562 496.709062 
L 712.736562 0 
L 0 0 
z
" style="fill: #ffffff"/>
  </g>
  <g id="axes_1">
   <g id="patch_2">
    <path d="M 44.911563 455.45375 
L 705.536562 455.45375 
L 705.536562 24.938125 
L 44.911563 24.938125 
z
" style="fill: #ffffff"/>
   </g>
   <g id="FillBetweenPolyCollection_1">
    <defs>
     <path id="m9d15af1958" d="M 74.939972 -452.202045 
L 74.939972 -452.202045 
L 77.023225 -452.202045 
L 77.023225 -452.202045 
L 77.982064 -452.202045 
L 77.982064 -452.202045 
L 79.952693 -452.202045 
L 79.952693 -452.202045 
L 80.172011 -452.202045 
L 80.172011 -452.202045 
L 81.144697 -452.202045 
L 81.144697 -415.923084 
L 87.596847 -415.923084 
L 87.596847 -415.923084 
L 89.243032 -415.923084 
L 89.243032 -411.041057 
L 95.069856 -411.041057 
L 95.069856 -411.041057 
L 103.154374 -411.041057 
L 103.154374 -404.104698 
L 117.178489 -404.104698 
L 117.178489 -397.052244 
L 117.873995 -397.052244 
L 117.873995 -390.079299 
L 118.433371 -390.079299 
L 118.433371 -383.22095 
L 118.842472 -383.22095 
L 118.842472 -376.477768 
L 123.944533 -376.477768 
L 123.944533 -369.842002 
L 125.108525 -369.842002 
L 125.108525 -363.304454 
L 127.549823 -363.304454 
L 127.549823 -356.856426 
L 130.283951 -356.856426 
L 130.283951 -350.490221 
L 132.153183 -350.490221 
L 132.153183 -344.199179 
L 132.691282 -344.199179 
L 132.691282 -344.199179 
L 133.362695 -344.199179 
L 133.362695 -337.833491 
L 139.110456 -337.833491 
L 139.110456 -331.540082 
L 140.686494 -331.540082 
L 140.686494 -325.313439 
L 142.454958 -325.313439 
L 142.454958 -319.148932 
L 146.812142 -319.148932 
L 146.812142 -313.042641 
L 147.444296 -313.042641 
L 147.444296 -306.991213 
L 150.966575 -306.991213 
L 150.966575 -300.991766 
L 151.085326 -300.991766 
L 151.085326 -300.991766 
L 154.725893 -300.991766 
L 154.725893 -294.734409 
L 157.199185 -294.734409 
L 157.199185 -288.535784 
L 166.62562 -288.535784 
L 166.62562 -282.392822 
L 166.694468 -282.392822 
L 166.694468 -282.392822 
L 168.633603 -282.392822 
L 168.633603 -282.392822 
L 174.038993 -282.392822 
L 174.038993 -275.957417 
L 203.538141 -275.957417 
L 203.538141 -269.585355 
L 206.948889 -269.585355 
L 206.948889 -263.273553 
L 233.605962 -263.273553 
L 233.605962 -257.019393 
L 252.612465 -257.019393 
L 252.612465 -257.019393 
L 252.753061 -257.019393 
L 252.753061 -250.419812 
L 281.754797 -250.419812 
L 281.754797 -243.888133 
L 290.7415 -243.888133 
L 290.7415 -243.888133 
L 294.189807 -243.888133 
L 294.189807 -237.196647 
L 304.541628 -237.196647 
L 304.541628 -230.576518 
L 311.74133 -230.576518 
L 311.74133 -230.576518 
L 317.018004 -230.576518 
L 317.018004 -223.777528 
L 319.38268 -223.777528 
L 319.38268 -217.054891 
L 324.60188 -217.054891 
L 324.60188 -217.054891 
L 330.649703 -217.054891 
L 330.649703 -217.054891 
L 331.589435 -217.054891 
L 331.589435 -209.832707 
L 349.651298 -209.832707 
L 349.651298 -202.706948 
L 363.932349 -202.706948 
L 363.932349 -195.67461 
L 380.880871 -195.67461 
L 380.880871 -195.67461 
L 385.794372 -195.67461 
L 385.794372 -195.67461 
L 389.619904 -195.67461 
L 389.619904 -195.67461 
L 396.401408 -195.67461 
L 396.401408 -187.594861 
L 400.433398 -187.594861 
L 400.433398 -187.594861 
L 404.374956 -187.594861 
L 404.374956 -187.594861 
L 416.621462 -187.594861 
L 416.621462 -178.665456 
L 418.518341 -178.665456 
L 418.518341 -178.665456 
L 418.722448 -178.665456 
L 418.722448 -178.665456 
L 420.825694 -178.665456 
L 420.825694 -178.665456 
L 424.834235 -178.665456 
L 424.834235 -167.862191 
L 428.012743 -167.862191 
L 428.012743 -167.862191 
L 430.715801 -167.862191 
L 430.715801 -156.511116 
L 433.302303 -156.511116 
L 433.302303 -156.511116 
L 437.681552 -156.511116 
L 437.681552 -156.511116 
L 440.393592 -156.511116 
L 440.393592 -156.511116 
L 442.34381 -156.511116 
L 442.34381 -141.47135 
L 445.602406 -141.47135 
L 445.602406 -141.47135 
L 446.610299 -141.47135 
L 446.610299 -141.47135 
L 446.732871 -141.47135 
L 446.732871 -141.47135 
L 449.852442 -141.47135 
L 449.852442 -141.47135 
L 450.25572 -141.47135 
L 450.25572 -113.919659 
L 458.453178 -113.919659 
L 458.453178 -113.919659 
L 459.010313 -113.919659 
L 459.010313 -113.919659 
L 474.419337 -113.919659 
L 474.419337 -113.919659 
L 475.431566 -113.919659 
L 475.431566 -113.919659 
L 480.226777 -113.919659 
L 480.226777 -113.919659 
L 480.226777 -232.527375 
L 480.226777 -232.527375 
L 480.226777 -232.527375 
L 475.431566 -232.527375 
L 475.431566 -232.527375 
L 474.419337 -232.527375 
L 474.419337 -232.527375 
L 459.010313 -232.527375 
L 459.010313 -232.527375 
L 458.453178 -232.527375 
L 458.453178 -232.527375 
L 450.25572 -232.527375 
L 450.25572 -246.800252 
L 449.852442 -246.800252 
L 449.852442 -246.800252 
L 446.732871 -246.800252 
L 446.732871 -246.800252 
L 446.610299 -246.800252 
L 446.610299 -246.800252 
L 445.602406 -246.800252 
L 445.602406 -246.800252 
L 442.34381 -246.800252 
L 442.34381 -258.067929 
L 440.393592 -258.067929 
L 440.393592 -258.067929 
L 437.681552 -258.067929 
L 437.681552 -258.067929 
L 433.302303 -258.067929 
L 433.302303 -258.067929 
L 430.715801 -258.067929 
L 430.715801 -267.619891 
L 428.012743 -267.619891 
L 428.012743 -267.619891 
L 424.834235 -267.619891 
L 424.834235 -276.547796 
L 420.825694 -276.547796 
L 420.825694 -276.547796 
L 418.722448 -276.547796 
L 418.722448 -276.547796 
L 418.518341 -276.547796 
L 418.518341 -276.547796 
L 416.621462 -276.547796 
L 416.621462 -284.42975 
L 404.374956 -284.42975 
L 404.374956 -284.42975 
L 400.433398 -284.42975 
L 400.433398 -284.42975 
L 396.401408 -284.42975 
L 396.401408 -291.72106 
L 389.619904 -291.72106 
L 389.619904 -291.72106 
L 385.794372 -291.72106 
L 385.794372 -291.72106 
L 380.880871 -291.72106 
L 380.880871 -291.72106 
L 363.932349 -291.72106 
L 363.932349 -298.340458 
L 349.651298 -298.340458 
L 349.651298 -304.889349 
L 331.589435 -304.889349 
L 331.589435 -311.366815 
L 330.649703 -311.366815 
L 330.649703 -311.366815 
L 324.60188 -311.366815 
L 324.60188 -311.366815 
L 319.38268 -311.366815 
L 319.38268 -317.477909 
L 317.018004 -317.477909 
L 317.018004 -323.52983 
L 311.74133 -323.52983 
L 311.74133 -323.52983 
L 304.541628 -323.52983 
L 304.541628 -329.394189 
L 294.189807 -329.394189 
L 294.189807 -335.202687 
L 290.7415 -335.202687 
L 290.7415 -335.202687 
L 281.754797 -335.202687 
L 281.754797 -340.840723 
L 252.753061 -340.840723 
L 252.753061 -346.425004 
L 252.612465 -346.425004 
L 252.612465 -346.425004 
L 233.605962 -346.425004 
L 233.605962 -351.754435 
L 206.948889 -351.754435 
L 206.948889 -357.035153 
L 203.538141 -357.035153 
L 203.538141 -362.265568 
L 174.038993 -362.265568 
L 174.038993 -367.443845 
L 168.633603 -367.443845 
L 168.633603 -367.443845 
L 166.694468 -367.443845 
L 166.694468 -367.443845 
L 166.62562 -367.443845 
L 166.62562 -372.405438 
L 157.199185 -372.405438 
L 157.199185 -377.317427 
L 154.725893 -377.317427 
L 154.725893 -382.177552 
L 151.085326 -382.177552 
L 151.085326 -382.177552 
L 150.966575 -382.177552 
L 150.966575 -386.844797 
L 147.444296 -386.844797 
L 147.444296 -391.460799 
L 146.812142 -391.460799 
L 146.812142 -396.022615 
L 142.454958 -396.022615 
L 142.454958 -400.526832 
L 140.686494 -400.526832 
L 140.686494 -404.969457 
L 139.110456 -404.969457 
L 139.110456 -409.34579 
L 133.362695 -409.34579 
L 133.362695 -413.650237 
L 132.691282 -413.650237 
L 132.691282 -413.650237 
L 132.153183 -413.650237 
L 132.153183 -417.825217 
L 130.283951 -417.825217 
L 130.283951 -421.917176 
L 127.549823 -421.917176 
L 127.549823 -425.916534 
L 125.108525 -425.916534 
L 125.108525 -429.811205 
L 123.944533 -429.811205 
L 123.944533 -433.585577 
L 118.842472 -433.585577 
L 118.842472 -437.218876 
L 118.433371 -437.218876 
L 118.433371 -440.682377 
L 117.873995 -440.682377 
L 117.873995 -443.934299 
L 117.178489 -443.934299 
L 117.178489 -446.909435 
L 103.154374 -446.909435 
L 103.154374 -449.494805 
L 95.069856 -449.494805 
L 95.069856 -449.494805 
L 89.243032 -449.494805 
L 89.243032 -451.448071 
L 87.596847 -451.448071 
L 87.596847 -451.448071 
L 81.144697 -451.448071 
L 81.144697 -452.202045 
L 80.172011 -452.202045 
L 80.172011 -452.202045 
L 79.952693 -452.202045 
L 79.952693 -452.202045 
L 77.982064 -452.202045 
L 77.982064 -452.202045 
L 77.023225 -452.202045 
L 77.023225 -452.202045 
L 74.939972 -452.202045 
z
" style="stroke: #1f77b4; stroke-opacity: 0.25"/>
    </defs>
    <g clip-path="url(#p70ac9f7f69)">
     <use xlink:href="#m9d15af1958" x="0" y="496.709062" style="fill: #1f77b4; fill-opacity: 0.25; stroke: #1f77b4; stroke-opacity: 0.25"/>
    </g>
   </g>
   <g id="FillBetweenPolyCollection_2">
    <defs>
     <path id="m409b361b7f" d="M 74.939972 -452.202045 
L 74.939972 -452.202045 
L 76.82795 -452.202045 
L 76.82795 -413.443813 
L 77.372964 -413.443813 
L 77.372964 -408.518181 
L 78.947988 -408.518181 
L 78.947988 -401.509353 
L 79.418765 -401.509353 
L 79.418765 -394.277844 
L 80.799428 -394.277844 
L 80.799428 -387.09179 
L 89.596394 -387.09179 
L 89.596394 -380.007451 
L 89.842042 -380.007451 
L 89.842042 -373.033524 
L 92.642262 -373.033524 
L 92.642262 -366.1659 
L 94.313871 -366.1659 
L 94.313871 -359.397177 
L 102.290106 -359.397177 
L 102.290106 -352.719602 
L 104.086076 -352.719602 
L 104.086076 -346.125992 
L 111.680047 -346.125992 
L 111.680047 -339.60997 
L 114.741564 -339.60997 
L 114.741564 -333.165971 
L 118.39851 -333.165971 
L 118.39851 -326.789163 
L 129.443449 -326.789163 
L 129.443449 -320.475356 
L 132.016993 -320.475356 
L 132.016993 -314.220911 
L 138.401323 -314.220911 
L 138.401323 -308.022663 
L 141.937337 -308.022663 
L 141.937337 -301.877847 
L 143.070548 -301.877847 
L 143.070548 -295.784047 
L 144.272202 -295.784047 
L 144.272202 -289.739147 
L 144.717755 -289.739147 
L 144.717755 -283.74129 
L 145.475308 -283.74129 
L 145.475308 -277.788847 
L 146.112269 -277.788847 
L 146.112269 -271.88039 
L 147.459749 -271.88039 
L 147.459749 -266.014668 
L 153.755244 -266.014668 
L 153.755244 -260.190588 
L 157.23694 -260.190588 
L 157.23694 -254.407202 
L 163.179946 -254.407202 
L 163.179946 -248.663691 
L 164.250098 -248.663691 
L 164.250098 -242.959355 
L 166.577224 -242.959355 
L 166.577224 -237.293607 
L 172.200504 -237.293607 
L 172.200504 -231.665958 
L 176.682085 -231.665958 
L 176.682085 -226.07602 
L 181.832363 -226.07602 
L 181.832363 -220.523495 
L 194.324442 -220.523495 
L 194.324442 -215.008176 
L 205.09275 -215.008176 
L 205.09275 -209.529941 
L 212.703805 -209.529941 
L 212.703805 -204.088752 
L 221.905305 -204.088752 
L 221.905305 -198.684658 
L 223.506487 -198.684658 
L 223.506487 -193.317791 
L 232.393667 -193.317791 
L 232.393667 -187.98837 
L 234.007959 -187.98837 
L 234.007959 -182.696701 
L 235.309521 -182.696701 
L 235.309521 -177.443185 
L 240.432328 -177.443185 
L 240.432328 -177.443185 
L 249.393973 -177.443185 
L 249.393973 -172.003064 
L 252.612465 -172.003064 
L 252.612465 -172.003064 
L 268.010146 -172.003064 
L 268.010146 -166.35753 
L 279.150054 -166.35753 
L 279.150054 -160.767001 
L 287.293258 -160.767001 
L 287.293258 -155.232128 
L 288.561827 -155.232128 
L 288.561827 -149.753784 
L 295.105146 -149.753784 
L 295.105146 -144.333082 
L 296.916153 -144.333082 
L 296.916153 -138.971393 
L 304.950585 -138.971393 
L 304.950585 -138.971393 
L 320.959454 -138.971393 
L 320.959454 -133.333965 
L 320.978967 -133.333965 
L 320.978967 -127.774143 
L 322.472996 -127.774143 
L 322.472996 -127.774143 
L 337.068964 -127.774143 
L 337.068964 -121.881415 
L 337.706942 -121.881415 
L 337.706942 -116.09484 
L 341.066437 -116.09484 
L 341.066437 -110.418428 
L 350.408889 -110.418428 
L 350.408889 -104.857292 
L 352.159951 -104.857292 
L 352.159951 -99.41787 
L 394.51314 -99.41787 
L 394.51314 -94.108246 
L 406.651539 -94.108246 
L 406.651539 -94.108246 
L 409.3301 -94.108246 
L 409.3301 -94.108246 
L 414.076049 -94.108246 
L 414.076049 -94.108246 
L 422.468818 -94.108246 
L 422.468818 -86.280831 
L 427.973192 -86.280831 
L 427.973192 -86.280831 
L 430.051369 -86.280831 
L 430.051369 -86.280831 
L 452.997691 -86.280831 
L 452.997691 -86.280831 
L 455.878116 -86.280831 
L 455.878116 -71.396172 
L 466.9301 -71.396172 
L 466.9301 -60.824205 
L 470.732324 -60.824205 
L 470.732324 -60.824205 
L 471.729128 -60.824205 
L 471.729128 -60.824205 
L 471.729128 -134.652788 
L 471.729128 -134.652788 
L 471.729128 -134.652788 
L 470.732324 -134.652788 
L 470.732324 -134.652788 
L 466.9301 -134.652788 
L 466.9301 -149.005575 
L 455.878116 -149.005575 
L 455.878116 -160.256142 
L 452.997691 -160.256142 
L 452.997691 -160.256142 
L 430.051369 -160.256142 
L 430.051369 -160.256142 
L 427.973192 -160.256142 
L 427.973192 -160.256142 
L 422.468818 -160.256142 
L 422.468818 -169.432405 
L 414.076049 -169.432405 
L 414.076049 -169.432405 
L 409.3301 -169.432405 
L 409.3301 -169.432405 
L 406.651539 -169.432405 
L 406.651539 -169.432405 
L 394.51314 -169.432405 
L 394.51314 -176.897989 
L 352.159951 -176.897989 
L 352.159951 -184.255375 
L 350.408889 -184.255375 
L 350.408889 -191.511852 
L 341.066437 -191.511852 
L 341.066437 -198.673372 
L 337.706942 -198.673372 
L 337.706942 -205.744818 
L 337.068964 -205.744818 
L 337.068964 -212.730195 
L 322.472996 -212.730195 
L 322.472996 -212.730195 
L 320.978967 -212.730195 
L 320.978967 -219.364732 
L 320.959454 -219.364732 
L 320.959454 -225.934275 
L 304.950585 -225.934275 
L 304.950585 -225.934275 
L 296.916153 -225.934275 
L 296.916153 -232.215167 
L 295.105146 -232.215167 
L 295.105146 -238.444574 
L 288.561827 -238.444574 
L 288.561827 -244.623838 
L 287.293258 -244.623838 
L 287.293258 -250.754093 
L 279.150054 -250.754093 
L 279.150054 -256.836284 
L 268.010146 -256.836284 
L 268.010146 -262.871185 
L 252.612465 -262.871185 
L 252.612465 -262.871185 
L 249.393973 -262.871185 
L 249.393973 -268.697131 
L 240.432328 -268.697131 
L 240.432328 -268.697131 
L 235.309521 -268.697131 
L 235.309521 -274.333564 
L 234.007959 -274.333564 
L 234.007959 -279.9339 
L 232.393667 -279.9339 
L 232.393667 -285.498415 
L 223.506487 -285.498415 
L 223.506487 -291.027301 
L 221.905305 -291.027301 
L 221.905305 -296.520662 
L 212.703805 -296.520662 
L 212.703805 -301.978523 
L 205.09275 -301.978523 
L 205.09275 -307.400825 
L 194.324442 -307.400825 
L 194.324442 -312.787426 
L 181.832363 -312.787426 
L 181.832363 -318.138102 
L 176.682085 -318.138102 
L 176.682085 -323.452538 
L 172.200504 -323.452538 
L 172.200504 -328.730332 
L 166.577224 -328.730332 
L 166.577224 -333.970986 
L 164.250098 -333.970986 
L 164.250098 -339.173898 
L 163.179946 -339.173898 
L 163.179946 -344.338358 
L 157.23694 -344.338358 
L 157.23694 -349.463539 
L 153.755244 -349.463539 
L 153.755244 -354.548481 
L 147.459749 -354.548481 
L 147.459749 -359.592081 
L 146.112269 -359.592081 
L 146.112269 -364.593073 
L 145.475308 -364.593073 
L 145.475308 -369.55001 
L 144.717755 -369.55001 
L 144.717755 -374.461236 
L 144.272202 -374.461236 
L 144.272202 -379.324857 
L 143.070548 -379.324857 
L 143.070548 -384.1387 
L 141.937337 -384.1387 
L 141.937337 -388.900268 
L 138.401323 -388.900268 
L 138.401323 -393.606676 
L 132.016993 -393.606676 
L 132.016993 -398.254577 
L 129.443449 -398.254577 
L 129.443449 -402.840059 
L 118.39851 -402.840059 
L 118.39851 -407.358519 
L 114.741564 -407.358519 
L 114.741564 -411.804486 
L 111.680047 -411.804486 
L 111.680047 -416.171388 
L 104.086076 -416.171388 
L 104.086076 -420.451223 
L 102.290106 -420.451223 
L 102.290106 -424.634095 
L 94.313871 -424.634095 
L 94.313871 -428.707525 
L 92.642262 -428.707525 
L 92.642262 -432.6554 
L 89.842042 -432.6554 
L 89.842042 -436.456294 
L 89.596394 -436.456294 
L 89.596394 -440.080605 
L 80.799428 -440.080605 
L 80.799428 -443.485326 
L 79.418765 -443.485326 
L 79.418765 -446.603433 
L 78.947988 -446.603433 
L 78.947988 -449.319 
L 77.372964 -449.319 
L 77.372964 -451.393883 
L 76.82795 -451.393883 
L 76.82795 -452.202045 
L 74.939972 -452.202045 
z
" style="stroke: #ff7f0e; stroke-opacity: 0.25"/>
    </defs>
    <g clip-path="url(#p70ac9f7f69)">
     <use xlink:href="#m409b361b7f" x="0" y="496.709062" style="fill: #ff7f0e; fill-opacity: 0.25; stroke: #ff7f0e; stroke-opacity: 0.25"/>
    </g>
   </g>
   <g id="FillBetweenPolyCollection_3">
    <defs>
     <path id="m5e596d1f49" d="M 74.939972 -452.202045 
L 74.939972 -452.202045 
L 80.315089 -452.202045 
L 80.315089 -413.443813 
L 83.983319 -413.443813 
L 83.983319 -408.518181 
L 86.900514 -408.518181 
L 86.900514 -401.509353 
L 87.231788 -401.509353 
L 87.231788 -394.277844 
L 90.403967 -394.277844 
L 90.403967 -387.09179 
L 92.322835 -387.09179 
L 92.322835 -380.007451 
L 94.961883 -380.007451 
L 94.961883 -373.033524 
L 98.88471 -373.033524 
L 98.88471 -366.1659 
L 101.500478 -366.1659 
L 101.500478 -359.397177 
L 108.574915 -359.397177 
L 108.574915 -352.719602 
L 113.764737 -352.719602 
L 113.764737 -346.125992 
L 114.194662 -346.125992 
L 114.194662 -339.60997 
L 118.768353 -339.60997 
L 118.768353 -333.165971 
L 118.775738 -333.165971 
L 118.775738 -326.789163 
L 123.25594 -326.789163 
L 123.25594 -320.475356 
L 126.800983 -320.475356 
L 126.800983 -314.220911 
L 127.300377 -314.220911 
L 127.300377 -308.022663 
L 127.759649 -308.022663 
L 127.759649 -301.877847 
L 131.312021 -301.877847 
L 131.312021 -295.784047 
L 132.50109 -295.784047 
L 132.50109 -289.739147 
L 136.623468 -289.739147 
L 136.623468 -283.74129 
L 152.328159 -283.74129 
L 152.328159 -277.788847 
L 156.747962 -277.788847 
L 156.747962 -271.88039 
L 160.170164 -271.88039 
L 160.170164 -266.014668 
L 163.896731 -266.014668 
L 163.896731 -260.190588 
L 164.230754 -260.190588 
L 164.230754 -254.407202 
L 168.685587 -254.407202 
L 168.685587 -248.663691 
L 168.823621 -248.663691 
L 168.823621 -242.959355 
L 171.474759 -242.959355 
L 171.474759 -237.293607 
L 176.639567 -237.293607 
L 176.639567 -231.665958 
L 188.965254 -231.665958 
L 188.965254 -226.07602 
L 192.854648 -226.07602 
L 192.854648 -220.523495 
L 196.211849 -220.523495 
L 196.211849 -215.008176 
L 202.120075 -215.008176 
L 202.120075 -209.529941 
L 221.09042 -209.529941 
L 221.09042 -204.088752 
L 224.851519 -204.088752 
L 224.851519 -198.684658 
L 232.305568 -198.684658 
L 232.305568 -193.317791 
L 251.587516 -193.317791 
L 251.587516 -187.98837 
L 261.532312 -187.98837 
L 261.532312 -182.696701 
L 264.654568 -182.696701 
L 264.654568 -177.443185 
L 267.191536 -177.443185 
L 267.191536 -172.228318 
L 277.135641 -172.228318 
L 277.135641 -167.052698 
L 279.414125 -167.052698 
L 279.414125 -161.917035 
L 306.88006 -161.917035 
L 306.88006 -156.822157 
L 310.381676 -156.822157 
L 310.381676 -151.769023 
L 310.869624 -151.769023 
L 310.869624 -146.758733 
L 312.456267 -146.758733 
L 312.456267 -141.792548 
L 316.655941 -141.792548 
L 316.655941 -136.871911 
L 319.508428 -136.871911 
L 319.508428 -131.998463 
L 355.658569 -131.998463 
L 355.658569 -127.174081 
L 372.84271 -127.174081 
L 372.84271 -122.400907 
L 381.203323 -122.400907 
L 381.203323 -122.400907 
L 393.129104 -122.400907 
L 393.129104 -117.349484 
L 402.074014 -117.349484 
L 402.074014 -117.349484 
L 413.04116 -117.349484 
L 413.04116 -117.349484 
L 416.030153 -117.349484 
L 416.030153 -117.349484 
L 440.046493 -117.349484 
L 440.046493 -117.349484 
L 455.45117 -117.349484 
L 455.45117 -117.349484 
L 460.577525 -117.349484 
L 460.577525 -109.554702 
L 472.385251 -109.554702 
L 472.385251 -102.074948 
L 476.379338 -102.074948 
L 476.379338 -102.074948 
L 480.306779 -102.074948 
L 480.306779 -102.074948 
L 493.717834 -102.074948 
L 493.717834 -92.473619 
L 509.610485 -92.473619 
L 509.610485 -92.473619 
L 534.422571 -92.473619 
L 534.422571 -92.473619 
L 569.366416 -92.473619 
L 569.366416 -92.473619 
L 625.452656 -92.473619 
L 625.452656 -92.473619 
L 625.65984 -92.473619 
L 625.65984 -92.473619 
L 655.949272 -92.473619 
L 655.949272 -92.473619 
L 675.508153 -92.473619 
L 675.508153 -92.473619 
L 675.508153 -171.51607 
L 675.508153 -171.51607 
L 675.508153 -171.51607 
L 655.949272 -171.51607 
L 655.949272 -171.51607 
L 625.65984 -171.51607 
L 625.65984 -171.51607 
L 625.452656 -171.51607 
L 625.452656 -171.51607 
L 569.366416 -171.51607 
L 569.366416 -171.51607 
L 534.422571 -171.51607 
L 534.422571 -171.51607 
L 509.610485 -171.51607 
L 509.610485 -171.51607 
L 493.717834 -171.51607 
L 493.717834 -181.223791 
L 480.306779 -181.223791 
L 480.306779 -181.223791 
L 476.379338 -181.223791 
L 476.379338 -181.223791 
L 472.385251 -181.223791 
L 472.385251 -189.601034 
L 460.577525 -189.601034 
L 460.577525 -197.746218 
L 455.45117 -197.746218 
L 455.45117 -197.746218 
L 440.046493 -197.746218 
L 440.046493 -197.746218 
L 416.030153 -197.746218 
L 416.030153 -197.746218 
L 413.04116 -197.746218 
L 413.04116 -197.746218 
L 402.074014 -197.746218 
L 402.074014 -197.746218 
L 393.129104 -197.746218 
L 393.129104 -204.131025 
L 381.203323 -204.131025 
L 381.203323 -204.131025 
L 372.84271 -204.131025 
L 372.84271 -210.213866 
L 355.658569 -210.213866 
L 355.658569 -216.249769 
L 319.508428 -216.249769 
L 319.508428 -222.240564 
L 316.655941 -222.240564 
L 316.655941 -228.187844 
L 312.456267 -228.187844 
L 312.456267 -234.093003 
L 310.869624 -234.093003 
L 310.869624 -239.957254 
L 310.381676 -239.957254 
L 310.381676 -245.781651 
L 306.88006 -245.781651 
L 306.88006 -251.56711 
L 279.414125 -251.56711 
L 279.414125 -257.314415 
L 277.135641 -257.314415 
L 277.135641 -263.024235 
L 267.191536 -263.024235 
L 267.191536 -268.697131 
L 264.654568 -268.697131 
L 264.654568 -274.333564 
L 261.532312 -274.333564 
L 261.532312 -279.9339 
L 251.587516 -279.9339 
L 251.587516 -285.498415 
L 232.305568 -285.498415 
L 232.305568 -291.027301 
L 224.851519 -291.027301 
L 224.851519 -296.520662 
L 221.09042 -296.520662 
L 221.09042 -301.978523 
L 202.120075 -301.978523 
L 202.120075 -307.400825 
L 196.211849 -307.400825 
L 196.211849 -312.787426 
L 192.854648 -312.787426 
L 192.854648 -318.138102 
L 188.965254 -318.138102 
L 188.965254 -323.452538 
L 176.639567 -323.452538 
L 176.639567 -328.730332 
L 171.474759 -328.730332 
L 171.474759 -333.970986 
L 168.823621 -333.970986 
L 168.823621 -339.173898 
L 168.685587 -339.173898 
L 168.685587 -344.338358 
L 164.230754 -344.338358 
L 164.230754 -349.463539 
L 163.896731 -349.463539 
L 163.896731 -354.548481 
L 160.170164 -354.548481 
L 160.170164 -359.592081 
L 156.747962 -359.592081 
L 156.747962 -364.593073 
L 152.328159 -364.593073 
L 152.328159 -369.55001 
L 136.623468 -369.55001 
L 136.623468 -374.461236 
L 132.50109 -374.461236 
L 132.50109 -379.324857 
L 131.312021 -379.324857 
L 131.312021 -384.1387 
L 127.759649 -384.1387 
L 127.759649 -388.900268 
L 127.300377 -388.900268 
L 127.300377 -393.606676 
L 126.800983 -393.606676 
L 126.800983 -398.254577 
L 123.25594 -398.254577 
L 123.25594 -402.840059 
L 118.775738 -402.840059 
L 118.775738 -407.358519 
L 118.768353 -407.358519 
L 118.768353 -411.804486 
L 114.194662 -411.804486 
L 114.194662 -416.171388 
L 113.764737 -416.171388 
L 113.764737 -420.451223 
L 108.574915 -420.451223 
L 108.574915 -424.634095 
L 101.500478 -424.634095 
L 101.500478 -428.707525 
L 98.88471 -428.707525 
L 98.88471 -432.6554 
L 94.961883 -432.6554 
L 94.961883 -436.456294 
L 92.322835 -436.456294 
L 92.322835 -440.080605 
L 90.403967 -440.080605 
L 90.403967 -443.485326 
L 87.231788 -443.485326 
L 87.231788 -446.603433 
L 86.900514 -446.603433 
L 86.900514 -449.319 
L 83.983319 -449.319 
L 83.983319 -451.393883 
L 80.315089 -451.393883 
L 80.315089 -452.202045 
L 74.939972 -452.202045 
z
" style="stroke: #2ca02c; stroke-opacity: 0.25"/>
    </defs>
    <g clip-path="url(#p70ac9f7f69)">
     <use xlink:href="#m5e596d1f49" x="0" y="496.709062" style="fill: #2ca02c; fill-opacity: 0.25; stroke: #2ca02c; stroke-opacity: 0.25"/>
    </g>
   </g>
   <g id="FillBetweenPolyCollection_4">
    <defs>
     <path id="me5f7c974a7" d="M 74.939972 -452.202045 
L 74.939972 -452.202045 
L 77.779732 -452.202045 
L 77.779732 -411.202559 
L 80.600512 -411.202559 
L 80.600512 -405.9911 
L 86.186803 -405.9911 
L 86.186803 -398.585019 
L 90.231521 -398.585019 
L 90.231521 -390.947202 
L 98.302958 -390.947202 
L 98.302958 -383.360306 
L 101.682437 -383.360306 
L 101.682437 -375.883454 
L 101.744677 -375.883454 
L 101.744677 -368.525638 
L 102.828448 -368.525638 
L 102.828448 -361.282383 
L 103.356531 -361.282383 
L 103.356531 -354.145778 
L 105.773346 -354.145778 
L 105.773346 -347.107569 
L 121.356462 -347.107569 
L 121.356462 -340.160122 
L 125.256569 -340.160122 
L 125.256569 -333.296675 
L 128.168676 -333.296675 
L 128.168676 -326.511334 
L 130.01462 -326.511334 
L 130.01462 -319.798991 
L 132.841111 -319.798991 
L 132.841111 -313.155225 
L 136.844176 -313.155225 
L 136.844176 -306.576206 
L 152.200042 -306.576206 
L 152.200042 -300.05861 
L 157.915155 -300.05861 
L 157.915155 -293.599547 
L 158.609934 -293.599547 
L 158.609934 -287.1965 
L 160.884072 -287.1965 
L 160.884072 -280.847275 
L 171.459206 -280.847275 
L 171.459206 -274.549961 
L 172.834997 -274.549961 
L 172.834997 -268.302893 
L 175.076958 -268.302893 
L 175.076958 -262.104625 
L 178.795918 -262.104625 
L 178.795918 -255.953907 
L 186.448859 -255.953907 
L 186.448859 -249.849663 
L 191.005055 -249.849663 
L 191.005055 -243.790979 
L 194.059698 -243.790979 
L 194.059698 -237.777087 
L 197.515252 -237.777087 
L 197.515252 -231.807353 
L 206.25409 -231.807353 
L 206.25409 -225.881272 
L 206.445684 -225.881272 
L 206.445684 -219.998459 
L 214.786516 -219.998459 
L 214.786516 -214.158643 
L 217.264483 -214.158643 
L 217.264483 -208.361668 
L 217.322738 -208.361668 
L 217.322738 -202.607484 
L 230.530402 -202.607484 
L 230.530402 -196.896153 
L 232.061097 -196.896153 
L 232.061097 -191.227846 
L 234.476683 -191.227846 
L 234.476683 -185.602844 
L 247.711308 -185.602844 
L 247.711308 -180.021545 
L 255.551422 -180.021545 
L 255.551422 -174.484468 
L 261.525508 -174.484468 
L 261.525508 -168.992257 
L 262.635816 -168.992257 
L 262.635816 -163.545693 
L 263.545128 -163.545693 
L 263.545128 -158.145703 
L 269.436465 -158.145703 
L 269.436465 -152.793375 
L 290.748031 -152.793375 
L 290.748031 -147.489973 
L 290.823283 -147.489973 
L 290.823283 -142.236959 
L 310.948821 -142.236959 
L 310.948821 -137.036014 
L 347.656947 -137.036014 
L 347.656947 -131.889074 
L 358.942285 -131.889074 
L 358.942285 -126.798363 
L 361.757337 -126.798363 
L 361.757337 -121.766443 
L 371.654728 -121.766443 
L 371.654728 -116.796268 
L 385.634703 -116.796268 
L 385.634703 -116.796268 
L 399.806364 -116.796268 
L 399.806364 -111.500036 
L 412.163992 -111.500036 
L 412.163992 -111.500036 
L 418.521772 -111.500036 
L 418.521772 -111.500036 
L 421.805566 -111.500036 
L 421.805566 -111.500036 
L 425.788127 -111.500036 
L 425.788127 -111.500036 
L 432.00682 -111.500036 
L 432.00682 -111.500036 
L 433.435493 -111.500036 
L 433.435493 -111.500036 
L 435.723063 -111.500036 
L 435.723063 -111.500036 
L 438.089051 -111.500036 
L 438.089051 -111.500036 
L 442.366806 -111.500036 
L 442.366806 -111.500036 
L 445.480749 -111.500036 
L 445.480749 -94.244976 
L 462.664129 -94.244976 
L 462.664129 -80.048433 
L 464.374829 -80.048433 
L 464.374829 -80.048433 
L 477.620718 -80.048433 
L 477.620718 -80.048433 
L 479.270997 -80.048433 
L 479.270997 -80.048433 
L 586.363336 -80.048433 
L 586.363336 -80.048433 
L 586.363336 -168.76668 
L 586.363336 -168.76668 
L 586.363336 -168.76668 
L 479.270997 -168.76668 
L 479.270997 -168.76668 
L 477.620718 -168.76668 
L 477.620718 -168.76668 
L 464.374829 -168.76668 
L 464.374829 -168.76668 
L 462.664129 -168.76668 
L 462.664129 -181.770355 
L 445.480749 -181.770355 
L 445.480749 -192.60823 
L 442.366806 -192.60823 
L 442.366806 -192.60823 
L 438.089051 -192.60823 
L 438.089051 -192.60823 
L 435.723063 -192.60823 
L 435.723063 -192.60823 
L 433.435493 -192.60823 
L 433.435493 -192.60823 
L 432.00682 -192.60823 
L 432.00682 -192.60823 
L 425.788127 -192.60823 
L 425.788127 -192.60823 
L 421.805566 -192.60823 
L 421.805566 -192.60823 
L 418.521772 -192.60823 
L 418.521772 -192.60823 
L 412.163992 -192.60823 
L 412.163992 -192.60823 
L 399.806364 -192.60823 
L 399.806364 -199.47111 
L 385.634703 -199.47111 
L 385.634703 -199.47111 
L 371.654728 -199.47111 
L 371.654728 -205.975931 
L 361.757337 -205.975931 
L 361.757337 -212.424427 
L 358.942285 -212.424427 
L 358.942285 -218.819115 
L 347.656947 -218.819115 
L 347.656947 -225.162169 
L 310.948821 -225.162169 
L 310.948821 -231.455471 
L 290.823283 -231.455471 
L 290.823283 -237.700652 
L 290.748031 -237.700652 
L 290.748031 -243.899118 
L 269.436465 -243.899118 
L 269.436465 -250.052084 
L 263.545128 -250.052084 
L 263.545128 -256.160586 
L 262.635816 -256.160586 
L 262.635816 -262.225503 
L 261.525508 -262.225503 
L 261.525508 -268.247573 
L 255.551422 -268.247573 
L 255.551422 -274.227396 
L 247.711308 -274.227396 
L 247.711308 -280.165452 
L 234.476683 -280.165452 
L 234.476683 -286.0621 
L 232.061097 -286.0621 
L 232.061097 -291.917589 
L 230.530402 -291.917589 
L 230.530402 -297.732057 
L 217.322738 -297.732057 
L 217.322738 -303.505538 
L 217.264483 -303.505538 
L 217.264483 -309.237955 
L 214.786516 -309.237955 
L 214.786516 -314.929128 
L 206.445684 -314.929128 
L 206.445684 -320.578765 
L 206.25409 -320.578765 
L 206.25409 -326.18646 
L 197.515252 -326.18646 
L 197.515252 -331.751691 
L 194.059698 -331.751691 
L 194.059698 -337.273808 
L 191.005055 -337.273808 
L 191.005055 -342.752027 
L 186.448859 -342.752027 
L 186.448859 -348.185417 
L 178.795918 -348.185417 
L 178.795918 -353.572887 
L 175.076958 -353.572887 
L 175.076958 -358.913166 
L 172.834997 -358.913166 
L 172.834997 -364.204787 
L 171.459206 -364.204787 
L 171.459206 -369.446052 
L 160.884072 -369.446052 
L 160.884072 -374.635007 
L 158.609934 -374.635007 
L 158.609934 -379.769399 
L 157.915155 -379.769399 
L 157.915155 -384.846621 
L 152.200042 -384.846621 
L 152.200042 -389.863654 
L 136.844176 -389.863654 
L 136.844176 -394.816984 
L 132.841111 -394.816984 
L 132.841111 -399.702493 
L 130.01462 -399.702493 
L 130.01462 -404.515324 
L 128.168676 -404.515324 
L 128.168676 -409.249699 
L 125.256569 -409.249699 
L 125.256569 -413.898663 
L 121.356462 -413.898663 
L 121.356462 -418.453743 
L 105.773346 -418.453743 
L 105.773346 -422.904451 
L 103.356531 -422.904451 
L 103.356531 -427.237555 
L 102.828448 -427.237555 
L 102.828448 -431.435962 
L 101.744677 -431.435962 
L 101.744677 -435.476938 
L 101.682437 -435.476938 
L 101.682437 -439.32907 
L 98.302958 -439.32907 
L 98.302958 -442.946722 
L 90.231521 -442.946722 
L 90.231521 -446.258777 
L 86.186803 -446.258777 
L 86.186803 -449.142255 
L 80.600512 -449.142255 
L 80.600512 -451.344583 
L 77.779732 -451.344583 
L 77.779732 -452.202045 
L 74.939972 -452.202045 
z
" style="stroke: #d62728; stroke-opacity: 0.25"/>
    </defs>
    <g clip-path="url(#p70ac9f7f69)">
     <use xlink:href="#me5f7c974a7" x="0" y="496.709062" style="fill: #d62728; fill-opacity: 0.25; stroke: #d62728; stroke-opacity: 0.25"/>
    </g>
   </g>
   <g id="matplotlib.axis_1">
    <g id="xtick_1">
     <g id="line2d_1">
      <path d="M 74.939972 455.45375 
L 74.939972 24.938125 
" clip-path="url(#p70ac9f7f69)" style="fill: none; stroke: #b0b0b0; stroke-opacity: 0.3; stroke-width: 0.8; stroke-linecap: square"/>
     </g>
     <g id="line2d_2">
      <defs>
       <path id="m886f20d498" d="M 0 0 
L 0 3.5 
" style="stroke: #000000; stroke-width: 0.8"/>
      </defs>
      <g>
       <use xlink:href="#m886f20d498" x="74.939972" y="455.45375" style="stroke: #000000; stroke-width: 0.8"/>
      </g>
     </g>
     <g id="text_1">
      <!-- 0 -->
      <g transform="translate(72.00794 470.4475) scale(0.1 -0.1)">
       <defs>
        <path id="MicrosoftYaHei-30" d="M 284 2325 
Q 284 3606 709 4264 
Q 1134 4922 1941 4922 
Q 3478 4922 3478 2441 
Q 3478 1216 3045 567 
Q 2613 -81 1831 -81 
Q 1094 -81 689 534 
Q 284 1150 284 2325 
z
M 909 2353 
Q 909 425 1888 425 
Q 2850 425 2850 2384 
Q 2850 4413 1906 4413 
Q 909 4413 909 2353 
z
" transform="scale(0.015625)"/>
       </defs>
       <use xlink:href="#MicrosoftYaHei-30"/>
      </g>
     </g>
    </g>
    <g id="xtick_2">
     <g id="line2d_3">
      <path d="M 201.848896 455.45375 
L 201.848896 24.938125 
" clip-path="url(#p70ac9f7f69)" style="fill: none; stroke: #b0b0b0; stroke-opacity: 0.3; stroke-width: 0.8; stroke-linecap: square"/>
     </g>
     <g id="line2d_4">
      <g>
       <use xlink:href="#m886f20d498" x="201.848896" y="455.45375" style="stroke: #000000; stroke-width: 0.8"/>
      </g>
     </g>
     <g id="text_2">
      <!-- 5 -->
      <g transform="translate(198.916864 470.4475) scale(0.1 -0.1)">
       <defs>
        <path id="MicrosoftYaHei-35" d="M 3294 1494 
Q 3294 784 2823 350 
Q 2353 -84 1559 -84 
Q 878 -84 544 119 
L 544 744 
Q 1034 425 1544 425 
Q 2050 425 2361 704 
Q 2672 984 2672 1447 
Q 2672 1909 2348 2167 
Q 2025 2425 1434 2425 
Q 978 2425 613 2384 
L 791 4841 
L 3053 4841 
L 3053 4303 
L 1306 4303 
L 1206 2931 
L 1647 2950 
Q 2416 2950 2855 2567 
Q 3294 2184 3294 1494 
z
" transform="scale(0.015625)"/>
       </defs>
       <use xlink:href="#MicrosoftYaHei-35"/>
      </g>
     </g>
    </g>
    <g id="xtick_3">
     <g id="line2d_5">
      <path d="M 328.75782 455.45375 
L 328.75782 24.938125 
" clip-path="url(#p70ac9f7f69)" style="fill: none; stroke: #b0b0b0; stroke-opacity: 0.3; stroke-width: 0.8; stroke-linecap: square"/>
     </g>
     <g id="line2d_6">
      <g>
       <use xlink:href="#m886f20d498" x="328.75782" y="455.45375" style="stroke: #000000; stroke-width: 0.8"/>
      </g>
     </g>
     <g id="text_3">
      <!-- 10 -->
      <g transform="translate(322.893757 470.4475) scale(0.1 -0.1)">
       <defs>
        <path id="MicrosoftYaHei-31" d="M 1781 0 
L 1781 4141 
Q 1638 3997 1295 3819 
Q 953 3641 663 3569 
L 663 4169 
Q 1047 4275 1484 4508 
Q 1922 4741 2156 4947 
L 2388 4947 
L 2388 0 
L 1781 0 
z
" transform="scale(0.015625)"/>
       </defs>
       <use xlink:href="#MicrosoftYaHei-31"/>
       <use xlink:href="#MicrosoftYaHei-30" transform="translate(58.642578 0)"/>
      </g>
     </g>
    </g>
    <g id="xtick_4">
     <g id="line2d_7">
      <path d="M 455.666744 455.45375 
L 455.666744 24.938125 
" clip-path="url(#p70ac9f7f69)" style="fill: none; stroke: #b0b0b0; stroke-opacity: 0.3; stroke-width: 0.8; stroke-linecap: square"/>
     </g>
     <g id="line2d_8">
      <g>
       <use xlink:href="#m886f20d498" x="455.666744" y="455.45375" style="stroke: #000000; stroke-width: 0.8"/>
      </g>
     </g>
     <g id="text_4">
      <!-- 15 -->
      <g transform="translate(449.802681 470.4475) scale(0.1 -0.1)">
       <use xlink:href="#MicrosoftYaHei-31"/>
       <use xlink:href="#MicrosoftYaHei-35" transform="translate(58.642578 0)"/>
      </g>
     </g>
    </g>
    <g id="xtick_5">
     <g id="line2d_9">
      <path d="M 582.575667 455.45375 
L 582.575667 24.938125 
" clip-path="url(#p70ac9f7f69)" style="fill: none; stroke: #b0b0b0; stroke-opacity: 0.3; stroke-width: 0.8; stroke-linecap: square"/>
     </g>
     <g id="line2d_10">
      <g>
       <use xlink:href="#m886f20d498" x="582.575667" y="455.45375" style="stroke: #000000; stroke-width: 0.8"/>
      </g>
     </g>
     <g id="text_5">
      <!-- 20 -->
      <g transform="translate(576.711605 470.4475) scale(0.1 -0.1)">
       <defs>
        <path id="MicrosoftYaHei-32" d="M 2666 3572 
Q 2666 3963 2419 4186 
Q 2172 4409 1747 4409 
Q 1447 4409 1140 4256 
Q 834 4103 569 3819 
L 569 4413 
Q 806 4659 1107 4790 
Q 1409 4922 1816 4922 
Q 2472 4922 2872 4570 
Q 3272 4219 3272 3619 
Q 3272 3084 3026 2693 
Q 2781 2303 2188 1894 
Q 1581 1475 1376 1294 
Q 1172 1113 1090 947 
Q 1009 781 1009 544 
L 3416 544 
L 3416 0 
L 372 0 
L 372 241 
Q 372 659 486 951 
Q 600 1244 862 1520 
Q 1125 1797 1681 2184 
Q 2250 2584 2458 2886 
Q 2666 3188 2666 3572 
z
" transform="scale(0.015625)"/>
       </defs>
       <use xlink:href="#MicrosoftYaHei-32"/>
       <use xlink:href="#MicrosoftYaHei-30" transform="translate(58.642578 0)"/>
      </g>
     </g>
    </g>
    <g id="text_6">
     <!-- 时间 (月) -->
     <g transform="translate(351.439687 486.525937) scale(0.12 -0.12)">
      <defs>
       <path id="MicrosoftYaHei-65f6" d="M 344 4728 
L 2500 4728 
L 2500 -366 
L 2006 -366 
L 2006 153 
L 838 153 
L 838 -441 
L 344 -441 
L 344 4728 
z
M 2706 3941 
L 4925 3941 
L 4925 5322 
L 5425 5322 
L 5425 3941 
L 6313 3941 
L 6313 3478 
L 5425 3478 
L 5425 116 
Q 5425 -722 4625 -722 
Q 4263 -722 3563 -703 
Q 3531 -478 3463 -178 
Q 4119 -228 4488 -228 
Q 4925 -228 4925 216 
L 4925 3478 
L 2706 3478 
L 2706 3941 
z
M 838 616 
L 2006 616 
L 2006 2234 
L 838 2234 
L 838 616 
z
M 2006 4266 
L 838 4266 
L 838 2684 
L 2006 2684 
L 2006 4266 
z
M 3406 2878 
Q 3906 1966 4163 1422 
Q 4000 1347 3663 1172 
Q 3419 1766 2963 2653 
L 3406 2878 
z
" transform="scale(0.015625)"/>
       <path id="MicrosoftYaHei-95f4" d="M 1863 3647 
L 4513 3647 
L 4513 553 
L 2313 553 
L 2313 166 
L 1863 166 
L 1863 3647 
z
M 2388 4453 
L 2388 4922 
L 6013 4922 
L 6013 -28 
Q 6013 -816 5119 -816 
Q 4756 -816 4169 -803 
Q 4144 -616 4069 -297 
Q 4588 -334 5056 -334 
Q 5525 -334 5525 122 
L 5525 4453 
L 2388 4453 
z
M 419 4084 
L 906 4084 
L 906 -816 
L 419 -816 
L 419 4084 
z
M 2313 997 
L 4063 997 
L 4063 1884 
L 2313 1884 
L 2313 997 
z
M 4063 3203 
L 2313 3203 
L 2313 2328 
L 4063 2328 
L 4063 3203 
z
M 744 5003 
L 1100 5322 
Q 1575 4872 1981 4447 
L 1575 4091 
Q 1194 4541 744 5003 
z
" transform="scale(0.015625)"/>
       <path id="MicrosoftYaHei-20" transform="scale(0.015625)"/>
       <path id="MicrosoftYaHei-28" d="M 1531 -1100 
Q 478 100 478 1847 
Q 478 3594 1531 4841 
L 2072 4841 
Q 1016 3544 1016 1853 
Q 1016 166 2066 -1100 
L 1531 -1100 
z
" transform="scale(0.015625)"/>
       <path id="MicrosoftYaHei-6708" d="M 1603 1284 
Q 1463 78 663 -897 
Q 463 -703 231 -522 
Q 838 134 1044 1041 
Q 1188 1709 1188 2891 
L 1188 5053 
L 5363 5053 
L 5363 178 
Q 5363 -747 4481 -747 
Q 4113 -747 3531 -734 
Q 3500 -509 3438 -209 
Q 4013 -247 4344 -247 
Q 4850 -247 4850 247 
L 4850 1284 
L 1603 1284 
z
M 1653 1741 
L 4850 1741 
L 4850 2941 
L 1700 2941 
Q 1700 2316 1653 1741 
z
M 1700 4584 
L 1700 3397 
L 4850 3397 
L 4850 4584 
L 1700 4584 
z
" transform="scale(0.015625)"/>
       <path id="MicrosoftYaHei-29" d="M 78 -1100 
Q 1131 163 1131 1853 
Q 1131 3547 72 4841 
L 616 4841 
Q 1672 3603 1672 1847 
Q 1672 91 616 -1100 
L 78 -1100 
z
" transform="scale(0.015625)"/>
      </defs>
      <use xlink:href="#MicrosoftYaHei-65f6"/>
      <use xlink:href="#MicrosoftYaHei-95f4" transform="translate(100 0)"/>
      <use xlink:href="#MicrosoftYaHei-20" transform="translate(200 0)"/>
      <use xlink:href="#MicrosoftYaHei-28" transform="translate(229.589844 0)"/>
      <use xlink:href="#MicrosoftYaHei-6708" transform="translate(262.988281 0)"/>
      <use xlink:href="#MicrosoftYaHei-29" transform="translate(362.988281 0)"/>
     </g>
    </g>
   </g>
   <g id="matplotlib.axis_2">
    <g id="ytick_1">
     <g id="line2d_11">
      <path d="M 44.911563 443.646628 
L 705.536562 443.646628 
" clip-path="url(#p70ac9f7f69)" style="fill: none; stroke: #b0b0b0; stroke-opacity: 0.3; stroke-width: 0.8; stroke-linecap: square"/>
     </g>
     <g id="line2d_12">
      <defs>
       <path id="mef60abe1fa" d="M 0 0 
L -3.5 0 
" style="stroke: #000000; stroke-width: 0.8"/>
      </defs>
      <g>
       <use xlink:href="#mef60abe1fa" x="44.911563" y="443.646628" style="stroke: #000000; stroke-width: 0.8"/>
      </g>
     </g>
     <g id="text_7">
      <!-- 0.0 -->
      <g transform="translate(23.775625 447.643503) scale(0.1 -0.1)">
       <defs>
        <path id="MicrosoftYaHei-2e" d="M 372 322 
Q 372 491 487 606 
Q 603 722 775 722 
Q 950 722 1065 605 
Q 1181 488 1181 322 
Q 1181 159 1065 42 
Q 950 -75 772 -75 
Q 600 -75 486 42 
Q 372 159 372 322 
z
" transform="scale(0.015625)"/>
       </defs>
       <use xlink:href="#MicrosoftYaHei-30"/>
       <use xlink:href="#MicrosoftYaHei-2e" transform="translate(58.642578 0)"/>
       <use xlink:href="#MicrosoftYaHei-30" transform="translate(82.714844 0)"/>
      </g>
     </g>
    </g>
    <g id="ytick_2">
     <g id="line2d_13">
      <path d="M 44.911563 363.818706 
L 705.536562 363.818706 
" clip-path="url(#p70ac9f7f69)" style="fill: none; stroke: #b0b0b0; stroke-opacity: 0.3; stroke-width: 0.8; stroke-linecap: square"/>
     </g>
     <g id="line2d_14">
      <g>
       <use xlink:href="#mef60abe1fa" x="44.911563" y="363.818706" style="stroke: #000000; stroke-width: 0.8"/>
      </g>
     </g>
     <g id="text_8">
      <!-- 0.2 -->
      <g transform="translate(23.775625 367.815581) scale(0.1 -0.1)">
       <use xlink:href="#MicrosoftYaHei-30"/>
       <use xlink:href="#MicrosoftYaHei-2e" transform="translate(58.642578 0)"/>
       <use xlink:href="#MicrosoftYaHei-32" transform="translate(82.714844 0)"/>
      </g>
     </g>
    </g>
    <g id="ytick_3">
     <g id="line2d_15">
      <path d="M 44.911563 283.990784 
L 705.536562 283.990784 
" clip-path="url(#p70ac9f7f69)" style="fill: none; stroke: #b0b0b0; stroke-opacity: 0.3; stroke-width: 0.8; stroke-linecap: square"/>
     </g>
     <g id="line2d_16">
      <g>
       <use xlink:href="#mef60abe1fa" x="44.911563" y="283.990784" style="stroke: #000000; stroke-width: 0.8"/>
      </g>
     </g>
     <g id="text_9">
      <!-- 0.4 -->
      <g transform="translate(23.775625 287.987659) scale(0.1 -0.1)">
       <defs>
        <path id="MicrosoftYaHei-34" d="M 2906 4841 
L 2906 1644 
L 3631 1644 
L 3631 1138 
L 2906 1138 
L 2906 0 
L 2313 0 
L 2313 1138 
L 53 1138 
L 53 1616 
Q 656 2294 1265 3178 
Q 1875 4063 2272 4841 
L 2906 4841 
z
M 741 1644 
L 2313 1644 
L 2313 3950 
Q 1988 3366 1616 2817 
Q 1244 2269 741 1644 
z
" transform="scale(0.015625)"/>
       </defs>
       <use xlink:href="#MicrosoftYaHei-30"/>
       <use xlink:href="#MicrosoftYaHei-2e" transform="translate(58.642578 0)"/>
       <use xlink:href="#MicrosoftYaHei-34" transform="translate(82.714844 0)"/>
      </g>
     </g>
    </g>
    <g id="ytick_4">
     <g id="line2d_17">
      <path d="M 44.911563 204.162861 
L 705.536562 204.162861 
" clip-path="url(#p70ac9f7f69)" style="fill: none; stroke: #b0b0b0; stroke-opacity: 0.3; stroke-width: 0.8; stroke-linecap: square"/>
     </g>
     <g id="line2d_18">
      <g>
       <use xlink:href="#mef60abe1fa" x="44.911563" y="204.162861" style="stroke: #000000; stroke-width: 0.8"/>
      </g>
     </g>
     <g id="text_10">
      <!-- 0.6 -->
      <g transform="translate(23.775625 208.159736) scale(0.1 -0.1)">
       <defs>
        <path id="MicrosoftYaHei-36" d="M 3181 4219 
Q 2803 4413 2391 4413 
Q 1763 4413 1381 3866 
Q 1000 3319 994 2372 
L 1009 2372 
Q 1353 3038 2106 3038 
Q 2734 3038 3109 2628 
Q 3484 2219 3484 1541 
Q 3484 831 3051 375 
Q 2619 -81 1947 -81 
Q 1209 -81 789 495 
Q 369 1072 369 2131 
Q 369 3413 920 4167 
Q 1472 4922 2372 4922 
Q 2888 4922 3181 4781 
L 3181 4219 
z
M 1031 1584 
Q 1031 1106 1286 765 
Q 1541 425 1963 425 
Q 2363 425 2613 719 
Q 2863 1013 2863 1475 
Q 2863 1975 2627 2253 
Q 2391 2531 1956 2531 
Q 1544 2531 1287 2250 
Q 1031 1969 1031 1584 
z
" transform="scale(0.015625)"/>
       </defs>
       <use xlink:href="#MicrosoftYaHei-30"/>
       <use xlink:href="#MicrosoftYaHei-2e" transform="translate(58.642578 0)"/>
       <use xlink:href="#MicrosoftYaHei-36" transform="translate(82.714844 0)"/>
      </g>
     </g>
    </g>
    <g id="ytick_5">
     <g id="line2d_19">
      <path d="M 44.911563 124.334939 
L 705.536562 124.334939 
" clip-path="url(#p70ac9f7f69)" style="fill: none; stroke: #b0b0b0; stroke-opacity: 0.3; stroke-width: 0.8; stroke-linecap: square"/>
     </g>
     <g id="line2d_20">
      <g>
       <use xlink:href="#mef60abe1fa" x="44.911563" y="124.334939" style="stroke: #000000; stroke-width: 0.8"/>
      </g>
     </g>
     <g id="text_11">
      <!-- 0.8 -->
      <g transform="translate(23.775625 128.331814) scale(0.1 -0.1)">
       <defs>
        <path id="MicrosoftYaHei-38" d="M 306 1350 
Q 306 1769 556 2122 
Q 806 2475 1200 2625 
Q 884 2803 700 3081 
Q 516 3359 516 3684 
Q 516 4028 692 4312 
Q 869 4597 1183 4759 
Q 1497 4922 1875 4922 
Q 2256 4922 2572 4761 
Q 2888 4600 3063 4315 
Q 3238 4031 3238 3684 
Q 3238 3366 3058 3086 
Q 2878 2806 2559 2625 
Q 2953 2472 3200 2119 
Q 3447 1766 3447 1350 
Q 3447 938 3250 611 
Q 3053 284 2690 103 
Q 2328 -78 1875 -78 
Q 1425 -78 1065 103 
Q 706 284 506 612 
Q 306 941 306 1350 
z
M 906 1378 
Q 906 947 1172 687 
Q 1438 428 1878 428 
Q 2309 428 2582 692 
Q 2856 956 2856 1378 
Q 2856 1778 2579 2051 
Q 2303 2325 1878 2325 
Q 1456 2325 1181 2058 
Q 906 1791 906 1378 
z
M 1081 3634 
Q 1081 3309 1312 3076 
Q 1544 2844 1878 2844 
Q 2206 2844 2445 3078 
Q 2684 3313 2684 3634 
Q 2684 3963 2454 4191 
Q 2225 4419 1878 4419 
Q 1534 4419 1307 4195 
Q 1081 3972 1081 3634 
z
" transform="scale(0.015625)"/>
       </defs>
       <use xlink:href="#MicrosoftYaHei-30"/>
       <use xlink:href="#MicrosoftYaHei-2e" transform="translate(58.642578 0)"/>
       <use xlink:href="#MicrosoftYaHei-38" transform="translate(82.714844 0)"/>
      </g>
     </g>
    </g>
    <g id="ytick_6">
     <g id="line2d_21">
      <path d="M 44.911563 44.507017 
L 705.536562 44.507017 
" clip-path="url(#p70ac9f7f69)" style="fill: none; stroke: #b0b0b0; stroke-opacity: 0.3; stroke-width: 0.8; stroke-linecap: square"/>
     </g>
     <g id="line2d_22">
      <g>
       <use xlink:href="#mef60abe1fa" x="44.911563" y="44.507017" style="stroke: #000000; stroke-width: 0.8"/>
      </g>
     </g>
     <g id="text_12">
      <!-- 1.0 -->
      <g transform="translate(23.775625 48.503892) scale(0.1 -0.1)">
       <use xlink:href="#MicrosoftYaHei-31"/>
       <use xlink:href="#MicrosoftYaHei-2e" transform="translate(58.642578 0)"/>
       <use xlink:href="#MicrosoftYaHei-30" transform="translate(82.714844 0)"/>
      </g>
     </g>
    </g>
    <g id="text_13">
     <!-- 生存概率 -->
     <g transform="translate(16.7925 264.195937) rotate(-90) scale(0.12 -0.12)">
      <defs>
       <path id="MicrosoftYaHei-751f" d="M 125 16 
L 3025 16 
L 3025 1609 
L 813 1609 
L 813 2091 
L 3025 2091 
L 3025 3534 
L 1375 3534 
Q 959 2784 419 2178 
Q 288 2384 81 2616 
Q 963 3603 1475 5028 
L 1988 4891 
Q 1822 4434 1622 4016 
L 3025 4016 
L 3025 5341 
L 3563 5341 
L 3563 4016 
L 5950 4016 
L 5950 3534 
L 3563 3534 
L 3563 2091 
L 5775 2091 
L 5775 1609 
L 3563 1609 
L 3563 16 
L 6288 16 
L 6288 -453 
L 125 -453 
L 125 16 
z
" transform="scale(0.015625)"/>
       <path id="MicrosoftYaHei-5b58" d="M 169 4641 
L 1925 4641 
Q 2053 4991 2163 5359 
L 2675 5228 
Q 2578 4928 2472 4641 
L 6275 4641 
L 6275 4178 
L 2291 4178 
Q 1963 3384 1563 2709 
L 1563 -797 
L 1081 -797 
L 1081 1984 
Q 747 1528 369 1141 
Q 244 1359 69 1591 
Q 1113 2688 1744 4178 
L 169 4178 
L 169 4641 
z
M 1838 1791 
L 3994 1791 
L 3994 2203 
Q 4656 2628 5156 3047 
L 2256 3047 
L 2256 3503 
L 5869 3503 
L 5869 2997 
Q 5231 2491 4475 1978 
L 4475 1791 
L 6319 1791 
L 6319 1334 
L 4475 1334 
L 4475 -72 
Q 4475 -784 3763 -784 
Q 3425 -784 2856 -766 
Q 2825 -528 2775 -259 
Q 3375 -322 3663 -322 
Q 3994 -322 3994 9 
L 3994 1334 
L 1838 1334 
L 1838 1791 
z
" transform="scale(0.015625)"/>
       <path id="MicrosoftYaHei-6982" d="M 2900 1359 
L 3263 1559 
Q 3519 1141 3869 466 
L 3494 222 
Q 3416 384 3344 528 
Q 3041 325 2544 -22 
Q 2419 -103 2219 -322 
L 1869 91 
Q 2063 303 2063 659 
L 2063 4966 
L 3606 4966 
L 3606 1803 
L 3206 1803 
L 3206 2009 
L 2469 2009 
L 2469 484 
Q 2781 669 3147 916 
Q 3009 1178 2900 1359 
z
M 4313 2584 
L 4850 2584 
Q 4950 3300 4950 4566 
L 3900 4566 
L 3900 4966 
L 6100 4966 
L 6100 4566 
L 5363 4566 
Q 5369 3344 5272 2584 
L 6138 2584 
L 6138 2184 
L 5209 2184 
Q 5156 1897 5075 1628 
L 5281 1628 
L 5281 59 
Q 5281 -228 5500 -228 
L 5619 -228 
Q 5781 -228 5844 22 
Q 5913 284 5900 853 
Q 6131 747 6319 691 
Q 6306 141 6213 -216 
Q 6081 -653 5744 -653 
L 5369 -653 
Q 4869 -653 4869 -3 
L 4869 1072 
Q 4366 -41 3281 -841 
Q 3150 -647 2963 -484 
Q 4425 534 4778 2184 
L 3894 2184 
L 4063 4253 
L 4450 4253 
L 4313 2584 
z
M 75 1384 
Q 569 2369 856 3616 
L 169 3616 
L 169 4003 
L 913 4003 
L 913 5322 
L 1325 5322 
L 1325 4003 
L 1913 4003 
L 1913 3616 
L 1325 3616 
L 1325 2775 
L 1494 2922 
Q 1819 2578 2019 2309 
L 1725 2059 
Q 1534 2341 1325 2588 
L 1325 -822 
L 913 -822 
L 913 2691 
Q 622 1531 256 841 
Q 175 1103 75 1384 
z
M 2469 2397 
L 3206 2397 
L 3206 3297 
L 2469 3297 
L 2469 2397 
z
M 3206 4578 
L 2469 4578 
L 2469 3684 
L 3206 3684 
L 3206 4578 
z
" transform="scale(0.015625)"/>
       <path id="MicrosoftYaHei-7387" d="M 2525 2009 
Q 2622 2016 3928 2081 
Q 3772 2300 3625 2491 
L 3963 2703 
Q 4413 2203 4794 1653 
L 4394 1403 
Q 4284 1569 4178 1725 
Q 2991 1659 2213 1597 
Q 2075 1584 1881 1541 
L 1725 1966 
Q 1913 2028 2006 2084 
Q 2534 2441 3050 2913 
Q 2597 2894 2275 2866 
Q 2144 2847 1988 2809 
L 1800 3191 
Q 1956 3247 2088 3366 
Q 2509 3722 2875 4228 
L 231 4228 
L 231 4666 
L 3031 4666 
Q 2878 4944 2744 5153 
L 3194 5372 
Q 3438 5000 3616 4666 
L 6175 4666 
L 6175 4228 
L 3053 4228 
L 3350 4072 
Q 2844 3553 2494 3247 
Q 2850 3256 3425 3269 
Q 3675 3519 3925 3797 
L 4356 3547 
Q 3363 2603 2525 2009 
z
M 144 991 
L 2994 991 
L 2994 1541 
L 3488 1541 
L 3488 991 
L 6275 991 
L 6275 553 
L 3488 553 
L 3488 -853 
L 2994 -853 
L 2994 553 
L 144 553 
L 144 991 
z
M 1719 2672 
L 1944 2303 
Q 1200 1866 425 1409 
L 163 1828 
Q 813 2134 1719 2672 
z
M 4856 2678 
Q 5750 2172 6250 1816 
L 5975 1409 
Q 5331 1909 4600 2341 
L 4856 2678 
z
M 5994 3591 
Q 5519 3178 4963 2809 
L 4644 3141 
Q 5244 3534 5638 3928 
L 5994 3591 
z
M 363 3634 
L 681 3941 
Q 1200 3528 1588 3159 
L 1238 2816 
Q 875 3197 363 3634 
z
" transform="scale(0.015625)"/>
      </defs>
      <use xlink:href="#MicrosoftYaHei-751f"/>
      <use xlink:href="#MicrosoftYaHei-5b58" transform="translate(100 0)"/>
      <use xlink:href="#MicrosoftYaHei-6982" transform="translate(200 0)"/>
      <use xlink:href="#MicrosoftYaHei-7387" transform="translate(300 0)"/>
     </g>
    </g>
   </g>
   <g id="line2d_23">
    <path d="M 74.939972 44.507017 
L 81.144697 44.507017 
L 81.144697 49.828879 
L 89.243032 49.828879 
L 89.243032 55.223642 
L 103.154374 55.223642 
L 103.154374 60.694388 
L 117.178489 60.694388 
L 117.178489 66.165135 
L 117.873995 66.165135 
L 117.873995 71.635881 
L 118.433371 71.635881 
L 118.433371 77.106627 
L 118.842472 77.106627 
L 118.842472 82.577374 
L 123.944533 82.577374 
L 123.944533 88.04812 
L 125.108525 88.04812 
L 125.108525 93.518866 
L 127.549823 93.518866 
L 127.549823 98.989612 
L 130.283951 98.989612 
L 130.283951 104.460359 
L 132.153183 104.460359 
L 132.153183 109.931105 
L 133.362695 109.931105 
L 133.362695 115.49303 
L 139.110456 115.49303 
L 139.110456 121.054956 
L 140.686494 121.054956 
L 140.686494 126.616881 
L 142.454958 126.616881 
L 142.454958 132.178807 
L 146.812142 132.178807 
L 146.812142 137.740732 
L 147.444296 137.740732 
L 147.444296 143.302657 
L 150.966575 143.302657 
L 150.966575 148.864583 
L 154.725893 148.864583 
L 154.725893 154.644623 
L 157.199185 154.644623 
L 157.199185 160.424663 
L 166.62562 160.424663 
L 166.62562 166.204703 
L 166.694468 166.204703 
L 174.038993 166.204703 
L 174.038993 172.236049 
L 203.538141 172.236049 
L 203.538141 178.267395 
L 206.948889 178.267395 
L 206.948889 184.298742 
L 233.605962 184.298742 
L 233.605962 190.330088 
L 252.753061 190.330088 
L 252.753061 196.663001 
L 281.754797 196.663001 
L 281.754797 202.995915 
L 294.189807 202.995915 
L 294.189807 209.499988 
L 304.541628 209.499988 
L 304.541628 216.004061 
L 317.018004 216.004061 
L 317.018004 222.699431 
L 319.38268 222.699431 
L 319.38268 229.394801 
L 331.589435 229.394801 
L 331.589435 236.536528 
L 349.651298 236.536528 
L 349.651298 243.678256 
L 363.932349 243.678256 
L 363.932349 250.819983 
L 396.401408 250.819983 
L 396.401408 258.854427 
L 416.621462 258.854427 
L 416.621462 267.654056 
L 424.834235 267.654056 
L 424.834235 278.00656 
L 430.715801 278.00656 
L 430.715801 289.049231 
L 442.34381 289.049231 
L 442.34381 303.10354 
L 450.25572 303.10354 
L 450.25572 326.527388 
L 480.226777 326.527388 
L 480.226777 326.527388 
" clip-path="url(#p70ac9f7f69)" style="fill: none; stroke: #1f77b4; stroke-width: 2; stroke-linecap: square"/>
   </g>
   <g id="line2d_24">
    <path d="M 74.939972 44.507017 
L 76.82795 44.507017 
L 76.82795 50.209011 
L 77.372964 50.209011 
L 77.372964 55.911006 
L 78.947988 55.911006 
L 78.947988 61.613 
L 79.418765 61.613 
L 79.418765 67.314995 
L 80.799428 67.314995 
L 80.799428 73.016989 
L 89.596394 73.016989 
L 89.596394 78.718984 
L 89.842042 78.718984 
L 89.842042 84.420978 
L 92.642262 84.420978 
L 92.642262 90.122973 
L 94.313871 90.122973 
L 94.313871 95.824967 
L 102.290106 95.824967 
L 102.290106 101.526961 
L 104.086076 101.526961 
L 104.086076 107.228956 
L 111.680047 107.228956 
L 111.680047 112.93095 
L 114.741564 112.93095 
L 114.741564 118.632945 
L 118.39851 118.632945 
L 118.39851 124.334939 
L 129.443449 124.334939 
L 129.443449 130.036934 
L 132.016993 130.036934 
L 132.016993 135.738928 
L 138.401323 135.738928 
L 138.401323 141.440923 
L 141.937337 141.440923 
L 141.937337 147.142917 
L 143.070548 147.142917 
L 143.070548 152.844911 
L 144.272202 152.844911 
L 144.272202 158.546906 
L 144.717755 158.546906 
L 144.717755 164.2489 
L 145.475308 164.2489 
L 145.475308 169.950895 
L 146.112269 169.950895 
L 146.112269 175.652889 
L 147.459749 175.652889 
L 147.459749 181.354884 
L 153.755244 181.354884 
L 153.755244 187.056878 
L 157.23694 187.056878 
L 157.23694 192.758873 
L 163.179946 192.758873 
L 163.179946 198.460867 
L 164.250098 198.460867 
L 164.250098 204.162861 
L 166.577224 204.162861 
L 166.577224 209.864856 
L 172.200504 209.864856 
L 172.200504 215.56685 
L 176.682085 215.56685 
L 176.682085 221.268845 
L 181.832363 221.268845 
L 181.832363 226.970839 
L 194.324442 226.970839 
L 194.324442 232.672834 
L 205.09275 232.672834 
L 205.09275 238.374828 
L 212.703805 238.374828 
L 212.703805 244.076823 
L 221.905305 244.076823 
L 221.905305 249.778817 
L 223.506487 249.778817 
L 223.506487 255.480811 
L 232.393667 255.480811 
L 232.393667 261.182806 
L 234.007959 261.182806 
L 234.007959 266.8848 
L 235.309521 266.8848 
L 235.309521 272.586795 
L 249.393973 272.586795 
L 249.393973 278.48541 
L 268.010146 278.48541 
L 268.010146 284.602492 
L 279.150054 284.602492 
L 279.150054 290.719574 
L 287.293258 290.719574 
L 287.293258 296.836656 
L 288.561827 296.836656 
L 288.561827 302.953738 
L 295.105146 302.953738 
L 295.105146 309.07082 
L 296.916153 309.07082 
L 296.916153 315.187903 
L 320.959454 315.187903 
L 320.978967 328.033775 
L 337.068964 328.033775 
L 337.068964 334.834531 
L 337.706942 334.834531 
L 337.706942 341.635287 
L 341.066437 341.635287 
L 341.066437 348.436043 
L 350.408889 348.436043 
L 350.408889 355.236799 
L 352.159951 355.236799 
L 352.159951 362.037555 
L 394.51314 362.037555 
L 394.51314 368.838311 
L 422.468818 368.838311 
L 422.468818 378.189351 
L 455.878116 378.189351 
L 455.878116 394.55367 
L 466.9301 394.55367 
L 466.9301 410.917989 
L 471.729128 410.917989 
L 471.729128 410.917989 
" clip-path="url(#p70ac9f7f69)" style="fill: none; stroke: #ff7f0e; stroke-width: 2; stroke-linecap: square"/>
   </g>
   <g id="line2d_25">
    <path d="M 74.939972 44.507017 
L 80.315089 44.507017 
L 80.315089 50.209011 
L 83.983319 50.209011 
L 83.983319 55.911006 
L 86.900514 55.911006 
L 86.900514 61.613 
L 87.231788 61.613 
L 87.231788 67.314995 
L 90.403967 67.314995 
L 90.403967 73.016989 
L 92.322835 73.016989 
L 92.322835 78.718984 
L 94.961883 78.718984 
L 94.961883 84.420978 
L 98.88471 84.420978 
L 98.88471 90.122973 
L 101.500478 90.122973 
L 101.500478 95.824967 
L 108.574915 95.824967 
L 108.574915 101.526961 
L 113.764737 101.526961 
L 113.764737 107.228956 
L 114.194662 107.228956 
L 114.194662 112.93095 
L 118.768353 112.93095 
L 118.775738 124.334939 
L 123.25594 124.334939 
L 123.25594 130.036934 
L 126.800983 130.036934 
L 126.800983 135.738928 
L 127.300377 135.738928 
L 127.300377 141.440923 
L 127.759649 141.440923 
L 127.759649 147.142917 
L 131.312021 147.142917 
L 131.312021 152.844911 
L 132.50109 152.844911 
L 132.50109 158.546906 
L 136.623468 158.546906 
L 136.623468 164.2489 
L 152.328159 164.2489 
L 152.328159 169.950895 
L 156.747962 169.950895 
L 156.747962 175.652889 
L 160.170164 175.652889 
L 160.170164 181.354884 
L 163.896731 181.354884 
L 163.896731 187.056878 
L 164.230754 187.056878 
L 164.230754 192.758873 
L 168.685587 192.758873 
L 168.685587 198.460867 
L 168.823621 198.460867 
L 168.823621 204.162861 
L 171.474759 204.162861 
L 171.474759 209.864856 
L 176.639567 209.864856 
L 176.639567 215.56685 
L 188.965254 215.56685 
L 188.965254 221.268845 
L 192.854648 221.268845 
L 192.854648 226.970839 
L 196.211849 226.970839 
L 196.211849 232.672834 
L 202.120075 232.672834 
L 202.120075 238.374828 
L 221.09042 238.374828 
L 221.09042 244.076823 
L 224.851519 244.076823 
L 224.851519 249.778817 
L 232.305568 249.778817 
L 232.305568 255.480811 
L 251.587516 255.480811 
L 251.587516 261.182806 
L 261.532312 261.182806 
L 261.532312 266.8848 
L 264.654568 266.8848 
L 264.654568 272.586795 
L 267.191536 272.586795 
L 267.191536 278.288789 
L 277.135641 278.288789 
L 277.135641 283.990784 
L 279.414125 283.990784 
L 279.414125 289.692778 
L 306.88006 289.692778 
L 306.88006 295.394772 
L 310.381676 295.394772 
L 310.381676 301.096767 
L 310.869624 301.096767 
L 310.869624 306.798761 
L 312.456267 306.798761 
L 312.456267 312.500756 
L 316.655941 312.500756 
L 316.655941 318.20275 
L 319.508428 318.20275 
L 319.508428 323.904745 
L 355.658569 323.904745 
L 355.658569 329.606739 
L 372.84271 329.606739 
L 372.84271 335.308734 
L 393.129104 335.308734 
L 393.129104 341.327505 
L 460.577525 341.327505 
L 460.577525 349.854099 
L 472.385251 349.854099 
L 472.385251 358.380693 
L 493.717834 358.380693 
L 493.717834 369.038934 
L 675.508153 369.038934 
L 675.508153 369.038934 
" clip-path="url(#p70ac9f7f69)" style="fill: none; stroke-dasharray: 7.4,3.2; stroke-dashoffset: 0; stroke: #2ca02c; stroke-opacity: 0.8; stroke-width: 2"/>
   </g>
   <g id="line2d_26">
    <path d="M 74.939972 44.507017 
L 77.779732 44.507017 
L 77.779732 50.554587 
L 80.600512 50.554587 
L 80.600512 56.602157 
L 86.186803 56.602157 
L 86.186803 62.649727 
L 90.231521 62.649727 
L 90.231521 68.697296 
L 98.302958 68.697296 
L 98.302958 74.744866 
L 101.682437 74.744866 
L 101.744677 86.840006 
L 102.828448 86.840006 
L 102.828448 92.887576 
L 103.356531 92.887576 
L 103.356531 98.935146 
L 105.773346 98.935146 
L 105.773346 104.982716 
L 121.356462 104.982716 
L 121.356462 111.030286 
L 125.256569 111.030286 
L 125.256569 117.077855 
L 128.168676 117.077855 
L 128.168676 123.125425 
L 130.01462 123.125425 
L 130.01462 129.172995 
L 132.841111 129.172995 
L 132.841111 135.220565 
L 136.844176 135.220565 
L 136.844176 141.268135 
L 152.200042 141.268135 
L 152.200042 147.315705 
L 157.915155 147.315705 
L 157.915155 153.363275 
L 158.609934 153.363275 
L 158.609934 159.410844 
L 160.884072 159.410844 
L 160.884072 165.458414 
L 171.459206 165.458414 
L 171.459206 171.505984 
L 172.834997 171.505984 
L 172.834997 177.553554 
L 175.076958 177.553554 
L 175.076958 183.601124 
L 178.795918 183.601124 
L 178.795918 189.648694 
L 186.448859 189.648694 
L 186.448859 195.696264 
L 191.005055 195.696264 
L 191.005055 201.743833 
L 194.059698 201.743833 
L 194.059698 207.791403 
L 197.515252 207.791403 
L 197.515252 213.838973 
L 206.25409 213.838973 
L 206.25409 219.886543 
L 206.445684 219.886543 
L 206.445684 225.934113 
L 214.786516 225.934113 
L 214.786516 231.981683 
L 217.264483 231.981683 
L 217.322738 244.076823 
L 230.530402 244.076823 
L 230.530402 250.124392 
L 232.061097 250.124392 
L 232.061097 256.171962 
L 234.476683 256.171962 
L 234.476683 262.219532 
L 247.711308 262.219532 
L 247.711308 268.267102 
L 255.551422 268.267102 
L 255.551422 274.314672 
L 261.525508 274.314672 
L 261.525508 280.362242 
L 262.635816 280.362242 
L 262.635816 286.409812 
L 263.545128 286.409812 
L 263.545128 292.457381 
L 269.436465 292.457381 
L 269.436465 298.504951 
L 290.748031 298.504951 
L 290.823283 310.600091 
L 310.948821 310.600091 
L 310.948821 316.647661 
L 347.656947 316.647661 
L 347.656947 322.695231 
L 358.942285 322.695231 
L 358.942285 328.742801 
L 361.757337 328.742801 
L 361.757337 334.79037 
L 371.654728 334.79037 
L 371.654728 340.83794 
L 399.806364 340.83794 
L 399.806364 347.263483 
L 445.480749 347.263483 
L 445.480749 363.327341 
L 462.664129 363.327341 
L 462.664129 379.391198 
L 586.363336 379.391198 
L 586.363336 379.391198 
" clip-path="url(#p70ac9f7f69)" style="fill: none; stroke-dasharray: 7.4,3.2; stroke-dashoffset: 0; stroke: #d62728; stroke-opacity: 0.8; stroke-width: 2"/>
   </g>
   <g id="patch_3">
    <path d="M 44.911563 455.45375 
L 44.911563 24.938125 
" style="fill: none; stroke: #000000; stroke-width: 0.8; stroke-linejoin: miter; stroke-linecap: square"/>
   </g>
   <g id="patch_4">
    <path d="M 705.536562 455.45375 
L 705.536562 24.938125 
" style="fill: none; stroke: #000000; stroke-width: 0.8; stroke-linejoin: miter; stroke-linecap: square"/>
   </g>
   <g id="patch_5">
    <path d="M 44.911563 455.45375 
L 705.536562 455.45375 
" style="fill: none; stroke: #000000; stroke-width: 0.8; stroke-linejoin: miter; stroke-linecap: square"/>
   </g>
   <g id="patch_6">
    <path d="M 44.911563 24.938125 
L 705.536562 24.938125 
" style="fill: none; stroke: #000000; stroke-width: 0.8; stroke-linejoin: miter; stroke-linecap: square"/>
   </g>
   <g id="text_14">
    <!-- RCT-A vs 重构RCT-B X阴性亚组 OS Kaplan-Meier曲线对比 -->
    <g transform="translate(180.85375 18.938125) scale(0.14 -0.14)">
     <defs>
      <path id="MicrosoftYaHei-Bold-52" d="M 4553 0 
L 3366 0 
L 2606 1259 
Q 2372 1650 2222 1762 
Q 2072 1875 1903 1875 
L 1591 1875 
L 1591 0 
L 559 0 
L 559 4841 
L 2256 4841 
Q 3984 4841 3984 3528 
Q 3984 3034 3695 2681 
Q 3406 2328 2900 2184 
L 2900 2172 
Q 3234 2059 3641 1434 
L 4553 0 
z
M 1591 4056 
L 1591 2663 
L 2097 2663 
Q 2459 2663 2679 2873 
Q 2900 3084 2900 3400 
Q 2900 4056 2116 4056 
L 1591 4056 
z
" transform="scale(0.015625)"/>
      <path id="MicrosoftYaHei-Bold-43" d="M 4013 175 
Q 3484 -84 2634 -84 
Q 1541 -84 898 570 
Q 256 1225 256 2316 
Q 256 3463 973 4192 
Q 1691 4922 2825 4922 
Q 3534 4922 4013 4738 
L 4013 3741 
Q 3522 4028 2900 4028 
Q 2191 4028 1766 3575 
Q 1341 3122 1341 2391 
Q 1341 1678 1744 1243 
Q 2147 809 2834 809 
Q 3481 809 4013 1122 
L 4013 175 
z
" transform="scale(0.015625)"/>
      <path id="MicrosoftYaHei-Bold-54" d="M 3900 3997 
L 2519 3997 
L 2519 0 
L 1484 0 
L 1484 3997 
L 106 3997 
L 106 4841 
L 3900 4841 
L 3900 3997 
z
" transform="scale(0.015625)"/>
      <path id="MicrosoftYaHei-Bold-2d" d="M 2328 1497 
L 481 1497 
L 481 2209 
L 2328 2209 
L 2328 1497 
z
" transform="scale(0.015625)"/>
      <path id="MicrosoftYaHei-Bold-41" d="M 4759 0 
L 3634 0 
L 3272 1109 
L 1513 1109 
L 1156 0 
L 38 0 
L 1809 4841 
L 3022 4841 
L 4759 0 
z
M 3028 1906 
L 2478 3584 
Q 2425 3744 2403 4006 
L 2375 4006 
Q 2356 3794 2291 3597 
L 1738 1906 
L 3028 1906 
z
" transform="scale(0.015625)"/>
      <path id="MicrosoftYaHei-Bold-20" transform="scale(0.015625)"/>
      <path id="MicrosoftYaHei-Bold-76" d="M 3688 3456 
L 2391 0 
L 1250 0 
L 16 3456 
L 1097 3456 
L 1731 1281 
Q 1834 925 1847 684 
L 1863 684 
Q 1888 931 1984 1263 
L 2631 3456 
L 3688 3456 
z
" transform="scale(0.015625)"/>
      <path id="MicrosoftYaHei-Bold-73" d="M 369 928 
Q 888 613 1384 613 
Q 2009 613 2009 947 
Q 2009 1184 1494 1344 
Q 850 1544 609 1789 
Q 369 2034 369 2453 
Q 369 2963 781 3252 
Q 1194 3541 1863 3541 
Q 2338 3541 2778 3400 
L 2778 2606 
Q 2375 2844 1891 2844 
Q 1650 2844 1503 2758 
Q 1356 2672 1356 2531 
Q 1356 2294 1794 2147 
Q 2263 1991 2498 1862 
Q 2734 1734 2857 1525 
Q 2981 1316 2981 1041 
Q 2981 506 2553 211 
Q 2125 -84 1409 -84 
Q 847 -84 369 94 
L 369 928 
z
" transform="scale(0.015625)"/>
      <path id="MicrosoftYaHei-Bold-91cd" d="M 106 -78 
L 2788 -78 
L 2788 241 
L 513 241 
L 513 766 
L 2788 766 
L 2788 1072 
L 731 1072 
L 731 3272 
L 2788 3272 
L 2788 3578 
L 125 3578 
L 125 4141 
L 2788 4141 
L 2788 4453 
L 663 4416 
Q 613 4691 544 4978 
Q 3200 5009 5731 5122 
Q 5738 5103 5850 4534 
L 3613 4475 
L 3613 4141 
L 6313 4141 
L 6313 3578 
L 3613 3578 
L 3613 3272 
L 5694 3272 
L 5694 1072 
L 3613 1072 
L 3613 766 
L 5925 766 
L 5925 241 
L 3613 241 
L 3613 -78 
L 6313 -78 
L 6313 -641 
L 106 -641 
L 106 -78 
z
M 4888 2753 
L 3613 2753 
L 3613 2397 
L 4888 2397 
L 4888 2753 
z
M 1538 2397 
L 2788 2397 
L 2788 2753 
L 1538 2753 
L 1538 2397 
z
M 4888 1591 
L 4888 1947 
L 3613 1947 
L 3613 1591 
L 4888 1591 
z
M 1538 1591 
L 2788 1591 
L 2788 1947 
L 1538 1947 
L 1538 1591 
z
" transform="scale(0.015625)"/>
      <path id="MicrosoftYaHei-Bold-6784" d="M 75 1709 
Q 550 2447 828 3353 
L 138 3353 
L 138 4091 
L 900 4091 
L 900 5303 
L 1713 5303 
L 1713 4091 
L 2313 4091 
L 2313 3756 
Q 2825 4431 3100 5278 
L 3963 5209 
Q 3850 4903 3719 4616 
L 6056 4616 
Q 6056 3244 6042 2212 
Q 6028 1181 6004 565 
Q 5981 -50 5714 -367 
Q 5447 -684 5051 -725 
Q 4656 -766 3675 -747 
Q 3588 -253 3494 122 
Q 4175 66 4600 66 
Q 4863 66 5023 206 
Q 5184 347 5191 822 
L 4775 609 
L 4644 878 
Q 3147 769 2444 622 
L 2188 1334 
Q 2669 1691 3388 3453 
L 4188 3128 
L 3206 1453 
L 4316 1525 
Q 4106 1928 3875 2347 
L 4519 2684 
Q 4866 2113 5209 1481 
Q 5231 2419 5231 3841 
L 3313 3841 
Q 2991 3297 2594 2822 
Q 2319 3125 2072 3353 
L 1713 3353 
L 1713 2991 
Q 2153 2594 2575 2191 
L 2031 1678 
Q 1872 1906 1713 2116 
L 1713 -822 
L 900 -822 
L 900 1816 
Q 647 1156 288 566 
Q 219 997 75 1709 
z
" transform="scale(0.015625)"/>
      <path id="MicrosoftYaHei-Bold-42" d="M 559 0 
L 559 4841 
L 2278 4841 
Q 3069 4841 3497 4541 
Q 3925 4241 3925 3709 
Q 3925 3316 3659 3019 
Q 3394 2722 2991 2609 
L 2991 2597 
Q 3497 2534 3808 2221 
Q 4119 1909 4119 1438 
Q 4119 778 3650 389 
Q 3181 0 2369 0 
L 559 0 
z
M 1591 4072 
L 1591 2875 
L 2081 2875 
Q 2434 2875 2637 3044 
Q 2841 3213 2841 3516 
Q 2841 4072 2028 4072 
L 1591 4072 
z
M 1591 2097 
L 1591 769 
L 2203 769 
Q 2594 769 2814 950 
Q 3034 1131 3034 1453 
Q 3034 1759 2815 1928 
Q 2597 2097 2194 2097 
L 1591 2097 
z
" transform="scale(0.015625)"/>
      <path id="MicrosoftYaHei-Bold-58" d="M 4447 0 
L 3222 0 
L 2353 1606 
Q 2306 1694 2256 1922 
L 2244 1922 
Q 2219 1809 2131 1597 
L 1259 0 
L 25 0 
L 1578 2422 
L 159 4841 
L 1416 4841 
L 2138 3359 
Q 2225 3178 2288 2959 
L 2300 2959 
Q 2366 3156 2459 3375 
L 3256 4841 
L 4409 4841 
L 2947 2441 
L 4447 0 
z
" transform="scale(0.015625)"/>
      <path id="MicrosoftYaHei-Bold-9634" d="M 2031 2772 
Q 2575 2172 2575 1328 
Q 2575 819 2320 548 
Q 2066 278 1356 234 
Q 1300 672 1150 1078 
Q 1547 1050 1664 1140 
Q 1781 1231 1781 1409 
Q 1781 2078 1263 2678 
Q 1544 3559 1738 4334 
L 1119 4334 
L 1119 -859 
L 331 -859 
L 331 5059 
L 2575 5059 
L 2575 4459 
Q 2331 3653 2031 2772 
z
M 2963 5053 
L 6050 5053 
L 6050 103 
Q 6050 -291 5848 -494 
Q 5647 -697 5262 -712 
Q 4878 -728 4200 -722 
Q 4156 -328 4044 72 
Q 4519 41 4863 41 
Q 5194 41 5194 366 
L 5194 1128 
L 3728 1128 
Q 3550 3 2881 -859 
Q 2488 -547 2119 -322 
Q 2606 256 2784 867 
Q 2963 1478 2963 2528 
L 2963 5053 
z
M 5194 4303 
L 3819 4303 
L 3819 3447 
L 5194 3447 
L 5194 4303 
z
M 3800 1878 
L 5194 1878 
L 5194 2734 
L 3819 2734 
Q 3819 2522 3800 1878 
z
" transform="scale(0.015625)"/>
      <path id="MicrosoftYaHei-Bold-6027" d="M 2250 216 
L 3975 216 
L 3975 1378 
L 2563 1378 
L 2563 2191 
L 3975 2191 
L 3975 3303 
L 3213 3303 
Q 3075 2734 2913 2272 
Q 2538 2491 2175 2684 
Q 2563 3684 2738 4947 
L 3506 4891 
Q 3447 4484 3381 4116 
L 3975 4116 
L 3975 5316 
L 4825 5316 
L 4825 4116 
L 6125 4116 
L 6125 3303 
L 4825 3303 
L 4825 2191 
L 6100 2191 
L 6100 1378 
L 4825 1378 
L 4825 216 
L 6313 216 
L 6313 -597 
L 2250 -597 
L 2250 216 
z
M 1788 5316 
L 1788 4456 
Q 2125 4316 2494 4134 
L 2175 3453 
L 1788 3713 
L 1788 -841 
L 950 -841 
L 950 5316 
L 1788 5316 
z
M 269 4103 
L 800 4041 
Q 719 3009 619 2178 
Q 350 2284 106 2316 
Q 225 3284 269 4103 
z
" transform="scale(0.015625)"/>
      <path id="MicrosoftYaHei-Bold-4e9a" d="M 263 5009 
L 6163 5009 
L 6163 4197 
L 4463 4197 
L 4463 1475 
Q 4919 2388 5400 3634 
L 6188 3316 
Q 5613 1959 5088 866 
L 4463 1159 
L 4463 266 
L 6300 266 
L 6300 -547 
L 125 -547 
L 125 266 
L 1963 266 
L 1963 1156 
L 1263 853 
Q 769 2247 288 3322 
L 1031 3641 
Q 1509 2594 1963 1472 
L 1963 4197 
L 263 4197 
L 263 5009 
z
M 2850 266 
L 3575 266 
L 3575 4197 
L 2850 4197 
L 2850 266 
z
" transform="scale(0.015625)"/>
      <path id="MicrosoftYaHei-Bold-7ec4" d="M 244 -559 
L 94 272 
Q 1200 397 2388 566 
Q 2375 384 2369 203 
L 2694 203 
L 2694 3769 
Q 2003 2625 1363 1728 
L 2463 1859 
Q 2406 1409 2394 1109 
Q 788 941 488 834 
L 181 1584 
Q 500 1766 1144 2734 
Q 538 2703 325 2634 
L 75 3366 
Q 413 3578 1231 5366 
L 2025 5059 
Q 1513 4153 1038 3409 
L 1584 3438 
Q 1791 3788 1994 4172 
L 2694 3838 
L 2694 5059 
L 5913 5059 
L 5913 203 
L 6306 203 
L 6306 -603 
L 2256 -603 
L 2256 -263 
L 244 -559 
z
M 5038 4253 
L 3569 4253 
L 3569 3434 
L 5038 3434 
L 5038 4253 
z
M 3569 1828 
L 5038 1828 
L 5038 2647 
L 3569 2647 
L 3569 1828 
z
M 3569 203 
L 5038 203 
L 5038 1041 
L 3569 1041 
L 3569 203 
z
" transform="scale(0.015625)"/>
      <path id="MicrosoftYaHei-Bold-4f" d="M 256 2356 
Q 256 3494 920 4208 
Q 1584 4922 2675 4922 
Q 3713 4922 4345 4231 
Q 4978 3541 4978 2456 
Q 4978 1325 4320 620 
Q 3663 -84 2597 -84 
Q 1556 -84 906 598 
Q 256 1281 256 2356 
z
M 1341 2413 
Q 1341 1706 1681 1257 
Q 2022 809 2616 809 
Q 3222 809 3559 1239 
Q 3897 1669 3897 2394 
Q 3897 3150 3569 3589 
Q 3241 4028 2644 4028 
Q 2038 4028 1689 3578 
Q 1341 3128 1341 2413 
z
" transform="scale(0.015625)"/>
      <path id="MicrosoftYaHei-Bold-53" d="M 338 1219 
Q 922 734 1666 734 
Q 2088 734 2300 879 
Q 2513 1025 2513 1253 
Q 2513 1450 2344 1625 
Q 2175 1800 1453 2100 
Q 319 2581 319 3500 
Q 319 4175 833 4548 
Q 1347 4922 2194 4922 
Q 2903 4922 3384 4738 
L 3384 3769 
Q 2897 4100 2244 4100 
Q 1863 4100 1634 3961 
Q 1406 3822 1406 3588 
Q 1406 3400 1562 3242 
Q 1719 3084 2334 2816 
Q 3056 2506 3326 2162 
Q 3597 1819 3597 1344 
Q 3597 647 3103 281 
Q 2609 -84 1700 -84 
Q 869 -84 338 184 
L 338 1219 
z
" transform="scale(0.015625)"/>
      <path id="MicrosoftYaHei-Bold-4b" d="M 4506 0 
L 3200 0 
L 1734 2116 
Q 1678 2197 1606 2369 
L 1591 2369 
L 1591 0 
L 559 0 
L 559 4841 
L 1591 4841 
L 1591 2553 
L 1606 2553 
Q 1675 2703 1744 2813 
L 3131 4841 
L 4363 4841 
L 2631 2531 
L 4506 0 
z
" transform="scale(0.015625)"/>
      <path id="MicrosoftYaHei-Bold-61" d="M 544 3247 
Q 778 3378 1170 3459 
Q 1563 3541 1841 3541 
Q 3291 3541 3291 2088 
L 3291 0 
L 2331 0 
L 2331 503 
L 2319 503 
Q 1966 -84 1284 -84 
Q 794 -84 498 195 
Q 203 475 203 956 
Q 203 1950 1388 2113 
L 2338 2241 
Q 2338 2844 1709 2844 
Q 1091 2844 544 2469 
L 544 3247 
z
M 1684 1566 
Q 1138 1494 1138 1072 
Q 1138 878 1270 759 
Q 1403 641 1628 641 
Q 1938 641 2138 859 
Q 2338 1078 2338 1403 
L 2338 1650 
L 1684 1566 
z
" transform="scale(0.015625)"/>
      <path id="MicrosoftYaHei-Bold-70" d="M 1469 416 
L 1469 -1591 
L 459 -1591 
L 459 3456 
L 1469 3456 
L 1469 2928 
L 1481 2928 
Q 1878 3541 2603 3541 
Q 3263 3541 3634 3080 
Q 4006 2619 4006 1825 
Q 4006 959 3575 437 
Q 3144 -84 2444 -84 
Q 1809 -84 1481 416 
L 1469 416 
z
M 1453 1528 
Q 1453 1159 1653 925 
Q 1853 691 2172 691 
Q 2550 691 2761 984 
Q 2972 1278 2972 1816 
Q 2972 2766 2231 2766 
Q 1888 2766 1670 2503 
Q 1453 2241 1453 1828 
L 1453 1528 
z
" transform="scale(0.015625)"/>
      <path id="MicrosoftYaHei-Bold-6c" d="M 444 0 
L 444 5116 
L 1450 5116 
L 1450 0 
L 444 0 
z
" transform="scale(0.015625)"/>
      <path id="MicrosoftYaHei-Bold-6e" d="M 3744 0 
L 2741 0 
L 2741 1928 
Q 2741 2766 2138 2766 
Q 1850 2766 1659 2542 
Q 1469 2319 1469 1972 
L 1469 0 
L 459 0 
L 459 3456 
L 1469 3456 
L 1469 2906 
L 1481 2906 
Q 1859 3541 2594 3541 
Q 3744 3541 3744 2116 
L 3744 0 
z
" transform="scale(0.015625)"/>
      <path id="MicrosoftYaHei-Bold-4d" d="M 4991 0 
L 4991 2938 
Q 4991 3344 5031 3959 
L 5006 3959 
Q 4913 3494 4856 3338 
L 3663 0 
L 2841 0 
L 1631 3306 
Q 1588 3425 1478 3959 
L 1450 3959 
Q 1491 3350 1491 2738 
L 1491 0 
L 559 0 
L 559 4841 
L 2059 4841 
L 3103 1916 
Q 3234 1553 3281 1234 
L 3303 1234 
Q 3400 1631 3503 1922 
L 4550 4841 
L 6009 4841 
L 6009 0 
L 4991 0 
z
" transform="scale(0.015625)"/>
      <path id="MicrosoftYaHei-Bold-65" d="M 3528 1444 
L 1253 1444 
Q 1306 641 2222 641 
Q 2794 641 3231 922 
L 3231 181 
Q 2759 -84 1994 -84 
Q 1169 -84 711 381 
Q 253 847 253 1678 
Q 253 2506 740 3023 
Q 1228 3541 1966 3541 
Q 2700 3541 3114 3095 
Q 3528 2650 3528 1872 
L 3528 1444 
z
M 2588 2075 
Q 2588 2850 1959 2850 
Q 1700 2850 1500 2637 
Q 1300 2425 1250 2075 
L 2588 2075 
z
" transform="scale(0.015625)"/>
      <path id="MicrosoftYaHei-Bold-69" d="M 369 4572 
Q 369 4803 533 4948 
Q 697 5094 953 5094 
Q 1216 5094 1378 4945 
Q 1541 4797 1541 4572 
Q 1541 4344 1375 4192 
Q 1209 4041 953 4041 
Q 700 4041 534 4194 
Q 369 4347 369 4572 
z
M 444 0 
L 444 3456 
L 1450 3456 
L 1450 0 
L 444 0 
z
" transform="scale(0.015625)"/>
      <path id="MicrosoftYaHei-Bold-72" d="M 2663 2541 
Q 2478 2647 2216 2647 
Q 1872 2647 1670 2384 
Q 1469 2122 1469 1663 
L 1469 0 
L 459 0 
L 459 3456 
L 1469 3456 
L 1469 2806 
L 1481 2806 
Q 1731 3516 2391 3516 
Q 2569 3516 2663 3475 
L 2663 2541 
z
" transform="scale(0.015625)"/>
      <path id="MicrosoftYaHei-Bold-66f2" d="M 413 -822 
L 413 4466 
L 1988 4466 
L 1988 5328 
L 2825 5328 
L 2825 4466 
L 3575 4466 
L 3575 5328 
L 4413 5328 
L 4413 4466 
L 5988 4466 
L 5988 -822 
L 5163 -822 
L 5163 -428 
L 1238 -428 
L 1238 -822 
L 413 -822 
z
M 5163 3647 
L 4413 3647 
L 4413 2453 
L 5163 2453 
L 5163 3647 
z
M 1238 2453 
L 1988 2453 
L 1988 3647 
L 1238 3647 
L 1238 2453 
z
M 2825 2453 
L 3575 2453 
L 3575 3647 
L 2825 3647 
L 2825 2453 
z
M 1238 391 
L 1988 391 
L 1988 1634 
L 1238 1634 
L 1238 391 
z
M 4413 391 
L 5163 391 
L 5163 1634 
L 4413 1634 
L 4413 391 
z
M 2825 391 
L 3575 391 
L 3575 1634 
L 2825 1634 
L 2825 391 
z
" transform="scale(0.015625)"/>
      <path id="MicrosoftYaHei-Bold-7ebf" d="M 225 -528 
L 63 347 
Q 1188 491 2369 678 
Q 2353 481 2350 256 
Q 3069 481 3691 806 
Q 3550 1250 3466 1859 
L 2413 1734 
L 2306 2491 
L 3384 2619 
L 3347 3244 
L 2525 3159 
L 2488 3494 
Q 1859 2456 1356 1778 
Q 1919 1859 2294 1928 
Q 2263 1672 2231 1147 
Q 888 972 431 847 
L 200 1547 
Q 597 1922 1075 2641 
Q 738 2613 294 2566 
L 63 3278 
Q 581 3916 1194 5322 
L 1988 5009 
Q 1438 4034 1000 3353 
Q 1234 3356 1531 3372 
Q 1700 3663 1881 3991 
L 2466 3716 
L 2444 3922 
L 3303 4006 
L 3250 5303 
L 4094 5303 
Q 4103 4669 4128 4088 
L 5219 4194 
Q 4844 4469 4350 4778 
L 4756 5316 
Q 5263 5041 5769 4716 
L 5388 4213 
L 5988 4272 
L 6063 3522 
L 4169 3328 
L 4216 2716 
L 6156 2947 
L 6238 2197 
L 5484 2106 
L 6038 1666 
Q 5431 1003 4731 509 
Q 4991 100 5203 100 
Q 5316 100 5387 251 
Q 5459 403 5581 1047 
Q 6013 822 6313 684 
Q 6072 -288 5839 -564 
Q 5606 -841 5300 -841 
Q 4503 -841 4006 56 
Q 3259 -353 2419 -597 
Q 2325 -400 2200 -178 
Q 1084 -353 225 -528 
z
M 5413 2097 
L 4309 1963 
Q 4369 1603 4447 1266 
Q 4972 1638 5413 2097 
z
" transform="scale(0.015625)"/>
      <path id="MicrosoftYaHei-Bold-5bf9" d="M 3050 4234 
L 4850 4234 
L 4850 5309 
L 5744 5309 
L 5744 4234 
L 6319 4234 
L 6319 3409 
L 5744 3409 
L 5744 216 
Q 5744 -250 5539 -490 
Q 5334 -731 4987 -754 
Q 4641 -778 3656 -778 
Q 3594 -359 3450 147 
Q 3931 109 4409 109 
Q 4850 109 4850 516 
L 4850 3409 
L 3050 3409 
L 3050 4234 
z
M 863 3772 
L 1691 2509 
Q 1934 3206 2025 4016 
L 188 4016 
L 188 4834 
L 2900 4834 
L 2900 4028 
Q 2709 2722 2247 1669 
L 3169 278 
L 2394 -228 
L 1781 778 
Q 1269 -47 550 -684 
Q 369 -316 88 153 
Q 816 772 1278 1594 
L 181 3341 
L 863 3772 
z
M 3463 3047 
Q 4069 2278 4588 1528 
L 3844 1041 
Q 3375 1841 2813 2609 
L 3463 3047 
z
" transform="scale(0.015625)"/>
      <path id="MicrosoftYaHei-Bold-6bd4" d="M 5481 4441 
L 6294 3803 
Q 5234 2791 4119 1894 
L 4119 547 
Q 4119 153 4438 153 
L 4875 153 
Q 5119 153 5197 325 
Q 5275 497 5363 1597 
Q 5856 1409 6294 1278 
Q 6231 688 6131 248 
Q 6031 -191 5900 -358 
Q 5769 -525 5511 -617 
Q 5253 -709 4881 -709 
L 4094 -709 
Q 3194 -709 3194 247 
L 3194 5316 
L 4119 5316 
L 4119 3009 
Q 4797 3656 5481 4441 
z
M 1419 5241 
L 1419 3453 
L 2850 3453 
L 2850 2591 
L 1419 2591 
L 1419 372 
L 2869 866 
Q 2856 372 2888 -78 
Q 1500 -503 725 -922 
L 275 -184 
Q 494 -16 494 366 
L 494 5241 
L 1419 5241 
z
" transform="scale(0.015625)"/>
     </defs>
     <use xlink:href="#MicrosoftYaHei-Bold-52"/>
     <use xlink:href="#MicrosoftYaHei-Bold-43" transform="translate(68.699219 0)"/>
     <use xlink:href="#MicrosoftYaHei-Bold-54" transform="translate(136.033203 0)"/>
     <use xlink:href="#MicrosoftYaHei-Bold-2d" transform="translate(198.582031 0)"/>
     <use xlink:href="#MicrosoftYaHei-Bold-41" transform="translate(242.234375 0)"/>
     <use xlink:href="#MicrosoftYaHei-Bold-20" transform="translate(317.429688 0)"/>
     <use xlink:href="#MicrosoftYaHei-Bold-76" transform="translate(347.214844 0)"/>
     <use xlink:href="#MicrosoftYaHei-Bold-73" transform="translate(404.929688 0)"/>
     <use xlink:href="#MicrosoftYaHei-Bold-20" transform="translate(454.294922 0)"/>
     <use xlink:href="#MicrosoftYaHei-Bold-91cd" transform="translate(484.080078 0)"/>
     <use xlink:href="#MicrosoftYaHei-Bold-6784" transform="translate(584.080078 0)"/>
     <use xlink:href="#MicrosoftYaHei-Bold-52" transform="translate(684.080078 0)"/>
     <use xlink:href="#MicrosoftYaHei-Bold-43" transform="translate(752.779297 0)"/>
     <use xlink:href="#MicrosoftYaHei-Bold-54" transform="translate(820.113281 0)"/>
     <use xlink:href="#MicrosoftYaHei-Bold-2d" transform="translate(882.662109 0)"/>
     <use xlink:href="#MicrosoftYaHei-Bold-42" transform="translate(926.314453 0)"/>
     <use xlink:href="#MicrosoftYaHei-Bold-20" transform="translate(994.673828 0)"/>
     <use xlink:href="#MicrosoftYaHei-Bold-58" transform="translate(1024.458984 0)"/>
     <use xlink:href="#MicrosoftYaHei-Bold-9634" transform="translate(1094.478516 0)"/>
     <use xlink:href="#MicrosoftYaHei-Bold-6027" transform="translate(1194.478516 0)"/>
     <use xlink:href="#MicrosoftYaHei-Bold-4e9a" transform="translate(1294.478516 0)"/>
     <use xlink:href="#MicrosoftYaHei-Bold-7ec4" transform="translate(1394.478516 0)"/>
     <use xlink:href="#MicrosoftYaHei-Bold-20" transform="translate(1494.478516 0)"/>
     <use xlink:href="#MicrosoftYaHei-Bold-4f" transform="translate(1524.263672 0)"/>
     <use xlink:href="#MicrosoftYaHei-Bold-53" transform="translate(1606.099609 0)"/>
     <use xlink:href="#MicrosoftYaHei-Bold-20" transform="translate(1666.255859 0)"/>
     <use xlink:href="#MicrosoftYaHei-Bold-4b" transform="translate(1696.041016 0)"/>
     <use xlink:href="#MicrosoftYaHei-Bold-61" transform="translate(1765.328125 0)"/>
     <use xlink:href="#MicrosoftYaHei-Bold-70" transform="translate(1823.091797 0)"/>
     <use xlink:href="#MicrosoftYaHei-Bold-6c" transform="translate(1889.693359 0)"/>
     <use xlink:href="#MicrosoftYaHei-Bold-61" transform="translate(1919.283203 0)"/>
     <use xlink:href="#MicrosoftYaHei-Bold-6e" transform="translate(1977.046875 0)"/>
     <use xlink:href="#MicrosoftYaHei-Bold-2d" transform="translate(2041.841797 0)"/>
     <use xlink:href="#MicrosoftYaHei-Bold-4d" transform="translate(2085.494141 0)"/>
     <use xlink:href="#MicrosoftYaHei-Bold-65" transform="translate(2188.326172 0)"/>
     <use xlink:href="#MicrosoftYaHei-Bold-69" transform="translate(2246.529297 0)"/>
     <use xlink:href="#MicrosoftYaHei-Bold-65" transform="translate(2276.119141 0)"/>
     <use xlink:href="#MicrosoftYaHei-Bold-72" transform="translate(2334.322266 0)"/>
     <use xlink:href="#MicrosoftYaHei-Bold-66f2" transform="translate(2376.705078 0)"/>
     <use xlink:href="#MicrosoftYaHei-Bold-7ebf" transform="translate(2476.705078 0)"/>
     <use xlink:href="#MicrosoftYaHei-Bold-5bf9" transform="translate(2576.705078 0)"/>
     <use xlink:href="#MicrosoftYaHei-Bold-6bd4" transform="translate(2676.705078 0)"/>
    </g>
   </g>
   <g id="legend_1">
    <g id="patch_7">
     <path d="M 568.900625 95.274062 
L 698.536562 95.274062 
Q 700.536562 95.274062 700.536562 93.274062 
L 700.536562 31.938125 
Q 700.536562 29.938125 698.536562 29.938125 
L 568.900625 29.938125 
Q 566.900625 29.938125 566.900625 31.938125 
L 566.900625 93.274062 
Q 566.900625 95.274062 568.900625 95.274062 
z
" style="fill: #ffffff; opacity: 0.8; stroke: #cccccc; stroke-linejoin: miter"/>
    </g>
    <g id="line2d_27">
     <path d="M 570.900625 38.431875 
L 580.900625 38.431875 
L 580.900625 38.431875 
L 590.900625 38.431875 
L 590.900625 38.431875 
" style="fill: none; stroke: #1f77b4; stroke-width: 2; stroke-linecap: square"/>
    </g>
    <g id="text_15">
     <!-- RCT-A Drug-A -->
     <g transform="translate(598.900625 41.931875) scale(0.1 -0.1)">
      <defs>
       <path id="MicrosoftYaHei-52" d="M 4159 0 
L 3422 0 
L 2619 1344 
Q 2378 1747 2178 1892 
Q 1978 2038 1700 2038 
L 1250 2038 
L 1250 0 
L 625 0 
L 625 4841 
L 2100 4841 
Q 2806 4841 3206 4500 
Q 3606 4159 3606 3547 
Q 3606 2541 2531 2241 
L 2531 2225 
Q 2731 2141 2876 1984 
Q 3022 1828 3253 1450 
L 4159 0 
z
M 1250 4294 
L 1250 2584 
L 1988 2584 
Q 2416 2584 2683 2834 
Q 2950 3084 2950 3491 
Q 2950 3869 2706 4081 
Q 2463 4294 1997 4294 
L 1250 4294 
z
" transform="scale(0.015625)"/>
       <path id="MicrosoftYaHei-43" d="M 3938 200 
Q 3403 -81 2597 -81 
Q 1556 -81 934 580 
Q 313 1241 313 2328 
Q 313 3497 1013 4209 
Q 1713 4922 2791 4922 
Q 3484 4922 3938 4725 
L 3938 4072 
Q 3419 4359 2797 4359 
Q 1988 4359 1478 3820 
Q 969 3281 969 2366 
Q 969 1497 1444 986 
Q 1919 475 2688 475 
Q 3406 475 3938 800 
L 3938 200 
z
" transform="scale(0.015625)"/>
       <path id="MicrosoftYaHei-54" d="M 3550 4284 
L 2153 4284 
L 2153 0 
L 1525 0 
L 1525 4284 
L 134 4284 
L 134 4841 
L 3550 4841 
L 3550 4284 
z
" transform="scale(0.015625)"/>
       <path id="MicrosoftYaHei-2d" d="M 2328 1681 
L 488 1681 
L 488 2153 
L 2328 2153 
L 2328 1681 
z
" transform="scale(0.015625)"/>
       <path id="MicrosoftYaHei-41" d="M 4428 0 
L 3738 0 
L 3244 1325 
L 1228 1325 
L 763 0 
L 72 0 
L 1916 4841 
L 2584 4841 
L 4428 0 
z
M 3050 1872 
L 2319 3884 
Q 2284 3981 2244 4222 
L 2228 4222 
Q 2194 4003 2150 3884 
L 1425 1872 
L 3050 1872 
z
" transform="scale(0.015625)"/>
       <path id="MicrosoftYaHei-44" d="M 625 0 
L 625 4841 
L 2006 4841 
Q 3106 4841 3836 4200 
Q 4566 3559 4566 2481 
Q 4566 1356 3836 678 
Q 3106 0 1956 0 
L 625 0 
z
M 1250 4284 
L 1250 553 
L 1953 553 
Q 2875 553 3392 1056 
Q 3909 1559 3909 2466 
Q 3909 3372 3378 3828 
Q 2847 4284 1981 4284 
L 1250 4284 
z
" transform="scale(0.015625)"/>
       <path id="MicrosoftYaHei-72" d="M 2400 2850 
Q 2247 2959 1978 2959 
Q 1622 2959 1390 2626 
Q 1159 2294 1159 1750 
L 1159 0 
L 547 0 
L 547 3456 
L 1159 3456 
L 1159 2753 
L 1172 2753 
Q 1434 3516 2078 3516 
Q 2288 3516 2400 3469 
L 2400 2850 
z
" transform="scale(0.015625)"/>
       <path id="MicrosoftYaHei-75" d="M 3400 0 
L 2784 0 
L 2784 544 
L 2772 544 
Q 2425 -81 1706 -81 
Q 478 -81 478 1388 
L 478 3456 
L 1084 3456 
L 1084 1478 
Q 1084 425 1891 425 
Q 2291 425 2537 720 
Q 2784 1016 2784 1466 
L 2784 3456 
L 3400 3456 
L 3400 0 
z
" transform="scale(0.015625)"/>
       <path id="MicrosoftYaHei-67" d="M 3547 291 
Q 3547 -1628 1684 -1628 
Q 1041 -1628 566 -1388 
L 566 -797 
Q 1144 -1119 1675 -1119 
Q 2934 -1119 2934 206 
L 2934 572 
L 2922 572 
Q 2528 -81 1747 -81 
Q 1097 -81 706 384 
Q 316 850 316 1619 
Q 316 2503 747 3020 
Q 1178 3538 1897 3538 
Q 2588 3538 2922 2988 
L 2934 2988 
L 2934 3456 
L 3547 3456 
L 3547 291 
z
M 2934 2056 
Q 2938 2456 2666 2743 
Q 2394 3031 1997 3031 
Q 1497 3031 1219 2664 
Q 941 2297 941 1656 
Q 941 1106 1209 765 
Q 1478 425 1922 425 
Q 2369 425 2653 750 
Q 2938 1075 2934 1575 
L 2934 2056 
z
" transform="scale(0.015625)"/>
      </defs>
      <use xlink:href="#MicrosoftYaHei-52"/>
      <use xlink:href="#MicrosoftYaHei-43" transform="translate(63.783203 0)"/>
      <use xlink:href="#MicrosoftYaHei-54" transform="translate(130.677734 0)"/>
      <use xlink:href="#MicrosoftYaHei-2d" transform="translate(188.001953 0)"/>
      <use xlink:href="#MicrosoftYaHei-41" transform="translate(231.263672 0)"/>
      <use xlink:href="#MicrosoftYaHei-20" transform="translate(301.625 0)"/>
      <use xlink:href="#MicrosoftYaHei-44" transform="translate(331.214844 0)"/>
      <use xlink:href="#MicrosoftYaHei-72" transform="translate(407.386719 0)"/>
      <use xlink:href="#MicrosoftYaHei-75" transform="translate(445.570312 0)"/>
      <use xlink:href="#MicrosoftYaHei-67" transform="translate(507.191406 0)"/>
      <use xlink:href="#MicrosoftYaHei-2d" transform="translate(571.15625 0)"/>
      <use xlink:href="#MicrosoftYaHei-41" transform="translate(614.417969 0)"/>
     </g>
    </g>
    <g id="line2d_28">
     <path d="M 570.900625 53.969375 
L 580.900625 53.969375 
L 580.900625 53.969375 
L 590.900625 53.969375 
L 590.900625 53.969375 
" style="fill: none; stroke: #ff7f0e; stroke-width: 2; stroke-linecap: square"/>
    </g>
    <g id="text_16">
     <!-- RCT-A Control -->
     <g transform="translate(598.900625 57.469375) scale(0.1 -0.1)">
      <defs>
       <path id="MicrosoftYaHei-6f" d="M 316 1691 
Q 316 2547 794 3042 
Q 1272 3538 2091 3538 
Q 2869 3538 3311 3061 
Q 3753 2584 3753 1744 
Q 3753 925 3281 422 
Q 2809 -81 2016 -81 
Q 1241 -81 778 406 
Q 316 894 316 1691 
z
M 941 1709 
Q 941 1113 1242 769 
Q 1544 425 2053 425 
Q 2578 425 2853 761 
Q 3128 1097 3128 1725 
Q 3128 2356 2853 2693 
Q 2578 3031 2053 3031 
Q 1538 3031 1239 2678 
Q 941 2325 941 1709 
z
" transform="scale(0.015625)"/>
       <path id="MicrosoftYaHei-6e" d="M 3469 0 
L 2859 0 
L 2859 1966 
Q 2859 3031 2081 3031 
Q 1678 3031 1418 2731 
Q 1159 2431 1159 1972 
L 1159 0 
L 547 0 
L 547 3456 
L 1159 3456 
L 1159 2884 
L 1172 2884 
Q 1563 3538 2306 3538 
Q 2875 3538 3172 3173 
Q 3469 2809 3469 2113 
L 3469 0 
z
" transform="scale(0.015625)"/>
       <path id="MicrosoftYaHei-74" d="M 2206 34 
Q 2006 -75 1666 -75 
Q 738 -75 738 953 
L 738 2950 
L 144 2950 
L 144 3456 
L 738 3456 
L 738 4288 
L 1347 4481 
L 1347 3456 
L 2206 3456 
L 2206 2950 
L 1347 2950 
L 1347 1063 
Q 1347 722 1462 575 
Q 1578 428 1847 428 
Q 2053 428 2206 544 
L 2206 34 
z
" transform="scale(0.015625)"/>
       <path id="MicrosoftYaHei-6c" d="M 544 0 
L 544 5116 
L 1156 5116 
L 1156 0 
L 544 0 
z
" transform="scale(0.015625)"/>
      </defs>
      <use xlink:href="#MicrosoftYaHei-52"/>
      <use xlink:href="#MicrosoftYaHei-43" transform="translate(63.783203 0)"/>
      <use xlink:href="#MicrosoftYaHei-54" transform="translate(130.677734 0)"/>
      <use xlink:href="#MicrosoftYaHei-2d" transform="translate(188.001953 0)"/>
      <use xlink:href="#MicrosoftYaHei-41" transform="translate(231.263672 0)"/>
      <use xlink:href="#MicrosoftYaHei-20" transform="translate(301.625 0)"/>
      <use xlink:href="#MicrosoftYaHei-43" transform="translate(331.214844 0)"/>
      <use xlink:href="#MicrosoftYaHei-6f" transform="translate(398.109375 0)"/>
      <use xlink:href="#MicrosoftYaHei-6e" transform="translate(461.683594 0)"/>
      <use xlink:href="#MicrosoftYaHei-74" transform="translate(523.304688 0)"/>
      <use xlink:href="#MicrosoftYaHei-72" transform="translate(560.560547 0)"/>
      <use xlink:href="#MicrosoftYaHei-6f" transform="translate(597.369141 0)"/>
      <use xlink:href="#MicrosoftYaHei-6c" transform="translate(660.943359 0)"/>
     </g>
    </g>
    <g id="line2d_29">
     <path d="M 570.900625 69.750625 
L 580.900625 69.750625 
L 580.900625 69.750625 
L 590.900625 69.750625 
L 590.900625 69.750625 
" style="fill: none; stroke-dasharray: 7.4,3.2; stroke-dashoffset: 0; stroke: #2ca02c; stroke-opacity: 0.8; stroke-width: 2"/>
    </g>
    <g id="text_17">
     <!-- RCT-B Drug-B (重构) -->
     <g transform="translate(598.900625 73.250625) scale(0.1 -0.1)">
      <defs>
       <path id="MicrosoftYaHei-42" d="M 625 0 
L 625 4841 
L 2047 4841 
Q 2684 4841 3065 4536 
Q 3447 4231 3447 3728 
Q 3447 3328 3220 3022 
Q 2994 2716 2597 2588 
L 2597 2575 
Q 3091 2519 3386 2201 
Q 3681 1884 3681 1397 
Q 3681 772 3232 386 
Q 2784 0 2084 0 
L 625 0 
z
M 1250 4294 
L 1250 2778 
L 1819 2778 
Q 2272 2778 2530 2998 
Q 2788 3219 2788 3609 
Q 2788 4294 1875 4294 
L 1250 4294 
z
M 1250 2234 
L 1250 547 
L 2000 547 
Q 2491 547 2758 773 
Q 3025 1000 3025 1403 
Q 3025 2234 1897 2234 
L 1250 2234 
z
" transform="scale(0.015625)"/>
       <path id="MicrosoftYaHei-91cd" d="M 113 -203 
L 2975 -203 
L 2975 259 
L 600 259 
L 600 628 
L 2975 628 
L 2975 1153 
L 1288 1153 
L 1288 928 
L 850 928 
L 850 3278 
L 2975 3278 
L 2975 3728 
L 163 3728 
L 163 4116 
L 2975 4116 
L 2975 4606 
Q 1841 4572 625 4547 
Q 588 4747 538 4972 
Q 3706 5009 5669 5141 
L 5744 4716 
Q 4631 4663 3425 4619 
L 3425 4116 
L 6263 4116 
L 6263 3728 
L 3425 3728 
L 3425 3278 
L 5569 3278 
L 5569 934 
L 5131 934 
L 5131 1153 
L 3425 1153 
L 3425 628 
L 5806 628 
L 5806 259 
L 3425 259 
L 3425 -203 
L 6263 -203 
L 6263 -591 
L 113 -591 
L 113 -203 
z
M 3425 1516 
L 5131 1516 
L 5131 2053 
L 3425 2053 
L 3425 1516 
z
M 1288 1516 
L 2975 1516 
L 2975 2053 
L 1288 2053 
L 1288 1516 
z
M 5131 2916 
L 3425 2916 
L 3425 2384 
L 5131 2384 
L 5131 2916 
z
M 1288 2384 
L 2975 2384 
L 2975 2916 
L 1288 2916 
L 1288 2384 
z
" transform="scale(0.015625)"/>
       <path id="MicrosoftYaHei-6784" d="M 2138 3059 
Q 2838 4047 3256 5309 
L 3738 5153 
Q 3556 4722 3388 4347 
L 6081 4347 
Q 5994 1153 5956 397 
Q 5925 -259 5656 -503 
Q 5400 -747 4731 -747 
Q 4238 -747 3700 -716 
Q 3663 -466 3594 -166 
Q 4213 -234 4713 -247 
Q 5144 -253 5294 -97 
Q 5450 34 5469 472 
Q 5513 1316 5575 3891 
L 3169 3891 
Q 2838 3241 2525 2797 
Q 2369 2916 2138 3059 
z
M 81 1359 
Q 731 2372 1000 3578 
L 125 3578 
L 125 3997 
L 1006 3997 
L 1006 5234 
L 1438 5234 
L 1438 3997 
L 2250 3997 
L 2250 3578 
L 1438 3578 
L 1438 2734 
L 1613 2916 
Q 2038 2528 2494 2091 
L 2163 1747 
Q 1775 2191 1438 2516 
L 1438 -834 
L 1006 -834 
L 1006 2384 
Q 700 1409 281 809 
Q 200 1078 81 1359 
z
M 3925 2253 
L 4306 2453 
Q 4763 1666 5250 734 
L 4806 497 
Q 4731 666 4650 834 
Q 3838 784 3050 722 
Q 2856 703 2500 628 
L 2288 1078 
Q 2488 1216 2625 1416 
Q 3138 2222 3638 3397 
L 4106 3203 
Q 3738 2391 2981 1172 
Q 3881 1197 4463 1222 
Q 4213 1741 3925 2253 
z
" transform="scale(0.015625)"/>
      </defs>
      <use xlink:href="#MicrosoftYaHei-52"/>
      <use xlink:href="#MicrosoftYaHei-43" transform="translate(63.783203 0)"/>
      <use xlink:href="#MicrosoftYaHei-54" transform="translate(130.677734 0)"/>
      <use xlink:href="#MicrosoftYaHei-2d" transform="translate(188.001953 0)"/>
      <use xlink:href="#MicrosoftYaHei-42" transform="translate(231.263672 0)"/>
      <use xlink:href="#MicrosoftYaHei-20" transform="translate(294.007812 0)"/>
      <use xlink:href="#MicrosoftYaHei-44" transform="translate(323.597656 0)"/>
      <use xlink:href="#MicrosoftYaHei-72" transform="translate(399.769531 0)"/>
      <use xlink:href="#MicrosoftYaHei-75" transform="translate(437.953125 0)"/>
      <use xlink:href="#MicrosoftYaHei-67" transform="translate(499.574219 0)"/>
      <use xlink:href="#MicrosoftYaHei-2d" transform="translate(563.539062 0)"/>
      <use xlink:href="#MicrosoftYaHei-42" transform="translate(606.800781 0)"/>
      <use xlink:href="#MicrosoftYaHei-20" transform="translate(669.544922 0)"/>
      <use xlink:href="#MicrosoftYaHei-28" transform="translate(699.134766 0)"/>
      <use xlink:href="#MicrosoftYaHei-91cd" transform="translate(732.533203 0)"/>
      <use xlink:href="#MicrosoftYaHei-6784" transform="translate(832.533203 0)"/>
      <use xlink:href="#MicrosoftYaHei-29" transform="translate(932.533203 0)"/>
     </g>
    </g>
    <g id="line2d_30">
     <path d="M 570.900625 85.288125 
L 580.900625 85.288125 
L 580.900625 85.288125 
L 590.900625 85.288125 
L 590.900625 85.288125 
" style="fill: none; stroke-dasharray: 7.4,3.2; stroke-dashoffset: 0; stroke: #d62728; stroke-opacity: 0.8; stroke-width: 2"/>
    </g>
    <g id="text_18">
     <!-- RCT-B Control (重构) -->
     <g transform="translate(598.900625 88.788125) scale(0.1 -0.1)">
      <use xlink:href="#MicrosoftYaHei-52"/>
      <use xlink:href="#MicrosoftYaHei-43" transform="translate(63.783203 0)"/>
      <use xlink:href="#MicrosoftYaHei-54" transform="translate(130.677734 0)"/>
      <use xlink:href="#MicrosoftYaHei-2d" transform="translate(188.001953 0)"/>
      <use xlink:href="#MicrosoftYaHei-42" transform="translate(231.263672 0)"/>
      <use xlink:href="#MicrosoftYaHei-20" transform="translate(294.007812 0)"/>
      <use xlink:href="#MicrosoftYaHei-43" transform="translate(323.597656 0)"/>
      <use xlink:href="#MicrosoftYaHei-6f" transform="translate(390.492188 0)"/>
      <use xlink:href="#MicrosoftYaHei-6e" transform="translate(454.066406 0)"/>
      <use xlink:href="#MicrosoftYaHei-74" transform="translate(515.6875 0)"/>
      <use xlink:href="#MicrosoftYaHei-72" transform="translate(552.943359 0)"/>
      <use xlink:href="#MicrosoftYaHei-6f" transform="translate(589.751953 0)"/>
      <use xlink:href="#MicrosoftYaHei-6c" transform="translate(653.326172 0)"/>
      <use xlink:href="#MicrosoftYaHei-20" transform="translate(679.9375 0)"/>
      <use xlink:href="#MicrosoftYaHei-28" transform="translate(709.527344 0)"/>
      <use xlink:href="#MicrosoftYaHei-91cd" transform="translate(742.925781 0)"/>
      <use xlink:href="#MicrosoftYaHei-6784" transform="translate(842.925781 0)"/>
      <use xlink:href="#MicrosoftYaHei-29" transform="translate(942.925781 0)"/>
     </g>
    </g>
   </g>
  </g>
 </g>
 <defs>
  <clipPath id="p70ac9f7f69">
   <rect x="44.911563" y="24.938125" width="660.625" height="430.515625"/>
  </clipPath>
 </defs>
</svg>
