<?xml version="1.0" encoding="utf-8" standalone="no"?>
<!DOCTYPE svg PUBLIC "-//W3C//DTD SVG 1.1//EN"
  "http://www.w3.org/Graphics/SVG/1.1/DTD/svg11.dtd">
<svg xmlns:xlink="http://www.w3.org/1999/xlink" width="856.7575pt" height="568.739688pt" viewBox="0 0 856.7575 568.739688" xmlns="http://www.w3.org/2000/svg" version="1.1">
 <metadata>
  <rdf:RDF xmlns:dc="http://purl.org/dc/elements/1.1/" xmlns:cc="http://creativecommons.org/ns#" xmlns:rdf="http://www.w3.org/1999/02/22-rdf-syntax-ns#">
   <cc:Work>
    <dc:type rdf:resource="http://purl.org/dc/dcmitype/StillImage"/>
    <dc:date>2025-09-30T00:10:54.744328</dc:date>
    <dc:format>image/svg+xml</dc:format>
    <dc:creator>
     <cc:Agent>
      <dc:title>Matplotlib v3.10.5, https://matplotlib.org/</dc:title>
     </cc:Agent>
    </dc:creator>
   </cc:Work>
  </rdf:RDF>
 </metadata>
 <defs>
  <style type="text/css">*{stroke-linejoin: round; stroke-linecap: butt}</style>
 </defs>
 <g id="figure_1">
  <g id="patch_1">
   <path d="M 0 568.739688 
L 856.7575 568.739688 
L 856.7575 0 
L 0 0 
z
" style="fill: #ffffff"/>
  </g>
  <g id="axes_1">
   <g id="patch_2">
    <path d="M 146.102031 526.436406 
L 842.489531 526.436406 
L 842.489531 57.936406 
L 146.102031 57.936406 
z
" style="fill: #ffffff"/>
   </g>
   <g id="PathCollection_1">
    <defs>
     <path id="C0_0_013239fdfc" d="M 0 5.477226 
C 1.452577 5.477226 2.845856 4.900111 3.872983 3.872983 
C 4.900111 2.845856 5.477226 1.452577 5.477226 -0 
C 5.477226 -1.452577 4.900111 -2.845856 3.872983 -3.872983 
C 2.845856 -4.900111 1.452577 -5.477226 0 -5.477226 
C -1.452577 -5.477226 -2.845856 -4.900111 -3.872983 -3.872983 
C -4.900111 -2.845856 -5.477226 -1.452577 -5.477226 0 
C -5.477226 1.452577 -4.900111 2.845856 -3.872983 3.872983 
C -2.845856 4.900111 -1.452577 5.477226 0 5.477226 
z
"/>
    </defs>
    <g clip-path="url(#p4925c939e8)">
     <use xlink:href="#C0_0_013239fdfc" x="369.12444" y="485.781448" style="fill: #0000ff; fill-opacity: 0.8; stroke: #000000; stroke-opacity: 0.8"/>
    </g>
    <g clip-path="url(#p4925c939e8)">
     <use xlink:href="#C0_0_013239fdfc" x="409.181753" y="292.186406" style="fill: #008000; fill-opacity: 0.8; stroke: #000000; stroke-opacity: 0.8"/>
    </g>
    <g clip-path="url(#p4925c939e8)">
     <use xlink:href="#C0_0_013239fdfc" x="474.076162" y="98.591365" style="fill: #ff0000; fill-opacity: 0.8; stroke: #000000; stroke-opacity: 0.8"/>
    </g>
   </g>
   <g id="matplotlib.axis_1">
    <g id="xtick_1">
     <g id="line2d_1">
      <path d="M 146.102031 526.436406 
L 146.102031 57.936406 
" clip-path="url(#p4925c939e8)" style="fill: none; stroke: #b0b0b0; stroke-opacity: 0.3; stroke-width: 0.8; stroke-linecap: square"/>
     </g>
     <g id="line2d_2">
      <defs>
       <path id="med32997493" d="M 0 0 
L 0 3.5 
" style="stroke: #000000; stroke-width: 0.8"/>
      </defs>
      <g>
       <use xlink:href="#med32997493" x="146.102031" y="526.436406" style="stroke: #000000; stroke-width: 0.8"/>
      </g>
     </g>
     <g id="text_1">
      <!-- 0.0 -->
      <g transform="translate(139.034062 541.430156) scale(0.1 -0.1)">
       <defs>
        <path id="MicrosoftYaHei-30" d="M 284 2325 
Q 284 3606 709 4264 
Q 1134 4922 1941 4922 
Q 3478 4922 3478 2441 
Q 3478 1216 3045 567 
Q 2613 -81 1831 -81 
Q 1094 -81 689 534 
Q 284 1150 284 2325 
z
M 909 2353 
Q 909 425 1888 425 
Q 2850 425 2850 2384 
Q 2850 4413 1906 4413 
Q 909 4413 909 2353 
z
" transform="scale(0.015625)"/>
        <path id="MicrosoftYaHei-2e" d="M 372 322 
Q 372 491 487 606 
Q 603 722 775 722 
Q 950 722 1065 605 
Q 1181 488 1181 322 
Q 1181 159 1065 42 
Q 950 -75 772 -75 
Q 600 -75 486 42 
Q 372 159 372 322 
z
" transform="scale(0.015625)"/>
       </defs>
       <use xlink:href="#MicrosoftYaHei-30"/>
       <use xlink:href="#MicrosoftYaHei-2e" transform="translate(58.642578 0)"/>
       <use xlink:href="#MicrosoftYaHei-30" transform="translate(82.714844 0)"/>
      </g>
     </g>
    </g>
    <g id="xtick_2">
     <g id="line2d_3">
      <path d="M 223.47842 526.436406 
L 223.47842 57.936406 
" clip-path="url(#p4925c939e8)" style="fill: none; stroke: #b0b0b0; stroke-opacity: 0.3; stroke-width: 0.8; stroke-linecap: square"/>
     </g>
     <g id="line2d_4">
      <g>
       <use xlink:href="#med32997493" x="223.47842" y="526.436406" style="stroke: #000000; stroke-width: 0.8"/>
      </g>
     </g>
     <g id="text_2">
      <!-- 0.2 -->
      <g transform="translate(216.410451 541.430156) scale(0.1 -0.1)">
       <defs>
        <path id="MicrosoftYaHei-32" d="M 2666 3572 
Q 2666 3963 2419 4186 
Q 2172 4409 1747 4409 
Q 1447 4409 1140 4256 
Q 834 4103 569 3819 
L 569 4413 
Q 806 4659 1107 4790 
Q 1409 4922 1816 4922 
Q 2472 4922 2872 4570 
Q 3272 4219 3272 3619 
Q 3272 3084 3026 2693 
Q 2781 2303 2188 1894 
Q 1581 1475 1376 1294 
Q 1172 1113 1090 947 
Q 1009 781 1009 544 
L 3416 544 
L 3416 0 
L 372 0 
L 372 241 
Q 372 659 486 951 
Q 600 1244 862 1520 
Q 1125 1797 1681 2184 
Q 2250 2584 2458 2886 
Q 2666 3188 2666 3572 
z
" transform="scale(0.015625)"/>
       </defs>
       <use xlink:href="#MicrosoftYaHei-30"/>
       <use xlink:href="#MicrosoftYaHei-2e" transform="translate(58.642578 0)"/>
       <use xlink:href="#MicrosoftYaHei-32" transform="translate(82.714844 0)"/>
      </g>
     </g>
    </g>
    <g id="xtick_3">
     <g id="line2d_5">
      <path d="M 300.854809 526.436406 
L 300.854809 57.936406 
" clip-path="url(#p4925c939e8)" style="fill: none; stroke: #b0b0b0; stroke-opacity: 0.3; stroke-width: 0.8; stroke-linecap: square"/>
     </g>
     <g id="line2d_6">
      <g>
       <use xlink:href="#med32997493" x="300.854809" y="526.436406" style="stroke: #000000; stroke-width: 0.8"/>
      </g>
     </g>
     <g id="text_3">
      <!-- 0.4 -->
      <g transform="translate(293.78684 541.430156) scale(0.1 -0.1)">
       <defs>
        <path id="MicrosoftYaHei-34" d="M 2906 4841 
L 2906 1644 
L 3631 1644 
L 3631 1138 
L 2906 1138 
L 2906 0 
L 2313 0 
L 2313 1138 
L 53 1138 
L 53 1616 
Q 656 2294 1265 3178 
Q 1875 4063 2272 4841 
L 2906 4841 
z
M 741 1644 
L 2313 1644 
L 2313 3950 
Q 1988 3366 1616 2817 
Q 1244 2269 741 1644 
z
" transform="scale(0.015625)"/>
       </defs>
       <use xlink:href="#MicrosoftYaHei-30"/>
       <use xlink:href="#MicrosoftYaHei-2e" transform="translate(58.642578 0)"/>
       <use xlink:href="#MicrosoftYaHei-34" transform="translate(82.714844 0)"/>
      </g>
     </g>
    </g>
    <g id="xtick_4">
     <g id="line2d_7">
      <path d="M 378.231198 526.436406 
L 378.231198 57.936406 
" clip-path="url(#p4925c939e8)" style="fill: none; stroke: #b0b0b0; stroke-opacity: 0.3; stroke-width: 0.8; stroke-linecap: square"/>
     </g>
     <g id="line2d_8">
      <g>
       <use xlink:href="#med32997493" x="378.231198" y="526.436406" style="stroke: #000000; stroke-width: 0.8"/>
      </g>
     </g>
     <g id="text_4">
      <!-- 0.6 -->
      <g transform="translate(371.163229 541.430156) scale(0.1 -0.1)">
       <defs>
        <path id="MicrosoftYaHei-36" d="M 3181 4219 
Q 2803 4413 2391 4413 
Q 1763 4413 1381 3866 
Q 1000 3319 994 2372 
L 1009 2372 
Q 1353 3038 2106 3038 
Q 2734 3038 3109 2628 
Q 3484 2219 3484 1541 
Q 3484 831 3051 375 
Q 2619 -81 1947 -81 
Q 1209 -81 789 495 
Q 369 1072 369 2131 
Q 369 3413 920 4167 
Q 1472 4922 2372 4922 
Q 2888 4922 3181 4781 
L 3181 4219 
z
M 1031 1584 
Q 1031 1106 1286 765 
Q 1541 425 1963 425 
Q 2363 425 2613 719 
Q 2863 1013 2863 1475 
Q 2863 1975 2627 2253 
Q 2391 2531 1956 2531 
Q 1544 2531 1287 2250 
Q 1031 1969 1031 1584 
z
" transform="scale(0.015625)"/>
       </defs>
       <use xlink:href="#MicrosoftYaHei-30"/>
       <use xlink:href="#MicrosoftYaHei-2e" transform="translate(58.642578 0)"/>
       <use xlink:href="#MicrosoftYaHei-36" transform="translate(82.714844 0)"/>
      </g>
     </g>
    </g>
    <g id="xtick_5">
     <g id="line2d_9">
      <path d="M 455.607587 526.436406 
L 455.607587 57.936406 
" clip-path="url(#p4925c939e8)" style="fill: none; stroke: #b0b0b0; stroke-opacity: 0.3; stroke-width: 0.8; stroke-linecap: square"/>
     </g>
     <g id="line2d_10">
      <g>
       <use xlink:href="#med32997493" x="455.607587" y="526.436406" style="stroke: #000000; stroke-width: 0.8"/>
      </g>
     </g>
     <g id="text_5">
      <!-- 0.8 -->
      <g transform="translate(448.539618 541.430156) scale(0.1 -0.1)">
       <defs>
        <path id="MicrosoftYaHei-38" d="M 306 1350 
Q 306 1769 556 2122 
Q 806 2475 1200 2625 
Q 884 2803 700 3081 
Q 516 3359 516 3684 
Q 516 4028 692 4312 
Q 869 4597 1183 4759 
Q 1497 4922 1875 4922 
Q 2256 4922 2572 4761 
Q 2888 4600 3063 4315 
Q 3238 4031 3238 3684 
Q 3238 3366 3058 3086 
Q 2878 2806 2559 2625 
Q 2953 2472 3200 2119 
Q 3447 1766 3447 1350 
Q 3447 938 3250 611 
Q 3053 284 2690 103 
Q 2328 -78 1875 -78 
Q 1425 -78 1065 103 
Q 706 284 506 612 
Q 306 941 306 1350 
z
M 906 1378 
Q 906 947 1172 687 
Q 1438 428 1878 428 
Q 2309 428 2582 692 
Q 2856 956 2856 1378 
Q 2856 1778 2579 2051 
Q 2303 2325 1878 2325 
Q 1456 2325 1181 2058 
Q 906 1791 906 1378 
z
M 1081 3634 
Q 1081 3309 1312 3076 
Q 1544 2844 1878 2844 
Q 2206 2844 2445 3078 
Q 2684 3313 2684 3634 
Q 2684 3963 2454 4191 
Q 2225 4419 1878 4419 
Q 1534 4419 1307 4195 
Q 1081 3972 1081 3634 
z
" transform="scale(0.015625)"/>
       </defs>
       <use xlink:href="#MicrosoftYaHei-30"/>
       <use xlink:href="#MicrosoftYaHei-2e" transform="translate(58.642578 0)"/>
       <use xlink:href="#MicrosoftYaHei-38" transform="translate(82.714844 0)"/>
      </g>
     </g>
    </g>
    <g id="xtick_6">
     <g id="line2d_11">
      <path d="M 532.983976 526.436406 
L 532.983976 57.936406 
" clip-path="url(#p4925c939e8)" style="fill: none; stroke: #b0b0b0; stroke-opacity: 0.3; stroke-width: 0.8; stroke-linecap: square"/>
     </g>
     <g id="line2d_12">
      <g>
       <use xlink:href="#med32997493" x="532.983976" y="526.436406" style="stroke: #000000; stroke-width: 0.8"/>
      </g>
     </g>
     <g id="text_6">
      <!-- 1.0 -->
      <g transform="translate(525.916007 541.430156) scale(0.1 -0.1)">
       <defs>
        <path id="MicrosoftYaHei-31" d="M 1781 0 
L 1781 4141 
Q 1638 3997 1295 3819 
Q 953 3641 663 3569 
L 663 4169 
Q 1047 4275 1484 4508 
Q 1922 4741 2156 4947 
L 2388 4947 
L 2388 0 
L 1781 0 
z
" transform="scale(0.015625)"/>
       </defs>
       <use xlink:href="#MicrosoftYaHei-31"/>
       <use xlink:href="#MicrosoftYaHei-2e" transform="translate(58.642578 0)"/>
       <use xlink:href="#MicrosoftYaHei-30" transform="translate(82.714844 0)"/>
      </g>
     </g>
    </g>
    <g id="xtick_7">
     <g id="line2d_13">
      <path d="M 610.360365 526.436406 
L 610.360365 57.936406 
" clip-path="url(#p4925c939e8)" style="fill: none; stroke: #b0b0b0; stroke-opacity: 0.3; stroke-width: 0.8; stroke-linecap: square"/>
     </g>
     <g id="line2d_14">
      <g>
       <use xlink:href="#med32997493" x="610.360365" y="526.436406" style="stroke: #000000; stroke-width: 0.8"/>
      </g>
     </g>
     <g id="text_7">
      <!-- 1.2 -->
      <g transform="translate(603.292396 541.430156) scale(0.1 -0.1)">
       <use xlink:href="#MicrosoftYaHei-31"/>
       <use xlink:href="#MicrosoftYaHei-2e" transform="translate(58.642578 0)"/>
       <use xlink:href="#MicrosoftYaHei-32" transform="translate(82.714844 0)"/>
      </g>
     </g>
    </g>
    <g id="xtick_8">
     <g id="line2d_15">
      <path d="M 687.736753 526.436406 
L 687.736753 57.936406 
" clip-path="url(#p4925c939e8)" style="fill: none; stroke: #b0b0b0; stroke-opacity: 0.3; stroke-width: 0.8; stroke-linecap: square"/>
     </g>
     <g id="line2d_16">
      <g>
       <use xlink:href="#med32997493" x="687.736753" y="526.436406" style="stroke: #000000; stroke-width: 0.8"/>
      </g>
     </g>
     <g id="text_8">
      <!-- 1.4 -->
      <g transform="translate(680.668785 541.430156) scale(0.1 -0.1)">
       <use xlink:href="#MicrosoftYaHei-31"/>
       <use xlink:href="#MicrosoftYaHei-2e" transform="translate(58.642578 0)"/>
       <use xlink:href="#MicrosoftYaHei-34" transform="translate(82.714844 0)"/>
      </g>
     </g>
    </g>
    <g id="xtick_9">
     <g id="line2d_17">
      <path d="M 765.113142 526.436406 
L 765.113142 57.936406 
" clip-path="url(#p4925c939e8)" style="fill: none; stroke: #b0b0b0; stroke-opacity: 0.3; stroke-width: 0.8; stroke-linecap: square"/>
     </g>
     <g id="line2d_18">
      <g>
       <use xlink:href="#med32997493" x="765.113142" y="526.436406" style="stroke: #000000; stroke-width: 0.8"/>
      </g>
     </g>
     <g id="text_9">
      <!-- 1.6 -->
      <g transform="translate(758.045174 541.430156) scale(0.1 -0.1)">
       <use xlink:href="#MicrosoftYaHei-31"/>
       <use xlink:href="#MicrosoftYaHei-2e" transform="translate(58.642578 0)"/>
       <use xlink:href="#MicrosoftYaHei-36" transform="translate(82.714844 0)"/>
      </g>
     </g>
    </g>
    <g id="xtick_10">
     <g id="line2d_19">
      <path d="M 842.489531 526.436406 
L 842.489531 57.936406 
" clip-path="url(#p4925c939e8)" style="fill: none; stroke: #b0b0b0; stroke-opacity: 0.3; stroke-width: 0.8; stroke-linecap: square"/>
     </g>
     <g id="line2d_20">
      <g>
       <use xlink:href="#med32997493" x="842.489531" y="526.436406" style="stroke: #000000; stroke-width: 0.8"/>
      </g>
     </g>
     <g id="text_10">
      <!-- 1.8 -->
      <g transform="translate(835.421563 541.430156) scale(0.1 -0.1)">
       <use xlink:href="#MicrosoftYaHei-31"/>
       <use xlink:href="#MicrosoftYaHei-2e" transform="translate(58.642578 0)"/>
       <use xlink:href="#MicrosoftYaHei-38" transform="translate(82.714844 0)"/>
      </g>
     </g>
    </g>
    <g id="text_11">
     <!-- 风险比 (HR) -->
     <g transform="translate(457.917109 558.307969) scale(0.13 -0.13)">
      <defs>
       <path id="MicrosoftYaHei-Bold-98ce" d="M 5594 128 
Q 5647 128 5678 165 
Q 5709 203 5750 472 
Q 5791 741 5831 1309 
Q 6125 1159 6381 1059 
Q 6284 -175 6095 -501 
Q 5906 -828 5544 -828 
Q 5053 -828 4803 -306 
Q 4553 216 4563 2466 
L 4563 4191 
L 1500 4191 
L 1500 2591 
Q 1500 1394 1331 615 
Q 1163 -163 663 -928 
Q 369 -572 25 -197 
Q 419 384 537 1001 
Q 656 1619 650 2953 
L 650 5041 
L 5413 5041 
L 5413 2372 
Q 5413 1013 5434 575 
Q 5456 138 5594 128 
z
M 2181 3841 
Q 2659 3225 3078 2659 
Q 3488 3294 3788 3953 
L 4531 3541 
Q 4128 2719 3606 1941 
Q 4178 1147 4625 459 
L 3913 -97 
Q 3509 550 3072 1197 
Q 2566 538 1969 -84 
Q 1650 272 1350 572 
Q 2028 1234 2563 1931 
Q 2059 2650 1513 3366 
L 2181 3841 
z
" transform="scale(0.015625)"/>
       <path id="MicrosoftYaHei-Bold-9669" d="M 1819 2728 
Q 2325 2122 2325 1291 
Q 2325 766 2081 522 
Q 1831 272 1219 272 
Q 1181 659 1069 1141 
Q 1213 1109 1306 1109 
Q 1563 1109 1563 1497 
Q 1563 2109 1088 2659 
Q 1344 3472 1531 4316 
L 1063 4316 
L 1063 -841 
L 331 -841 
L 331 5034 
L 2356 5034 
L 2356 4441 
Q 2081 3491 1819 2728 
z
M 5438 2653 
L 2925 2653 
L 2925 2959 
Q 2719 2784 2494 2616 
Q 2306 3009 2063 3409 
Q 3106 4128 3863 5303 
L 4775 5303 
L 4663 5097 
Q 5406 3997 6350 3484 
Q 6144 3147 5894 2703 
Q 5656 2853 5438 3028 
L 5438 2653 
z
M 2175 122 
L 4550 122 
Q 4938 1247 5150 2316 
L 5981 2116 
Q 5681 1116 5344 122 
L 6175 122 
L 6175 -641 
L 2175 -641 
L 2175 122 
z
M 3125 2234 
Q 3363 1453 3613 484 
L 2875 272 
Q 2681 1172 2419 2041 
L 3125 2234 
z
M 4288 2441 
Q 4519 1528 4688 759 
L 3956 591 
Q 3800 1441 3581 2284 
L 4288 2441 
z
M 4225 4409 
Q 3825 3866 3394 3403 
L 5025 3403 
Q 4569 3872 4225 4409 
z
" transform="scale(0.015625)"/>
       <path id="MicrosoftYaHei-Bold-6bd4" d="M 5481 4441 
L 6294 3803 
Q 5234 2791 4119 1894 
L 4119 547 
Q 4119 153 4438 153 
L 4875 153 
Q 5119 153 5197 325 
Q 5275 497 5363 1597 
Q 5856 1409 6294 1278 
Q 6231 688 6131 248 
Q 6031 -191 5900 -358 
Q 5769 -525 5511 -617 
Q 5253 -709 4881 -709 
L 4094 -709 
Q 3194 -709 3194 247 
L 3194 5316 
L 4119 5316 
L 4119 3009 
Q 4797 3656 5481 4441 
z
M 1419 5241 
L 1419 3453 
L 2850 3453 
L 2850 2591 
L 1419 2591 
L 1419 372 
L 2869 866 
Q 2856 372 2888 -78 
Q 1500 -503 725 -922 
L 275 -184 
Q 494 -16 494 366 
L 494 5241 
L 1419 5241 
z
" transform="scale(0.015625)"/>
       <path id="MicrosoftYaHei-Bold-20" transform="scale(0.015625)"/>
       <path id="MicrosoftYaHei-Bold-28" d="M 1606 -1100 
Q 525 97 525 1853 
Q 525 3550 1606 4841 
L 2431 4841 
Q 1406 3497 1406 1853 
Q 1406 216 2438 -1100 
L 1606 -1100 
z
" transform="scale(0.015625)"/>
       <path id="MicrosoftYaHei-Bold-48" d="M 4684 0 
L 3653 0 
L 3653 1997 
L 1591 1997 
L 1591 0 
L 559 0 
L 559 4841 
L 1591 4841 
L 1591 2888 
L 3653 2888 
L 3653 4841 
L 4684 4841 
L 4684 0 
z
" transform="scale(0.015625)"/>
       <path id="MicrosoftYaHei-Bold-52" d="M 4553 0 
L 3366 0 
L 2606 1259 
Q 2372 1650 2222 1762 
Q 2072 1875 1903 1875 
L 1591 1875 
L 1591 0 
L 559 0 
L 559 4841 
L 2256 4841 
Q 3984 4841 3984 3528 
Q 3984 3034 3695 2681 
Q 3406 2328 2900 2184 
L 2900 2172 
Q 3234 2059 3641 1434 
L 4553 0 
z
M 1591 4056 
L 1591 2663 
L 2097 2663 
Q 2459 2663 2679 2873 
Q 2900 3084 2900 3400 
Q 2900 4056 2116 4056 
L 1591 4056 
z
" transform="scale(0.015625)"/>
       <path id="MicrosoftYaHei-Bold-29" d="M 59 -1100 
Q 1097 216 1097 1853 
Q 1097 3484 59 4841 
L 888 4841 
Q 1978 3544 1978 1853 
Q 1978 113 881 -1100 
L 59 -1100 
z
" transform="scale(0.015625)"/>
      </defs>
      <use xlink:href="#MicrosoftYaHei-Bold-98ce"/>
      <use xlink:href="#MicrosoftYaHei-Bold-9669" transform="translate(100 0)"/>
      <use xlink:href="#MicrosoftYaHei-Bold-6bd4" transform="translate(200 0)"/>
      <use xlink:href="#MicrosoftYaHei-Bold-20" transform="translate(300 0)"/>
      <use xlink:href="#MicrosoftYaHei-Bold-28" transform="translate(329.785156 0)"/>
      <use xlink:href="#MicrosoftYaHei-Bold-48" transform="translate(368.75 0)"/>
      <use xlink:href="#MicrosoftYaHei-Bold-52" transform="translate(450.878906 0)"/>
      <use xlink:href="#MicrosoftYaHei-Bold-29" transform="translate(520.703125 0)"/>
     </g>
    </g>
   </g>
   <g id="matplotlib.axis_2">
    <g id="ytick_1">
     <g id="line2d_21">
      <path d="M 146.102031 485.781448 
L 842.489531 485.781448 
" clip-path="url(#p4925c939e8)" style="fill: none; stroke: #b0b0b0; stroke-opacity: 0.3; stroke-width: 0.8; stroke-linecap: square"/>
     </g>
     <g id="line2d_22">
      <defs>
       <path id="m48d0b5f912" d="M 0 0 
L -3.5 0 
" style="stroke: #000000; stroke-width: 0.8"/>
      </defs>
      <g>
       <use xlink:href="#m48d0b5f912" x="146.102031" y="485.781448" style="stroke: #000000; stroke-width: 0.8"/>
      </g>
     </g>
     <g id="text_12">
      <!-- RCT-A Drug-A vs Control -->
      <g transform="translate(7.2 484.382385) scale(0.11 -0.11)">
       <defs>
        <path id="MicrosoftYaHei-52" d="M 4159 0 
L 3422 0 
L 2619 1344 
Q 2378 1747 2178 1892 
Q 1978 2038 1700 2038 
L 1250 2038 
L 1250 0 
L 625 0 
L 625 4841 
L 2100 4841 
Q 2806 4841 3206 4500 
Q 3606 4159 3606 3547 
Q 3606 2541 2531 2241 
L 2531 2225 
Q 2731 2141 2876 1984 
Q 3022 1828 3253 1450 
L 4159 0 
z
M 1250 4294 
L 1250 2584 
L 1988 2584 
Q 2416 2584 2683 2834 
Q 2950 3084 2950 3491 
Q 2950 3869 2706 4081 
Q 2463 4294 1997 4294 
L 1250 4294 
z
" transform="scale(0.015625)"/>
        <path id="MicrosoftYaHei-43" d="M 3938 200 
Q 3403 -81 2597 -81 
Q 1556 -81 934 580 
Q 313 1241 313 2328 
Q 313 3497 1013 4209 
Q 1713 4922 2791 4922 
Q 3484 4922 3938 4725 
L 3938 4072 
Q 3419 4359 2797 4359 
Q 1988 4359 1478 3820 
Q 969 3281 969 2366 
Q 969 1497 1444 986 
Q 1919 475 2688 475 
Q 3406 475 3938 800 
L 3938 200 
z
" transform="scale(0.015625)"/>
        <path id="MicrosoftYaHei-54" d="M 3550 4284 
L 2153 4284 
L 2153 0 
L 1525 0 
L 1525 4284 
L 134 4284 
L 134 4841 
L 3550 4841 
L 3550 4284 
z
" transform="scale(0.015625)"/>
        <path id="MicrosoftYaHei-2d" d="M 2328 1681 
L 488 1681 
L 488 2153 
L 2328 2153 
L 2328 1681 
z
" transform="scale(0.015625)"/>
        <path id="MicrosoftYaHei-41" d="M 4428 0 
L 3738 0 
L 3244 1325 
L 1228 1325 
L 763 0 
L 72 0 
L 1916 4841 
L 2584 4841 
L 4428 0 
z
M 3050 1872 
L 2319 3884 
Q 2284 3981 2244 4222 
L 2228 4222 
Q 2194 4003 2150 3884 
L 1425 1872 
L 3050 1872 
z
" transform="scale(0.015625)"/>
        <path id="MicrosoftYaHei-20" transform="scale(0.015625)"/>
        <path id="MicrosoftYaHei-44" d="M 625 0 
L 625 4841 
L 2006 4841 
Q 3106 4841 3836 4200 
Q 4566 3559 4566 2481 
Q 4566 1356 3836 678 
Q 3106 0 1956 0 
L 625 0 
z
M 1250 4284 
L 1250 553 
L 1953 553 
Q 2875 553 3392 1056 
Q 3909 1559 3909 2466 
Q 3909 3372 3378 3828 
Q 2847 4284 1981 4284 
L 1250 4284 
z
" transform="scale(0.015625)"/>
        <path id="MicrosoftYaHei-72" d="M 2400 2850 
Q 2247 2959 1978 2959 
Q 1622 2959 1390 2626 
Q 1159 2294 1159 1750 
L 1159 0 
L 547 0 
L 547 3456 
L 1159 3456 
L 1159 2753 
L 1172 2753 
Q 1434 3516 2078 3516 
Q 2288 3516 2400 3469 
L 2400 2850 
z
" transform="scale(0.015625)"/>
        <path id="MicrosoftYaHei-75" d="M 3400 0 
L 2784 0 
L 2784 544 
L 2772 544 
Q 2425 -81 1706 -81 
Q 478 -81 478 1388 
L 478 3456 
L 1084 3456 
L 1084 1478 
Q 1084 425 1891 425 
Q 2291 425 2537 720 
Q 2784 1016 2784 1466 
L 2784 3456 
L 3400 3456 
L 3400 0 
z
" transform="scale(0.015625)"/>
        <path id="MicrosoftYaHei-67" d="M 3547 291 
Q 3547 -1628 1684 -1628 
Q 1041 -1628 566 -1388 
L 566 -797 
Q 1144 -1119 1675 -1119 
Q 2934 -1119 2934 206 
L 2934 572 
L 2922 572 
Q 2528 -81 1747 -81 
Q 1097 -81 706 384 
Q 316 850 316 1619 
Q 316 2503 747 3020 
Q 1178 3538 1897 3538 
Q 2588 3538 2922 2988 
L 2934 2988 
L 2934 3456 
L 3547 3456 
L 3547 291 
z
M 2934 2056 
Q 2938 2456 2666 2743 
Q 2394 3031 1997 3031 
Q 1497 3031 1219 2664 
Q 941 2297 941 1656 
Q 941 1106 1209 765 
Q 1478 425 1922 425 
Q 2369 425 2653 750 
Q 2938 1075 2934 1575 
L 2934 2056 
z
" transform="scale(0.015625)"/>
        <path id="MicrosoftYaHei-76" d="M 3331 3456 
L 1963 0 
L 1344 0 
L 44 3456 
L 713 3456 
L 1556 988 
Q 1659 691 1678 491 
L 1694 491 
Q 1725 753 1803 975 
L 2688 3456 
L 3331 3456 
z
" transform="scale(0.015625)"/>
        <path id="MicrosoftYaHei-73" d="M 353 747 
Q 816 413 1350 413 
Q 2066 413 2066 881 
Q 2066 1081 1909 1211 
Q 1753 1341 1275 1519 
Q 700 1750 528 1976 
Q 356 2203 356 2525 
Q 356 2984 745 3261 
Q 1134 3538 1703 3538 
Q 2144 3538 2522 3384 
L 2522 2794 
Q 2134 3044 1644 3044 
Q 1350 3044 1165 2916 
Q 981 2788 981 2578 
Q 981 2372 1114 2256 
Q 1247 2141 1703 1959 
Q 2281 1744 2484 1512 
Q 2688 1281 2688 941 
Q 2688 466 2298 192 
Q 1909 -81 1291 -81 
Q 753 -81 353 122 
L 353 747 
z
" transform="scale(0.015625)"/>
        <path id="MicrosoftYaHei-6f" d="M 316 1691 
Q 316 2547 794 3042 
Q 1272 3538 2091 3538 
Q 2869 3538 3311 3061 
Q 3753 2584 3753 1744 
Q 3753 925 3281 422 
Q 2809 -81 2016 -81 
Q 1241 -81 778 406 
Q 316 894 316 1691 
z
M 941 1709 
Q 941 1113 1242 769 
Q 1544 425 2053 425 
Q 2578 425 2853 761 
Q 3128 1097 3128 1725 
Q 3128 2356 2853 2693 
Q 2578 3031 2053 3031 
Q 1538 3031 1239 2678 
Q 941 2325 941 1709 
z
" transform="scale(0.015625)"/>
        <path id="MicrosoftYaHei-6e" d="M 3469 0 
L 2859 0 
L 2859 1966 
Q 2859 3031 2081 3031 
Q 1678 3031 1418 2731 
Q 1159 2431 1159 1972 
L 1159 0 
L 547 0 
L 547 3456 
L 1159 3456 
L 1159 2884 
L 1172 2884 
Q 1563 3538 2306 3538 
Q 2875 3538 3172 3173 
Q 3469 2809 3469 2113 
L 3469 0 
z
" transform="scale(0.015625)"/>
        <path id="MicrosoftYaHei-74" d="M 2206 34 
Q 2006 -75 1666 -75 
Q 738 -75 738 953 
L 738 2950 
L 144 2950 
L 144 3456 
L 738 3456 
L 738 4288 
L 1347 4481 
L 1347 3456 
L 2206 3456 
L 2206 2950 
L 1347 2950 
L 1347 1063 
Q 1347 722 1462 575 
Q 1578 428 1847 428 
Q 2053 428 2206 544 
L 2206 34 
z
" transform="scale(0.015625)"/>
        <path id="MicrosoftYaHei-6c" d="M 544 0 
L 544 5116 
L 1156 5116 
L 1156 0 
L 544 0 
z
" transform="scale(0.015625)"/>
       </defs>
       <use xlink:href="#MicrosoftYaHei-52"/>
       <use xlink:href="#MicrosoftYaHei-43" transform="translate(63.783203 0)"/>
       <use xlink:href="#MicrosoftYaHei-54" transform="translate(130.677734 0)"/>
       <use xlink:href="#MicrosoftYaHei-2d" transform="translate(188.001953 0)"/>
       <use xlink:href="#MicrosoftYaHei-41" transform="translate(231.263672 0)"/>
       <use xlink:href="#MicrosoftYaHei-20" transform="translate(301.625 0)"/>
       <use xlink:href="#MicrosoftYaHei-44" transform="translate(331.214844 0)"/>
       <use xlink:href="#MicrosoftYaHei-72" transform="translate(407.386719 0)"/>
       <use xlink:href="#MicrosoftYaHei-75" transform="translate(445.570312 0)"/>
       <use xlink:href="#MicrosoftYaHei-67" transform="translate(507.191406 0)"/>
       <use xlink:href="#MicrosoftYaHei-2d" transform="translate(571.15625 0)"/>
       <use xlink:href="#MicrosoftYaHei-41" transform="translate(614.417969 0)"/>
       <use xlink:href="#MicrosoftYaHei-20" transform="translate(684.779297 0)"/>
       <use xlink:href="#MicrosoftYaHei-76" transform="translate(714.369141 0)"/>
       <use xlink:href="#MicrosoftYaHei-73" transform="translate(766.859375 0)"/>
       <use xlink:href="#MicrosoftYaHei-20" transform="translate(813.148438 0)"/>
       <use xlink:href="#MicrosoftYaHei-43" transform="translate(842.738281 0)"/>
       <use xlink:href="#MicrosoftYaHei-6f" transform="translate(909.632812 0)"/>
       <use xlink:href="#MicrosoftYaHei-6e" transform="translate(973.207031 0)"/>
       <use xlink:href="#MicrosoftYaHei-74" transform="translate(1034.828125 0)"/>
       <use xlink:href="#MicrosoftYaHei-72" transform="translate(1072.083984 0)"/>
       <use xlink:href="#MicrosoftYaHei-6f" transform="translate(1108.892578 0)"/>
       <use xlink:href="#MicrosoftYaHei-6c" transform="translate(1172.466797 0)"/>
      </g>
      <!-- (X阳性, MAIC加权) -->
      <g transform="translate(45.675937 497.73226) scale(0.11 -0.11)">
       <defs>
        <path id="MicrosoftYaHei-28" d="M 1531 -1100 
Q 478 100 478 1847 
Q 478 3594 1531 4841 
L 2072 4841 
Q 1016 3544 1016 1853 
Q 1016 166 2066 -1100 
L 1531 -1100 
z
" transform="scale(0.015625)"/>
        <path id="MicrosoftYaHei-58" d="M 4034 0 
L 3275 0 
L 2194 1822 
Q 2156 1884 2084 2072 
L 2069 2072 
Q 2063 2047 1956 1819 
L 844 0 
L 81 0 
L 1691 2431 
L 209 4841 
L 975 4841 
L 1931 3166 
Q 2016 3019 2100 2822 
L 2113 2822 
Q 2188 2991 2297 3181 
L 3297 4841 
L 4013 4841 
L 2500 2441 
L 4034 0 
z
" transform="scale(0.015625)"/>
        <path id="MicrosoftYaHei-9633" d="M 2750 -809 
L 2750 4941 
L 5994 4941 
L 5994 -803 
L 5500 -803 
L 5500 -397 
L 3244 -397 
L 3244 -809 
L 2750 -809 
z
M 2338 1616 
Q 2506 428 1744 272 
Q 1438 228 1075 266 
Q 1025 522 938 791 
Q 1281 709 1550 741 
Q 1981 822 1838 1634 
Q 1750 2141 1275 2759 
Q 1556 3603 1838 4578 
L 875 4578 
L 875 -841 
L 400 -841 
L 400 5016 
L 2338 5016 
L 2338 4578 
Q 2106 3816 1769 2841 
Q 2269 2159 2338 1616 
z
M 3244 66 
L 5500 66 
L 5500 2091 
L 3244 2091 
L 3244 66 
z
M 5500 4478 
L 3244 4478 
L 3244 2541 
L 5500 2541 
L 5500 4478 
z
" transform="scale(0.015625)"/>
        <path id="MicrosoftYaHei-6027" d="M 1963 -153 
L 3988 -153 
L 3988 1522 
L 2375 1522 
L 2375 1959 
L 3988 1959 
L 3988 3472 
L 2975 3472 
Q 2744 2878 2438 2291 
Q 2169 2509 2019 2578 
Q 2644 3709 2894 4891 
L 3388 4759 
Q 3281 4328 3138 3909 
L 3988 3909 
L 3988 5284 
L 4481 5284 
L 4481 3909 
L 6125 3909 
L 6125 3472 
L 4481 3472 
L 4481 1959 
L 6000 1959 
L 6000 1522 
L 4481 1522 
L 4481 -153 
L 6319 -153 
L 6319 -591 
L 1963 -591 
L 1963 -153 
z
M 988 5291 
L 1469 5291 
L 1469 4091 
L 1738 4241 
Q 2063 3734 2294 3291 
L 1906 3041 
Q 1688 3503 1469 3859 
L 1469 -872 
L 988 -872 
L 988 5291 
z
M 406 3878 
L 819 3784 
Q 706 3028 506 2178 
Q 338 2241 75 2297 
Q 263 2978 406 3878 
z
" transform="scale(0.015625)"/>
        <path id="MicrosoftYaHei-2c" d="M 1109 778 
L 575 -888 
L 131 -888 
L 519 778 
L 1109 778 
z
" transform="scale(0.015625)"/>
        <path id="MicrosoftYaHei-4d" d="M 5003 0 
L 5003 3206 
Q 5003 3603 5050 4159 
L 5034 4159 
Q 4953 3809 4891 3672 
L 3294 0 
L 2947 0 
L 1353 3644 
Q 1297 3769 1209 4159 
L 1191 4159 
Q 1222 3822 1222 3178 
L 1222 0 
L 625 0 
L 625 4841 
L 1472 4841 
L 2900 1522 
Q 3063 1141 3116 928 
L 3138 928 
Q 3300 1375 3366 1534 
L 4819 4841 
L 5625 4841 
L 5625 0 
L 5003 0 
z
" transform="scale(0.015625)"/>
        <path id="MicrosoftYaHei-49" d="M 1250 4841 
L 1250 0 
L 625 0 
L 625 4841 
L 1250 4841 
z
" transform="scale(0.015625)"/>
        <path id="MicrosoftYaHei-52a0" d="M 3663 4484 
L 6038 4484 
L 6038 -666 
L 5544 -666 
L 5544 -34 
L 4156 -34 
L 4156 -666 
L 3663 -666 
L 3663 4484 
z
M 231 4178 
L 1103 4178 
Q 1109 4681 1106 5297 
L 1600 5297 
Q 1600 4675 1594 4178 
L 3050 4178 
Q 3019 1778 2969 409 
Q 2944 -716 2119 -672 
Q 1875 -672 1400 -653 
Q 1356 -391 1300 -109 
Q 1738 -166 2013 -166 
Q 2431 -178 2469 428 
Q 2538 1909 2550 3703 
L 1588 3703 
Q 1581 3225 1569 2891 
Q 1544 447 394 -872 
Q 238 -678 25 -453 
Q 1063 684 1081 2941 
Q 1094 3269 1100 3703 
L 231 3703 
L 231 4178 
z
M 5544 4022 
L 4156 4022 
L 4156 416 
L 5544 416 
L 5544 4022 
z
" transform="scale(0.015625)"/>
        <path id="MicrosoftYaHei-6743" d="M 2331 4416 
L 2331 4884 
L 5881 4884 
L 5881 4428 
Q 5588 2253 4556 922 
Q 5231 241 6344 -203 
Q 6075 -497 5925 -722 
Q 4850 -166 4213 516 
Q 3500 -228 2225 -872 
Q 2088 -647 1875 -397 
Q 3194 222 3888 916 
Q 2944 2103 2719 4416 
L 2331 4416 
z
M 63 1347 
Q 700 2322 1019 3528 
L 125 3528 
L 125 3966 
L 1100 3966 
L 1100 5291 
L 1575 5291 
L 1575 3966 
L 2456 3966 
L 2456 3528 
L 1575 3528 
L 1575 2703 
L 1844 2953 
Q 2406 2422 2750 2009 
L 2375 1659 
Q 1956 2191 1575 2591 
L 1575 -853 
L 1100 -853 
L 1100 2572 
Q 763 1522 275 797 
Q 188 1066 63 1347 
z
M 5350 4416 
L 3219 4416 
Q 3406 2397 4225 1309 
Q 5088 2466 5350 4416 
z
" transform="scale(0.015625)"/>
        <path id="MicrosoftYaHei-29" d="M 78 -1100 
Q 1131 163 1131 1853 
Q 1131 3547 72 4841 
L 616 4841 
Q 1672 3603 1672 1847 
Q 1672 91 616 -1100 
L 78 -1100 
z
" transform="scale(0.015625)"/>
       </defs>
       <use xlink:href="#MicrosoftYaHei-28"/>
       <use xlink:href="#MicrosoftYaHei-58" transform="translate(33.398438 0)"/>
       <use xlink:href="#MicrosoftYaHei-9633" transform="translate(97.900391 0)"/>
       <use xlink:href="#MicrosoftYaHei-6027" transform="translate(197.900391 0)"/>
       <use xlink:href="#MicrosoftYaHei-2c" transform="translate(297.900391 0)"/>
       <use xlink:href="#MicrosoftYaHei-20" transform="translate(321.972656 0)"/>
       <use xlink:href="#MicrosoftYaHei-4d" transform="translate(351.5625 0)"/>
       <use xlink:href="#MicrosoftYaHei-41" transform="translate(449.267578 0)"/>
       <use xlink:href="#MicrosoftYaHei-49" transform="translate(519.628906 0)"/>
       <use xlink:href="#MicrosoftYaHei-43" transform="translate(549.023438 0)"/>
       <use xlink:href="#MicrosoftYaHei-52a0" transform="translate(615.917969 0)"/>
       <use xlink:href="#MicrosoftYaHei-6743" transform="translate(715.917969 0)"/>
       <use xlink:href="#MicrosoftYaHei-29" transform="translate(815.917969 0)"/>
      </g>
     </g>
    </g>
    <g id="ytick_2">
     <g id="line2d_23">
      <path d="M 146.102031 292.186406 
L 842.489531 292.186406 
" clip-path="url(#p4925c939e8)" style="fill: none; stroke: #b0b0b0; stroke-opacity: 0.3; stroke-width: 0.8; stroke-linecap: square"/>
     </g>
     <g id="line2d_24">
      <g>
       <use xlink:href="#m48d0b5f912" x="146.102031" y="292.186406" style="stroke: #000000; stroke-width: 0.8"/>
      </g>
     </g>
     <g id="text_13">
      <!-- RCT-C Drug-C vs Control -->
      <g transform="translate(7.963125 290.787344) scale(0.11 -0.11)">
       <use xlink:href="#MicrosoftYaHei-52"/>
       <use xlink:href="#MicrosoftYaHei-43" transform="translate(63.783203 0)"/>
       <use xlink:href="#MicrosoftYaHei-54" transform="translate(130.677734 0)"/>
       <use xlink:href="#MicrosoftYaHei-2d" transform="translate(188.001953 0)"/>
       <use xlink:href="#MicrosoftYaHei-43" transform="translate(231.263672 0)"/>
       <use xlink:href="#MicrosoftYaHei-20" transform="translate(298.158203 0)"/>
       <use xlink:href="#MicrosoftYaHei-44" transform="translate(327.748047 0)"/>
       <use xlink:href="#MicrosoftYaHei-72" transform="translate(403.919922 0)"/>
       <use xlink:href="#MicrosoftYaHei-75" transform="translate(442.103516 0)"/>
       <use xlink:href="#MicrosoftYaHei-67" transform="translate(503.724609 0)"/>
       <use xlink:href="#MicrosoftYaHei-2d" transform="translate(567.689453 0)"/>
       <use xlink:href="#MicrosoftYaHei-43" transform="translate(610.951172 0)"/>
       <use xlink:href="#MicrosoftYaHei-20" transform="translate(677.845703 0)"/>
       <use xlink:href="#MicrosoftYaHei-76" transform="translate(707.435547 0)"/>
       <use xlink:href="#MicrosoftYaHei-73" transform="translate(759.925781 0)"/>
       <use xlink:href="#MicrosoftYaHei-20" transform="translate(806.214844 0)"/>
       <use xlink:href="#MicrosoftYaHei-43" transform="translate(835.804688 0)"/>
       <use xlink:href="#MicrosoftYaHei-6f" transform="translate(902.699219 0)"/>
       <use xlink:href="#MicrosoftYaHei-6e" transform="translate(966.273438 0)"/>
       <use xlink:href="#MicrosoftYaHei-74" transform="translate(1027.894531 0)"/>
       <use xlink:href="#MicrosoftYaHei-72" transform="translate(1065.150391 0)"/>
       <use xlink:href="#MicrosoftYaHei-6f" transform="translate(1101.958984 0)"/>
       <use xlink:href="#MicrosoftYaHei-6c" transform="translate(1165.533203 0)"/>
      </g>
      <!-- (X阳性, 发表数据) -->
      <g transform="translate(52.75375 304.137219) scale(0.11 -0.11)">
       <defs>
        <path id="MicrosoftYaHei-53d1" d="M 944 3909 
L 2266 3909 
Q 2419 4563 2525 5334 
L 3056 5266 
Q 2950 4556 2797 3909 
L 6250 3909 
L 6250 3447 
L 2678 3447 
Q 2566 3034 2431 2653 
L 5531 2653 
L 5531 2222 
Q 5119 1200 4247 456 
Q 5125 -75 6294 -291 
Q 6013 -603 5856 -816 
Q 4856 -484 3844 153 
Q 3031 -381 1519 -859 
Q 1344 -609 1144 -397 
Q 2681 3 3441 450 
Q 2619 1153 2269 2222 
Q 1584 509 406 -591 
Q 238 -353 75 -166 
Q 1484 1106 2147 3447 
L 413 3447 
L 413 3916 
Q 669 4509 881 5109 
L 1388 4972 
Q 1169 4422 944 3909 
z
M 4981 2222 
L 2722 2222 
Q 3003 1356 3838 731 
Q 4647 1400 4981 2222 
z
M 4019 4903 
L 4294 5253 
Q 4906 4866 5469 4447 
L 5131 4041 
Q 4588 4503 4019 4903 
z
" transform="scale(0.015625)"/>
        <path id="MicrosoftYaHei-8868" d="M 5519 1891 
L 5863 1459 
L 4466 759 
Q 5200 159 6306 -34 
Q 6094 -309 5956 -534 
Q 3941 -53 3066 1944 
Q 2747 1538 2338 1172 
L 2338 -166 
Q 3163 103 3869 397 
Q 3863 122 3875 -147 
Q 3125 -403 2325 -709 
Q 2156 -778 1994 -872 
L 1700 -416 
Q 1875 -291 1875 -66 
L 1875 794 
Q 1228 309 406 -84 
Q 269 134 88 347 
Q 1703 1009 2625 2122 
L 156 2122 
L 156 2553 
L 2956 2553 
L 2956 3191 
L 600 3191 
L 600 3622 
L 2956 3622 
L 2956 4234 
L 350 4234 
L 350 4666 
L 2956 4666 
L 2956 5366 
L 3450 5366 
L 3450 4666 
L 6069 4666 
L 6069 4234 
L 3450 4234 
L 3450 3622 
L 5800 3622 
L 5800 3191 
L 3450 3191 
L 3450 2553 
L 6244 2553 
L 6244 2122 
L 3466 2122 
Q 3728 1513 4141 1066 
Q 4769 1378 5519 1891 
z
" transform="scale(0.015625)"/>
        <path id="MicrosoftYaHei-6570" d="M 4175 5303 
L 4675 5228 
Q 4544 4622 4369 4097 
L 6281 4097 
L 6281 3672 
L 5888 3672 
Q 5731 1834 5088 753 
Q 5594 66 6375 -372 
Q 6175 -647 6038 -866 
Q 5275 -372 4769 309 
Q 4194 -403 3400 -928 
Q 3263 -747 3044 -534 
Q 3919 41 4463 772 
Q 3956 1647 3794 2791 
Q 3663 2559 3519 2359 
Q 3394 2541 3206 2759 
Q 3931 3803 4175 5303 
z
M 150 1697 
L 1100 1697 
Q 1238 1934 1369 2184 
L 1819 2041 
Q 1719 1866 1619 1697 
L 3150 1697 
L 3150 1291 
Q 2913 678 2431 216 
Q 2775 53 3131 -109 
L 2856 -541 
Q 2469 -322 2050 -103 
Q 1344 -609 269 -903 
Q 169 -703 56 -466 
Q 969 -259 1600 128 
Q 1063 403 475 691 
Q 675 978 863 1284 
L 150 1284 
L 150 1697 
z
M 219 3847 
L 1656 3847 
L 1656 5247 
L 2119 5247 
L 2119 3847 
L 3319 3847 
L 3319 3434 
L 2119 3434 
L 2119 3053 
L 2306 3266 
Q 2888 2841 3281 2516 
L 2981 2166 
Q 2638 2491 2119 2897 
L 2119 2184 
L 1656 2184 
L 1656 3059 
Q 1088 2466 331 2016 
Q 213 2197 63 2397 
Q 850 2822 1506 3434 
L 219 3434 
L 219 3847 
z
M 5388 3672 
L 4219 3672 
Q 4188 3591 4150 3516 
Q 4263 2191 4775 1247 
Q 5275 2159 5388 3672 
z
M 1088 834 
Q 1531 634 2000 416 
Q 2431 784 2675 1284 
L 1375 1284 
Q 1231 1053 1088 834 
z
M 3038 5091 
L 3425 4834 
Q 3081 4384 2738 4003 
Q 2594 4128 2400 4266 
Q 2725 4647 3038 5091 
z
M 381 4816 
L 738 5059 
Q 1019 4716 1319 4322 
L 931 4047 
Q 656 4453 381 4816 
z
" transform="scale(0.015625)"/>
        <path id="MicrosoftYaHei-636e" d="M 2900 1334 
L 4188 1334 
L 4188 2128 
L 2731 2128 
Q 2663 206 1844 -841 
Q 1694 -647 1506 -447 
Q 2288 516 2288 2509 
L 2288 4947 
L 5975 4947 
L 5975 3134 
L 5525 3134 
L 5525 3328 
L 2738 3328 
L 2738 2553 
L 4188 2553 
L 4188 3209 
L 4638 3209 
L 4638 2553 
L 6288 2553 
L 6288 2128 
L 4638 2128 
L 4638 1334 
L 5938 1334 
L 5938 -778 
L 5488 -778 
L 5488 -416 
L 3350 -416 
L 3350 -778 
L 2900 -778 
L 2900 1334 
z
M 100 1966 
Q 544 2088 963 2213 
L 963 3641 
L 175 3641 
L 175 4091 
L 963 4091 
L 963 5284 
L 1425 5284 
L 1425 4091 
L 2106 4091 
L 2106 3641 
L 1425 3641 
L 1425 2356 
Q 1722 2450 2006 2547 
Q 2013 2266 2044 2059 
Q 1722 1956 1425 1856 
L 1425 -34 
Q 1425 -741 806 -753 
Q 613 -759 231 -747 
Q 206 -497 156 -228 
Q 500 -266 681 -266 
Q 963 -266 963 53 
L 963 1703 
Q 534 1559 163 1428 
L 100 1966 
z
M 5525 4534 
L 2738 4534 
L 2738 3741 
L 5525 3741 
L 5525 4534 
z
M 5488 922 
L 3350 922 
L 3350 -9 
L 5488 -9 
L 5488 922 
z
" transform="scale(0.015625)"/>
       </defs>
       <use xlink:href="#MicrosoftYaHei-28"/>
       <use xlink:href="#MicrosoftYaHei-58" transform="translate(33.398438 0)"/>
       <use xlink:href="#MicrosoftYaHei-9633" transform="translate(97.900391 0)"/>
       <use xlink:href="#MicrosoftYaHei-6027" transform="translate(197.900391 0)"/>
       <use xlink:href="#MicrosoftYaHei-2c" transform="translate(297.900391 0)"/>
       <use xlink:href="#MicrosoftYaHei-20" transform="translate(321.972656 0)"/>
       <use xlink:href="#MicrosoftYaHei-53d1" transform="translate(351.5625 0)"/>
       <use xlink:href="#MicrosoftYaHei-8868" transform="translate(451.5625 0)"/>
       <use xlink:href="#MicrosoftYaHei-6570" transform="translate(551.5625 0)"/>
       <use xlink:href="#MicrosoftYaHei-636e" transform="translate(651.5625 0)"/>
       <use xlink:href="#MicrosoftYaHei-29" transform="translate(751.5625 0)"/>
      </g>
     </g>
    </g>
    <g id="ytick_3">
     <g id="line2d_25">
      <path d="M 146.102031 98.591365 
L 842.489531 98.591365 
" clip-path="url(#p4925c939e8)" style="fill: none; stroke: #b0b0b0; stroke-opacity: 0.3; stroke-width: 0.8; stroke-linecap: square"/>
     </g>
     <g id="line2d_26">
      <g>
       <use xlink:href="#m48d0b5f912" x="146.102031" y="98.591365" style="stroke: #000000; stroke-width: 0.8"/>
      </g>
     </g>
     <g id="text_14">
      <!-- Drug-A vs Drug-C -->
      <g transform="translate(44.319844 97.160506) scale(0.11 -0.11)">
       <use xlink:href="#MicrosoftYaHei-44"/>
       <use xlink:href="#MicrosoftYaHei-72" transform="translate(76.171875 0)"/>
       <use xlink:href="#MicrosoftYaHei-75" transform="translate(114.355469 0)"/>
       <use xlink:href="#MicrosoftYaHei-67" transform="translate(175.976562 0)"/>
       <use xlink:href="#MicrosoftYaHei-2d" transform="translate(239.941406 0)"/>
       <use xlink:href="#MicrosoftYaHei-41" transform="translate(283.203125 0)"/>
       <use xlink:href="#MicrosoftYaHei-20" transform="translate(353.564453 0)"/>
       <use xlink:href="#MicrosoftYaHei-76" transform="translate(383.154297 0)"/>
       <use xlink:href="#MicrosoftYaHei-73" transform="translate(435.644531 0)"/>
       <use xlink:href="#MicrosoftYaHei-20" transform="translate(481.933594 0)"/>
       <use xlink:href="#MicrosoftYaHei-44" transform="translate(511.523438 0)"/>
       <use xlink:href="#MicrosoftYaHei-72" transform="translate(587.695312 0)"/>
       <use xlink:href="#MicrosoftYaHei-75" transform="translate(625.878906 0)"/>
       <use xlink:href="#MicrosoftYaHei-67" transform="translate(687.5 0)"/>
       <use xlink:href="#MicrosoftYaHei-2d" transform="translate(751.464844 0)"/>
       <use xlink:href="#MicrosoftYaHei-43" transform="translate(794.726562 0)"/>
      </g>
      <!-- (X阳性, 间接比较) -->
      <g transform="translate(52.75375 110.510381) scale(0.11 -0.11)">
       <defs>
        <path id="MicrosoftYaHei-95f4" d="M 1863 3647 
L 4513 3647 
L 4513 553 
L 2313 553 
L 2313 166 
L 1863 166 
L 1863 3647 
z
M 2388 4453 
L 2388 4922 
L 6013 4922 
L 6013 -28 
Q 6013 -816 5119 -816 
Q 4756 -816 4169 -803 
Q 4144 -616 4069 -297 
Q 4588 -334 5056 -334 
Q 5525 -334 5525 122 
L 5525 4453 
L 2388 4453 
z
M 419 4084 
L 906 4084 
L 906 -816 
L 419 -816 
L 419 4084 
z
M 2313 997 
L 4063 997 
L 4063 1884 
L 2313 1884 
L 2313 997 
z
M 4063 3203 
L 2313 3203 
L 2313 2328 
L 4063 2328 
L 4063 3203 
z
M 744 5003 
L 1100 5322 
Q 1575 4872 1981 4447 
L 1575 4091 
Q 1194 4541 744 5003 
z
" transform="scale(0.015625)"/>
        <path id="MicrosoftYaHei-63a5" d="M 1800 -366 
Q 3019 -188 3784 222 
Q 3200 484 2531 772 
Q 2800 1119 3028 1466 
L 2000 1466 
L 2000 1884 
L 3291 1884 
Q 3491 2222 3656 2559 
L 4119 2366 
Q 3969 2116 3822 1884 
L 6225 1884 
L 6225 1466 
L 5403 1466 
Q 5156 778 4672 306 
Q 5469 -25 6219 -353 
L 5944 -816 
Q 5241 -444 4288 -3 
Q 3450 -572 2038 -841 
Q 1950 -634 1800 -366 
z
M 100 1966 
Q 544 2088 963 2213 
L 963 3641 
L 175 3641 
L 175 4091 
L 963 4091 
L 963 5259 
L 1425 5259 
L 1425 4091 
L 2144 4091 
L 2144 3641 
L 1425 3641 
L 1425 2356 
Q 1722 2450 2006 2547 
Q 2013 2266 2044 2059 
Q 1722 1956 1425 1856 
L 1425 -72 
Q 1425 -747 819 -753 
Q 588 -759 231 -747 
Q 206 -491 156 -228 
Q 531 -266 688 -266 
Q 963 -266 963 66 
L 963 1703 
Q 534 1559 163 1428 
L 100 1966 
z
M 2019 3072 
L 4453 3072 
Q 4850 3622 5156 4103 
L 5625 3847 
Q 5300 3456 4966 3072 
L 6269 3072 
L 6269 2653 
L 2019 2653 
L 2019 3072 
z
M 2263 4591 
L 4028 4591 
Q 3881 4875 3719 5153 
L 4138 5347 
Q 4338 5009 4519 4666 
L 4359 4591 
L 6119 4591 
L 6119 4172 
L 2263 4172 
L 2263 4591 
z
M 3181 909 
Q 3703 703 4203 497 
Q 4694 894 4900 1466 
L 3553 1466 
Q 3363 1175 3181 909 
z
M 2825 3853 
L 3188 4097 
Q 3481 3753 3756 3372 
L 3356 3103 
Q 3119 3491 2825 3853 
z
" transform="scale(0.015625)"/>
        <path id="MicrosoftYaHei-6bd4" d="M 3225 5316 
L 3744 5316 
L 3744 2672 
Q 4959 3550 5744 4509 
L 6188 4178 
Q 5175 3063 3744 2056 
L 3744 247 
Q 3744 -166 4106 -166 
L 5175 -166 
Q 5588 -166 5650 203 
Q 5725 678 5763 1247 
Q 6025 1147 6300 1066 
Q 6244 484 6150 22 
Q 6019 -622 5319 -622 
L 3944 -622 
Q 3225 -622 3225 159 
L 3225 5316 
z
M 1063 5153 
L 1063 3278 
L 2825 3278 
L 2825 2809 
L 1063 2809 
L 1063 153 
Q 1713 428 2763 928 
Q 2763 634 2788 366 
Q 1869 -3 1231 -328 
Q 956 -472 725 -672 
L 344 -184 
Q 544 -34 544 272 
L 544 5153 
L 1063 5153 
z
" transform="scale(0.015625)"/>
        <path id="MicrosoftYaHei-8f83" d="M 694 2234 
L 1438 2234 
L 1438 3603 
L 1875 3603 
L 1875 2234 
L 2513 2234 
L 2513 1828 
L 1875 1828 
L 1875 981 
Q 2288 1031 2688 1084 
Q 2656 847 2644 653 
Q 2294 613 1875 559 
L 1875 -841 
L 1438 -841 
L 1438 506 
Q 844 428 131 334 
L 81 791 
Q 778 856 1438 928 
L 1438 1828 
L 238 1828 
L 238 2222 
Q 575 3156 816 3928 
L 156 3928 
L 156 4347 
L 941 4347 
Q 1103 4891 1206 5347 
L 1688 5247 
Q 1559 4831 1403 4347 
L 2494 4347 
L 2494 3928 
L 1269 3928 
Q 1016 3156 694 2234 
z
M 5525 2341 
Q 5200 1303 4694 644 
Q 5306 69 6331 -247 
Q 6094 -522 5944 -728 
Q 4972 -334 4353 256 
Q 3641 -450 2563 -828 
Q 2481 -666 2263 -384 
Q 3341 -22 4025 619 
Q 3531 1247 3219 2203 
L 3644 2397 
Q 3909 1572 4363 1003 
Q 4813 1622 5063 2497 
L 5525 2341 
z
M 2719 4366 
L 4316 4366 
Q 4109 4728 3806 5116 
L 4188 5359 
Q 4538 4966 4788 4578 
L 4459 4366 
L 6225 4366 
L 6225 3928 
L 2719 3928 
L 2719 4366 
z
M 4663 3422 
L 5006 3722 
Q 5669 3103 6256 2434 
L 5881 2097 
Q 5344 2747 4663 3422 
z
M 3600 3741 
L 4013 3484 
Q 3456 2628 2925 1997 
Q 2706 2191 2544 2297 
Q 3106 2922 3600 3741 
z
" transform="scale(0.015625)"/>
       </defs>
       <use xlink:href="#MicrosoftYaHei-28"/>
       <use xlink:href="#MicrosoftYaHei-58" transform="translate(33.398438 0)"/>
       <use xlink:href="#MicrosoftYaHei-9633" transform="translate(97.900391 0)"/>
       <use xlink:href="#MicrosoftYaHei-6027" transform="translate(197.900391 0)"/>
       <use xlink:href="#MicrosoftYaHei-2c" transform="translate(297.900391 0)"/>
       <use xlink:href="#MicrosoftYaHei-20" transform="translate(321.972656 0)"/>
       <use xlink:href="#MicrosoftYaHei-95f4" transform="translate(351.5625 0)"/>
       <use xlink:href="#MicrosoftYaHei-63a5" transform="translate(451.5625 0)"/>
       <use xlink:href="#MicrosoftYaHei-6bd4" transform="translate(551.5625 0)"/>
       <use xlink:href="#MicrosoftYaHei-8f83" transform="translate(651.5625 0)"/>
       <use xlink:href="#MicrosoftYaHei-29" transform="translate(751.5625 0)"/>
      </g>
     </g>
    </g>
   </g>
   <g id="line2d_27">
    <path d="M 313.368838 485.781448 
L 424.880043 485.781448 
" clip-path="url(#p4925c939e8)" style="fill: none; stroke: #0000ff; stroke-opacity: 0.6; stroke-width: 3; stroke-linecap: square"/>
   </g>
   <g id="line2d_28">
    <path d="M 313.368838 505.140952 
L 313.368838 466.421943 
" clip-path="url(#p4925c939e8)" style="fill: none; stroke: #0000ff; stroke-opacity: 0.6; stroke-width: 3; stroke-linecap: square"/>
   </g>
   <g id="line2d_29">
    <path d="M 424.880043 505.140952 
L 424.880043 466.421943 
" clip-path="url(#p4925c939e8)" style="fill: none; stroke: #0000ff; stroke-opacity: 0.6; stroke-width: 3; stroke-linecap: square"/>
   </g>
   <g id="line2d_30">
    <path d="M 347.280642 292.186406 
L 490.426962 292.186406 
" clip-path="url(#p4925c939e8)" style="fill: none; stroke: #008000; stroke-opacity: 0.6; stroke-width: 3; stroke-linecap: square"/>
   </g>
   <g id="line2d_31">
    <path d="M 347.280642 311.54591 
L 347.280642 272.826902 
" clip-path="url(#p4925c939e8)" style="fill: none; stroke: #008000; stroke-opacity: 0.6; stroke-width: 3; stroke-linecap: square"/>
   </g>
   <g id="line2d_32">
    <path d="M 490.426962 311.54591 
L 490.426962 272.826902 
" clip-path="url(#p4925c939e8)" style="fill: none; stroke: #008000; stroke-opacity: 0.6; stroke-width: 3; stroke-linecap: square"/>
   </g>
   <g id="line2d_33">
    <path d="M 351.248505 98.591365 
L 670.444608 98.591365 
" clip-path="url(#p4925c939e8)" style="fill: none; stroke: #ff0000; stroke-opacity: 0.6; stroke-width: 3; stroke-linecap: square"/>
   </g>
   <g id="line2d_34">
    <path d="M 351.248505 117.950869 
L 351.248505 79.231861 
" clip-path="url(#p4925c939e8)" style="fill: none; stroke: #ff0000; stroke-opacity: 0.6; stroke-width: 3; stroke-linecap: square"/>
   </g>
   <g id="line2d_35">
    <path d="M 670.444608 117.950869 
L 670.444608 79.231861 
" clip-path="url(#p4925c939e8)" style="fill: none; stroke: #ff0000; stroke-opacity: 0.6; stroke-width: 3; stroke-linecap: square"/>
   </g>
   <g id="line2d_36">
    <path d="M 532.983976 526.436406 
L 532.983976 57.936406 
" clip-path="url(#p4925c939e8)" style="fill: none; stroke-dasharray: 7.4,3.2; stroke-dashoffset: 0; stroke: #000000; stroke-opacity: 0.7; stroke-width: 2"/>
   </g>
   <g id="patch_3">
    <path d="M 146.102031 526.436406 
L 146.102031 57.936406 
" style="fill: none; stroke: #000000; stroke-width: 0.8; stroke-linejoin: miter; stroke-linecap: square"/>
   </g>
   <g id="patch_4">
    <path d="M 842.489531 526.436406 
L 842.489531 57.936406 
" style="fill: none; stroke: #000000; stroke-width: 0.8; stroke-linejoin: miter; stroke-linecap: square"/>
   </g>
   <g id="patch_5">
    <path d="M 146.102031 526.436406 
L 842.489531 526.436406 
" style="fill: none; stroke: #000000; stroke-width: 0.8; stroke-linejoin: miter; stroke-linecap: square"/>
   </g>
   <g id="patch_6">
    <path d="M 146.102031 57.936406 
L 842.489531 57.936406 
" style="fill: none; stroke: #000000; stroke-width: 0.8; stroke-linejoin: miter; stroke-linecap: square"/>
   </g>
   <g id="text_15">
    <g id="patch_7">
     <path d="M 726.424948 500.06051 
L 789.160885 500.06051 
Q 792.160885 500.06051 792.160885 497.06051 
L 792.160885 474.502385 
Q 792.160885 471.502385 789.160885 471.502385 
L 726.424948 471.502385 
Q 723.424948 471.502385 723.424948 474.502385 
L 723.424948 497.06051 
Q 723.424948 500.06051 726.424948 500.06051 
z
" style="fill: #ffffff; opacity: 0.8; stroke: #000000; stroke-linejoin: miter"/>
    </g>
    <!-- HR=0.576 -->
    <g transform="translate(726.424948 482.496135) scale(0.1 -0.1)">
     <defs>
      <path id="MicrosoftYaHei-48" d="M 4325 0 
L 3700 0 
L 3700 2181 
L 1250 2181 
L 1250 0 
L 625 0 
L 625 4841 
L 1250 4841 
L 1250 2738 
L 3700 2738 
L 3700 4841 
L 4325 4841 
L 4325 0 
z
" transform="scale(0.015625)"/>
      <path id="MicrosoftYaHei-3d" d="M 3972 2497 
L 788 2497 
L 788 2969 
L 3972 2969 
L 3972 2497 
z
M 3972 1053 
L 788 1053 
L 788 1525 
L 3972 1525 
L 3972 1053 
z
" transform="scale(0.015625)"/>
      <path id="MicrosoftYaHei-35" d="M 3294 1494 
Q 3294 784 2823 350 
Q 2353 -84 1559 -84 
Q 878 -84 544 119 
L 544 744 
Q 1034 425 1544 425 
Q 2050 425 2361 704 
Q 2672 984 2672 1447 
Q 2672 1909 2348 2167 
Q 2025 2425 1434 2425 
Q 978 2425 613 2384 
L 791 4841 
L 3053 4841 
L 3053 4303 
L 1306 4303 
L 1206 2931 
L 1647 2950 
Q 2416 2950 2855 2567 
Q 3294 2184 3294 1494 
z
" transform="scale(0.015625)"/>
      <path id="MicrosoftYaHei-37" d="M 3422 4463 
Q 2659 3131 2223 1998 
Q 1788 866 1684 0 
L 1047 0 
Q 1163 853 1594 1947 
Q 2025 3041 2747 4300 
L 347 4300 
L 347 4841 
L 3422 4841 
L 3422 4463 
z
" transform="scale(0.015625)"/>
     </defs>
     <use xlink:href="#MicrosoftYaHei-48"/>
     <use xlink:href="#MicrosoftYaHei-52" transform="translate(77.34375 0)"/>
     <use xlink:href="#MicrosoftYaHei-3d" transform="translate(142.626953 0)"/>
     <use xlink:href="#MicrosoftYaHei-30" transform="translate(216.796875 0)"/>
     <use xlink:href="#MicrosoftYaHei-2e" transform="translate(275.439453 0)"/>
     <use xlink:href="#MicrosoftYaHei-35" transform="translate(299.511719 0)"/>
     <use xlink:href="#MicrosoftYaHei-37" transform="translate(358.154297 0)"/>
     <use xlink:href="#MicrosoftYaHei-36" transform="translate(416.796875 0)"/>
    </g>
    <!-- (0.432-0.721) -->
    <g transform="translate(726.424948 494.574573) scale(0.1 -0.1)">
     <defs>
      <path id="MicrosoftYaHei-33" d="M 447 809 
Q 944 425 1569 425 
Q 2069 425 2361 670 
Q 2653 916 2653 1328 
Q 2653 2247 1338 2247 
L 934 2247 
L 934 2753 
L 1319 2753 
Q 2484 2753 2484 3616 
Q 2484 4413 1594 4413 
Q 1084 4413 634 4069 
L 634 4647 
Q 1109 4922 1744 4922 
Q 2363 4922 2738 4598 
Q 3113 4275 3113 3759 
Q 3113 2809 2144 2538 
L 2144 2525 
Q 2669 2469 2973 2155 
Q 3278 1841 3278 1372 
Q 3278 719 2808 319 
Q 2338 -81 1556 -81 
Q 869 -81 447 175 
L 447 809 
z
" transform="scale(0.015625)"/>
     </defs>
     <use xlink:href="#MicrosoftYaHei-28"/>
     <use xlink:href="#MicrosoftYaHei-30" transform="translate(33.398438 0)"/>
     <use xlink:href="#MicrosoftYaHei-2e" transform="translate(92.041016 0)"/>
     <use xlink:href="#MicrosoftYaHei-34" transform="translate(116.113281 0)"/>
     <use xlink:href="#MicrosoftYaHei-33" transform="translate(174.755859 0)"/>
     <use xlink:href="#MicrosoftYaHei-32" transform="translate(233.398438 0)"/>
     <use xlink:href="#MicrosoftYaHei-2d" transform="translate(292.041016 0)"/>
     <use xlink:href="#MicrosoftYaHei-30" transform="translate(335.302734 0)"/>
     <use xlink:href="#MicrosoftYaHei-2e" transform="translate(393.945312 0)"/>
     <use xlink:href="#MicrosoftYaHei-37" transform="translate(418.017578 0)"/>
     <use xlink:href="#MicrosoftYaHei-32" transform="translate(476.660156 0)"/>
     <use xlink:href="#MicrosoftYaHei-31" transform="translate(535.302734 0)"/>
     <use xlink:href="#MicrosoftYaHei-29" transform="translate(593.945312 0)"/>
    </g>
   </g>
   <g id="text_16">
    <g id="patch_8">
     <path d="M 726.424948 306.465469 
L 789.160885 306.465469 
Q 792.160885 306.465469 792.160885 303.465469 
L 792.160885 280.907344 
Q 792.160885 277.907344 789.160885 277.907344 
L 726.424948 277.907344 
Q 723.424948 277.907344 723.424948 280.907344 
L 723.424948 303.465469 
Q 723.424948 306.465469 726.424948 306.465469 
z
" style="fill: #ffffff; opacity: 0.8; stroke: #000000; stroke-linejoin: miter"/>
    </g>
    <!-- HR=0.680 -->
    <g transform="translate(726.424948 288.901094) scale(0.1 -0.1)">
     <use xlink:href="#MicrosoftYaHei-48"/>
     <use xlink:href="#MicrosoftYaHei-52" transform="translate(77.34375 0)"/>
     <use xlink:href="#MicrosoftYaHei-3d" transform="translate(142.626953 0)"/>
     <use xlink:href="#MicrosoftYaHei-30" transform="translate(216.796875 0)"/>
     <use xlink:href="#MicrosoftYaHei-2e" transform="translate(275.439453 0)"/>
     <use xlink:href="#MicrosoftYaHei-36" transform="translate(299.511719 0)"/>
     <use xlink:href="#MicrosoftYaHei-38" transform="translate(358.154297 0)"/>
     <use xlink:href="#MicrosoftYaHei-30" transform="translate(416.796875 0)"/>
    </g>
    <!-- (0.520-0.890) -->
    <g transform="translate(726.424948 300.979531) scale(0.1 -0.1)">
     <defs>
      <path id="MicrosoftYaHei-39" d="M 578 656 
Q 978 425 1441 425 
Q 2091 425 2448 937 
Q 2806 1450 2806 2394 
Q 2800 2388 2794 2394 
Q 2475 1788 1722 1788 
Q 1113 1788 713 2206 
Q 313 2625 313 3294 
Q 313 4006 750 4464 
Q 1188 4922 1884 4922 
Q 2606 4922 3012 4355 
Q 3419 3788 3419 2703 
Q 3419 1363 2894 641 
Q 2369 -81 1441 -81 
Q 931 -81 578 84 
L 578 656 
z
M 931 3372 
Q 931 2884 1181 2598 
Q 1431 2313 1872 2313 
Q 2253 2313 2512 2573 
Q 2772 2834 2772 3206 
Q 2772 3728 2514 4070 
Q 2256 4413 1834 4413 
Q 1444 4413 1187 4116 
Q 931 3819 931 3372 
z
" transform="scale(0.015625)"/>
     </defs>
     <use xlink:href="#MicrosoftYaHei-28"/>
     <use xlink:href="#MicrosoftYaHei-30" transform="translate(33.398438 0)"/>
     <use xlink:href="#MicrosoftYaHei-2e" transform="translate(92.041016 0)"/>
     <use xlink:href="#MicrosoftYaHei-35" transform="translate(116.113281 0)"/>
     <use xlink:href="#MicrosoftYaHei-32" transform="translate(174.755859 0)"/>
     <use xlink:href="#MicrosoftYaHei-30" transform="translate(233.398438 0)"/>
     <use xlink:href="#MicrosoftYaHei-2d" transform="translate(292.041016 0)"/>
     <use xlink:href="#MicrosoftYaHei-30" transform="translate(335.302734 0)"/>
     <use xlink:href="#MicrosoftYaHei-2e" transform="translate(393.945312 0)"/>
     <use xlink:href="#MicrosoftYaHei-38" transform="translate(418.017578 0)"/>
     <use xlink:href="#MicrosoftYaHei-39" transform="translate(476.660156 0)"/>
     <use xlink:href="#MicrosoftYaHei-30" transform="translate(535.302734 0)"/>
     <use xlink:href="#MicrosoftYaHei-29" transform="translate(593.945312 0)"/>
    </g>
   </g>
   <g id="text_17">
    <g id="patch_9">
     <path d="M 726.424948 112.870427 
L 789.160885 112.870427 
Q 792.160885 112.870427 792.160885 109.870427 
L 792.160885 87.312302 
Q 792.160885 84.312302 789.160885 84.312302 
L 726.424948 84.312302 
Q 723.424948 84.312302 723.424948 87.312302 
L 723.424948 109.870427 
Q 723.424948 112.870427 726.424948 112.870427 
z
" style="fill: #ffffff; opacity: 0.8; stroke: #000000; stroke-linejoin: miter"/>
    </g>
    <!-- HR=0.848 -->
    <g transform="translate(726.424948 95.306052) scale(0.1 -0.1)">
     <use xlink:href="#MicrosoftYaHei-48"/>
     <use xlink:href="#MicrosoftYaHei-52" transform="translate(77.34375 0)"/>
     <use xlink:href="#MicrosoftYaHei-3d" transform="translate(142.626953 0)"/>
     <use xlink:href="#MicrosoftYaHei-30" transform="translate(216.796875 0)"/>
     <use xlink:href="#MicrosoftYaHei-2e" transform="translate(275.439453 0)"/>
     <use xlink:href="#MicrosoftYaHei-38" transform="translate(299.511719 0)"/>
     <use xlink:href="#MicrosoftYaHei-34" transform="translate(358.154297 0)"/>
     <use xlink:href="#MicrosoftYaHei-38" transform="translate(416.796875 0)"/>
    </g>
    <!-- (0.530-1.355) -->
    <g transform="translate(726.424948 107.38449) scale(0.1 -0.1)">
     <use xlink:href="#MicrosoftYaHei-28"/>
     <use xlink:href="#MicrosoftYaHei-30" transform="translate(33.398438 0)"/>
     <use xlink:href="#MicrosoftYaHei-2e" transform="translate(92.041016 0)"/>
     <use xlink:href="#MicrosoftYaHei-35" transform="translate(116.113281 0)"/>
     <use xlink:href="#MicrosoftYaHei-33" transform="translate(174.755859 0)"/>
     <use xlink:href="#MicrosoftYaHei-30" transform="translate(233.398438 0)"/>
     <use xlink:href="#MicrosoftYaHei-2d" transform="translate(292.041016 0)"/>
     <use xlink:href="#MicrosoftYaHei-31" transform="translate(335.302734 0)"/>
     <use xlink:href="#MicrosoftYaHei-2e" transform="translate(393.945312 0)"/>
     <use xlink:href="#MicrosoftYaHei-33" transform="translate(418.017578 0)"/>
     <use xlink:href="#MicrosoftYaHei-35" transform="translate(476.660156 0)"/>
     <use xlink:href="#MicrosoftYaHei-35" transform="translate(535.302734 0)"/>
     <use xlink:href="#MicrosoftYaHei-29" transform="translate(593.945312 0)"/>
    </g>
   </g>
   <g id="text_18">
    <g id="patch_10">
     <path d="M 160.029781 86.420156 
L 405.144781 86.420156 
Q 411.144781 86.420156 411.144781 80.420156 
L 411.144781 67.306406 
Q 411.144781 61.306406 405.144781 61.306406 
L 160.029781 61.306406 
Q 154.029781 61.306406 154.029781 67.306406 
L 154.029781 80.420156 
Q 154.029781 86.420156 160.029781 86.420156 
z
" style="fill: #add8e6; opacity: 0.8; stroke: #000000; stroke-linejoin: miter"/>
    </g>
    <!-- Drug-A相比Drug-C降低了15.2%的死亡风险 -->
    <g transform="translate(160.029781 77.378906) scale(0.12 -0.12)">
     <defs>
      <path id="MicrosoftYaHei-Bold-44" d="M 559 0 
L 559 4841 
L 2231 4841 
Q 4809 4841 4809 2481 
Q 4809 1359 4087 679 
Q 3366 0 2225 0 
L 559 0 
z
M 1591 3997 
L 1591 844 
L 2153 844 
Q 2888 844 3306 1281 
Q 3725 1719 3725 2466 
Q 3725 3188 3287 3592 
Q 2850 3997 2150 3997 
L 1591 3997 
z
" transform="scale(0.015625)"/>
      <path id="MicrosoftYaHei-Bold-72" d="M 2663 2541 
Q 2478 2647 2216 2647 
Q 1872 2647 1670 2384 
Q 1469 2122 1469 1663 
L 1469 0 
L 459 0 
L 459 3456 
L 1469 3456 
L 1469 2806 
L 1481 2806 
Q 1731 3516 2391 3516 
Q 2569 3516 2663 3475 
L 2663 2541 
z
" transform="scale(0.015625)"/>
      <path id="MicrosoftYaHei-Bold-75" d="M 3691 0 
L 2688 0 
L 2688 528 
L 2672 528 
Q 2284 -84 1613 -84 
Q 406 -84 406 1372 
L 406 3456 
L 1416 3456 
L 1416 1466 
Q 1416 691 2022 691 
Q 2325 691 2506 903 
Q 2688 1116 2688 1478 
L 2688 3456 
L 3691 3456 
L 3691 0 
z
" transform="scale(0.015625)"/>
      <path id="MicrosoftYaHei-Bold-67" d="M 3800 381 
Q 3800 -581 3251 -1101 
Q 2703 -1622 1672 -1622 
Q 972 -1622 559 -1422 
L 559 -559 
Q 1097 -872 1644 -872 
Q 2184 -872 2489 -583 
Q 2794 -294 2794 219 
L 2794 506 
L 2778 506 
Q 2413 -84 1691 -84 
Q 1038 -84 645 381 
Q 253 847 253 1628 
Q 253 2500 686 3020 
Q 1119 3541 1822 3541 
Q 2459 3541 2778 3044 
L 2794 3044 
L 2794 3456 
L 3800 3456 
L 3800 381 
z
M 2803 1950 
Q 2803 2294 2595 2530 
Q 2388 2766 2072 2766 
Q 1703 2766 1489 2477 
Q 1275 2188 1275 1666 
Q 1275 1213 1481 952 
Q 1688 691 2028 691 
Q 2372 691 2587 956 
Q 2803 1222 2803 1647 
L 2803 1950 
z
" transform="scale(0.015625)"/>
      <path id="MicrosoftYaHei-Bold-2d" d="M 2328 1497 
L 481 1497 
L 481 2209 
L 2328 2209 
L 2328 1497 
z
" transform="scale(0.015625)"/>
      <path id="MicrosoftYaHei-Bold-41" d="M 4759 0 
L 3634 0 
L 3272 1109 
L 1513 1109 
L 1156 0 
L 38 0 
L 1809 4841 
L 3022 4841 
L 4759 0 
z
M 3028 1906 
L 2478 3584 
Q 2425 3744 2403 4006 
L 2375 4006 
Q 2356 3794 2291 3597 
L 1738 1906 
L 3028 1906 
z
" transform="scale(0.015625)"/>
      <path id="MicrosoftYaHei-Bold-76f8" d="M 75 1559 
Q 663 2469 916 3297 
L 138 3297 
L 138 4116 
L 938 4116 
L 938 5272 
L 1763 5272 
L 1763 4116 
L 2456 4116 
L 2456 3297 
L 1763 3297 
L 1763 2741 
Q 2194 2503 2569 2266 
L 2200 1553 
Q 1988 1722 1763 1888 
L 1763 -834 
L 938 -834 
L 938 1641 
Q 672 1034 306 459 
Q 194 1047 75 1559 
z
M 2625 4966 
L 6050 4966 
L 6050 -859 
L 5188 -859 
L 5188 -547 
L 3488 -547 
L 3488 -859 
L 2625 -859 
L 2625 4966 
z
M 5188 4166 
L 3488 4166 
L 3488 3391 
L 5188 3391 
L 5188 4166 
z
M 3488 1828 
L 5188 1828 
L 5188 2603 
L 3488 2603 
L 3488 1828 
z
M 3488 253 
L 5188 253 
L 5188 1041 
L 3488 1041 
L 3488 253 
z
" transform="scale(0.015625)"/>
      <path id="MicrosoftYaHei-Bold-43" d="M 4013 175 
Q 3484 -84 2634 -84 
Q 1541 -84 898 570 
Q 256 1225 256 2316 
Q 256 3463 973 4192 
Q 1691 4922 2825 4922 
Q 3534 4922 4013 4738 
L 4013 3741 
Q 3522 4028 2900 4028 
Q 2191 4028 1766 3575 
Q 1341 3122 1341 2391 
Q 1341 1678 1744 1243 
Q 2147 809 2834 809 
Q 3481 809 4013 1122 
L 4013 175 
z
" transform="scale(0.015625)"/>
      <path id="MicrosoftYaHei-Bold-964d" d="M 6050 4853 
L 6050 4147 
Q 5675 3588 5194 3216 
Q 5728 3059 6381 3009 
Q 6213 2647 6063 2259 
Q 5081 2441 4394 2750 
Q 3650 2425 2531 2222 
Q 2338 2703 2219 2916 
Q 3025 2994 3647 3194 
Q 3400 3381 3178 3606 
Q 2994 3406 2794 3216 
Q 2569 3528 2306 3828 
Q 3125 4528 3506 5328 
L 4350 5222 
Q 4244 5034 4131 4853 
L 6050 4853 
z
M 4419 3531 
Q 4866 3794 5144 4166 
L 3653 4166 
Q 3644 4156 3638 4147 
Q 3975 3784 4419 3531 
z
M 1869 2722 
Q 2344 2122 2344 1247 
Q 2344 725 2097 483 
Q 1850 241 1250 241 
Q 1213 666 1113 1084 
Q 1244 1053 1344 1053 
Q 1613 1053 1613 1403 
Q 1613 2053 1131 2647 
L 1588 4328 
L 1100 4328 
L 1100 -828 
L 369 -828 
L 369 5047 
L 2400 5047 
L 2400 4453 
L 1869 2722 
z
M 3263 753 
L 4075 753 
L 4075 1403 
L 2513 1403 
L 2513 2103 
L 4075 2103 
L 4075 2503 
L 4825 2503 
L 4825 2103 
L 6056 2103 
L 6056 1403 
L 4825 1403 
L 4825 753 
L 6219 753 
L 6219 53 
L 4825 53 
L 4825 -822 
L 4075 -822 
L 4075 53 
L 2438 53 
L 2438 734 
L 2769 1328 
L 3544 1328 
L 3263 753 
z
" transform="scale(0.015625)"/>
      <path id="MicrosoftYaHei-Bold-4f4e" d="M 1331 5322 
L 2119 5072 
Q 1894 4341 1594 3669 
L 1594 -784 
L 788 -784 
L 788 2178 
Q 547 1806 281 1459 
Q 206 2009 81 2616 
Q 856 3759 1331 5322 
z
M 3000 741 
Q 3263 853 3975 1284 
Q 4013 903 4075 466 
Q 3969 409 3763 291 
Q 4022 -66 4281 -441 
L 3563 -859 
Q 3328 -416 3103 -88 
Q 2606 -366 2363 -572 
L 1919 147 
Q 2194 391 2194 884 
L 2194 4784 
Q 3606 4872 5850 5141 
Q 5950 4766 6044 4366 
Q 5503 4297 4759 4225 
Q 4759 3728 4800 3028 
L 6225 3028 
L 6225 2253 
L 4847 2253 
Q 4938 1047 5098 634 
Q 5259 222 5403 222 
Q 5469 222 5523 361 
Q 5578 500 5656 1366 
Q 5969 1184 6300 1041 
Q 6191 -94 6023 -412 
Q 5856 -731 5447 -731 
Q 4206 -731 4041 2253 
L 3000 2253 
L 3000 741 
z
M 3000 4072 
L 3000 3028 
L 4000 3028 
L 3956 4150 
L 3000 4072 
z
" transform="scale(0.015625)"/>
      <path id="MicrosoftYaHei-Bold-4e86" d="M 2856 2878 
Q 3613 3397 4600 4128 
L 325 4128 
L 325 4997 
L 6050 4997 
L 6050 4134 
L 3844 2491 
L 3844 472 
Q 3844 -122 3539 -414 
Q 3234 -706 2634 -709 
L 1494 -716 
Q 1406 -253 1269 241 
Q 1866 184 2266 184 
Q 2634 184 2745 336 
Q 2856 488 2856 728 
L 2856 2878 
z
" transform="scale(0.015625)"/>
      <path id="MicrosoftYaHei-Bold-31" d="M 2716 4947 
L 2716 0 
L 1700 0 
L 1700 3809 
Q 1513 3647 1188 3517 
Q 863 3388 591 3356 
L 591 4222 
Q 1447 4472 2072 4947 
L 2716 4947 
z
" transform="scale(0.015625)"/>
      <path id="MicrosoftYaHei-Bold-35" d="M 541 125 
L 541 997 
Q 1044 691 1613 691 
Q 2041 691 2283 902 
Q 2525 1113 2525 1472 
Q 2525 2225 1494 2225 
Q 1113 2225 616 2169 
L 797 4841 
L 3359 4841 
L 3359 4009 
L 1613 4009 
L 1544 2991 
Q 1803 3013 2022 3013 
Q 2731 3013 3142 2625 
Q 3553 2238 3553 1575 
Q 3553 844 3056 380 
Q 2559 -84 1706 -84 
Q 1016 -84 541 125 
z
" transform="scale(0.015625)"/>
      <path id="MicrosoftYaHei-Bold-2e" d="M 313 453 
Q 313 688 491 838 
Q 669 988 916 988 
Q 1166 988 1337 834 
Q 1509 681 1509 453 
Q 1509 213 1337 64 
Q 1166 -84 903 -84 
Q 659 -84 486 69 
Q 313 222 313 453 
z
" transform="scale(0.015625)"/>
      <path id="MicrosoftYaHei-Bold-32" d="M 1500 841 
L 3553 841 
L 3553 0 
L 334 0 
L 334 359 
Q 334 738 473 1050 
Q 613 1363 856 1633 
Q 1100 1903 1613 2266 
Q 2081 2616 2268 2886 
Q 2456 3156 2456 3459 
Q 2456 4113 1744 4113 
Q 1119 4113 550 3613 
L 550 4513 
Q 1184 4922 1975 4922 
Q 2700 4922 3122 4551 
Q 3544 4181 3544 3531 
Q 3544 3169 3422 2876 
Q 3300 2584 3069 2328 
Q 2838 2072 2328 1713 
Q 1838 1363 1669 1172 
Q 1500 981 1500 841 
z
" transform="scale(0.015625)"/>
      <path id="MicrosoftYaHei-Bold-25" d="M 297 3597 
Q 297 4191 626 4548 
Q 956 4906 1519 4906 
Q 2056 4906 2354 4581 
Q 2653 4256 2653 3684 
Q 2653 3097 2322 2744 
Q 1991 2391 1438 2391 
Q 919 2391 608 2722 
Q 297 3053 297 3597 
z
M 984 3631 
Q 984 2959 1478 2959 
Q 1981 2959 1981 3659 
Q 1981 4338 1500 4338 
Q 984 4338 984 3631 
z
M 4938 4841 
L 1791 -3 
L 1006 -3 
L 4147 4841 
L 4938 4841 
z
M 3297 1141 
Q 3297 1741 3631 2095 
Q 3966 2450 4522 2450 
Q 5059 2450 5357 2131 
Q 5656 1813 5656 1234 
Q 5656 641 5322 286 
Q 4988 -69 4438 -69 
Q 3922 -69 3609 264 
Q 3297 597 3297 1141 
z
M 3981 1175 
Q 3981 500 4478 500 
Q 4978 500 4978 1200 
Q 4978 1528 4845 1704 
Q 4713 1881 4491 1881 
Q 3981 1881 3981 1175 
z
" transform="scale(0.015625)"/>
      <path id="MicrosoftYaHei-Bold-7684" d="M 1250 5303 
L 2181 5159 
L 1900 4309 
L 2963 4309 
L 2963 3091 
Q 3466 3934 3925 5316 
L 4788 5091 
Q 4650 4675 4494 4278 
L 6106 4278 
L 6034 681 
Q 6019 100 5937 -133 
Q 5856 -366 5684 -512 
Q 5513 -659 5205 -712 
Q 4897 -766 3863 -766 
Q 3769 -216 3625 178 
Q 4088 141 4609 141 
Q 4759 141 4868 175 
Q 4978 209 5048 279 
Q 5119 350 5144 437 
Q 5169 525 5184 1206 
L 5213 2484 
Q 5225 3081 5225 3453 
L 4138 3453 
Q 3931 3016 3700 2603 
Q 3403 2797 2963 2988 
L 2963 -734 
L 2094 -734 
L 2094 -284 
L 1206 -284 
L 1206 -772 
L 338 -772 
L 338 4309 
L 997 4309 
Q 1178 4922 1250 5303 
z
M 2094 3491 
L 1206 3491 
L 1206 2422 
L 2094 2422 
L 2094 3491 
z
M 1206 534 
L 2094 534 
L 2094 1603 
L 1206 1603 
L 1206 534 
z
M 3944 2703 
Q 4394 2166 4913 1397 
L 4125 872 
Q 3650 1653 3219 2203 
L 3944 2703 
z
" transform="scale(0.015625)"/>
      <path id="MicrosoftYaHei-Bold-6b7b" d="M 225 5028 
L 6175 5028 
L 6175 4216 
L 4450 4216 
L 4450 2491 
Q 5113 2956 5713 3566 
L 6319 2928 
Q 5316 2088 4450 1569 
L 4450 466 
Q 4450 128 4738 128 
L 5069 128 
Q 5350 128 5400 342 
Q 5450 556 5519 1491 
Q 6038 1272 6319 1172 
Q 6222 -119 5976 -373 
Q 5731 -628 5263 -628 
L 4500 -628 
Q 3606 -628 3606 322 
L 3606 4216 
L 2197 4216 
Q 2066 3831 1913 3478 
L 3356 3478 
L 3356 2684 
Q 2900 416 831 -847 
Q 644 -609 194 -147 
Q 1094 313 1672 984 
Q 1347 1300 963 1647 
L 1431 2166 
Q 1791 1884 2116 1613 
Q 2394 2100 2544 2678 
L 1522 2678 
Q 1072 1866 481 1228 
Q 281 1691 69 2041 
Q 834 2891 1341 4216 
L 225 4216 
L 225 5028 
z
" transform="scale(0.015625)"/>
      <path id="MicrosoftYaHei-Bold-4ea1" d="M 125 4122 
L 3044 4122 
Q 2863 4597 2613 5128 
L 3606 5372 
Q 3881 4841 4081 4372 
L 3088 4122 
L 6275 4122 
L 6275 3291 
L 1800 3291 
L 1800 334 
L 5975 334 
L 5975 -478 
L 850 -478 
L 850 3291 
L 125 3291 
L 125 4122 
z
" transform="scale(0.015625)"/>
     </defs>
     <use xlink:href="#MicrosoftYaHei-Bold-44"/>
     <use xlink:href="#MicrosoftYaHei-Bold-72" transform="translate(79.150391 0)"/>
     <use xlink:href="#MicrosoftYaHei-Bold-75" transform="translate(121.783203 0)"/>
     <use xlink:href="#MicrosoftYaHei-Bold-67" transform="translate(186.578125 0)"/>
     <use xlink:href="#MicrosoftYaHei-Bold-2d" transform="translate(253.033203 0)"/>
     <use xlink:href="#MicrosoftYaHei-Bold-41" transform="translate(296.685547 0)"/>
     <use xlink:href="#MicrosoftYaHei-Bold-76f8" transform="translate(371.880859 0)"/>
     <use xlink:href="#MicrosoftYaHei-Bold-6bd4" transform="translate(471.880859 0)"/>
     <use xlink:href="#MicrosoftYaHei-Bold-44" transform="translate(571.880859 0)"/>
     <use xlink:href="#MicrosoftYaHei-Bold-72" transform="translate(651.03125 0)"/>
     <use xlink:href="#MicrosoftYaHei-Bold-75" transform="translate(693.664062 0)"/>
     <use xlink:href="#MicrosoftYaHei-Bold-67" transform="translate(758.458984 0)"/>
     <use xlink:href="#MicrosoftYaHei-Bold-2d" transform="translate(824.914062 0)"/>
     <use xlink:href="#MicrosoftYaHei-Bold-43" transform="translate(868.566406 0)"/>
     <use xlink:href="#MicrosoftYaHei-Bold-964d" transform="translate(935.900391 0)"/>
     <use xlink:href="#MicrosoftYaHei-Bold-4f4e" transform="translate(1035.900391 0)"/>
     <use xlink:href="#MicrosoftYaHei-Bold-4e86" transform="translate(1135.900391 0)"/>
     <use xlink:href="#MicrosoftYaHei-Bold-31" transform="translate(1235.900391 0)"/>
     <use xlink:href="#MicrosoftYaHei-Bold-35" transform="translate(1297.570312 0)"/>
     <use xlink:href="#MicrosoftYaHei-Bold-2e" transform="translate(1359.240234 0)"/>
     <use xlink:href="#MicrosoftYaHei-Bold-32" transform="translate(1387.804688 0)"/>
     <use xlink:href="#MicrosoftYaHei-Bold-25" transform="translate(1449.474609 0)"/>
     <use xlink:href="#MicrosoftYaHei-Bold-7684" transform="translate(1542.589844 0)"/>
     <use xlink:href="#MicrosoftYaHei-Bold-6b7b" transform="translate(1642.589844 0)"/>
     <use xlink:href="#MicrosoftYaHei-Bold-4ea1" transform="translate(1742.589844 0)"/>
     <use xlink:href="#MicrosoftYaHei-Bold-98ce" transform="translate(1842.589844 0)"/>
     <use xlink:href="#MicrosoftYaHei-Bold-9669" transform="translate(1942.589844 0)"/>
    </g>
   </g>
   <g id="text_19">
    <!-- Drug-A vs Drug-C 间接比较森林图 -->
    <g transform="translate(371.868828 19.746094) scale(0.15 -0.15)">
     <defs>
      <path id="MicrosoftYaHei-Bold-76" d="M 3688 3456 
L 2391 0 
L 1250 0 
L 16 3456 
L 1097 3456 
L 1731 1281 
Q 1834 925 1847 684 
L 1863 684 
Q 1888 931 1984 1263 
L 2631 3456 
L 3688 3456 
z
" transform="scale(0.015625)"/>
      <path id="MicrosoftYaHei-Bold-73" d="M 369 928 
Q 888 613 1384 613 
Q 2009 613 2009 947 
Q 2009 1184 1494 1344 
Q 850 1544 609 1789 
Q 369 2034 369 2453 
Q 369 2963 781 3252 
Q 1194 3541 1863 3541 
Q 2338 3541 2778 3400 
L 2778 2606 
Q 2375 2844 1891 2844 
Q 1650 2844 1503 2758 
Q 1356 2672 1356 2531 
Q 1356 2294 1794 2147 
Q 2263 1991 2498 1862 
Q 2734 1734 2857 1525 
Q 2981 1316 2981 1041 
Q 2981 506 2553 211 
Q 2125 -84 1409 -84 
Q 847 -84 369 94 
L 369 928 
z
" transform="scale(0.015625)"/>
      <path id="MicrosoftYaHei-Bold-95f4" d="M 1088 5059 
L 1906 5347 
Q 2200 4884 2506 4334 
L 1638 4003 
Q 1356 4597 1088 5059 
z
M 6056 347 
Q 6056 -106 5904 -378 
Q 5753 -650 5422 -736 
Q 5091 -822 3950 -822 
Q 3875 -359 3750 53 
Q 4150 28 4769 28 
Q 5188 28 5188 397 
L 5188 4278 
L 2719 4278 
L 2719 5047 
L 6056 5047 
L 6056 347 
z
M 344 4522 
L 1213 4522 
L 1213 -803 
L 344 -803 
L 344 4522 
z
M 1788 3772 
L 4581 3772 
L 4581 484 
L 2575 484 
L 2575 141 
L 1788 141 
L 1788 3772 
z
M 3794 3072 
L 2575 3072 
L 2575 2478 
L 3794 2478 
L 3794 3072 
z
M 3794 1184 
L 3794 1778 
L 2575 1778 
L 2575 1184 
L 3794 1184 
z
" transform="scale(0.015625)"/>
      <path id="MicrosoftYaHei-Bold-63a5" d="M 6106 4059 
L 5156 4059 
L 5738 3828 
L 5344 3303 
L 6300 3303 
L 6300 2603 
L 3475 2603 
L 4150 2409 
L 3975 2097 
L 6238 2097 
L 6238 1397 
L 5609 1397 
Q 5406 831 5000 397 
L 6213 -103 
L 5794 -841 
Q 5016 -441 4353 -128 
Q 3528 -650 2238 -859 
Q 2075 -509 1844 -116 
Q 2806 -3 3463 275 
Q 2825 550 2331 716 
Q 2541 1047 2722 1397 
L 2075 1397 
L 2075 1631 
Q 1859 1600 1625 1556 
L 1625 3 
Q 1625 -359 1467 -556 
Q 1309 -753 1001 -779 
Q 694 -806 281 -816 
Q 225 -409 94 9 
Q 325 -3 503 -3 
Q 694 -3 753 59 
Q 813 122 813 291 
L 813 1403 
L 194 1272 
L 94 2166 
Q 394 2200 813 2259 
L 813 3347 
L 194 3347 
L 194 4147 
L 813 4147 
L 813 5303 
L 1625 5303 
L 1625 4147 
L 2156 4147 
L 2156 3347 
L 1625 3347 
L 1625 2384 
L 2119 2466 
Q 2109 2266 2109 2097 
L 3056 2097 
Q 3163 2344 3259 2603 
L 2081 2603 
L 2081 3303 
L 2969 3303 
Q 2784 3628 2650 3828 
L 3169 4059 
L 2300 4059 
L 2300 4759 
L 3688 4759 
Q 3597 4991 3500 5197 
L 4438 5353 
Q 4547 5091 4653 4759 
L 6106 4759 
L 6106 4059 
z
M 3931 3472 
L 3541 3303 
L 4391 3303 
Q 4700 3781 4850 4059 
L 3525 4059 
Q 3703 3819 3931 3472 
z
M 3375 1034 
L 4200 716 
Q 4544 1009 4709 1397 
L 3581 1397 
L 3375 1034 
z
" transform="scale(0.015625)"/>
      <path id="MicrosoftYaHei-Bold-8f83" d="M 2447 2416 
Q 2975 2934 3525 3716 
L 2750 3716 
L 2750 4484 
L 3997 4484 
Q 3841 4809 3681 5109 
L 4469 5353 
Q 4713 4947 4869 4634 
L 4400 4484 
L 6206 4484 
L 6206 3716 
L 5147 3716 
Q 5775 3147 6325 2553 
L 5725 2003 
Q 5325 2491 4563 3291 
L 5088 3716 
L 3581 3716 
L 4213 3316 
Q 3669 2553 2963 1891 
Q 2863 2013 2519 2369 
L 2519 1678 
L 2063 1678 
L 2063 1150 
L 2806 1241 
Q 2750 991 2756 466 
L 2063 394 
L 2063 -859 
L 1313 -859 
L 1313 309 
Q 650 234 163 166 
L 88 953 
L 1313 1069 
L 1313 1678 
L 188 1678 
L 188 2403 
Q 372 3075 534 3753 
L 106 3753 
L 106 4491 
L 706 4491 
L 888 5334 
L 1656 5228 
L 1488 4491 
L 2494 4491 
L 2494 3753 
L 1303 3753 
Q 1138 3097 944 2416 
L 1313 2416 
L 1313 3428 
L 2063 3428 
L 2063 2416 
L 2447 2416 
z
M 3881 2328 
Q 4081 1788 4384 1366 
Q 4703 1828 4869 2403 
L 5625 2109 
Q 5350 1366 4925 775 
Q 5506 275 6325 34 
L 5863 -822 
Q 5022 -456 4394 159 
Q 3753 -475 2869 -872 
Q 2663 -516 2369 -72 
Q 3269 244 3866 778 
Q 3456 1344 3175 2059 
L 3881 2328 
z
" transform="scale(0.015625)"/>
      <path id="MicrosoftYaHei-Bold-68ee" d="M 2794 5341 
L 3594 5341 
L 3594 4722 
L 6075 4722 
L 6075 4034 
L 4088 4034 
Q 4972 3500 6325 3272 
Q 6125 2916 5925 2491 
Q 4503 2916 3594 3653 
L 3594 2541 
L 2794 2541 
L 2794 3663 
Q 1878 2925 531 2453 
Q 331 2822 88 3184 
Q 1359 3491 2291 4034 
L 325 4034 
L 325 4722 
L 2794 4722 
L 2794 5341 
z
M 4888 -847 
L 4150 -847 
L 4150 756 
Q 3694 0 3069 -584 
Q 2819 -172 2594 141 
Q 3403 678 3928 1472 
L 3200 1472 
L 3200 2134 
L 4150 2134 
L 4150 2759 
L 4888 2759 
L 4888 2134 
L 6075 2134 
L 6075 1472 
L 5088 1472 
Q 5559 744 6325 291 
Q 6069 -191 5925 -509 
Q 5331 9 4888 750 
L 4888 -847 
z
M 256 2141 
L 1331 2141 
L 1331 2759 
L 2069 2759 
L 2069 2141 
L 2981 2141 
L 2981 1478 
L 2069 1478 
L 2069 1100 
L 2450 1416 
Q 2719 1178 3106 784 
L 2538 284 
Q 2288 588 2069 822 
L 2069 -847 
L 1331 -847 
L 1331 591 
Q 938 -91 494 -547 
Q 250 -159 19 147 
Q 663 634 1194 1478 
L 256 1478 
L 256 2141 
z
" transform="scale(0.015625)"/>
      <path id="MicrosoftYaHei-Bold-6797" d="M 3888 -816 
L 3888 2456 
Q 3431 1006 2656 9 
Q 2369 472 2106 822 
Q 3113 1916 3634 3372 
L 2788 3372 
L 2788 4172 
L 3888 4172 
L 3888 5284 
L 4713 5284 
L 4713 4172 
L 6138 4172 
L 6138 3372 
L 4969 3372 
Q 5500 1825 6350 1003 
Q 6119 647 5806 128 
Q 5141 897 4713 2578 
L 4713 -816 
L 3888 -816 
z
M 81 1597 
Q 550 2278 966 3378 
L 138 3378 
L 138 4178 
L 1038 4178 
L 1038 5284 
L 1863 5284 
L 1863 4178 
L 2525 4178 
L 2525 3378 
L 1863 3378 
L 1863 2963 
Q 2416 2553 2856 2166 
L 2350 1528 
Q 2138 1766 1863 2038 
L 1863 -816 
L 1038 -816 
L 1038 1766 
Q 753 1106 369 491 
Q 269 903 81 1597 
z
" transform="scale(0.015625)"/>
      <path id="MicrosoftYaHei-Bold-56fe" d="M 369 -841 
L 369 5072 
L 6019 5072 
L 6019 -834 
L 5156 -834 
L 5156 -591 
L 1231 -591 
L 1231 -841 
L 369 -841 
z
M 4875 3978 
L 4875 3466 
Q 4547 3022 4006 2678 
Q 4513 2541 5156 2463 
L 5156 4316 
L 3256 4316 
Q 3141 4144 3009 3978 
L 4875 3978 
z
M 2394 4316 
L 1231 4316 
L 1231 3231 
Q 2016 3747 2394 4316 
z
M 3228 2959 
Q 3666 3163 3919 3416 
L 2575 3416 
Q 2828 3156 3228 2959 
z
M 1644 2747 
Q 1481 2925 1231 3147 
L 1231 2400 
Q 1950 2522 2500 2688 
Q 2266 2863 2078 3063 
Q 1872 2900 1644 2747 
z
M 1669 1303 
Q 3319 1084 4775 841 
L 4600 166 
L 5156 166 
L 5156 2388 
Q 5019 2159 4825 1822 
Q 3897 1978 3219 2275 
Q 2872 2134 2472 2019 
Q 3509 1888 4500 1722 
L 4375 1128 
Q 3344 1309 2063 1484 
L 2159 1934 
Q 1856 1859 1525 1797 
Q 1409 2059 1231 2347 
L 1231 166 
L 4569 166 
Q 3297 425 1494 647 
L 1669 1303 
z
" transform="scale(0.015625)"/>
     </defs>
     <use xlink:href="#MicrosoftYaHei-Bold-44"/>
     <use xlink:href="#MicrosoftYaHei-Bold-72" transform="translate(79.150391 0)"/>
     <use xlink:href="#MicrosoftYaHei-Bold-75" transform="translate(121.783203 0)"/>
     <use xlink:href="#MicrosoftYaHei-Bold-67" transform="translate(186.578125 0)"/>
     <use xlink:href="#MicrosoftYaHei-Bold-2d" transform="translate(253.033203 0)"/>
     <use xlink:href="#MicrosoftYaHei-Bold-41" transform="translate(296.685547 0)"/>
     <use xlink:href="#MicrosoftYaHei-Bold-20" transform="translate(371.880859 0)"/>
     <use xlink:href="#MicrosoftYaHei-Bold-76" transform="translate(401.666016 0)"/>
     <use xlink:href="#MicrosoftYaHei-Bold-73" transform="translate(459.380859 0)"/>
     <use xlink:href="#MicrosoftYaHei-Bold-20" transform="translate(508.746094 0)"/>
     <use xlink:href="#MicrosoftYaHei-Bold-44" transform="translate(538.53125 0)"/>
     <use xlink:href="#MicrosoftYaHei-Bold-72" transform="translate(617.681641 0)"/>
     <use xlink:href="#MicrosoftYaHei-Bold-75" transform="translate(660.314453 0)"/>
     <use xlink:href="#MicrosoftYaHei-Bold-67" transform="translate(725.109375 0)"/>
     <use xlink:href="#MicrosoftYaHei-Bold-2d" transform="translate(791.564453 0)"/>
     <use xlink:href="#MicrosoftYaHei-Bold-43" transform="translate(835.216797 0)"/>
     <use xlink:href="#MicrosoftYaHei-Bold-20" transform="translate(902.550781 0)"/>
     <use xlink:href="#MicrosoftYaHei-Bold-95f4" transform="translate(932.335938 0)"/>
     <use xlink:href="#MicrosoftYaHei-Bold-63a5" transform="translate(1032.335938 0)"/>
     <use xlink:href="#MicrosoftYaHei-Bold-6bd4" transform="translate(1132.335938 0)"/>
     <use xlink:href="#MicrosoftYaHei-Bold-8f83" transform="translate(1232.335938 0)"/>
     <use xlink:href="#MicrosoftYaHei-Bold-68ee" transform="translate(1332.335938 0)"/>
     <use xlink:href="#MicrosoftYaHei-Bold-6797" transform="translate(1432.335938 0)"/>
     <use xlink:href="#MicrosoftYaHei-Bold-56fe" transform="translate(1532.335938 0)"/>
    </g>
    <!-- (X阳性人群, MAIC调整) -->
    <g transform="translate(412.905547 37.936406) scale(0.15 -0.15)">
     <defs>
      <path id="MicrosoftYaHei-Bold-58" d="M 4447 0 
L 3222 0 
L 2353 1606 
Q 2306 1694 2256 1922 
L 2244 1922 
Q 2219 1809 2131 1597 
L 1259 0 
L 25 0 
L 1578 2422 
L 159 4841 
L 1416 4841 
L 2138 3359 
Q 2225 3178 2288 2959 
L 2300 2959 
Q 2366 3156 2459 3375 
L 3256 4841 
L 4409 4841 
L 2947 2441 
L 4447 0 
z
" transform="scale(0.015625)"/>
      <path id="MicrosoftYaHei-Bold-9633" d="M 2050 2703 
Q 2606 2066 2606 1016 
Q 2606 472 2306 219 
Q 2006 -34 1319 -34 
Q 1275 478 1169 891 
Q 1313 872 1419 872 
Q 1781 872 1781 1172 
Q 1781 1966 1225 2609 
Q 1469 3428 1688 4341 
L 1144 4341 
L 1144 -847 
L 331 -847 
L 331 5066 
L 2531 5066 
L 2531 4466 
Q 2313 3622 2050 2703 
z
M 6025 -822 
L 5181 -822 
L 5181 -409 
L 3619 -409 
L 3619 -822 
L 2775 -822 
L 2775 4966 
L 6025 4966 
L 6025 -822 
z
M 3619 2678 
L 5181 2678 
L 5181 4178 
L 3619 4178 
L 3619 2678 
z
M 3619 378 
L 5181 378 
L 5181 1891 
L 3619 1891 
L 3619 378 
z
" transform="scale(0.015625)"/>
      <path id="MicrosoftYaHei-Bold-6027" d="M 2250 216 
L 3975 216 
L 3975 1378 
L 2563 1378 
L 2563 2191 
L 3975 2191 
L 3975 3303 
L 3213 3303 
Q 3075 2734 2913 2272 
Q 2538 2491 2175 2684 
Q 2563 3684 2738 4947 
L 3506 4891 
Q 3447 4484 3381 4116 
L 3975 4116 
L 3975 5316 
L 4825 5316 
L 4825 4116 
L 6125 4116 
L 6125 3303 
L 4825 3303 
L 4825 2191 
L 6100 2191 
L 6100 1378 
L 4825 1378 
L 4825 216 
L 6313 216 
L 6313 -597 
L 2250 -597 
L 2250 216 
z
M 1788 5316 
L 1788 4456 
Q 2125 4316 2494 4134 
L 2175 3453 
L 1788 3713 
L 1788 -841 
L 950 -841 
L 950 5316 
L 1788 5316 
z
M 269 4103 
L 800 4041 
Q 719 3009 619 2178 
Q 350 2284 106 2316 
Q 225 3284 269 4103 
z
" transform="scale(0.015625)"/>
      <path id="MicrosoftYaHei-Bold-4eba" d="M 2731 5297 
L 3644 5297 
Q 3647 4619 3584 3984 
Q 4053 1066 6300 147 
Q 5806 -434 5581 -759 
Q 3900 94 3206 2147 
Q 2547 313 719 -822 
Q 525 -478 88 72 
Q 1491 872 2117 2009 
Q 2744 3147 2731 5297 
z
" transform="scale(0.015625)"/>
      <path id="MicrosoftYaHei-Bold-7fa4" d="M 3225 1278 
L 4325 1278 
L 4325 2022 
L 3375 2022 
L 3375 2753 
L 4325 2753 
L 4325 3484 
L 3331 3484 
L 3331 3209 
L 3031 3209 
L 3031 2053 
L 1378 2053 
Q 1319 1822 1241 1622 
L 3038 1622 
L 3038 -816 
L 2319 -816 
L 2319 -478 
L 1419 -478 
L 1419 -828 
L 713 -828 
L 713 622 
Q 509 322 250 -3 
Q 169 478 44 941 
Q 459 1497 659 2053 
L 213 2053 
L 213 2716 
L 828 2716 
Q 863 2944 888 3209 
L 100 3209 
L 100 3897 
L 916 3897 
L 925 4391 
L 338 4391 
L 338 5053 
L 3031 5053 
L 3031 3897 
L 3325 3897 
L 3325 4216 
L 3903 4216 
Q 3653 4622 3394 4959 
L 3988 5353 
Q 4344 4916 4669 4478 
L 4281 4216 
L 4863 4216 
Q 5194 4700 5550 5366 
L 6256 4991 
Q 5994 4597 5719 4216 
L 6225 4216 
L 6225 3484 
L 5144 3484 
L 5144 2753 
L 6175 2753 
L 6175 2022 
L 5144 2022 
L 5144 1278 
L 6313 1278 
L 6313 547 
L 5144 547 
L 5144 -841 
L 4325 -841 
L 4325 547 
L 3225 547 
L 3225 1278 
z
M 2338 4391 
L 1631 4391 
Q 1631 4134 1622 3897 
L 2338 3897 
L 2338 4391 
z
M 2338 2716 
L 2338 3209 
L 1578 3209 
Q 1553 2950 1516 2716 
L 2338 2716 
z
M 2319 953 
L 1419 953 
L 1419 191 
L 2319 191 
L 2319 953 
z
" transform="scale(0.015625)"/>
      <path id="MicrosoftYaHei-Bold-2c" d="M 1419 841 
L 916 -859 
L 134 -859 
L 484 841 
L 1419 841 
z
" transform="scale(0.015625)"/>
      <path id="MicrosoftYaHei-Bold-4d" d="M 4991 0 
L 4991 2938 
Q 4991 3344 5031 3959 
L 5006 3959 
Q 4913 3494 4856 3338 
L 3663 0 
L 2841 0 
L 1631 3306 
Q 1588 3425 1478 3959 
L 1450 3959 
Q 1491 3350 1491 2738 
L 1491 0 
L 559 0 
L 559 4841 
L 2059 4841 
L 3103 1916 
Q 3234 1553 3281 1234 
L 3303 1234 
Q 3400 1631 3503 1922 
L 4550 4841 
L 6009 4841 
L 6009 0 
L 4991 0 
z
" transform="scale(0.015625)"/>
      <path id="MicrosoftYaHei-Bold-49" d="M 1588 4841 
L 1588 0 
L 556 0 
L 556 4841 
L 1588 4841 
z
" transform="scale(0.015625)"/>
      <path id="MicrosoftYaHei-Bold-8c03" d="M 5225 4341 
L 2644 4341 
L 2644 2078 
Q 2644 184 2088 -884 
Q 1706 -622 1225 -366 
Q 1856 484 1856 1997 
L 1856 5078 
L 6013 5078 
L 6013 84 
Q 6013 -753 5281 -791 
Q 4988 -816 4400 -816 
Q 4313 -384 4213 16 
Q 4631 -16 4900 -9 
Q 5225 -9 5225 303 
L 5225 4341 
z
M 2894 -41 
L 2894 1978 
L 4931 1978 
L 4931 266 
L 3581 266 
L 3581 -41 
L 2894 -41 
z
M 1663 1853 
Q 1656 1372 1738 891 
Q 1369 553 769 -147 
L 325 459 
Q 481 641 488 991 
L 488 2641 
L 100 2641 
L 100 3453 
L 1281 3453 
L 1281 1441 
Q 1406 1578 1663 1853 
z
M 2775 2891 
L 3550 2891 
L 3550 3253 
L 2881 3253 
L 2881 3841 
L 3550 3841 
L 3550 4228 
L 4313 4228 
L 4313 3841 
L 4994 3841 
L 4994 3253 
L 4313 3253 
L 4313 2891 
L 5094 2891 
L 5094 2303 
L 2775 2303 
L 2775 2891 
z
M 938 5247 
Q 1375 4684 1694 4172 
Q 1394 3991 963 3734 
Q 644 4334 263 4853 
L 938 5247 
z
M 4244 1391 
L 3581 1391 
L 3581 853 
L 4244 853 
L 4244 1391 
z
" transform="scale(0.015625)"/>
      <path id="MicrosoftYaHei-Bold-6574" d="M 150 -66 
L 1106 -66 
L 1106 903 
L 1944 903 
L 1944 -66 
L 2844 -66 
L 2844 1091 
L 513 1091 
L 513 1572 
L 444 1534 
Q 269 1809 44 2128 
Q 669 2366 1156 2791 
L 356 2791 
L 356 4141 
L 1488 4141 
L 1488 4397 
L 213 4397 
L 213 4966 
L 1488 4966 
L 1488 5309 
L 2194 5309 
L 2194 4966 
L 3425 4966 
L 3425 4397 
L 2194 4397 
L 2194 4141 
L 3325 4141 
L 3325 3803 
Q 3781 4509 4006 5347 
L 4744 5209 
Q 4663 4972 4581 4759 
L 6263 4759 
L 6263 4103 
L 5956 4103 
Q 5744 3297 5356 2784 
Q 5788 2516 6369 2416 
Q 6188 2153 5963 1716 
Q 5294 1922 4825 2259 
Q 4413 1947 3744 1666 
Q 3625 1828 3338 2216 
L 3044 1722 
Q 2600 2009 2194 2191 
L 2194 1784 
L 1488 1784 
L 1488 2378 
Q 1094 1947 638 1653 
L 5900 1653 
L 5900 1091 
L 3681 1091 
L 3681 778 
L 5531 778 
L 5531 247 
L 3681 247 
L 3681 -66 
L 6263 -66 
L 6263 -678 
L 150 -678 
L 150 -66 
z
M 2194 2791 
L 2194 2403 
L 2413 2753 
Q 2888 2547 3344 2309 
Q 3913 2484 4306 2747 
Q 4075 3022 3900 3384 
Q 3813 3259 3731 3153 
Q 3600 3253 3325 3441 
L 3325 2791 
L 2194 2791 
z
M 5225 4103 
L 4319 4103 
Q 4506 3597 4819 3234 
Q 5075 3597 5225 4103 
z
M 1019 3278 
L 1488 3278 
L 1488 3653 
L 1019 3653 
L 1019 3278 
z
M 2663 3278 
L 2663 3653 
L 2194 3653 
L 2194 3278 
L 2663 3278 
z
" transform="scale(0.015625)"/>
     </defs>
     <use xlink:href="#MicrosoftYaHei-Bold-28"/>
     <use xlink:href="#MicrosoftYaHei-Bold-58" transform="translate(38.964844 0)"/>
     <use xlink:href="#MicrosoftYaHei-Bold-9633" transform="translate(108.984375 0)"/>
     <use xlink:href="#MicrosoftYaHei-Bold-6027" transform="translate(208.984375 0)"/>
     <use xlink:href="#MicrosoftYaHei-Bold-4eba" transform="translate(308.984375 0)"/>
     <use xlink:href="#MicrosoftYaHei-Bold-7fa4" transform="translate(408.984375 0)"/>
     <use xlink:href="#MicrosoftYaHei-Bold-2c" transform="translate(508.984375 0)"/>
     <use xlink:href="#MicrosoftYaHei-Bold-20" transform="translate(537.548828 0)"/>
     <use xlink:href="#MicrosoftYaHei-Bold-4d" transform="translate(567.333984 0)"/>
     <use xlink:href="#MicrosoftYaHei-Bold-41" transform="translate(670.166016 0)"/>
     <use xlink:href="#MicrosoftYaHei-Bold-49" transform="translate(745.361328 0)"/>
     <use xlink:href="#MicrosoftYaHei-Bold-43" transform="translate(778.90625 0)"/>
     <use xlink:href="#MicrosoftYaHei-Bold-8c03" transform="translate(846.240234 0)"/>
     <use xlink:href="#MicrosoftYaHei-Bold-6574" transform="translate(946.240234 0)"/>
     <use xlink:href="#MicrosoftYaHei-Bold-29" transform="translate(1046.240234 0)"/>
    </g>
   </g>
  </g>
 </g>
 <defs>
  <clipPath id="p4925c939e8">
   <rect x="146.102031" y="57.936406" width="696.3875" height="468.5"/>
  </clipPath>
 </defs>
</svg>
