<?xml version="1.0" encoding="utf-8" standalone="no"?>
<!DOCTYPE svg PUBLIC "-//W3C//DTD SVG 1.1//EN"
  "http://www.w3.org/Graphics/SVG/1.1/DTD/svg11.dtd">
<svg xmlns:xlink="http://www.w3.org/1999/xlink" width="504pt" height="360pt" viewBox="0 0 504 360" xmlns="http://www.w3.org/2000/svg" version="1.1">
 <metadata>
  <rdf:RDF xmlns:dc="http://purl.org/dc/elements/1.1/" xmlns:cc="http://creativecommons.org/ns#" xmlns:rdf="http://www.w3.org/1999/02/22-rdf-syntax-ns#">
   <cc:Work>
    <dc:type rdf:resource="http://purl.org/dc/dcmitype/StillImage"/>
    <dc:date>2025-09-28T11:47:55.989977</dc:date>
    <dc:format>image/svg+xml</dc:format>
    <dc:creator>
     <cc:Agent>
      <dc:title>Matplotlib v3.10.0, https://matplotlib.org/</dc:title>
     </cc:Agent>
    </dc:creator>
   </cc:Work>
  </rdf:RDF>
 </metadata>
 <defs>
  <style type="text/css">*{stroke-linejoin: round; stroke-linecap: butt}</style>
 </defs>
 <g id="figure_1">
  <g id="patch_1">
   <path d="M 0 360 
L 504 360 
L 504 0 
L 0 0 
z
" style="fill: #ffffff"/>
  </g>
  <g id="axes_1">
   <g id="patch_2">
    <path d="M 46.1 317.78125 
L 493.2 317.78125 
L 493.2 26.878125 
L 46.1 26.878125 
z
" style="fill: #ffffff"/>
   </g>
   <g id="FillBetweenPolyCollection_1">
    <defs>
     <path id="ma156ae4519" d="M 66.422727 -319.899006 
L 66.422727 -319.899006 
L 68.316146 -319.899006 
L 68.316146 -293.709734 
L 68.862729 -293.709734 
L 68.862729 -290.381442 
L 70.442292 -290.381442 
L 70.442292 -285.645516 
L 70.914425 -285.645516 
L 70.914425 -280.759123 
L 72.299067 -280.759123 
L 72.299067 -275.903444 
L 81.121378 -275.903444 
L 81.121378 -271.116495 
L 81.367735 -271.116495 
L 81.367735 -266.404152 
L 84.176023 -266.404152 
L 84.176023 -261.763639 
L 85.852448 -261.763639 
L 85.852448 -257.189955 
L 93.851665 -257.189955 
L 93.851665 -252.67786 
L 95.652809 -252.67786 
L 95.652809 -248.222501 
L 103.26866 -248.222501 
L 103.26866 -243.819568 
L 106.338999 -243.819568 
L 106.338999 -239.465302 
L 110.006482 -239.465302 
L 110.006482 -235.156438 
L 121.083244 -235.156438 
L 121.083244 -230.890144 
L 123.664203 -230.890144 
L 123.664203 -226.663962 
L 130.066928 -226.663962 
L 130.066928 -222.475752 
L 133.61313 -222.475752 
L 133.61313 -218.323647 
L 134.749606 -218.323647 
L 134.749606 -214.206014 
L 135.954723 -214.206014 
L 135.954723 -210.121422 
L 136.401559 -210.121422 
L 136.401559 -206.068619 
L 137.161294 -206.068619 
L 137.161294 -202.046502 
L 137.800091 -202.046502 
L 137.800091 -198.054106 
L 139.151453 -198.054106 
L 139.151453 -194.090587 
L 145.465088 -194.090587 
L 145.465088 -190.155206 
L 148.956815 -190.155206 
L 148.956815 -186.247322 
L 154.916944 -186.247322 
L 154.916944 -182.366382 
L 155.99018 -182.366382 
L 155.99018 -178.511913 
L 158.324011 -178.511913 
L 158.324011 -174.683518 
L 163.963494 -174.683518 
L 163.963494 -170.880867 
L 168.457987 -170.880867 
L 168.457987 -167.103698 
L 173.623104 -167.103698 
L 173.623104 -163.351809 
L 186.151177 -163.351809 
L 186.151177 -159.62506 
L 196.950511 -159.62506 
L 196.950511 -155.923369 
L 204.583495 -155.923369 
L 204.583495 -152.246711 
L 213.811507 -152.246711 
L 213.811507 -148.595118 
L 215.417302 -148.595118 
L 215.417302 -144.96868 
L 224.330089 -144.96868 
L 224.330089 -141.367544 
L 225.949032 -141.367544 
L 225.949032 -137.791918 
L 227.254344 -137.791918 
L 227.254344 -134.242071 
L 232.391911 -134.242071 
L 232.391911 -134.242071 
L 241.379377 -134.242071 
L 241.379377 -130.566135 
L 244.607143 -130.566135 
L 244.607143 -130.566135 
L 260.049188 -130.566135 
L 260.049188 -126.751398 
L 271.221193 -126.751398 
L 271.221193 -122.97383 
L 279.38786 -122.97383 
L 279.38786 -119.233868 
L 280.660085 -119.233868 
L 280.660085 -115.532104 
L 287.222256 -115.532104 
L 287.222256 -111.869289 
L 289.038481 -111.869289 
L 289.038481 -108.246349 
L 297.096063 -108.246349 
L 297.096063 -108.246349 
L 313.151058 -108.246349 
L 313.151058 -104.437091 
L 313.170627 -104.437091 
L 313.170627 -100.680271 
L 314.668961 -100.680271 
L 314.668961 -100.680271 
L 329.306984 -100.680271 
L 329.306984 -96.698504 
L 329.9468 -96.698504 
L 329.9468 -92.788465 
L 333.315974 -92.788465 
L 333.315974 -88.952865 
L 342.685344 -88.952865 
L 342.685344 -85.195157 
L 344.441452 -85.195157 
L 344.441452 -81.519693 
L 386.916672 -81.519693 
L 386.916672 -77.931934 
L 399.090045 -77.931934 
L 399.090045 -77.931934 
L 401.776323 -77.931934 
L 401.776323 -77.931934 
L 406.535947 -77.931934 
L 406.535947 -77.931934 
L 414.952897 -77.931934 
L 414.952897 -72.642882 
L 420.473131 -72.642882 
L 420.473131 -72.642882 
L 422.557296 -72.642882 
L 422.557296 -72.642882 
L 445.569732 -72.642882 
L 445.569732 -72.642882 
L 448.458457 -72.642882 
L 448.458457 -62.585189 
L 459.542285 -62.585189 
L 459.542285 -55.441619 
L 463.355463 -55.441619 
L 463.355463 -55.441619 
L 464.355139 -55.441619 
L 464.355139 -55.441619 
L 464.355139 -105.328231 
L 464.355139 -105.328231 
L 464.355139 -105.328231 
L 463.355463 -105.328231 
L 463.355463 -105.328231 
L 459.542285 -105.328231 
L 459.542285 -115.026533 
L 448.458457 -115.026533 
L 448.458457 -122.628638 
L 445.569732 -122.628638 
L 445.569732 -122.628638 
L 422.557296 -122.628638 
L 422.557296 -122.628638 
L 420.473131 -122.628638 
L 420.473131 -122.628638 
L 414.952897 -122.628638 
L 414.952897 -128.829118 
L 406.535947 -128.829118 
L 406.535947 -128.829118 
L 401.776323 -128.829118 
L 401.776323 -128.829118 
L 399.090045 -128.829118 
L 399.090045 -128.829118 
L 386.916672 -128.829118 
L 386.916672 -133.873678 
L 344.441452 -133.873678 
L 344.441452 -138.845127 
L 342.685344 -138.845127 
L 342.685344 -143.748391 
L 333.315974 -143.748391 
L 333.315974 -148.587492 
L 329.9468 -148.587492 
L 329.9468 -153.365729 
L 329.306984 -153.365729 
L 329.306984 -158.085808 
L 314.668961 -158.085808 
L 314.668961 -158.085808 
L 313.170627 -158.085808 
L 313.170627 -162.568823 
L 313.151058 -162.568823 
L 313.151058 -167.00792 
L 297.096063 -167.00792 
L 297.096063 -167.00792 
L 289.038481 -167.00792 
L 289.038481 -171.251972 
L 287.222256 -171.251972 
L 287.222256 -175.461237 
L 280.660085 -175.461237 
L 280.660085 -179.636619 
L 279.38786 -179.636619 
L 279.38786 -183.778885 
L 271.221193 -183.778885 
L 271.221193 -187.888674 
L 260.049188 -187.888674 
L 260.049188 -191.966508 
L 244.607143 -191.966508 
L 244.607143 -191.966508 
L 241.379377 -191.966508 
L 241.379377 -195.90315 
L 232.391911 -195.90315 
L 232.391911 -195.90315 
L 227.254344 -195.90315 
L 227.254344 -199.711737 
L 225.949032 -199.711737 
L 225.949032 -203.495932 
L 224.330089 -203.495932 
L 224.330089 -207.255923 
L 215.417302 -207.255923 
L 215.417302 -210.991839 
L 213.811507 -210.991839 
L 213.811507 -214.703751 
L 204.583495 -214.703751 
L 204.583495 -218.391674 
L 196.950511 -218.391674 
L 196.950511 -222.055571 
L 186.151177 -222.055571 
L 186.151177 -225.695344 
L 173.623104 -225.695344 
L 173.623104 -229.310841 
L 168.457987 -229.310841 
L 168.457987 -232.901852 
L 163.963494 -232.901852 
L 163.963494 -236.468103 
L 158.324011 -236.468103 
L 158.324011 -240.009258 
L 155.99018 -240.009258 
L 155.99018 -243.52491 
L 154.916944 -243.52491 
L 154.916944 -247.014581 
L 148.956815 -247.014581 
L 148.956815 -250.47771 
L 145.465088 -250.47771 
L 145.465088 -253.913649 
L 139.151453 -253.913649 
L 139.151453 -257.321653 
L 137.800091 -257.321653 
L 137.800091 -260.700867 
L 137.161294 -260.700867 
L 137.161294 -264.050312 
L 136.401559 -264.050312 
L 136.401559 -267.368869 
L 135.954723 -267.368869 
L 135.954723 -270.65526 
L 134.749606 -270.65526 
L 134.749606 -273.908016 
L 133.61313 -273.908016 
L 133.61313 -277.125448 
L 130.066928 -277.125448 
L 130.066928 -280.305609 
L 123.664203 -280.305609 
L 123.664203 -283.446235 
L 121.083244 -283.446235 
L 121.083244 -286.544685 
L 110.006482 -286.544685 
L 110.006482 -289.597848 
L 106.338999 -289.597848 
L 106.338999 -292.602026 
L 103.26866 -292.602026 
L 103.26866 -295.552779 
L 95.652809 -295.552779 
L 95.652809 -298.444701 
L 93.851665 -298.444701 
L 93.851665 -301.271103 
L 85.852448 -301.271103 
L 85.852448 -304.023555 
L 84.176023 -304.023555 
L 84.176023 -306.691169 
L 81.367735 -306.691169 
L 81.367735 -309.259466 
L 81.121378 -309.259466 
L 81.121378 -311.708444 
L 72.299067 -311.708444 
L 72.299067 -314.009043 
L 70.914425 -314.009043 
L 70.914425 -316.115975 
L 70.442292 -316.115975 
L 70.442292 -317.950907 
L 68.862729 -317.950907 
L 68.862729 -319.352923 
L 68.316146 -319.352923 
L 68.316146 -319.899006 
L 66.422727 -319.899006 
z
" style="stroke: #1f77b4; stroke-opacity: 0.25"/>
    </defs>
    <g clip-path="url(#p902f0caf9d)">
     <use xlink:href="#ma156ae4519" x="0" y="360" style="fill: #1f77b4; fill-opacity: 0.25; stroke: #1f77b4; stroke-opacity: 0.25"/>
    </g>
   </g>
   <g id="FillBetweenPolyCollection_2">
    <defs>
     <path id="ma247e17d80" d="M 66.422727 -319.899006 
L 66.422727 -319.899006 
L 68.511983 -319.899006 
L 68.511983 -319.899006 
L 69.473585 -319.899006 
L 69.473585 -319.899006 
L 71.449892 -319.899006 
L 71.449892 -319.899006 
L 71.669841 -319.899006 
L 71.669841 -319.899006 
L 72.64533 -319.899006 
L 72.64533 -295.384998 
L 79.116071 -295.384998 
L 79.116071 -295.384998 
L 80.766999 -295.384998 
L 80.766999 -292.08617 
L 86.610611 -292.08617 
L 86.610611 -292.08617 
L 94.718423 -292.08617 
L 94.718423 -287.399213 
L 108.782945 -287.399213 
L 108.782945 -282.633809 
L 109.480455 -282.633809 
L 109.480455 -277.922129 
L 110.041443 -277.922129 
L 110.041443 -273.287884 
L 110.451723 -273.287884 
L 110.451723 -268.731458 
L 115.568484 -268.731458 
L 115.568484 -264.247613 
L 116.735829 -264.247613 
L 116.735829 -259.830135 
L 119.184162 -259.830135 
L 119.184162 -255.473147 
L 121.926167 -255.473147 
L 121.926167 -251.171448 
L 123.800785 -251.171448 
L 123.800785 -246.920536 
L 124.340435 -246.920536 
L 124.340435 -246.920536 
L 125.013782 -246.920536 
L 125.013782 -242.619186 
L 130.778104 -242.619186 
L 130.778104 -238.366675 
L 132.358683 -238.366675 
L 132.358683 -234.159278 
L 134.132242 -234.159278 
L 134.132242 -229.993868 
L 138.501981 -229.993868 
L 138.501981 -225.867794 
L 139.135956 -225.867794 
L 139.135956 -221.778792 
L 142.668384 -221.778792 
L 142.668384 -217.724914 
L 142.787477 -217.724914 
L 142.787477 -217.724914 
L 146.438533 -217.724914 
L 146.438533 -213.496764 
L 148.918951 -213.496764 
L 148.918951 -209.3083 
L 158.372547 -209.3083 
L 158.372547 -205.157447 
L 158.441593 -205.157447 
L 158.441593 -205.157447 
L 160.386316 -205.157447 
L 160.386316 -205.157447 
L 165.80728 -205.157447 
L 165.80728 -200.808988 
L 195.391423 -200.808988 
L 195.391423 -196.503331 
L 198.811997 -196.503331 
L 198.811997 -192.238392 
L 225.545877 -192.238392 
L 225.545877 -188.012402 
L 244.607143 -188.012402 
L 244.607143 -188.012402 
L 244.748143 -188.012402 
L 244.748143 -183.553008 
L 273.833441 -183.553008 
L 273.833441 -179.139497 
L 282.846037 -179.139497 
L 282.846037 -179.139497 
L 286.304281 -179.139497 
L 286.304281 -174.618002 
L 296.685927 -174.618002 
L 296.685927 -170.144723 
L 303.906374 -170.144723 
L 303.906374 -170.144723 
L 309.198251 -170.144723 
L 309.198251 -165.550587 
L 311.569741 -165.550587 
L 311.569741 -161.008043 
L 316.803978 -161.008043 
L 316.803978 -161.008043 
L 322.869227 -161.008043 
L 322.869227 -161.008043 
L 323.811667 -161.008043 
L 323.811667 -156.127951 
L 341.92557 -156.127951 
L 341.92557 -151.313014 
L 356.247769 -151.313014 
L 356.247769 -146.561203 
L 373.245125 -146.561203 
L 373.245125 -146.561203 
L 378.172783 -146.561203 
L 378.172783 -146.561203 
L 382.009337 -146.561203 
L 382.009337 -146.561203 
L 388.81038 -146.561203 
L 388.81038 -141.101647 
L 392.853988 -141.101647 
L 392.853988 -141.101647 
L 396.806902 -141.101647 
L 396.806902 -141.101647 
L 409.088694 -141.101647 
L 409.088694 -135.06797 
L 410.991038 -135.06797 
L 410.991038 -135.06797 
L 411.195733 -135.06797 
L 411.195733 -135.06797 
L 413.305039 -135.06797 
L 413.305039 -135.06797 
L 417.32513 -135.06797 
L 417.32513 -127.768111 
L 420.512796 -127.768111 
L 420.512796 -127.768111 
L 423.223642 -127.768111 
L 423.223642 -120.098092 
L 425.817596 -120.098092 
L 425.817596 -120.098092 
L 430.209463 -120.098092 
L 430.209463 -120.098092 
L 432.929317 -120.098092 
L 432.929317 -120.098092 
L 434.885155 -120.098092 
L 434.885155 -109.935592 
L 438.153139 -109.935592 
L 438.153139 -109.935592 
L 439.163936 -109.935592 
L 439.163936 -109.935592 
L 439.286861 -109.935592 
L 439.286861 -109.935592 
L 442.415421 -109.935592 
L 442.415421 -109.935592 
L 442.819861 -109.935592 
L 442.819861 -91.318676 
L 451.040938 -91.318676 
L 451.040938 -91.318676 
L 451.599678 -91.318676 
L 451.599678 -91.318676 
L 467.0531 -91.318676 
L 467.0531 -91.318676 
L 468.068246 -91.318676 
L 468.068246 -91.318676 
L 472.877273 -91.318676 
L 472.877273 -91.318676 
L 472.877273 -171.462934 
L 472.877273 -171.462934 
L 472.877273 -171.462934 
L 468.068246 -171.462934 
L 468.068246 -171.462934 
L 467.0531 -171.462934 
L 467.0531 -171.462934 
L 451.599678 -171.462934 
L 451.599678 -171.462934 
L 451.040938 -171.462934 
L 451.040938 -171.462934 
L 442.819861 -171.462934 
L 442.819861 -181.107241 
L 442.415421 -181.107241 
L 442.415421 -181.107241 
L 439.286861 -181.107241 
L 439.286861 -181.107241 
L 439.163936 -181.107241 
L 439.163936 -181.107241 
L 438.153139 -181.107241 
L 438.153139 -181.107241 
L 434.885155 -181.107241 
L 434.885155 -188.720907 
L 432.929317 -188.720907 
L 432.929317 -188.720907 
L 430.209463 -188.720907 
L 430.209463 -188.720907 
L 425.817596 -188.720907 
L 425.817596 -188.720907 
L 423.223642 -188.720907 
L 423.223642 -195.17525 
L 420.512796 -195.17525 
L 420.512796 -195.17525 
L 417.32513 -195.17525 
L 417.32513 -201.207912 
L 413.305039 -201.207912 
L 413.305039 -201.207912 
L 411.195733 -201.207912 
L 411.195733 -201.207912 
L 410.991038 -201.207912 
L 410.991038 -201.207912 
L 409.088694 -201.207912 
L 409.088694 -206.533817 
L 396.806902 -206.533817 
L 396.806902 -206.533817 
L 392.853988 -206.533817 
L 392.853988 -206.533817 
L 388.81038 -206.533817 
L 388.81038 -211.460618 
L 382.009337 -211.460618 
L 382.009337 -211.460618 
L 378.172783 -211.460618 
L 378.172783 -211.460618 
L 373.245125 -211.460618 
L 373.245125 -211.460618 
L 356.247769 -211.460618 
L 356.247769 -215.933403 
L 341.92557 -215.933403 
L 341.92557 -220.358545 
L 323.811667 -220.358545 
L 323.811667 -224.735425 
L 322.869227 -224.735425 
L 322.869227 -224.735425 
L 316.803978 -224.735425 
L 316.803978 -224.735425 
L 311.569741 -224.735425 
L 311.569741 -228.864744 
L 309.198251 -228.864744 
L 309.198251 -232.954078 
L 303.906374 -232.954078 
L 303.906374 -232.954078 
L 296.685927 -232.954078 
L 296.685927 -236.916677 
L 286.304281 -236.916677 
L 286.304281 -240.841529 
L 282.846037 -240.841529 
L 282.846037 -240.841529 
L 273.833441 -240.841529 
L 273.833441 -244.651198 
L 244.748143 -244.651198 
L 244.748143 -248.424546 
L 244.607143 -248.424546 
L 244.607143 -248.424546 
L 225.545877 -248.424546 
L 225.545877 -252.025688 
L 198.811997 -252.025688 
L 198.811997 -255.593915 
L 195.391423 -255.593915 
L 195.391423 -259.128151 
L 165.80728 -259.128151 
L 165.80728 -262.627158 
L 160.386316 -262.627158 
L 160.386316 -262.627158 
L 158.441593 -262.627158 
L 158.441593 -262.627158 
L 158.372547 -262.627158 
L 158.372547 -265.979749 
L 148.918951 -265.979749 
L 148.918951 -269.298823 
L 146.438533 -269.298823 
L 146.438533 -272.582851 
L 142.787477 -272.582851 
L 142.787477 -272.582851 
L 142.668384 -272.582851 
L 142.668384 -275.736549 
L 139.135956 -275.736549 
L 139.135956 -278.855621 
L 138.501981 -278.855621 
L 138.501981 -281.93808 
L 134.132242 -281.93808 
L 134.132242 -284.981617 
L 132.358683 -284.981617 
L 132.358683 -287.983538 
L 130.778104 -287.983538 
L 130.778104 -290.940664 
L 125.013782 -290.940664 
L 125.013782 -293.849216 
L 124.340435 -293.849216 
L 124.340435 -293.849216 
L 123.800785 -293.849216 
L 123.800785 -296.670286 
L 121.926167 -296.670286 
L 121.926167 -299.435258 
L 119.184162 -299.435258 
L 119.184162 -302.137659 
L 116.735829 -302.137659 
L 116.735829 -304.769321 
L 115.568484 -304.769321 
L 115.568484 -307.319697 
L 110.451723 -307.319697 
L 110.451723 -309.774749 
L 110.041443 -309.774749 
L 110.041443 -312.115066 
L 109.480455 -312.115066 
L 109.480455 -314.312418 
L 108.782945 -314.312418 
L 108.782945 -316.322743 
L 94.718423 -316.322743 
L 94.718423 -318.0697 
L 86.610611 -318.0697 
L 86.610611 -318.0697 
L 80.766999 -318.0697 
L 80.766999 -319.389539 
L 79.116071 -319.389539 
L 79.116071 -319.389539 
L 72.64533 -319.389539 
L 72.64533 -319.899006 
L 71.669841 -319.899006 
L 71.669841 -319.899006 
L 71.449892 -319.899006 
L 71.449892 -319.899006 
L 69.473585 -319.899006 
L 69.473585 -319.899006 
L 68.511983 -319.899006 
L 68.511983 -319.899006 
L 66.422727 -319.899006 
z
" style="stroke: #ff7f0e; stroke-opacity: 0.25"/>
    </defs>
    <g clip-path="url(#p902f0caf9d)">
     <use xlink:href="#ma247e17d80" x="0" y="360" style="fill: #ff7f0e; fill-opacity: 0.25; stroke: #ff7f0e; stroke-opacity: 0.25"/>
    </g>
   </g>
   <g id="matplotlib.axis_1">
    <g id="xtick_1">
     <g id="line2d_1">
      <path d="M 66.422727 317.78125 
L 66.422727 26.878125 
" clip-path="url(#p902f0caf9d)" style="fill: none; stroke: #b0b0b0; stroke-opacity: 0.3; stroke-width: 0.8; stroke-linecap: square"/>
     </g>
     <g id="line2d_2">
      <defs>
       <path id="m887058b8f5" d="M 0 0 
L 0 3.5 
" style="stroke: #000000; stroke-width: 0.8"/>
      </defs>
      <g>
       <use xlink:href="#m887058b8f5" x="66.422727" y="317.78125" style="stroke: #000000; stroke-width: 0.8"/>
      </g>
     </g>
     <g id="text_1">
      <!-- 0 -->
      <g transform="translate(63.490696 332.775) scale(0.1 -0.1)">
       <defs>
        <path id="MicrosoftYaHei-30" d="M 284 2325 
Q 284 3606 709 4264 
Q 1134 4922 1941 4922 
Q 3478 4922 3478 2441 
Q 3478 1216 3045 567 
Q 2613 -81 1831 -81 
Q 1094 -81 689 534 
Q 284 1150 284 2325 
z
M 909 2353 
Q 909 425 1888 425 
Q 2850 425 2850 2384 
Q 2850 4413 1906 4413 
Q 909 4413 909 2353 
z
" transform="scale(0.015625)"/>
       </defs>
       <use xlink:href="#MicrosoftYaHei-30"/>
      </g>
     </g>
    </g>
    <g id="xtick_2">
     <g id="line2d_3">
      <path d="M 117.33256 317.78125 
L 117.33256 26.878125 
" clip-path="url(#p902f0caf9d)" style="fill: none; stroke: #b0b0b0; stroke-opacity: 0.3; stroke-width: 0.8; stroke-linecap: square"/>
     </g>
     <g id="line2d_4">
      <g>
       <use xlink:href="#m887058b8f5" x="117.33256" y="317.78125" style="stroke: #000000; stroke-width: 0.8"/>
      </g>
     </g>
     <g id="text_2">
      <!-- 2 -->
      <g transform="translate(114.400529 332.775) scale(0.1 -0.1)">
       <defs>
        <path id="MicrosoftYaHei-32" d="M 2666 3572 
Q 2666 3963 2419 4186 
Q 2172 4409 1747 4409 
Q 1447 4409 1140 4256 
Q 834 4103 569 3819 
L 569 4413 
Q 806 4659 1107 4790 
Q 1409 4922 1816 4922 
Q 2472 4922 2872 4570 
Q 3272 4219 3272 3619 
Q 3272 3084 3026 2693 
Q 2781 2303 2188 1894 
Q 1581 1475 1376 1294 
Q 1172 1113 1090 947 
Q 1009 781 1009 544 
L 3416 544 
L 3416 0 
L 372 0 
L 372 241 
Q 372 659 486 951 
Q 600 1244 862 1520 
Q 1125 1797 1681 2184 
Q 2250 2584 2458 2886 
Q 2666 3188 2666 3572 
z
" transform="scale(0.015625)"/>
       </defs>
       <use xlink:href="#MicrosoftYaHei-32"/>
      </g>
     </g>
    </g>
    <g id="xtick_3">
     <g id="line2d_5">
      <path d="M 168.242393 317.78125 
L 168.242393 26.878125 
" clip-path="url(#p902f0caf9d)" style="fill: none; stroke: #b0b0b0; stroke-opacity: 0.3; stroke-width: 0.8; stroke-linecap: square"/>
     </g>
     <g id="line2d_6">
      <g>
       <use xlink:href="#m887058b8f5" x="168.242393" y="317.78125" style="stroke: #000000; stroke-width: 0.8"/>
      </g>
     </g>
     <g id="text_3">
      <!-- 4 -->
      <g transform="translate(165.310362 332.775) scale(0.1 -0.1)">
       <defs>
        <path id="MicrosoftYaHei-34" d="M 2906 4841 
L 2906 1644 
L 3631 1644 
L 3631 1138 
L 2906 1138 
L 2906 0 
L 2313 0 
L 2313 1138 
L 53 1138 
L 53 1616 
Q 656 2294 1265 3178 
Q 1875 4063 2272 4841 
L 2906 4841 
z
M 741 1644 
L 2313 1644 
L 2313 3950 
Q 1988 3366 1616 2817 
Q 1244 2269 741 1644 
z
" transform="scale(0.015625)"/>
       </defs>
       <use xlink:href="#MicrosoftYaHei-34"/>
      </g>
     </g>
    </g>
    <g id="xtick_4">
     <g id="line2d_7">
      <path d="M 219.152226 317.78125 
L 219.152226 26.878125 
" clip-path="url(#p902f0caf9d)" style="fill: none; stroke: #b0b0b0; stroke-opacity: 0.3; stroke-width: 0.8; stroke-linecap: square"/>
     </g>
     <g id="line2d_8">
      <g>
       <use xlink:href="#m887058b8f5" x="219.152226" y="317.78125" style="stroke: #000000; stroke-width: 0.8"/>
      </g>
     </g>
     <g id="text_4">
      <!-- 6 -->
      <g transform="translate(216.220195 332.775) scale(0.1 -0.1)">
       <defs>
        <path id="MicrosoftYaHei-36" d="M 3181 4219 
Q 2803 4413 2391 4413 
Q 1763 4413 1381 3866 
Q 1000 3319 994 2372 
L 1009 2372 
Q 1353 3038 2106 3038 
Q 2734 3038 3109 2628 
Q 3484 2219 3484 1541 
Q 3484 831 3051 375 
Q 2619 -81 1947 -81 
Q 1209 -81 789 495 
Q 369 1072 369 2131 
Q 369 3413 920 4167 
Q 1472 4922 2372 4922 
Q 2888 4922 3181 4781 
L 3181 4219 
z
M 1031 1584 
Q 1031 1106 1286 765 
Q 1541 425 1963 425 
Q 2363 425 2613 719 
Q 2863 1013 2863 1475 
Q 2863 1975 2627 2253 
Q 2391 2531 1956 2531 
Q 1544 2531 1287 2250 
Q 1031 1969 1031 1584 
z
" transform="scale(0.015625)"/>
       </defs>
       <use xlink:href="#MicrosoftYaHei-36"/>
      </g>
     </g>
    </g>
    <g id="xtick_5">
     <g id="line2d_9">
      <path d="M 270.062059 317.78125 
L 270.062059 26.878125 
" clip-path="url(#p902f0caf9d)" style="fill: none; stroke: #b0b0b0; stroke-opacity: 0.3; stroke-width: 0.8; stroke-linecap: square"/>
     </g>
     <g id="line2d_10">
      <g>
       <use xlink:href="#m887058b8f5" x="270.062059" y="317.78125" style="stroke: #000000; stroke-width: 0.8"/>
      </g>
     </g>
     <g id="text_5">
      <!-- 8 -->
      <g transform="translate(267.130028 332.775) scale(0.1 -0.1)">
       <defs>
        <path id="MicrosoftYaHei-38" d="M 306 1350 
Q 306 1769 556 2122 
Q 806 2475 1200 2625 
Q 884 2803 700 3081 
Q 516 3359 516 3684 
Q 516 4028 692 4312 
Q 869 4597 1183 4759 
Q 1497 4922 1875 4922 
Q 2256 4922 2572 4761 
Q 2888 4600 3063 4315 
Q 3238 4031 3238 3684 
Q 3238 3366 3058 3086 
Q 2878 2806 2559 2625 
Q 2953 2472 3200 2119 
Q 3447 1766 3447 1350 
Q 3447 938 3250 611 
Q 3053 284 2690 103 
Q 2328 -78 1875 -78 
Q 1425 -78 1065 103 
Q 706 284 506 612 
Q 306 941 306 1350 
z
M 906 1378 
Q 906 947 1172 687 
Q 1438 428 1878 428 
Q 2309 428 2582 692 
Q 2856 956 2856 1378 
Q 2856 1778 2579 2051 
Q 2303 2325 1878 2325 
Q 1456 2325 1181 2058 
Q 906 1791 906 1378 
z
M 1081 3634 
Q 1081 3309 1312 3076 
Q 1544 2844 1878 2844 
Q 2206 2844 2445 3078 
Q 2684 3313 2684 3634 
Q 2684 3963 2454 4191 
Q 2225 4419 1878 4419 
Q 1534 4419 1307 4195 
Q 1081 3972 1081 3634 
z
" transform="scale(0.015625)"/>
       </defs>
       <use xlink:href="#MicrosoftYaHei-38"/>
      </g>
     </g>
    </g>
    <g id="xtick_6">
     <g id="line2d_11">
      <path d="M 320.971892 317.78125 
L 320.971892 26.878125 
" clip-path="url(#p902f0caf9d)" style="fill: none; stroke: #b0b0b0; stroke-opacity: 0.3; stroke-width: 0.8; stroke-linecap: square"/>
     </g>
     <g id="line2d_12">
      <g>
       <use xlink:href="#m887058b8f5" x="320.971892" y="317.78125" style="stroke: #000000; stroke-width: 0.8"/>
      </g>
     </g>
     <g id="text_6">
      <!-- 10 -->
      <g transform="translate(315.10783 332.775) scale(0.1 -0.1)">
       <defs>
        <path id="MicrosoftYaHei-31" d="M 1781 0 
L 1781 4141 
Q 1638 3997 1295 3819 
Q 953 3641 663 3569 
L 663 4169 
Q 1047 4275 1484 4508 
Q 1922 4741 2156 4947 
L 2388 4947 
L 2388 0 
L 1781 0 
z
" transform="scale(0.015625)"/>
       </defs>
       <use xlink:href="#MicrosoftYaHei-31"/>
       <use xlink:href="#MicrosoftYaHei-30" transform="translate(58.642578 0)"/>
      </g>
     </g>
    </g>
    <g id="xtick_7">
     <g id="line2d_13">
      <path d="M 371.881725 317.78125 
L 371.881725 26.878125 
" clip-path="url(#p902f0caf9d)" style="fill: none; stroke: #b0b0b0; stroke-opacity: 0.3; stroke-width: 0.8; stroke-linecap: square"/>
     </g>
     <g id="line2d_14">
      <g>
       <use xlink:href="#m887058b8f5" x="371.881725" y="317.78125" style="stroke: #000000; stroke-width: 0.8"/>
      </g>
     </g>
     <g id="text_7">
      <!-- 12 -->
      <g transform="translate(366.017663 332.775) scale(0.1 -0.1)">
       <use xlink:href="#MicrosoftYaHei-31"/>
       <use xlink:href="#MicrosoftYaHei-32" transform="translate(58.642578 0)"/>
      </g>
     </g>
    </g>
    <g id="xtick_8">
     <g id="line2d_15">
      <path d="M 422.791558 317.78125 
L 422.791558 26.878125 
" clip-path="url(#p902f0caf9d)" style="fill: none; stroke: #b0b0b0; stroke-opacity: 0.3; stroke-width: 0.8; stroke-linecap: square"/>
     </g>
     <g id="line2d_16">
      <g>
       <use xlink:href="#m887058b8f5" x="422.791558" y="317.78125" style="stroke: #000000; stroke-width: 0.8"/>
      </g>
     </g>
     <g id="text_8">
      <!-- 14 -->
      <g transform="translate(416.927496 332.775) scale(0.1 -0.1)">
       <use xlink:href="#MicrosoftYaHei-31"/>
       <use xlink:href="#MicrosoftYaHei-34" transform="translate(58.642578 0)"/>
      </g>
     </g>
    </g>
    <g id="xtick_9">
     <g id="line2d_17">
      <path d="M 473.701391 317.78125 
L 473.701391 26.878125 
" clip-path="url(#p902f0caf9d)" style="fill: none; stroke: #b0b0b0; stroke-opacity: 0.3; stroke-width: 0.8; stroke-linecap: square"/>
     </g>
     <g id="line2d_18">
      <g>
       <use xlink:href="#m887058b8f5" x="473.701391" y="317.78125" style="stroke: #000000; stroke-width: 0.8"/>
      </g>
     </g>
     <g id="text_9">
      <!-- 16 -->
      <g transform="translate(467.837329 332.775) scale(0.1 -0.1)">
       <use xlink:href="#MicrosoftYaHei-31"/>
       <use xlink:href="#MicrosoftYaHei-36" transform="translate(58.642578 0)"/>
      </g>
     </g>
    </g>
    <g id="text_10">
     <!-- 时间 (月) -->
     <g transform="translate(249.829687 347.254687) scale(0.1 -0.1)">
      <defs>
       <path id="MicrosoftYaHei-65f6" d="M 344 4728 
L 2500 4728 
L 2500 -366 
L 2006 -366 
L 2006 153 
L 838 153 
L 838 -441 
L 344 -441 
L 344 4728 
z
M 2706 3941 
L 4925 3941 
L 4925 5322 
L 5425 5322 
L 5425 3941 
L 6313 3941 
L 6313 3478 
L 5425 3478 
L 5425 116 
Q 5425 -722 4625 -722 
Q 4263 -722 3563 -703 
Q 3531 -478 3463 -178 
Q 4119 -228 4488 -228 
Q 4925 -228 4925 216 
L 4925 3478 
L 2706 3478 
L 2706 3941 
z
M 838 616 
L 2006 616 
L 2006 2234 
L 838 2234 
L 838 616 
z
M 2006 4266 
L 838 4266 
L 838 2684 
L 2006 2684 
L 2006 4266 
z
M 3406 2878 
Q 3906 1966 4163 1422 
Q 4000 1347 3663 1172 
Q 3419 1766 2963 2653 
L 3406 2878 
z
" transform="scale(0.015625)"/>
       <path id="MicrosoftYaHei-95f4" d="M 1863 3647 
L 4513 3647 
L 4513 553 
L 2313 553 
L 2313 166 
L 1863 166 
L 1863 3647 
z
M 2388 4453 
L 2388 4922 
L 6013 4922 
L 6013 -28 
Q 6013 -816 5119 -816 
Q 4756 -816 4169 -803 
Q 4144 -616 4069 -297 
Q 4588 -334 5056 -334 
Q 5525 -334 5525 122 
L 5525 4453 
L 2388 4453 
z
M 419 4084 
L 906 4084 
L 906 -816 
L 419 -816 
L 419 4084 
z
M 2313 997 
L 4063 997 
L 4063 1884 
L 2313 1884 
L 2313 997 
z
M 4063 3203 
L 2313 3203 
L 2313 2328 
L 4063 2328 
L 4063 3203 
z
M 744 5003 
L 1100 5322 
Q 1575 4872 1981 4447 
L 1575 4091 
Q 1194 4541 744 5003 
z
" transform="scale(0.015625)"/>
       <path id="MicrosoftYaHei-20" transform="scale(0.015625)"/>
       <path id="MicrosoftYaHei-28" d="M 1531 -1100 
Q 478 100 478 1847 
Q 478 3594 1531 4841 
L 2072 4841 
Q 1016 3544 1016 1853 
Q 1016 166 2066 -1100 
L 1531 -1100 
z
" transform="scale(0.015625)"/>
       <path id="MicrosoftYaHei-6708" d="M 1603 1284 
Q 1463 78 663 -897 
Q 463 -703 231 -522 
Q 838 134 1044 1041 
Q 1188 1709 1188 2891 
L 1188 5053 
L 5363 5053 
L 5363 178 
Q 5363 -747 4481 -747 
Q 4113 -747 3531 -734 
Q 3500 -509 3438 -209 
Q 4013 -247 4344 -247 
Q 4850 -247 4850 247 
L 4850 1284 
L 1603 1284 
z
M 1653 1741 
L 4850 1741 
L 4850 2941 
L 1700 2941 
Q 1700 2316 1653 1741 
z
M 1700 4584 
L 1700 3397 
L 4850 3397 
L 4850 4584 
L 1700 4584 
z
" transform="scale(0.015625)"/>
       <path id="MicrosoftYaHei-29" d="M 78 -1100 
Q 1131 163 1131 1853 
Q 1131 3547 72 4841 
L 616 4841 
Q 1672 3603 1672 1847 
Q 1672 91 616 -1100 
L 78 -1100 
z
" transform="scale(0.015625)"/>
      </defs>
      <use xlink:href="#MicrosoftYaHei-65f6"/>
      <use xlink:href="#MicrosoftYaHei-95f4" transform="translate(100 0)"/>
      <use xlink:href="#MicrosoftYaHei-20" transform="translate(200 0)"/>
      <use xlink:href="#MicrosoftYaHei-28" transform="translate(229.589844 0)"/>
      <use xlink:href="#MicrosoftYaHei-6708" transform="translate(262.988281 0)"/>
      <use xlink:href="#MicrosoftYaHei-29" transform="translate(362.988281 0)"/>
     </g>
    </g>
   </g>
   <g id="matplotlib.axis_2">
    <g id="ytick_1">
     <g id="line2d_19">
      <path d="M 46.1 309.803076 
L 493.2 309.803076 
" clip-path="url(#p902f0caf9d)" style="fill: none; stroke: #b0b0b0; stroke-opacity: 0.3; stroke-width: 0.8; stroke-linecap: square"/>
     </g>
     <g id="line2d_20">
      <defs>
       <path id="m1270628158" d="M 0 0 
L -3.5 0 
" style="stroke: #000000; stroke-width: 0.8"/>
      </defs>
      <g>
       <use xlink:href="#m1270628158" x="46.1" y="309.803076" style="stroke: #000000; stroke-width: 0.8"/>
      </g>
     </g>
     <g id="text_11">
      <!-- 0.0 -->
      <g transform="translate(24.964063 313.799951) scale(0.1 -0.1)">
       <defs>
        <path id="MicrosoftYaHei-2e" d="M 372 322 
Q 372 491 487 606 
Q 603 722 775 722 
Q 950 722 1065 605 
Q 1181 488 1181 322 
Q 1181 159 1065 42 
Q 950 -75 772 -75 
Q 600 -75 486 42 
Q 372 159 372 322 
z
" transform="scale(0.015625)"/>
       </defs>
       <use xlink:href="#MicrosoftYaHei-30"/>
       <use xlink:href="#MicrosoftYaHei-2e" transform="translate(58.642578 0)"/>
       <use xlink:href="#MicrosoftYaHei-30" transform="translate(82.714844 0)"/>
      </g>
     </g>
    </g>
    <g id="ytick_2">
     <g id="line2d_21">
      <path d="M 46.1 255.862659 
L 493.2 255.862659 
" clip-path="url(#p902f0caf9d)" style="fill: none; stroke: #b0b0b0; stroke-opacity: 0.3; stroke-width: 0.8; stroke-linecap: square"/>
     </g>
     <g id="line2d_22">
      <g>
       <use xlink:href="#m1270628158" x="46.1" y="255.862659" style="stroke: #000000; stroke-width: 0.8"/>
      </g>
     </g>
     <g id="text_12">
      <!-- 0.2 -->
      <g transform="translate(24.964063 259.859534) scale(0.1 -0.1)">
       <use xlink:href="#MicrosoftYaHei-30"/>
       <use xlink:href="#MicrosoftYaHei-2e" transform="translate(58.642578 0)"/>
       <use xlink:href="#MicrosoftYaHei-32" transform="translate(82.714844 0)"/>
      </g>
     </g>
    </g>
    <g id="ytick_3">
     <g id="line2d_23">
      <path d="M 46.1 201.922243 
L 493.2 201.922243 
" clip-path="url(#p902f0caf9d)" style="fill: none; stroke: #b0b0b0; stroke-opacity: 0.3; stroke-width: 0.8; stroke-linecap: square"/>
     </g>
     <g id="line2d_24">
      <g>
       <use xlink:href="#m1270628158" x="46.1" y="201.922243" style="stroke: #000000; stroke-width: 0.8"/>
      </g>
     </g>
     <g id="text_13">
      <!-- 0.4 -->
      <g transform="translate(24.964063 205.919118) scale(0.1 -0.1)">
       <use xlink:href="#MicrosoftYaHei-30"/>
       <use xlink:href="#MicrosoftYaHei-2e" transform="translate(58.642578 0)"/>
       <use xlink:href="#MicrosoftYaHei-34" transform="translate(82.714844 0)"/>
      </g>
     </g>
    </g>
    <g id="ytick_4">
     <g id="line2d_25">
      <path d="M 46.1 147.981827 
L 493.2 147.981827 
" clip-path="url(#p902f0caf9d)" style="fill: none; stroke: #b0b0b0; stroke-opacity: 0.3; stroke-width: 0.8; stroke-linecap: square"/>
     </g>
     <g id="line2d_26">
      <g>
       <use xlink:href="#m1270628158" x="46.1" y="147.981827" style="stroke: #000000; stroke-width: 0.8"/>
      </g>
     </g>
     <g id="text_14">
      <!-- 0.6 -->
      <g transform="translate(24.964063 151.978702) scale(0.1 -0.1)">
       <use xlink:href="#MicrosoftYaHei-30"/>
       <use xlink:href="#MicrosoftYaHei-2e" transform="translate(58.642578 0)"/>
       <use xlink:href="#MicrosoftYaHei-36" transform="translate(82.714844 0)"/>
      </g>
     </g>
    </g>
    <g id="ytick_5">
     <g id="line2d_27">
      <path d="M 46.1 94.041411 
L 493.2 94.041411 
" clip-path="url(#p902f0caf9d)" style="fill: none; stroke: #b0b0b0; stroke-opacity: 0.3; stroke-width: 0.8; stroke-linecap: square"/>
     </g>
     <g id="line2d_28">
      <g>
       <use xlink:href="#m1270628158" x="46.1" y="94.041411" style="stroke: #000000; stroke-width: 0.8"/>
      </g>
     </g>
     <g id="text_15">
      <!-- 0.8 -->
      <g transform="translate(24.964063 98.038286) scale(0.1 -0.1)">
       <use xlink:href="#MicrosoftYaHei-30"/>
       <use xlink:href="#MicrosoftYaHei-2e" transform="translate(58.642578 0)"/>
       <use xlink:href="#MicrosoftYaHei-38" transform="translate(82.714844 0)"/>
      </g>
     </g>
    </g>
    <g id="ytick_6">
     <g id="line2d_29">
      <path d="M 46.1 40.100994 
L 493.2 40.100994 
" clip-path="url(#p902f0caf9d)" style="fill: none; stroke: #b0b0b0; stroke-opacity: 0.3; stroke-width: 0.8; stroke-linecap: square"/>
     </g>
     <g id="line2d_30">
      <g>
       <use xlink:href="#m1270628158" x="46.1" y="40.100994" style="stroke: #000000; stroke-width: 0.8"/>
      </g>
     </g>
     <g id="text_16">
      <!-- 1.0 -->
      <g transform="translate(24.964063 44.097869) scale(0.1 -0.1)">
       <use xlink:href="#MicrosoftYaHei-31"/>
       <use xlink:href="#MicrosoftYaHei-2e" transform="translate(58.642578 0)"/>
       <use xlink:href="#MicrosoftYaHei-30" transform="translate(82.714844 0)"/>
      </g>
     </g>
    </g>
    <g id="text_17">
     <!-- 生存概率 -->
     <g transform="translate(18.478125 192.329688) rotate(-90) scale(0.1 -0.1)">
      <defs>
       <path id="MicrosoftYaHei-751f" d="M 125 16 
L 3025 16 
L 3025 1609 
L 813 1609 
L 813 2091 
L 3025 2091 
L 3025 3534 
L 1375 3534 
Q 959 2784 419 2178 
Q 288 2384 81 2616 
Q 963 3603 1475 5028 
L 1988 4891 
Q 1822 4434 1622 4016 
L 3025 4016 
L 3025 5341 
L 3563 5341 
L 3563 4016 
L 5950 4016 
L 5950 3534 
L 3563 3534 
L 3563 2091 
L 5775 2091 
L 5775 1609 
L 3563 1609 
L 3563 16 
L 6288 16 
L 6288 -453 
L 125 -453 
L 125 16 
z
" transform="scale(0.015625)"/>
       <path id="MicrosoftYaHei-5b58" d="M 169 4641 
L 1925 4641 
Q 2053 4991 2163 5359 
L 2675 5228 
Q 2578 4928 2472 4641 
L 6275 4641 
L 6275 4178 
L 2291 4178 
Q 1963 3384 1563 2709 
L 1563 -797 
L 1081 -797 
L 1081 1984 
Q 747 1528 369 1141 
Q 244 1359 69 1591 
Q 1113 2688 1744 4178 
L 169 4178 
L 169 4641 
z
M 1838 1791 
L 3994 1791 
L 3994 2203 
Q 4656 2628 5156 3047 
L 2256 3047 
L 2256 3503 
L 5869 3503 
L 5869 2997 
Q 5231 2491 4475 1978 
L 4475 1791 
L 6319 1791 
L 6319 1334 
L 4475 1334 
L 4475 -72 
Q 4475 -784 3763 -784 
Q 3425 -784 2856 -766 
Q 2825 -528 2775 -259 
Q 3375 -322 3663 -322 
Q 3994 -322 3994 9 
L 3994 1334 
L 1838 1334 
L 1838 1791 
z
" transform="scale(0.015625)"/>
       <path id="MicrosoftYaHei-6982" d="M 2900 1359 
L 3263 1559 
Q 3519 1141 3869 466 
L 3494 222 
Q 3416 384 3344 528 
Q 3041 325 2544 -22 
Q 2419 -103 2219 -322 
L 1869 91 
Q 2063 303 2063 659 
L 2063 4966 
L 3606 4966 
L 3606 1803 
L 3206 1803 
L 3206 2009 
L 2469 2009 
L 2469 484 
Q 2781 669 3147 916 
Q 3009 1178 2900 1359 
z
M 4313 2584 
L 4850 2584 
Q 4950 3300 4950 4566 
L 3900 4566 
L 3900 4966 
L 6100 4966 
L 6100 4566 
L 5363 4566 
Q 5369 3344 5272 2584 
L 6138 2584 
L 6138 2184 
L 5209 2184 
Q 5156 1897 5075 1628 
L 5281 1628 
L 5281 59 
Q 5281 -228 5500 -228 
L 5619 -228 
Q 5781 -228 5844 22 
Q 5913 284 5900 853 
Q 6131 747 6319 691 
Q 6306 141 6213 -216 
Q 6081 -653 5744 -653 
L 5369 -653 
Q 4869 -653 4869 -3 
L 4869 1072 
Q 4366 -41 3281 -841 
Q 3150 -647 2963 -484 
Q 4425 534 4778 2184 
L 3894 2184 
L 4063 4253 
L 4450 4253 
L 4313 2584 
z
M 75 1384 
Q 569 2369 856 3616 
L 169 3616 
L 169 4003 
L 913 4003 
L 913 5322 
L 1325 5322 
L 1325 4003 
L 1913 4003 
L 1913 3616 
L 1325 3616 
L 1325 2775 
L 1494 2922 
Q 1819 2578 2019 2309 
L 1725 2059 
Q 1534 2341 1325 2588 
L 1325 -822 
L 913 -822 
L 913 2691 
Q 622 1531 256 841 
Q 175 1103 75 1384 
z
M 2469 2397 
L 3206 2397 
L 3206 3297 
L 2469 3297 
L 2469 2397 
z
M 3206 4578 
L 2469 4578 
L 2469 3684 
L 3206 3684 
L 3206 4578 
z
" transform="scale(0.015625)"/>
       <path id="MicrosoftYaHei-7387" d="M 2525 2009 
Q 2622 2016 3928 2081 
Q 3772 2300 3625 2491 
L 3963 2703 
Q 4413 2203 4794 1653 
L 4394 1403 
Q 4284 1569 4178 1725 
Q 2991 1659 2213 1597 
Q 2075 1584 1881 1541 
L 1725 1966 
Q 1913 2028 2006 2084 
Q 2534 2441 3050 2913 
Q 2597 2894 2275 2866 
Q 2144 2847 1988 2809 
L 1800 3191 
Q 1956 3247 2088 3366 
Q 2509 3722 2875 4228 
L 231 4228 
L 231 4666 
L 3031 4666 
Q 2878 4944 2744 5153 
L 3194 5372 
Q 3438 5000 3616 4666 
L 6175 4666 
L 6175 4228 
L 3053 4228 
L 3350 4072 
Q 2844 3553 2494 3247 
Q 2850 3256 3425 3269 
Q 3675 3519 3925 3797 
L 4356 3547 
Q 3363 2603 2525 2009 
z
M 144 991 
L 2994 991 
L 2994 1541 
L 3488 1541 
L 3488 991 
L 6275 991 
L 6275 553 
L 3488 553 
L 3488 -853 
L 2994 -853 
L 2994 553 
L 144 553 
L 144 991 
z
M 1719 2672 
L 1944 2303 
Q 1200 1866 425 1409 
L 163 1828 
Q 813 2134 1719 2672 
z
M 4856 2678 
Q 5750 2172 6250 1816 
L 5975 1409 
Q 5331 1909 4600 2341 
L 4856 2678 
z
M 5994 3591 
Q 5519 3178 4963 2809 
L 4644 3141 
Q 5244 3534 5638 3928 
L 5994 3591 
z
M 363 3634 
L 681 3941 
Q 1200 3528 1588 3159 
L 1238 2816 
Q 875 3197 363 3634 
z
" transform="scale(0.015625)"/>
      </defs>
      <use xlink:href="#MicrosoftYaHei-751f"/>
      <use xlink:href="#MicrosoftYaHei-5b58" transform="translate(100 0)"/>
      <use xlink:href="#MicrosoftYaHei-6982" transform="translate(200 0)"/>
      <use xlink:href="#MicrosoftYaHei-7387" transform="translate(300 0)"/>
     </g>
    </g>
   </g>
   <g id="line2d_31">
    <path d="M 66.422727 40.100994 
L 68.316146 40.100994 
L 68.316146 43.953881 
L 68.862729 43.953881 
L 68.862729 47.806768 
L 70.442292 47.806768 
L 70.442292 51.659655 
L 70.914425 51.659655 
L 70.914425 55.512542 
L 72.299067 55.512542 
L 72.299067 59.365429 
L 81.121378 59.365429 
L 81.121378 63.218316 
L 81.367735 63.218316 
L 81.367735 67.071202 
L 84.176023 67.071202 
L 84.176023 70.924089 
L 85.852448 70.924089 
L 85.852448 74.776976 
L 93.851665 74.776976 
L 93.851665 78.629863 
L 95.652809 78.629863 
L 95.652809 82.48275 
L 103.26866 82.48275 
L 103.26866 86.335637 
L 106.338999 86.335637 
L 106.338999 90.188524 
L 110.006482 90.188524 
L 110.006482 94.041411 
L 121.083244 94.041411 
L 121.083244 97.894297 
L 123.664203 97.894297 
L 123.664203 101.747184 
L 130.066928 101.747184 
L 130.066928 105.600071 
L 133.61313 105.600071 
L 133.61313 109.452958 
L 134.749606 109.452958 
L 134.749606 113.305845 
L 135.954723 113.305845 
L 135.954723 117.158732 
L 136.401559 117.158732 
L 136.401559 121.011619 
L 137.161294 121.011619 
L 137.161294 124.864506 
L 137.800091 124.864506 
L 137.800091 128.717392 
L 139.151453 128.717392 
L 139.151453 132.570279 
L 145.465088 132.570279 
L 145.465088 136.423166 
L 148.956815 136.423166 
L 148.956815 140.276053 
L 154.916944 140.276053 
L 154.916944 144.12894 
L 155.99018 144.12894 
L 155.99018 147.981827 
L 158.324011 147.981827 
L 158.324011 151.834714 
L 163.963494 151.834714 
L 163.963494 155.687601 
L 168.457987 155.687601 
L 168.457987 159.540488 
L 173.623104 159.540488 
L 173.623104 163.393374 
L 186.151177 163.393374 
L 186.151177 167.246261 
L 196.950511 167.246261 
L 196.950511 171.099148 
L 204.583495 171.099148 
L 204.583495 174.952035 
L 213.811507 174.952035 
L 213.811507 178.804922 
L 215.417302 178.804922 
L 215.417302 182.657809 
L 224.330089 182.657809 
L 224.330089 186.510696 
L 225.949032 186.510696 
L 225.949032 190.363583 
L 227.254344 190.363583 
L 227.254344 194.216469 
L 241.379377 194.216469 
L 241.379377 198.202214 
L 260.049188 198.202214 
L 260.049188 202.33558 
L 271.221193 202.33558 
L 271.221193 206.468945 
L 279.38786 206.468945 
L 279.38786 210.60231 
L 280.660085 210.60231 
L 280.660085 214.735675 
L 287.222256 214.735675 
L 287.222256 218.869041 
L 289.038481 218.869041 
L 289.038481 223.002406 
L 313.151058 223.002406 
L 313.170627 231.682473 
L 329.306984 231.682473 
L 329.306984 236.277802 
L 329.9468 236.277802 
L 329.9468 240.873132 
L 333.315974 240.873132 
L 333.315974 245.468462 
L 342.685344 245.468462 
L 342.685344 250.063791 
L 344.441452 250.063791 
L 344.441452 254.659121 
L 386.916672 254.659121 
L 386.916672 259.25445 
L 414.952897 259.25445 
L 414.952897 265.573028 
L 448.458457 265.573028 
L 448.458457 276.63054 
L 459.542285 276.63054 
L 459.542285 287.688052 
L 464.355139 287.688052 
L 464.355139 287.688052 
" clip-path="url(#p902f0caf9d)" style="fill: none; stroke: #1f77b4; stroke-width: 1.5; stroke-linecap: square"/>
   </g>
   <g id="line2d_32">
    <path d="M 66.422727 40.100994 
L 72.64533 40.100994 
L 72.64533 43.697022 
L 80.766999 43.697022 
L 80.766999 47.34231 
L 94.718423 47.34231 
L 94.718423 51.038941 
L 108.782945 51.038941 
L 108.782945 54.735571 
L 109.480455 54.735571 
L 109.480455 58.432202 
L 110.041443 58.432202 
L 110.041443 62.128832 
L 110.451723 62.128832 
L 110.451723 65.825463 
L 115.568484 65.825463 
L 115.568484 69.522093 
L 116.735829 69.522093 
L 116.735829 73.218724 
L 119.184162 73.218724 
L 119.184162 76.915354 
L 121.926167 76.915354 
L 121.926167 80.611985 
L 123.800785 80.611985 
L 123.800785 84.308615 
L 125.013782 84.308615 
L 125.013782 88.066856 
L 130.778104 88.066856 
L 130.778104 91.825097 
L 132.358683 91.825097 
L 132.358683 95.583338 
L 134.132242 95.583338 
L 134.132242 99.341579 
L 138.501981 99.341579 
L 138.501981 103.09982 
L 139.135956 103.09982 
L 139.135956 106.858061 
L 142.668384 106.858061 
L 142.668384 110.616302 
L 146.438533 110.616302 
L 146.438533 114.521925 
L 148.918951 114.521925 
L 148.918951 118.427548 
L 158.372547 118.427548 
L 158.372547 122.333171 
L 158.441593 122.333171 
L 165.80728 122.333171 
L 165.80728 126.408604 
L 195.391423 126.408604 
L 195.391423 130.484037 
L 198.811997 130.484037 
L 198.811997 134.55947 
L 225.545877 134.55947 
L 225.545877 138.634902 
L 244.748143 138.634902 
L 244.748143 142.914107 
L 273.833441 142.914107 
L 273.833441 147.193311 
L 286.304281 147.193311 
L 286.304281 151.588169 
L 296.685927 151.588169 
L 296.685927 155.983028 
L 309.198251 155.983028 
L 309.198251 160.507147 
L 311.569741 160.507147 
L 311.569741 165.031266 
L 323.811667 165.031266 
L 323.811667 169.856993 
L 341.92557 169.856993 
L 341.92557 174.68272 
L 356.247769 174.68272 
L 356.247769 179.508447 
L 388.81038 179.508447 
L 388.81038 184.93739 
L 409.088694 184.93739 
L 409.088694 190.883375 
L 417.32513 190.883375 
L 417.32513 197.878651 
L 423.223642 197.878651 
L 423.223642 205.34028 
L 434.885155 205.34028 
L 434.885155 214.836898 
L 442.819861 214.836898 
L 442.819861 230.664594 
L 472.877273 230.664594 
L 472.877273 230.664594 
" clip-path="url(#p902f0caf9d)" style="fill: none; stroke: #ff7f0e; stroke-width: 1.5; stroke-linecap: square"/>
   </g>
   <g id="patch_3">
    <path d="M 46.1 317.78125 
L 46.1 26.878125 
" style="fill: none; stroke: #000000; stroke-width: 0.8; stroke-linejoin: miter; stroke-linecap: square"/>
   </g>
   <g id="patch_4">
    <path d="M 493.2 317.78125 
L 493.2 26.878125 
" style="fill: none; stroke: #000000; stroke-width: 0.8; stroke-linejoin: miter; stroke-linecap: square"/>
   </g>
   <g id="patch_5">
    <path d="M 46.1 317.78125 
L 493.2 317.78125 
" style="fill: none; stroke: #000000; stroke-width: 0.8; stroke-linejoin: miter; stroke-linecap: square"/>
   </g>
   <g id="patch_6">
    <path d="M 46.1 26.878125 
L 493.2 26.878125 
" style="fill: none; stroke: #000000; stroke-width: 0.8; stroke-linejoin: miter; stroke-linecap: square"/>
   </g>
   <g id="text_18">
    <!-- RCT-A OS KM曲线 - 生物标志物X Negative -->
    <g transform="translate(150.4 20.878125) scale(0.12 -0.12)">
     <defs>
      <path id="MicrosoftYaHei-52" d="M 4159 0 
L 3422 0 
L 2619 1344 
Q 2378 1747 2178 1892 
Q 1978 2038 1700 2038 
L 1250 2038 
L 1250 0 
L 625 0 
L 625 4841 
L 2100 4841 
Q 2806 4841 3206 4500 
Q 3606 4159 3606 3547 
Q 3606 2541 2531 2241 
L 2531 2225 
Q 2731 2141 2876 1984 
Q 3022 1828 3253 1450 
L 4159 0 
z
M 1250 4294 
L 1250 2584 
L 1988 2584 
Q 2416 2584 2683 2834 
Q 2950 3084 2950 3491 
Q 2950 3869 2706 4081 
Q 2463 4294 1997 4294 
L 1250 4294 
z
" transform="scale(0.015625)"/>
      <path id="MicrosoftYaHei-43" d="M 3938 200 
Q 3403 -81 2597 -81 
Q 1556 -81 934 580 
Q 313 1241 313 2328 
Q 313 3497 1013 4209 
Q 1713 4922 2791 4922 
Q 3484 4922 3938 4725 
L 3938 4072 
Q 3419 4359 2797 4359 
Q 1988 4359 1478 3820 
Q 969 3281 969 2366 
Q 969 1497 1444 986 
Q 1919 475 2688 475 
Q 3406 475 3938 800 
L 3938 200 
z
" transform="scale(0.015625)"/>
      <path id="MicrosoftYaHei-54" d="M 3550 4284 
L 2153 4284 
L 2153 0 
L 1525 0 
L 1525 4284 
L 134 4284 
L 134 4841 
L 3550 4841 
L 3550 4284 
z
" transform="scale(0.015625)"/>
      <path id="MicrosoftYaHei-2d" d="M 2328 1681 
L 488 1681 
L 488 2153 
L 2328 2153 
L 2328 1681 
z
" transform="scale(0.015625)"/>
      <path id="MicrosoftYaHei-41" d="M 4428 0 
L 3738 0 
L 3244 1325 
L 1228 1325 
L 763 0 
L 72 0 
L 1916 4841 
L 2584 4841 
L 4428 0 
z
M 3050 1872 
L 2319 3884 
Q 2284 3981 2244 4222 
L 2228 4222 
Q 2194 4003 2150 3884 
L 1425 1872 
L 3050 1872 
z
" transform="scale(0.015625)"/>
      <path id="MicrosoftYaHei-4f" d="M 313 2363 
Q 313 3534 947 4228 
Q 1581 4922 2666 4922 
Q 3675 4922 4290 4244 
Q 4906 3566 4906 2478 
Q 4906 1300 4275 609 
Q 3644 -81 2588 -81 
Q 1556 -81 934 597 
Q 313 1275 313 2363 
z
M 969 2413 
Q 969 1534 1417 1004 
Q 1866 475 2588 475 
Q 3363 475 3805 983 
Q 4247 1491 4247 2403 
Q 4247 3341 3814 3850 
Q 3381 4359 2628 4359 
Q 1888 4359 1428 3821 
Q 969 3284 969 2413 
z
" transform="scale(0.015625)"/>
      <path id="MicrosoftYaHei-53" d="M 400 909 
Q 622 716 994 591 
Q 1366 466 1700 466 
Q 2719 466 2719 1191 
Q 2719 1394 2609 1556 
Q 2500 1719 2309 1844 
Q 2119 1969 1594 2228 
Q 866 2591 634 2902 
Q 403 3213 403 3613 
Q 403 4216 887 4569 
Q 1372 4922 2109 4922 
Q 2831 4922 3169 4747 
L 3169 4066 
Q 2731 4369 2063 4369 
Q 1619 4369 1339 4183 
Q 1059 3997 1059 3666 
Q 1059 3372 1253 3187 
Q 1447 3003 2094 2684 
Q 2806 2344 3090 2003 
Q 3375 1663 3375 1238 
Q 3375 600 2912 259 
Q 2450 -81 1628 -81 
Q 1341 -81 958 -1 
Q 575 78 400 197 
L 400 909 
z
" transform="scale(0.015625)"/>
      <path id="MicrosoftYaHei-4b" d="M 4069 0 
L 3213 0 
L 1394 2200 
Q 1300 2316 1266 2381 
L 1250 2381 
L 1250 0 
L 625 0 
L 625 4841 
L 1250 4841 
L 1250 2563 
L 1266 2563 
Q 1319 2647 1394 2741 
L 3150 4841 
L 3922 4841 
L 1891 2519 
L 4069 0 
z
" transform="scale(0.015625)"/>
      <path id="MicrosoftYaHei-4d" d="M 5003 0 
L 5003 3206 
Q 5003 3603 5050 4159 
L 5034 4159 
Q 4953 3809 4891 3672 
L 3294 0 
L 2947 0 
L 1353 3644 
Q 1297 3769 1209 4159 
L 1191 4159 
Q 1222 3822 1222 3178 
L 1222 0 
L 625 0 
L 625 4841 
L 1472 4841 
L 2900 1522 
Q 3063 1141 3116 928 
L 3138 928 
Q 3300 1375 3366 1534 
L 4819 4841 
L 5625 4841 
L 5625 0 
L 5003 0 
z
" transform="scale(0.015625)"/>
      <path id="MicrosoftYaHei-66f2" d="M 2163 5322 
L 2625 5322 
L 2625 4291 
L 3775 4291 
L 3775 5328 
L 4238 5328 
L 4238 4291 
L 5850 4291 
L 5850 -822 
L 5388 -822 
L 5388 -409 
L 1013 -409 
L 1013 -822 
L 550 -822 
L 550 4291 
L 2163 4291 
L 2163 5322 
z
M 1013 41 
L 2163 41 
L 2163 1753 
L 1013 1753 
L 1013 41 
z
M 4238 41 
L 5388 41 
L 5388 1753 
L 4238 1753 
L 4238 41 
z
M 2625 41 
L 3775 41 
L 3775 1753 
L 2625 1753 
L 2625 41 
z
M 1013 2203 
L 2163 2203 
L 2163 3841 
L 1013 3841 
L 1013 2203 
z
M 5388 3841 
L 4238 3841 
L 4238 2203 
L 5388 2203 
L 5388 3841 
z
M 2625 2203 
L 3775 2203 
L 3775 3841 
L 2625 3841 
L 2625 2203 
z
" transform="scale(0.015625)"/>
      <path id="MicrosoftYaHei-7ebf" d="M 1969 -347 
Q 3144 75 4003 631 
Q 3781 1197 3653 1972 
L 2319 1784 
L 2244 2234 
L 3591 2422 
Q 3538 2859 3513 3356 
L 2381 3228 
L 2306 3678 
L 3488 3809 
Q 3453 4459 3425 5303 
L 3938 5303 
Q 3953 4497 3978 3866 
L 6069 4103 
L 6125 3659 
L 3997 3413 
Q 4019 2919 4069 2488 
L 6225 2791 
L 6281 2347 
L 4128 2041 
Q 4234 1394 4416 916 
Q 5078 1416 5519 2009 
L 5925 1703 
Q 5363 1025 4619 475 
Q 4859 44 5194 -184 
Q 5606 -428 5725 66 
Q 5806 466 5856 953 
Q 6144 828 6338 772 
Q 6231 97 6125 -247 
Q 5944 -778 5506 -778 
Q 5050 -778 4663 -403 
Q 4409 -163 4209 194 
Q 3350 -363 2281 -772 
Q 2169 -597 1969 -347 
z
M 900 1541 
Q 1456 1622 2213 1753 
Q 2175 1522 2156 1272 
Q 1113 1109 325 978 
L 225 1447 
Q 659 1913 1178 2775 
Q 672 2747 225 2703 
L 106 3128 
Q 688 3922 1300 5353 
L 1775 5166 
Q 1131 3897 669 3166 
Q 1041 3178 1422 3194 
Q 1638 3578 1869 4028 
L 2331 3797 
Q 1569 2478 900 1541 
z
M 106 97 
Q 1206 334 2331 616 
Q 2313 366 2313 141 
Q 1269 -103 244 -378 
L 106 97 
z
M 4463 4972 
L 4731 5284 
Q 5175 5003 5681 4609 
L 5381 4247 
Q 4863 4691 4463 4972 
z
" transform="scale(0.015625)"/>
      <path id="MicrosoftYaHei-7269" d="M 2131 2866 
Q 2750 3816 3263 5341 
L 3719 5203 
Q 3541 4706 3363 4278 
L 6075 4278 
Q 5950 1759 5869 422 
Q 5800 -622 4869 -622 
Q 4519 -622 4044 -603 
Q 4013 -372 3956 -72 
Q 4500 -134 4819 -134 
Q 5325 -134 5375 441 
Q 5488 1759 5575 3834 
L 5097 3834 
Q 4934 2241 4569 1322 
Q 4069 134 2869 -716 
Q 2731 -522 2550 -334 
Q 3719 491 4169 1559 
Q 4531 2438 4634 3834 
L 4078 3834 
Q 3909 2641 3575 1916 
Q 3163 1097 2444 447 
Q 2288 647 2119 816 
Q 2831 1434 3175 2116 
Q 3509 2809 3619 3834 
L 3169 3834 
Q 2850 3125 2531 2628 
Q 2375 2734 2131 2866 
z
M 94 1584 
Q 669 1775 1288 1991 
L 1288 3466 
L 722 3466 
Q 597 2872 419 2378 
Q 219 2522 13 2653 
Q 363 3509 456 4709 
L 906 4634 
Q 863 4244 800 3884 
L 1288 3884 
L 1288 5291 
L 1756 5291 
L 1756 3884 
L 2375 3884 
L 2375 3466 
L 1756 3466 
L 1756 2156 
Q 2063 2269 2381 2384 
Q 2413 2109 2450 1909 
Q 2141 1797 1756 1653 
L 1756 -834 
L 1288 -834 
L 1288 1475 
Q 788 1288 188 1053 
L 94 1584 
z
" transform="scale(0.015625)"/>
      <path id="MicrosoftYaHei-6807" d="M 75 1409 
Q 769 2478 1025 3647 
L 119 3647 
L 119 4072 
L 1069 4072 
L 1069 5297 
L 1506 5297 
L 1506 4072 
L 2356 4072 
L 2356 3647 
L 1506 3647 
L 1506 2541 
L 1775 2822 
Q 2175 2478 2481 2159 
L 2150 1816 
Q 1850 2156 1506 2503 
L 1506 -797 
L 1069 -797 
L 1069 2588 
Q 738 1513 281 859 
Q 194 1128 75 1409 
z
M 2350 3097 
L 6250 3097 
L 6250 2659 
L 4525 2659 
L 4525 47 
Q 4525 -734 3806 -734 
Q 3469 -741 2975 -728 
Q 2944 -503 2888 -209 
Q 3319 -259 3675 -259 
Q 4050 -259 4050 203 
L 4050 2659 
L 2350 2659 
L 2350 3097 
z
M 2638 4928 
L 5963 4928 
L 5963 4491 
L 2638 4491 
L 2638 4928 
z
M 4938 1853 
L 5381 2066 
Q 5975 928 6369 72 
L 5869 -147 
Q 5463 822 4938 1853 
z
M 2931 2066 
L 3400 1878 
Q 2888 734 2381 -153 
Q 2188 -41 1925 66 
Q 2425 872 2931 2066 
z
" transform="scale(0.015625)"/>
      <path id="MicrosoftYaHei-5fd7" d="M 663 2703 
L 2944 2703 
L 2944 3903 
L 200 3903 
L 200 4341 
L 2944 4341 
L 2944 5341 
L 3456 5341 
L 3456 4341 
L 6213 4341 
L 6213 3903 
L 3456 3903 
L 3456 2703 
L 5738 2703 
L 5738 2266 
L 663 2266 
L 663 2703 
z
M 1625 1572 
L 2113 1572 
L 2113 153 
Q 2113 -222 2488 -222 
L 3806 -222 
Q 4256 -222 4338 109 
Q 4413 403 4469 866 
Q 4700 772 4963 684 
Q 4881 222 4800 -78 
Q 4656 -678 3950 -678 
L 2394 -678 
Q 1625 -678 1625 128 
L 1625 1572 
z
M 725 1684 
L 1194 1547 
Q 938 603 675 -91 
Q 469 -9 194 59 
Q 506 816 725 1684 
z
M 4981 1459 
L 5375 1709 
Q 5838 1091 6288 366 
L 5850 72 
Q 5394 859 4981 1459 
z
M 2600 1859 
L 2988 2116 
Q 3450 1547 3881 934 
L 3463 647 
Q 3006 1341 2600 1859 
z
" transform="scale(0.015625)"/>
      <path id="MicrosoftYaHei-58" d="M 4034 0 
L 3275 0 
L 2194 1822 
Q 2156 1884 2084 2072 
L 2069 2072 
Q 2063 2047 1956 1819 
L 844 0 
L 81 0 
L 1691 2431 
L 209 4841 
L 975 4841 
L 1931 3166 
Q 2016 3019 2100 2822 
L 2113 2822 
Q 2188 2991 2297 3181 
L 3297 4841 
L 4013 4841 
L 2500 2441 
L 4034 0 
z
" transform="scale(0.015625)"/>
      <path id="MicrosoftYaHei-4e" d="M 4578 0 
L 3838 0 
L 1403 3766 
Q 1300 3925 1238 4081 
L 1219 4081 
Q 1244 3919 1244 3403 
L 1244 0 
L 625 0 
L 625 4841 
L 1409 4841 
L 3778 1141 
Q 3947 878 3978 806 
L 3991 806 
Q 3959 1013 3959 1513 
L 3959 4841 
L 4578 4841 
L 4578 0 
z
" transform="scale(0.015625)"/>
      <path id="MicrosoftYaHei-65" d="M 3363 1572 
L 944 1572 
Q 959 1019 1246 717 
Q 1534 416 2050 416 
Q 2631 416 3116 788 
L 3116 241 
Q 2659 -81 1906 -81 
Q 1156 -81 736 394 
Q 316 869 316 1713 
Q 316 2506 777 3022 
Q 1238 3538 1922 3538 
Q 2600 3538 2981 3102 
Q 3363 2666 3363 1881 
L 3363 1572 
z
M 2750 2063 
Q 2747 2531 2528 2787 
Q 2309 3044 1913 3044 
Q 1547 3044 1280 2772 
Q 1013 2500 944 2063 
L 2750 2063 
z
" transform="scale(0.015625)"/>
      <path id="MicrosoftYaHei-67" d="M 3547 291 
Q 3547 -1628 1684 -1628 
Q 1041 -1628 566 -1388 
L 566 -797 
Q 1144 -1119 1675 -1119 
Q 2934 -1119 2934 206 
L 2934 572 
L 2922 572 
Q 2528 -81 1747 -81 
Q 1097 -81 706 384 
Q 316 850 316 1619 
Q 316 2503 747 3020 
Q 1178 3538 1897 3538 
Q 2588 3538 2922 2988 
L 2934 2988 
L 2934 3456 
L 3547 3456 
L 3547 291 
z
M 2934 2056 
Q 2938 2456 2666 2743 
Q 2394 3031 1997 3031 
Q 1497 3031 1219 2664 
Q 941 2297 941 1656 
Q 941 1106 1209 765 
Q 1478 425 1922 425 
Q 2369 425 2653 750 
Q 2938 1075 2934 1575 
L 2934 2056 
z
" transform="scale(0.015625)"/>
      <path id="MicrosoftYaHei-61" d="M 628 3216 
Q 1144 3538 1819 3538 
Q 3069 3538 3069 2225 
L 3069 0 
L 2463 0 
L 2463 534 
L 2447 534 
Q 2088 -81 1388 -81 
Q 884 -81 587 191 
Q 291 463 291 925 
Q 291 1894 1438 2053 
L 2463 2197 
Q 2463 3044 1763 3044 
Q 1141 3044 628 2625 
L 628 3216 
z
M 1653 1625 
Q 1228 1569 1067 1412 
Q 906 1256 906 975 
Q 906 728 1081 572 
Q 1256 416 1544 416 
Q 1944 416 2203 697 
Q 2463 978 2463 1403 
L 2463 1734 
L 1653 1625 
z
" transform="scale(0.015625)"/>
      <path id="MicrosoftYaHei-74" d="M 2206 34 
Q 2006 -75 1666 -75 
Q 738 -75 738 953 
L 738 2950 
L 144 2950 
L 144 3456 
L 738 3456 
L 738 4288 
L 1347 4481 
L 1347 3456 
L 2206 3456 
L 2206 2950 
L 1347 2950 
L 1347 1063 
Q 1347 722 1462 575 
Q 1578 428 1847 428 
Q 2053 428 2206 544 
L 2206 34 
z
" transform="scale(0.015625)"/>
      <path id="MicrosoftYaHei-69" d="M 472 4675 
Q 472 4838 583 4948 
Q 694 5059 856 5059 
Q 1022 5059 1136 4950 
Q 1250 4841 1250 4675 
Q 1250 4513 1136 4405 
Q 1022 4297 856 4297 
Q 691 4297 581 4405 
Q 472 4513 472 4675 
z
M 544 0 
L 544 3456 
L 1156 3456 
L 1156 0 
L 544 0 
z
" transform="scale(0.015625)"/>
      <path id="MicrosoftYaHei-76" d="M 3331 3456 
L 1963 0 
L 1344 0 
L 44 3456 
L 713 3456 
L 1556 988 
Q 1659 691 1678 491 
L 1694 491 
Q 1725 753 1803 975 
L 2688 3456 
L 3331 3456 
z
" transform="scale(0.015625)"/>
     </defs>
     <use xlink:href="#MicrosoftYaHei-52"/>
     <use xlink:href="#MicrosoftYaHei-43" transform="translate(63.783203 0)"/>
     <use xlink:href="#MicrosoftYaHei-54" transform="translate(130.677734 0)"/>
     <use xlink:href="#MicrosoftYaHei-2d" transform="translate(188.001953 0)"/>
     <use xlink:href="#MicrosoftYaHei-41" transform="translate(231.263672 0)"/>
     <use xlink:href="#MicrosoftYaHei-20" transform="translate(301.625 0)"/>
     <use xlink:href="#MicrosoftYaHei-4f" transform="translate(331.214844 0)"/>
     <use xlink:href="#MicrosoftYaHei-53" transform="translate(412.708984 0)"/>
     <use xlink:href="#MicrosoftYaHei-20" transform="translate(470.423828 0)"/>
     <use xlink:href="#MicrosoftYaHei-4b" transform="translate(500.013672 0)"/>
     <use xlink:href="#MicrosoftYaHei-4d" transform="translate(563.490234 0)"/>
     <use xlink:href="#MicrosoftYaHei-66f2" transform="translate(661.195312 0)"/>
     <use xlink:href="#MicrosoftYaHei-7ebf" transform="translate(761.195312 0)"/>
     <use xlink:href="#MicrosoftYaHei-20" transform="translate(861.195312 0)"/>
     <use xlink:href="#MicrosoftYaHei-2d" transform="translate(890.785156 0)"/>
     <use xlink:href="#MicrosoftYaHei-20" transform="translate(934.046875 0)"/>
     <use xlink:href="#MicrosoftYaHei-751f" transform="translate(963.636719 0)"/>
     <use xlink:href="#MicrosoftYaHei-7269" transform="translate(1063.636719 0)"/>
     <use xlink:href="#MicrosoftYaHei-6807" transform="translate(1163.636719 0)"/>
     <use xlink:href="#MicrosoftYaHei-5fd7" transform="translate(1263.636719 0)"/>
     <use xlink:href="#MicrosoftYaHei-7269" transform="translate(1363.636719 0)"/>
     <use xlink:href="#MicrosoftYaHei-58" transform="translate(1463.636719 0)"/>
     <use xlink:href="#MicrosoftYaHei-20" transform="translate(1528.138672 0)"/>
     <use xlink:href="#MicrosoftYaHei-4e" transform="translate(1557.728516 0)"/>
     <use xlink:href="#MicrosoftYaHei-65" transform="translate(1639.027344 0)"/>
     <use xlink:href="#MicrosoftYaHei-67" transform="translate(1695.765625 0)"/>
     <use xlink:href="#MicrosoftYaHei-61" transform="translate(1759.730469 0)"/>
     <use xlink:href="#MicrosoftYaHei-74" transform="translate(1815.003906 0)"/>
     <use xlink:href="#MicrosoftYaHei-69" transform="translate(1852.259766 0)"/>
     <use xlink:href="#MicrosoftYaHei-76" transform="translate(1878.871094 0)"/>
     <use xlink:href="#MicrosoftYaHei-65" transform="translate(1930.736328 0)"/>
    </g>
   </g>
   <g id="legend_1">
    <g id="patch_7">
     <path d="M 420.240625 65.904688 
L 486.2 65.904688 
Q 488.2 65.904688 488.2 63.904688 
L 488.2 33.878125 
Q 488.2 31.878125 486.2 31.878125 
L 420.240625 31.878125 
Q 418.240625 31.878125 418.240625 33.878125 
L 418.240625 63.904688 
Q 418.240625 65.904688 420.240625 65.904688 
z
" style="fill: #ffffff; opacity: 0.8; stroke: #cccccc; stroke-linejoin: miter"/>
    </g>
    <g id="line2d_33">
     <path d="M 422.240625 40.371875 
L 432.240625 40.371875 
L 432.240625 40.371875 
L 442.240625 40.371875 
L 442.240625 40.371875 
" style="fill: none; stroke: #1f77b4; stroke-width: 1.5; stroke-linecap: square"/>
    </g>
    <g id="text_19">
     <!-- control -->
     <g transform="translate(450.240625 43.871875) scale(0.1 -0.1)">
      <defs>
       <path id="MicrosoftYaHei-63" d="M 2934 156 
Q 2538 -81 1978 -81 
Q 1228 -81 772 400 
Q 316 881 316 1647 
Q 316 2497 808 3017 
Q 1300 3538 2125 3538 
Q 2600 3538 2938 3369 
L 2938 2763 
Q 2572 3031 2125 3031 
Q 1600 3031 1270 2667 
Q 941 2303 941 1697 
Q 941 1100 1252 762 
Q 1563 425 2091 425 
Q 2538 425 2934 719 
L 2934 156 
z
" transform="scale(0.015625)"/>
       <path id="MicrosoftYaHei-6f" d="M 316 1691 
Q 316 2547 794 3042 
Q 1272 3538 2091 3538 
Q 2869 3538 3311 3061 
Q 3753 2584 3753 1744 
Q 3753 925 3281 422 
Q 2809 -81 2016 -81 
Q 1241 -81 778 406 
Q 316 894 316 1691 
z
M 941 1709 
Q 941 1113 1242 769 
Q 1544 425 2053 425 
Q 2578 425 2853 761 
Q 3128 1097 3128 1725 
Q 3128 2356 2853 2693 
Q 2578 3031 2053 3031 
Q 1538 3031 1239 2678 
Q 941 2325 941 1709 
z
" transform="scale(0.015625)"/>
       <path id="MicrosoftYaHei-6e" d="M 3469 0 
L 2859 0 
L 2859 1966 
Q 2859 3031 2081 3031 
Q 1678 3031 1418 2731 
Q 1159 2431 1159 1972 
L 1159 0 
L 547 0 
L 547 3456 
L 1159 3456 
L 1159 2884 
L 1172 2884 
Q 1563 3538 2306 3538 
Q 2875 3538 3172 3173 
Q 3469 2809 3469 2113 
L 3469 0 
z
" transform="scale(0.015625)"/>
       <path id="MicrosoftYaHei-72" d="M 2400 2850 
Q 2247 2959 1978 2959 
Q 1622 2959 1390 2626 
Q 1159 2294 1159 1750 
L 1159 0 
L 547 0 
L 547 3456 
L 1159 3456 
L 1159 2753 
L 1172 2753 
Q 1434 3516 2078 3516 
Q 2288 3516 2400 3469 
L 2400 2850 
z
" transform="scale(0.015625)"/>
       <path id="MicrosoftYaHei-6c" d="M 544 0 
L 544 5116 
L 1156 5116 
L 1156 0 
L 544 0 
z
" transform="scale(0.015625)"/>
      </defs>
      <use xlink:href="#MicrosoftYaHei-63"/>
      <use xlink:href="#MicrosoftYaHei-6f" transform="translate(50.146484 0)"/>
      <use xlink:href="#MicrosoftYaHei-6e" transform="translate(113.720703 0)"/>
      <use xlink:href="#MicrosoftYaHei-74" transform="translate(175.341797 0)"/>
      <use xlink:href="#MicrosoftYaHei-72" transform="translate(212.597656 0)"/>
      <use xlink:href="#MicrosoftYaHei-6f" transform="translate(249.40625 0)"/>
      <use xlink:href="#MicrosoftYaHei-6c" transform="translate(312.980469 0)"/>
     </g>
    </g>
    <g id="line2d_34">
     <path d="M 422.240625 55.851563 
L 432.240625 55.851563 
L 432.240625 55.851563 
L 442.240625 55.851563 
L 442.240625 55.851563 
" style="fill: none; stroke: #ff7f0e; stroke-width: 1.5; stroke-linecap: square"/>
    </g>
    <g id="text_20">
     <!-- drug_a -->
     <g transform="translate(450.240625 59.351563) scale(0.1 -0.1)">
      <defs>
       <path id="MicrosoftYaHei-64" d="M 3547 0 
L 2934 0 
L 2934 575 
L 2922 575 
Q 2544 -81 1747 -81 
Q 1091 -81 703 386 
Q 316 853 316 1647 
Q 316 2503 753 3020 
Q 1191 3538 1897 3538 
Q 2603 3538 2922 2988 
L 2934 2988 
L 2934 5116 
L 3547 5116 
L 3547 0 
z
M 2938 2056 
Q 2938 2472 2664 2751 
Q 2391 3031 1991 3031 
Q 1503 3031 1222 2667 
Q 941 2303 941 1675 
Q 941 1097 1211 761 
Q 1481 425 1931 425 
Q 2375 425 2656 754 
Q 2938 1084 2938 1575 
L 2938 2056 
z
" transform="scale(0.015625)"/>
       <path id="MicrosoftYaHei-75" d="M 3400 0 
L 2784 0 
L 2784 544 
L 2772 544 
Q 2425 -81 1706 -81 
Q 478 -81 478 1388 
L 478 3456 
L 1084 3456 
L 1084 1478 
Q 1084 425 1891 425 
Q 2291 425 2537 720 
Q 2784 1016 2784 1466 
L 2784 3456 
L 3400 3456 
L 3400 0 
z
" transform="scale(0.015625)"/>
       <path id="MicrosoftYaHei-5f" d="M 2869 -1634 
L 0 -1634 
L 0 -1231 
L 2869 -1231 
L 2869 -1634 
z
" transform="scale(0.015625)"/>
      </defs>
      <use xlink:href="#MicrosoftYaHei-64"/>
      <use xlink:href="#MicrosoftYaHei-72" transform="translate(63.964844 0)"/>
      <use xlink:href="#MicrosoftYaHei-75" transform="translate(102.148438 0)"/>
      <use xlink:href="#MicrosoftYaHei-67" transform="translate(163.769531 0)"/>
      <use xlink:href="#MicrosoftYaHei-5f" transform="translate(227.734375 0)"/>
      <use xlink:href="#MicrosoftYaHei-61" transform="translate(272.558594 0)"/>
     </g>
    </g>
   </g>
  </g>
 </g>
 <defs>
  <clipPath id="p902f0caf9d">
   <rect x="46.1" y="26.878125" width="447.1" height="290.903125"/>
  </clipPath>
 </defs>
</svg>
