<?xml version="1.0" encoding="utf-8" standalone="no"?>
<!DOCTYPE svg PUBLIC "-//W3C//DTD SVG 1.1//EN"
  "http://www.w3.org/Graphics/SVG/1.1/DTD/svg11.dtd">
<svg xmlns:xlink="http://www.w3.org/1999/xlink" width="504pt" height="360pt" viewBox="0 0 504 360" xmlns="http://www.w3.org/2000/svg" version="1.1">
 <metadata>
  <rdf:RDF xmlns:dc="http://purl.org/dc/elements/1.1/" xmlns:cc="http://creativecommons.org/ns#" xmlns:rdf="http://www.w3.org/1999/02/22-rdf-syntax-ns#">
   <cc:Work>
    <dc:type rdf:resource="http://purl.org/dc/dcmitype/StillImage"/>
    <dc:date>2025-09-28T11:47:56.139161</dc:date>
    <dc:format>image/svg+xml</dc:format>
    <dc:creator>
     <cc:Agent>
      <dc:title>Matplotlib v3.10.0, https://matplotlib.org/</dc:title>
     </cc:Agent>
    </dc:creator>
   </cc:Work>
  </rdf:RDF>
 </metadata>
 <defs>
  <style type="text/css">*{stroke-linejoin: round; stroke-linecap: butt}</style>
 </defs>
 <g id="figure_1">
  <g id="patch_1">
   <path d="M 0 360 
L 504 360 
L 504 0 
L 0 0 
z
" style="fill: #ffffff"/>
  </g>
  <g id="axes_1">
   <g id="patch_2">
    <path d="M 46.1 317.78125 
L 493.2 317.78125 
L 493.2 26.4 
L 46.1 26.4 
z
" style="fill: #ffffff"/>
   </g>
   <g id="FillBetweenPolyCollection_1">
    <defs>
     <path id="m14b3ab44aa" d="M 66.422727 -320.355398 
L 66.422727 -320.355398 
L 73.576049 -320.355398 
L 73.576049 -298.514263 
L 74.246704 -298.514263 
L 74.246704 -295.740082 
L 74.648138 -295.740082 
L 74.648138 -295.740082 
L 76.870849 -295.740082 
L 76.870849 -291.662966 
L 80.681302 -291.662966 
L 80.681302 -287.48965 
L 86.568927 -287.48965 
L 86.568927 -283.352057 
L 86.700772 -283.352057 
L 86.700772 -279.275925 
L 87.315295 -279.275925 
L 87.315295 -275.263659 
L 91.706823 -275.263659 
L 91.706823 -271.311698 
L 97.057801 -271.311698 
L 97.057801 -271.311698 
L 101.744094 -271.311698 
L 101.744094 -267.335655 
L 101.971427 -267.335655 
L 101.971427 -263.416577 
L 105.627044 -263.416577 
L 105.627044 -259.548598 
L 108.759187 -259.548598 
L 108.759187 -255.72689 
L 108.910579 -255.72689 
L 108.910579 -251.94744 
L 118.86442 -251.94744 
L 118.86442 -248.20688 
L 119.785602 -248.20688 
L 119.785602 -244.502357 
L 121.689327 -244.502357 
L 121.689327 -240.831433 
L 123.061116 -240.831433 
L 123.061116 -237.192011 
L 127.178916 -237.192011 
L 127.178916 -233.582273 
L 129.254651 -233.582273 
L 129.254651 -230.000638 
L 130.6387 -230.000638 
L 130.6387 -226.445718 
L 131.522569 -226.445718 
L 131.522569 -222.916296 
L 131.875274 -222.916296 
L 131.875274 -222.916296 
L 138.11398 -222.916296 
L 138.11398 -219.334486 
L 144.695546 -219.334486 
L 144.695546 -215.778496 
L 145.370088 -215.778496 
L 145.370088 -212.247269 
L 146.534703 -212.247269 
L 146.534703 -208.739875 
L 147.8598 -208.739875 
L 147.8598 -205.255496 
L 148.203023 -205.255496 
L 148.203023 -201.79341 
L 154.124642 -201.79341 
L 154.124642 -198.35298 
L 155.913089 -198.35298 
L 155.913089 -194.933645 
L 161.296618 -194.933645 
L 161.296618 -191.534911 
L 163.654271 -191.534911 
L 163.654271 -188.156345 
L 164.557125 -188.156345 
L 164.557125 -184.79757 
L 168.347547 -184.79757 
L 168.347547 -181.45826 
L 170.840269 -181.45826 
L 170.840269 -178.138134 
L 174.078194 -178.138134 
L 174.078194 -174.836957 
L 182.835849 -174.836957 
L 182.835849 -174.836957 
L 187.639926 -174.836957 
L 187.639926 -171.461607 
L 188.334142 -171.461607 
L 188.334142 -168.107031 
L 189.239096 -168.107031 
L 189.239096 -164.773021 
L 189.801568 -164.773021 
L 189.801568 -161.459421 
L 197.769696 -161.459421 
L 197.769696 -158.166117 
L 202.354955 -158.166117 
L 202.354955 -154.893042 
L 218.720414 -154.893042 
L 218.720414 -151.640173 
L 221.609753 -151.640173 
L 221.609753 -148.407528 
L 232.174286 -148.407528 
L 232.174286 -145.195169 
L 237.809769 -145.195169 
L 237.809769 -142.003203 
L 239.874495 -142.003203 
L 239.874495 -138.831778 
L 240.151151 -138.831778 
L 240.151151 -135.681091 
L 240.553142 -135.681091 
L 240.553142 -132.551385 
L 243.89869 -132.551385 
L 243.89869 -129.442954 
L 253.101998 -129.442954 
L 253.101998 -126.356145 
L 268.925504 -126.356145 
L 268.925504 -123.291361 
L 277.580486 -123.291361 
L 277.580486 -123.291361 
L 280.718863 -123.291361 
L 280.718863 -120.109087 
L 283.218565 -120.109087 
L 283.218565 -116.953926 
L 299.251391 -116.953926 
L 299.251391 -113.82649 
L 307.577173 -113.82649 
L 307.577173 -110.727495 
L 312.312744 -110.727495 
L 312.312744 -110.727495 
L 319.172694 -110.727495 
L 319.172694 -110.727495 
L 320.626724 -110.727495 
L 320.626724 -107.288102 
L 328.171283 -107.288102 
L 328.171283 -103.893545 
L 335.705063 -103.893545 
L 335.705063 -100.545057 
L 336.282846 -100.545057 
L 336.282846 -97.244169 
L 342.924593 -97.244169 
L 342.924593 -93.992743 
L 346.085719 -93.992743 
L 346.085719 -90.793038 
L 354.914384 -90.793038 
L 354.914384 -87.647777 
L 358.194928 -87.647777 
L 358.194928 -87.647777 
L 370.965668 -87.647777 
L 370.965668 -84.254391 
L 392.914649 -84.254391 
L 392.914649 -84.254391 
L 410.295491 -84.254391 
L 410.295491 -84.254391 
L 411.102245 -84.254391 
L 411.102245 -84.254391 
L 436.502094 -84.254391 
L 436.502094 -84.254391 
L 437.532321 -84.254391 
L 437.532321 -78.646048 
L 447.025895 -78.646048 
L 447.025895 -78.646048 
L 450.492737 -78.646048 
L 450.492737 -78.646048 
L 453.340819 -78.646048 
L 453.340819 -78.646048 
L 456.004005 -78.646048 
L 456.004005 -68.119173 
L 458.285812 -68.119173 
L 458.285812 -60.777103 
L 460.828126 -60.777103 
L 460.828126 -56.467269 
L 469.816894 -56.467269 
L 469.816894 -55.463352 
L 469.816894 -55.463352 
L 469.816894 -55.463352 
L 469.816894 -98.307746 
L 460.828126 -98.307746 
L 460.828126 -109.426737 
L 458.285812 -109.426737 
L 458.285812 -118.595251 
L 456.004005 -118.595251 
L 456.004005 -125.441159 
L 453.340819 -125.441159 
L 453.340819 -125.441159 
L 450.492737 -125.441159 
L 450.492737 -125.441159 
L 447.025895 -125.441159 
L 447.025895 -125.441159 
L 437.532321 -125.441159 
L 437.532321 -131.171372 
L 436.502094 -131.171372 
L 436.502094 -131.171372 
L 411.102245 -131.171372 
L 411.102245 -131.171372 
L 410.295491 -131.171372 
L 410.295491 -131.171372 
L 392.914649 -131.171372 
L 392.914649 -131.171372 
L 370.965668 -131.171372 
L 370.965668 -135.642228 
L 358.194928 -135.642228 
L 358.194928 -135.642228 
L 354.914384 -135.642228 
L 354.914384 -139.840302 
L 346.085719 -139.840302 
L 346.085719 -143.992303 
L 342.924593 -143.992303 
L 342.924593 -148.10072 
L 336.282846 -148.10072 
L 336.282846 -152.167653 
L 335.705063 -152.167653 
L 335.705063 -156.194881 
L 328.171283 -156.194881 
L 328.171283 -160.183912 
L 320.626724 -160.183912 
L 320.626724 -164.136016 
L 319.172694 -164.136016 
L 319.172694 -164.136016 
L 312.312744 -164.136016 
L 312.312744 -164.136016 
L 307.577173 -164.136016 
L 307.577173 -167.800041 
L 299.251391 -167.800041 
L 299.251391 -171.438918 
L 283.218565 -171.438918 
L 283.218565 -175.053319 
L 280.718863 -175.053319 
L 280.718863 -178.643829 
L 277.580486 -178.643829 
L 277.580486 -178.643829 
L 268.925504 -178.643829 
L 268.925504 -182.112991 
L 253.101998 -182.112991 
L 253.101998 -185.561929 
L 243.89869 -185.561929 
L 243.89869 -188.990997 
L 240.553142 -188.990997 
L 240.553142 -192.400502 
L 240.151151 -192.400502 
L 240.151151 -195.790703 
L 239.874495 -195.790703 
L 239.874495 -199.161818 
L 237.809769 -199.161818 
L 237.809769 -202.514021 
L 232.174286 -202.514021 
L 232.174286 -205.847451 
L 221.609753 -205.847451 
L 221.609753 -209.162205 
L 218.720414 -209.162205 
L 218.720414 -212.458348 
L 202.354955 -212.458348 
L 202.354955 -215.735905 
L 197.769696 -215.735905 
L 197.769696 -218.99487 
L 189.801568 -218.99487 
L 189.801568 -222.235198 
L 189.239096 -222.235198 
L 189.239096 -225.456809 
L 188.334142 -225.456809 
L 188.334142 -228.659587 
L 187.639926 -228.659587 
L 187.639926 -231.843378 
L 182.835849 -231.843378 
L 182.835849 -231.843378 
L 174.078194 -231.843378 
L 174.078194 -234.952301 
L 170.840269 -234.952301 
L 170.840269 -238.043174 
L 168.347547 -238.043174 
L 168.347547 -241.115759 
L 164.557125 -241.115759 
L 164.557125 -244.169777 
L 163.654271 -244.169777 
L 163.654271 -247.204905 
L 161.296618 -247.204905 
L 161.296618 -250.220777 
L 155.913089 -250.220777 
L 155.913089 -253.216973 
L 154.124642 -253.216973 
L 154.124642 -256.19302 
L 148.203023 -256.19302 
L 148.203023 -259.148385 
L 147.8598 -259.148385 
L 147.8598 -262.082466 
L 146.534703 -262.082466 
L 146.534703 -264.994587 
L 145.370088 -264.994587 
L 145.370088 -267.883985 
L 144.695546 -267.883985 
L 144.695546 -270.749805 
L 138.11398 -270.749805 
L 138.11398 -273.591077 
L 131.875274 -273.591077 
L 131.875274 -273.591077 
L 131.522569 -273.591077 
L 131.522569 -276.370203 
L 130.6387 -276.370203 
L 130.6387 -279.123756 
L 129.254651 -279.123756 
L 129.254651 -281.850419 
L 127.178916 -281.850419 
L 127.178916 -284.54869 
L 123.061116 -284.54869 
L 123.061116 -287.216842 
L 121.689327 -287.216842 
L 121.689327 -289.852877 
L 119.785602 -289.852877 
L 119.785602 -292.454473 
L 118.86442 -292.454473 
L 118.86442 -295.0189 
L 108.910579 -295.0189 
L 108.910579 -297.542919 
L 108.759187 -297.542919 
L 108.759187 -300.022645 
L 105.627044 -300.022645 
L 105.627044 -302.453346 
L 101.971427 -302.453346 
L 101.971427 -304.829169 
L 101.744094 -304.829169 
L 101.744094 -307.142725 
L 97.057801 -307.142725 
L 97.057801 -307.142725 
L 91.706823 -307.142725 
L 91.706823 -309.36341 
L 87.315295 -309.36341 
L 87.315295 -311.502392 
L 86.700772 -311.502392 
L 86.700772 -313.542806 
L 86.568927 -313.542806 
L 86.568927 -315.460131 
L 80.681302 -315.460131 
L 80.681302 -317.216107 
L 76.870849 -317.216107 
L 76.870849 -318.744465 
L 74.648138 -318.744465 
L 74.648138 -318.744465 
L 74.246704 -318.744465 
L 74.246704 -319.903497 
L 73.576049 -319.903497 
L 73.576049 -320.355398 
L 66.422727 -320.355398 
z
" style="stroke: #1f77b4; stroke-opacity: 0.25"/>
    </defs>
    <g clip-path="url(#p993628e532)">
     <use xlink:href="#m14b3ab44aa" x="0" y="360" style="fill: #1f77b4; fill-opacity: 0.25; stroke: #1f77b4; stroke-opacity: 0.25"/>
    </g>
   </g>
   <g id="FillBetweenPolyCollection_2">
    <defs>
     <path id="mad3543effd" d="M 66.422727 -320.355398 
L 66.422727 -320.355398 
L 69.105491 -320.355398 
L 69.105491 -293.910368 
L 69.391245 -293.910368 
L 69.391245 -290.549256 
L 96.796498 -290.549256 
L 96.796498 -285.769592 
L 104.717898 -285.769592 
L 104.717898 -280.839186 
L 106.323877 -280.839186 
L 106.323877 -275.940679 
L 108.425121 -275.940679 
L 108.425121 -271.112337 
L 110.553808 -271.112337 
L 110.553808 -271.112337 
L 111.333602 -271.112337 
L 111.333602 -266.236351 
L 112.994169 -266.236351 
L 112.994169 -261.447253 
L 122.651742 -261.447253 
L 122.651742 -256.735833 
L 128.575541 -256.735833 
L 128.575541 -252.094289 
L 129.634731 -252.094289 
L 129.634731 -247.5161 
L 141.161781 -247.5161 
L 141.161781 -242.995822 
L 141.349085 -242.995822 
L 141.349085 -242.995822 
L 146.467152 -242.995822 
L 146.467152 -242.995822 
L 146.872019 -242.995822 
L 146.872019 -238.293073 
L 147.736031 -238.293073 
L 147.736031 -233.653381 
L 154.520332 -233.653381 
L 154.520332 -229.071195 
L 161.435616 -229.071195 
L 161.435616 -224.542008 
L 167.007646 -224.542008 
L 167.007646 -220.062112 
L 168.029438 -220.062112 
L 168.029438 -215.628417 
L 183.14399 -215.628417 
L 183.14399 -211.238324 
L 195.456052 -211.238324 
L 195.456052 -206.889634 
L 203.577694 -206.889634 
L 203.577694 -202.580474 
L 211.827545 -202.580474 
L 211.827545 -198.309247 
L 220.376907 -198.309247 
L 220.376907 -194.074584 
L 229.740444 -194.074584 
L 229.740444 -189.875318 
L 230.299574 -189.875318 
L 230.299574 -185.710454 
L 232.378169 -185.710454 
L 232.378169 -181.579147 
L 234.723419 -181.579147 
L 234.723419 -177.48069 
L 244.8792 -177.48069 
L 244.8792 -177.48069 
L 257.272946 -177.48069 
L 257.272946 -173.273916 
L 266.766577 -173.273916 
L 266.766577 -169.103525 
L 292.006242 -169.103525 
L 292.006242 -169.103525 
L 292.917056 -169.103525 
L 292.917056 -164.813439 
L 304.361436 -164.813439 
L 304.361436 -160.563959 
L 305.012592 -160.563959 
L 305.012592 -156.354446 
L 309.367042 -156.354446 
L 309.367042 -156.354446 
L 324.821666 -156.354446 
L 324.821666 -152.006931 
L 326.76893 -152.006931 
L 326.76893 -152.006931 
L 338.539962 -152.006931 
L 338.539962 -152.006931 
L 340.928979 -152.006931 
L 340.928979 -147.293854 
L 345.057896 -147.293854 
L 345.057896 -142.64335 
L 354.089084 -142.64335 
L 354.089084 -142.64335 
L 356.763423 -142.64335 
L 356.763423 -137.807602 
L 356.801236 -137.807602 
L 356.801236 -133.044688 
L 359.557825 -133.044688 
L 359.557825 -128.353774 
L 364.486129 -128.353774 
L 364.486129 -123.734517 
L 371.734349 -123.734517 
L 371.734349 -119.187052 
L 374.727311 -119.187052 
L 374.727311 -119.187052 
L 383.355674 -119.187052 
L 383.355674 -119.187052 
L 390.352506 -119.187052 
L 390.352506 -119.187052 
L 391.337672 -119.187052 
L 391.337672 -119.187052 
L 398.659403 -119.187052 
L 398.659403 -119.187052 
L 404.599956 -119.187052 
L 404.599956 -119.187052 
L 413.39791 -119.187052 
L 413.39791 -111.835283 
L 421.50829 -111.835283 
L 421.50829 -111.835283 
L 422.677046 -111.835283 
L 422.677046 -111.835283 
L 438.332154 -111.835283 
L 438.332154 -111.835283 
L 438.802624 -111.835283 
L 438.802624 -111.835283 
L 442.407351 -111.835283 
L 442.407351 -111.835283 
L 445.527347 -111.835283 
L 445.527347 -111.835283 
L 450.852785 -111.835283 
L 450.852785 -111.835283 
L 452.842811 -111.835283 
L 452.842811 -111.835283 
L 456.719608 -111.835283 
L 456.719608 -111.835283 
L 461.034943 -111.835283 
L 461.034943 -111.835283 
L 465.438747 -111.835283 
L 465.438747 -111.835283 
L 472.877273 -111.835283 
L 472.877273 -55.463352 
L 472.877273 -55.463352 
L 472.877273 -55.463352 
L 472.877273 -176.464511 
L 465.438747 -176.464511 
L 465.438747 -176.464511 
L 461.034943 -176.464511 
L 461.034943 -176.464511 
L 456.719608 -176.464511 
L 456.719608 -176.464511 
L 452.842811 -176.464511 
L 452.842811 -176.464511 
L 450.852785 -176.464511 
L 450.852785 -176.464511 
L 445.527347 -176.464511 
L 445.527347 -176.464511 
L 442.407351 -176.464511 
L 442.407351 -176.464511 
L 438.802624 -176.464511 
L 438.802624 -176.464511 
L 438.332154 -176.464511 
L 438.332154 -176.464511 
L 422.677046 -176.464511 
L 422.677046 -176.464511 
L 421.50829 -176.464511 
L 421.50829 -176.464511 
L 413.39791 -176.464511 
L 413.39791 -182.89839 
L 404.599956 -182.89839 
L 404.599956 -182.89839 
L 398.659403 -182.89839 
L 398.659403 -182.89839 
L 391.337672 -182.89839 
L 391.337672 -182.89839 
L 390.352506 -182.89839 
L 390.352506 -182.89839 
L 383.355674 -182.89839 
L 383.355674 -182.89839 
L 374.727311 -182.89839 
L 374.727311 -182.89839 
L 371.734349 -182.89839 
L 371.734349 -187.849188 
L 364.486129 -187.849188 
L 364.486129 -192.742822 
L 359.557825 -192.742822 
L 359.557825 -197.58014 
L 356.801236 -197.58014 
L 356.801236 -202.361681 
L 356.763423 -202.361681 
L 356.763423 -207.087688 
L 354.089084 -207.087688 
L 354.089084 -207.087688 
L 345.057896 -207.087688 
L 345.057896 -211.62461 
L 340.928979 -211.62461 
L 340.928979 -216.113244 
L 338.539962 -216.113244 
L 338.539962 -216.113244 
L 326.76893 -216.113244 
L 326.76893 -216.113244 
L 324.821666 -216.113244 
L 324.821666 -220.327377 
L 309.367042 -220.327377 
L 309.367042 -220.327377 
L 305.012592 -220.327377 
L 305.012592 -224.401895 
L 304.361436 -224.401895 
L 304.361436 -228.441854 
L 292.917056 -228.441854 
L 292.917056 -232.446951 
L 292.006242 -232.446951 
L 292.006242 -232.446951 
L 266.766577 -232.446951 
L 266.766577 -236.330435 
L 257.272946 -236.330435 
L 257.272946 -240.181323 
L 244.8792 -240.181323 
L 244.8792 -240.181323 
L 234.723419 -240.181323 
L 234.723419 -243.921874 
L 232.378169 -243.921874 
L 232.378169 -247.631351 
L 230.299574 -247.631351 
L 230.299574 -251.309077 
L 229.740444 -251.309077 
L 229.740444 -254.954256 
L 220.376907 -254.954256 
L 220.376907 -258.565961 
L 211.827545 -258.565961 
L 211.827545 -262.143112 
L 203.577694 -262.143112 
L 203.577694 -265.684466 
L 195.456052 -265.684466 
L 195.456052 -269.188581 
L 183.14399 -269.188581 
L 183.14399 -272.653793 
L 168.029438 -272.653793 
L 168.029438 -276.07817 
L 167.007646 -276.07817 
L 167.007646 -279.459468 
L 161.435616 -279.459468 
L 161.435616 -282.795065 
L 154.520332 -282.795065 
L 154.520332 -286.081877 
L 147.736031 -286.081877 
L 147.736031 -289.316248 
L 146.872019 -289.316248 
L 146.872019 -292.493809 
L 146.467152 -292.493809 
L 146.467152 -292.493809 
L 141.349085 -292.493809 
L 141.349085 -292.493809 
L 141.161781 -292.493809 
L 141.161781 -295.526864 
L 129.634731 -295.526864 
L 129.634731 -298.498003 
L 128.575541 -298.498003 
L 128.575541 -301.400211 
L 122.651742 -301.400211 
L 122.651742 -304.224628 
L 112.994169 -304.224628 
L 112.994169 -306.959793 
L 111.333602 -306.959793 
L 111.333602 -309.590436 
L 110.553808 -309.590436 
L 110.553808 -309.590436 
L 108.425121 -309.590436 
L 108.425121 -312.069031 
L 106.323877 -312.069031 
L 106.323877 -314.397113 
L 104.717898 -314.397113 
L 104.717898 -316.528885 
L 96.796498 -316.528885 
L 96.796498 -318.385138 
L 69.391245 -318.385138 
L 69.391245 -319.80318 
L 69.105491 -319.80318 
L 69.105491 -320.355398 
L 66.422727 -320.355398 
z
" style="stroke: #ff7f0e; stroke-opacity: 0.25"/>
    </defs>
    <g clip-path="url(#p993628e532)">
     <use xlink:href="#mad3543effd" x="0" y="360" style="fill: #ff7f0e; fill-opacity: 0.25; stroke: #ff7f0e; stroke-opacity: 0.25"/>
    </g>
   </g>
   <g id="matplotlib.axis_1">
    <g id="xtick_1">
     <g id="line2d_1">
      <path d="M 66.422727 317.78125 
L 66.422727 26.4 
" clip-path="url(#p993628e532)" style="fill: none; stroke: #b0b0b0; stroke-opacity: 0.3; stroke-width: 0.8; stroke-linecap: square"/>
     </g>
     <g id="line2d_2">
      <defs>
       <path id="m9d703acb77" d="M 0 0 
L 0 3.5 
" style="stroke: #000000; stroke-width: 0.8"/>
      </defs>
      <g>
       <use xlink:href="#m9d703acb77" x="66.422727" y="317.78125" style="stroke: #000000; stroke-width: 0.8"/>
      </g>
     </g>
     <g id="text_1">
      <!-- 0 -->
      <g transform="translate(63.490696 332.775) scale(0.1 -0.1)">
       <defs>
        <path id="MicrosoftYaHei-30" d="M 284 2325 
Q 284 3606 709 4264 
Q 1134 4922 1941 4922 
Q 3478 4922 3478 2441 
Q 3478 1216 3045 567 
Q 2613 -81 1831 -81 
Q 1094 -81 689 534 
Q 284 1150 284 2325 
z
M 909 2353 
Q 909 425 1888 425 
Q 2850 425 2850 2384 
Q 2850 4413 1906 4413 
Q 909 4413 909 2353 
z
" transform="scale(0.015625)"/>
       </defs>
       <use xlink:href="#MicrosoftYaHei-30"/>
      </g>
     </g>
    </g>
    <g id="xtick_2">
     <g id="line2d_3">
      <path d="M 117.410291 317.78125 
L 117.410291 26.4 
" clip-path="url(#p993628e532)" style="fill: none; stroke: #b0b0b0; stroke-opacity: 0.3; stroke-width: 0.8; stroke-linecap: square"/>
     </g>
     <g id="line2d_4">
      <g>
       <use xlink:href="#m9d703acb77" x="117.410291" y="317.78125" style="stroke: #000000; stroke-width: 0.8"/>
      </g>
     </g>
     <g id="text_2">
      <!-- 2 -->
      <g transform="translate(114.47826 332.775) scale(0.1 -0.1)">
       <defs>
        <path id="MicrosoftYaHei-32" d="M 2666 3572 
Q 2666 3963 2419 4186 
Q 2172 4409 1747 4409 
Q 1447 4409 1140 4256 
Q 834 4103 569 3819 
L 569 4413 
Q 806 4659 1107 4790 
Q 1409 4922 1816 4922 
Q 2472 4922 2872 4570 
Q 3272 4219 3272 3619 
Q 3272 3084 3026 2693 
Q 2781 2303 2188 1894 
Q 1581 1475 1376 1294 
Q 1172 1113 1090 947 
Q 1009 781 1009 544 
L 3416 544 
L 3416 0 
L 372 0 
L 372 241 
Q 372 659 486 951 
Q 600 1244 862 1520 
Q 1125 1797 1681 2184 
Q 2250 2584 2458 2886 
Q 2666 3188 2666 3572 
z
" transform="scale(0.015625)"/>
       </defs>
       <use xlink:href="#MicrosoftYaHei-32"/>
      </g>
     </g>
    </g>
    <g id="xtick_3">
     <g id="line2d_5">
      <path d="M 168.397854 317.78125 
L 168.397854 26.4 
" clip-path="url(#p993628e532)" style="fill: none; stroke: #b0b0b0; stroke-opacity: 0.3; stroke-width: 0.8; stroke-linecap: square"/>
     </g>
     <g id="line2d_6">
      <g>
       <use xlink:href="#m9d703acb77" x="168.397854" y="317.78125" style="stroke: #000000; stroke-width: 0.8"/>
      </g>
     </g>
     <g id="text_3">
      <!-- 4 -->
      <g transform="translate(165.465823 332.775) scale(0.1 -0.1)">
       <defs>
        <path id="MicrosoftYaHei-34" d="M 2906 4841 
L 2906 1644 
L 3631 1644 
L 3631 1138 
L 2906 1138 
L 2906 0 
L 2313 0 
L 2313 1138 
L 53 1138 
L 53 1616 
Q 656 2294 1265 3178 
Q 1875 4063 2272 4841 
L 2906 4841 
z
M 741 1644 
L 2313 1644 
L 2313 3950 
Q 1988 3366 1616 2817 
Q 1244 2269 741 1644 
z
" transform="scale(0.015625)"/>
       </defs>
       <use xlink:href="#MicrosoftYaHei-34"/>
      </g>
     </g>
    </g>
    <g id="xtick_4">
     <g id="line2d_7">
      <path d="M 219.385418 317.78125 
L 219.385418 26.4 
" clip-path="url(#p993628e532)" style="fill: none; stroke: #b0b0b0; stroke-opacity: 0.3; stroke-width: 0.8; stroke-linecap: square"/>
     </g>
     <g id="line2d_8">
      <g>
       <use xlink:href="#m9d703acb77" x="219.385418" y="317.78125" style="stroke: #000000; stroke-width: 0.8"/>
      </g>
     </g>
     <g id="text_4">
      <!-- 6 -->
      <g transform="translate(216.453387 332.775) scale(0.1 -0.1)">
       <defs>
        <path id="MicrosoftYaHei-36" d="M 3181 4219 
Q 2803 4413 2391 4413 
Q 1763 4413 1381 3866 
Q 1000 3319 994 2372 
L 1009 2372 
Q 1353 3038 2106 3038 
Q 2734 3038 3109 2628 
Q 3484 2219 3484 1541 
Q 3484 831 3051 375 
Q 2619 -81 1947 -81 
Q 1209 -81 789 495 
Q 369 1072 369 2131 
Q 369 3413 920 4167 
Q 1472 4922 2372 4922 
Q 2888 4922 3181 4781 
L 3181 4219 
z
M 1031 1584 
Q 1031 1106 1286 765 
Q 1541 425 1963 425 
Q 2363 425 2613 719 
Q 2863 1013 2863 1475 
Q 2863 1975 2627 2253 
Q 2391 2531 1956 2531 
Q 1544 2531 1287 2250 
Q 1031 1969 1031 1584 
z
" transform="scale(0.015625)"/>
       </defs>
       <use xlink:href="#MicrosoftYaHei-36"/>
      </g>
     </g>
    </g>
    <g id="xtick_5">
     <g id="line2d_9">
      <path d="M 270.372982 317.78125 
L 270.372982 26.4 
" clip-path="url(#p993628e532)" style="fill: none; stroke: #b0b0b0; stroke-opacity: 0.3; stroke-width: 0.8; stroke-linecap: square"/>
     </g>
     <g id="line2d_10">
      <g>
       <use xlink:href="#m9d703acb77" x="270.372982" y="317.78125" style="stroke: #000000; stroke-width: 0.8"/>
      </g>
     </g>
     <g id="text_5">
      <!-- 8 -->
      <g transform="translate(267.44095 332.775) scale(0.1 -0.1)">
       <defs>
        <path id="MicrosoftYaHei-38" d="M 306 1350 
Q 306 1769 556 2122 
Q 806 2475 1200 2625 
Q 884 2803 700 3081 
Q 516 3359 516 3684 
Q 516 4028 692 4312 
Q 869 4597 1183 4759 
Q 1497 4922 1875 4922 
Q 2256 4922 2572 4761 
Q 2888 4600 3063 4315 
Q 3238 4031 3238 3684 
Q 3238 3366 3058 3086 
Q 2878 2806 2559 2625 
Q 2953 2472 3200 2119 
Q 3447 1766 3447 1350 
Q 3447 938 3250 611 
Q 3053 284 2690 103 
Q 2328 -78 1875 -78 
Q 1425 -78 1065 103 
Q 706 284 506 612 
Q 306 941 306 1350 
z
M 906 1378 
Q 906 947 1172 687 
Q 1438 428 1878 428 
Q 2309 428 2582 692 
Q 2856 956 2856 1378 
Q 2856 1778 2579 2051 
Q 2303 2325 1878 2325 
Q 1456 2325 1181 2058 
Q 906 1791 906 1378 
z
M 1081 3634 
Q 1081 3309 1312 3076 
Q 1544 2844 1878 2844 
Q 2206 2844 2445 3078 
Q 2684 3313 2684 3634 
Q 2684 3963 2454 4191 
Q 2225 4419 1878 4419 
Q 1534 4419 1307 4195 
Q 1081 3972 1081 3634 
z
" transform="scale(0.015625)"/>
       </defs>
       <use xlink:href="#MicrosoftYaHei-38"/>
      </g>
     </g>
    </g>
    <g id="xtick_6">
     <g id="line2d_11">
      <path d="M 321.360545 317.78125 
L 321.360545 26.4 
" clip-path="url(#p993628e532)" style="fill: none; stroke: #b0b0b0; stroke-opacity: 0.3; stroke-width: 0.8; stroke-linecap: square"/>
     </g>
     <g id="line2d_12">
      <g>
       <use xlink:href="#m9d703acb77" x="321.360545" y="317.78125" style="stroke: #000000; stroke-width: 0.8"/>
      </g>
     </g>
     <g id="text_6">
      <!-- 10 -->
      <g transform="translate(315.496483 332.775) scale(0.1 -0.1)">
       <defs>
        <path id="MicrosoftYaHei-31" d="M 1781 0 
L 1781 4141 
Q 1638 3997 1295 3819 
Q 953 3641 663 3569 
L 663 4169 
Q 1047 4275 1484 4508 
Q 1922 4741 2156 4947 
L 2388 4947 
L 2388 0 
L 1781 0 
z
" transform="scale(0.015625)"/>
       </defs>
       <use xlink:href="#MicrosoftYaHei-31"/>
       <use xlink:href="#MicrosoftYaHei-30" transform="translate(58.642578 0)"/>
      </g>
     </g>
    </g>
    <g id="xtick_7">
     <g id="line2d_13">
      <path d="M 372.348109 317.78125 
L 372.348109 26.4 
" clip-path="url(#p993628e532)" style="fill: none; stroke: #b0b0b0; stroke-opacity: 0.3; stroke-width: 0.8; stroke-linecap: square"/>
     </g>
     <g id="line2d_14">
      <g>
       <use xlink:href="#m9d703acb77" x="372.348109" y="317.78125" style="stroke: #000000; stroke-width: 0.8"/>
      </g>
     </g>
     <g id="text_7">
      <!-- 12 -->
      <g transform="translate(366.484046 332.775) scale(0.1 -0.1)">
       <use xlink:href="#MicrosoftYaHei-31"/>
       <use xlink:href="#MicrosoftYaHei-32" transform="translate(58.642578 0)"/>
      </g>
     </g>
    </g>
    <g id="xtick_8">
     <g id="line2d_15">
      <path d="M 423.335672 317.78125 
L 423.335672 26.4 
" clip-path="url(#p993628e532)" style="fill: none; stroke: #b0b0b0; stroke-opacity: 0.3; stroke-width: 0.8; stroke-linecap: square"/>
     </g>
     <g id="line2d_16">
      <g>
       <use xlink:href="#m9d703acb77" x="423.335672" y="317.78125" style="stroke: #000000; stroke-width: 0.8"/>
      </g>
     </g>
     <g id="text_8">
      <!-- 14 -->
      <g transform="translate(417.47161 332.775) scale(0.1 -0.1)">
       <use xlink:href="#MicrosoftYaHei-31"/>
       <use xlink:href="#MicrosoftYaHei-34" transform="translate(58.642578 0)"/>
      </g>
     </g>
    </g>
    <g id="xtick_9">
     <g id="line2d_17">
      <path d="M 474.323236 317.78125 
L 474.323236 26.4 
" clip-path="url(#p993628e532)" style="fill: none; stroke: #b0b0b0; stroke-opacity: 0.3; stroke-width: 0.8; stroke-linecap: square"/>
     </g>
     <g id="line2d_18">
      <g>
       <use xlink:href="#m9d703acb77" x="474.323236" y="317.78125" style="stroke: #000000; stroke-width: 0.8"/>
      </g>
     </g>
     <g id="text_9">
      <!-- 16 -->
      <g transform="translate(468.459173 332.775) scale(0.1 -0.1)">
       <use xlink:href="#MicrosoftYaHei-31"/>
       <use xlink:href="#MicrosoftYaHei-36" transform="translate(58.642578 0)"/>
      </g>
     </g>
    </g>
    <g id="text_10">
     <!-- 时间 (月) -->
     <g transform="translate(249.829687 347.254687) scale(0.1 -0.1)">
      <defs>
       <path id="MicrosoftYaHei-65f6" d="M 344 4728 
L 2500 4728 
L 2500 -366 
L 2006 -366 
L 2006 153 
L 838 153 
L 838 -441 
L 344 -441 
L 344 4728 
z
M 2706 3941 
L 4925 3941 
L 4925 5322 
L 5425 5322 
L 5425 3941 
L 6313 3941 
L 6313 3478 
L 5425 3478 
L 5425 116 
Q 5425 -722 4625 -722 
Q 4263 -722 3563 -703 
Q 3531 -478 3463 -178 
Q 4119 -228 4488 -228 
Q 4925 -228 4925 216 
L 4925 3478 
L 2706 3478 
L 2706 3941 
z
M 838 616 
L 2006 616 
L 2006 2234 
L 838 2234 
L 838 616 
z
M 2006 4266 
L 838 4266 
L 838 2684 
L 2006 2684 
L 2006 4266 
z
M 3406 2878 
Q 3906 1966 4163 1422 
Q 4000 1347 3663 1172 
Q 3419 1766 2963 2653 
L 3406 2878 
z
" transform="scale(0.015625)"/>
       <path id="MicrosoftYaHei-95f4" d="M 1863 3647 
L 4513 3647 
L 4513 553 
L 2313 553 
L 2313 166 
L 1863 166 
L 1863 3647 
z
M 2388 4453 
L 2388 4922 
L 6013 4922 
L 6013 -28 
Q 6013 -816 5119 -816 
Q 4756 -816 4169 -803 
Q 4144 -616 4069 -297 
Q 4588 -334 5056 -334 
Q 5525 -334 5525 122 
L 5525 4453 
L 2388 4453 
z
M 419 4084 
L 906 4084 
L 906 -816 
L 419 -816 
L 419 4084 
z
M 2313 997 
L 4063 997 
L 4063 1884 
L 2313 1884 
L 2313 997 
z
M 4063 3203 
L 2313 3203 
L 2313 2328 
L 4063 2328 
L 4063 3203 
z
M 744 5003 
L 1100 5322 
Q 1575 4872 1981 4447 
L 1575 4091 
Q 1194 4541 744 5003 
z
" transform="scale(0.015625)"/>
       <path id="MicrosoftYaHei-20" transform="scale(0.015625)"/>
       <path id="MicrosoftYaHei-28" d="M 1531 -1100 
Q 478 100 478 1847 
Q 478 3594 1531 4841 
L 2072 4841 
Q 1016 3544 1016 1853 
Q 1016 166 2066 -1100 
L 1531 -1100 
z
" transform="scale(0.015625)"/>
       <path id="MicrosoftYaHei-6708" d="M 1603 1284 
Q 1463 78 663 -897 
Q 463 -703 231 -522 
Q 838 134 1044 1041 
Q 1188 1709 1188 2891 
L 1188 5053 
L 5363 5053 
L 5363 178 
Q 5363 -747 4481 -747 
Q 4113 -747 3531 -734 
Q 3500 -509 3438 -209 
Q 4013 -247 4344 -247 
Q 4850 -247 4850 247 
L 4850 1284 
L 1603 1284 
z
M 1653 1741 
L 4850 1741 
L 4850 2941 
L 1700 2941 
Q 1700 2316 1653 1741 
z
M 1700 4584 
L 1700 3397 
L 4850 3397 
L 4850 4584 
L 1700 4584 
z
" transform="scale(0.015625)"/>
       <path id="MicrosoftYaHei-29" d="M 78 -1100 
Q 1131 163 1131 1853 
Q 1131 3547 72 4841 
L 616 4841 
Q 1672 3603 1672 1847 
Q 1672 91 616 -1100 
L 78 -1100 
z
" transform="scale(0.015625)"/>
      </defs>
      <use xlink:href="#MicrosoftYaHei-65f6"/>
      <use xlink:href="#MicrosoftYaHei-95f4" transform="translate(100 0)"/>
      <use xlink:href="#MicrosoftYaHei-20" transform="translate(200 0)"/>
      <use xlink:href="#MicrosoftYaHei-28" transform="translate(229.589844 0)"/>
      <use xlink:href="#MicrosoftYaHei-6708" transform="translate(262.988281 0)"/>
      <use xlink:href="#MicrosoftYaHei-29" transform="translate(362.988281 0)"/>
     </g>
    </g>
   </g>
   <g id="matplotlib.axis_2">
    <g id="ytick_1">
     <g id="line2d_19">
      <path d="M 46.1 304.536648 
L 493.2 304.536648 
" clip-path="url(#p993628e532)" style="fill: none; stroke: #b0b0b0; stroke-opacity: 0.3; stroke-width: 0.8; stroke-linecap: square"/>
     </g>
     <g id="line2d_20">
      <defs>
       <path id="m8645bb7a76" d="M 0 0 
L -3.5 0 
" style="stroke: #000000; stroke-width: 0.8"/>
      </defs>
      <g>
       <use xlink:href="#m8645bb7a76" x="46.1" y="304.536648" style="stroke: #000000; stroke-width: 0.8"/>
      </g>
     </g>
     <g id="text_11">
      <!-- 0.0 -->
      <g transform="translate(24.964063 308.533523) scale(0.1 -0.1)">
       <defs>
        <path id="MicrosoftYaHei-2e" d="M 372 322 
Q 372 491 487 606 
Q 603 722 775 722 
Q 950 722 1065 605 
Q 1181 488 1181 322 
Q 1181 159 1065 42 
Q 950 -75 772 -75 
Q 600 -75 486 42 
Q 372 159 372 322 
z
" transform="scale(0.015625)"/>
       </defs>
       <use xlink:href="#MicrosoftYaHei-30"/>
       <use xlink:href="#MicrosoftYaHei-2e" transform="translate(58.642578 0)"/>
       <use xlink:href="#MicrosoftYaHei-30" transform="translate(82.714844 0)"/>
      </g>
     </g>
    </g>
    <g id="ytick_2">
     <g id="line2d_21">
      <path d="M 46.1 251.558239 
L 493.2 251.558239 
" clip-path="url(#p993628e532)" style="fill: none; stroke: #b0b0b0; stroke-opacity: 0.3; stroke-width: 0.8; stroke-linecap: square"/>
     </g>
     <g id="line2d_22">
      <g>
       <use xlink:href="#m8645bb7a76" x="46.1" y="251.558239" style="stroke: #000000; stroke-width: 0.8"/>
      </g>
     </g>
     <g id="text_12">
      <!-- 0.2 -->
      <g transform="translate(24.964063 255.555114) scale(0.1 -0.1)">
       <use xlink:href="#MicrosoftYaHei-30"/>
       <use xlink:href="#MicrosoftYaHei-2e" transform="translate(58.642578 0)"/>
       <use xlink:href="#MicrosoftYaHei-32" transform="translate(82.714844 0)"/>
      </g>
     </g>
    </g>
    <g id="ytick_3">
     <g id="line2d_23">
      <path d="M 46.1 198.57983 
L 493.2 198.57983 
" clip-path="url(#p993628e532)" style="fill: none; stroke: #b0b0b0; stroke-opacity: 0.3; stroke-width: 0.8; stroke-linecap: square"/>
     </g>
     <g id="line2d_24">
      <g>
       <use xlink:href="#m8645bb7a76" x="46.1" y="198.57983" style="stroke: #000000; stroke-width: 0.8"/>
      </g>
     </g>
     <g id="text_13">
      <!-- 0.4 -->
      <g transform="translate(24.964063 202.576705) scale(0.1 -0.1)">
       <use xlink:href="#MicrosoftYaHei-30"/>
       <use xlink:href="#MicrosoftYaHei-2e" transform="translate(58.642578 0)"/>
       <use xlink:href="#MicrosoftYaHei-34" transform="translate(82.714844 0)"/>
      </g>
     </g>
    </g>
    <g id="ytick_4">
     <g id="line2d_25">
      <path d="M 46.1 145.60142 
L 493.2 145.60142 
" clip-path="url(#p993628e532)" style="fill: none; stroke: #b0b0b0; stroke-opacity: 0.3; stroke-width: 0.8; stroke-linecap: square"/>
     </g>
     <g id="line2d_26">
      <g>
       <use xlink:href="#m8645bb7a76" x="46.1" y="145.60142" style="stroke: #000000; stroke-width: 0.8"/>
      </g>
     </g>
     <g id="text_14">
      <!-- 0.6 -->
      <g transform="translate(24.964063 149.598295) scale(0.1 -0.1)">
       <use xlink:href="#MicrosoftYaHei-30"/>
       <use xlink:href="#MicrosoftYaHei-2e" transform="translate(58.642578 0)"/>
       <use xlink:href="#MicrosoftYaHei-36" transform="translate(82.714844 0)"/>
      </g>
     </g>
    </g>
    <g id="ytick_5">
     <g id="line2d_27">
      <path d="M 46.1 92.623011 
L 493.2 92.623011 
" clip-path="url(#p993628e532)" style="fill: none; stroke: #b0b0b0; stroke-opacity: 0.3; stroke-width: 0.8; stroke-linecap: square"/>
     </g>
     <g id="line2d_28">
      <g>
       <use xlink:href="#m8645bb7a76" x="46.1" y="92.623011" style="stroke: #000000; stroke-width: 0.8"/>
      </g>
     </g>
     <g id="text_15">
      <!-- 0.8 -->
      <g transform="translate(24.964063 96.619886) scale(0.1 -0.1)">
       <use xlink:href="#MicrosoftYaHei-30"/>
       <use xlink:href="#MicrosoftYaHei-2e" transform="translate(58.642578 0)"/>
       <use xlink:href="#MicrosoftYaHei-38" transform="translate(82.714844 0)"/>
      </g>
     </g>
    </g>
    <g id="ytick_6">
     <g id="line2d_29">
      <path d="M 46.1 39.644602 
L 493.2 39.644602 
" clip-path="url(#p993628e532)" style="fill: none; stroke: #b0b0b0; stroke-opacity: 0.3; stroke-width: 0.8; stroke-linecap: square"/>
     </g>
     <g id="line2d_30">
      <g>
       <use xlink:href="#m8645bb7a76" x="46.1" y="39.644602" style="stroke: #000000; stroke-width: 0.8"/>
      </g>
     </g>
     <g id="text_16">
      <!-- 1.0 -->
      <g transform="translate(24.964063 43.641477) scale(0.1 -0.1)">
       <use xlink:href="#MicrosoftYaHei-31"/>
       <use xlink:href="#MicrosoftYaHei-2e" transform="translate(58.642578 0)"/>
       <use xlink:href="#MicrosoftYaHei-30" transform="translate(82.714844 0)"/>
      </g>
     </g>
    </g>
    <g id="text_17">
     <!-- 生存概率 -->
     <g transform="translate(18.478125 192.090625) rotate(-90) scale(0.1 -0.1)">
      <defs>
       <path id="MicrosoftYaHei-751f" d="M 125 16 
L 3025 16 
L 3025 1609 
L 813 1609 
L 813 2091 
L 3025 2091 
L 3025 3534 
L 1375 3534 
Q 959 2784 419 2178 
Q 288 2384 81 2616 
Q 963 3603 1475 5028 
L 1988 4891 
Q 1822 4434 1622 4016 
L 3025 4016 
L 3025 5341 
L 3563 5341 
L 3563 4016 
L 5950 4016 
L 5950 3534 
L 3563 3534 
L 3563 2091 
L 5775 2091 
L 5775 1609 
L 3563 1609 
L 3563 16 
L 6288 16 
L 6288 -453 
L 125 -453 
L 125 16 
z
" transform="scale(0.015625)"/>
       <path id="MicrosoftYaHei-5b58" d="M 169 4641 
L 1925 4641 
Q 2053 4991 2163 5359 
L 2675 5228 
Q 2578 4928 2472 4641 
L 6275 4641 
L 6275 4178 
L 2291 4178 
Q 1963 3384 1563 2709 
L 1563 -797 
L 1081 -797 
L 1081 1984 
Q 747 1528 369 1141 
Q 244 1359 69 1591 
Q 1113 2688 1744 4178 
L 169 4178 
L 169 4641 
z
M 1838 1791 
L 3994 1791 
L 3994 2203 
Q 4656 2628 5156 3047 
L 2256 3047 
L 2256 3503 
L 5869 3503 
L 5869 2997 
Q 5231 2491 4475 1978 
L 4475 1791 
L 6319 1791 
L 6319 1334 
L 4475 1334 
L 4475 -72 
Q 4475 -784 3763 -784 
Q 3425 -784 2856 -766 
Q 2825 -528 2775 -259 
Q 3375 -322 3663 -322 
Q 3994 -322 3994 9 
L 3994 1334 
L 1838 1334 
L 1838 1791 
z
" transform="scale(0.015625)"/>
       <path id="MicrosoftYaHei-6982" d="M 2900 1359 
L 3263 1559 
Q 3519 1141 3869 466 
L 3494 222 
Q 3416 384 3344 528 
Q 3041 325 2544 -22 
Q 2419 -103 2219 -322 
L 1869 91 
Q 2063 303 2063 659 
L 2063 4966 
L 3606 4966 
L 3606 1803 
L 3206 1803 
L 3206 2009 
L 2469 2009 
L 2469 484 
Q 2781 669 3147 916 
Q 3009 1178 2900 1359 
z
M 4313 2584 
L 4850 2584 
Q 4950 3300 4950 4566 
L 3900 4566 
L 3900 4966 
L 6100 4966 
L 6100 4566 
L 5363 4566 
Q 5369 3344 5272 2584 
L 6138 2584 
L 6138 2184 
L 5209 2184 
Q 5156 1897 5075 1628 
L 5281 1628 
L 5281 59 
Q 5281 -228 5500 -228 
L 5619 -228 
Q 5781 -228 5844 22 
Q 5913 284 5900 853 
Q 6131 747 6319 691 
Q 6306 141 6213 -216 
Q 6081 -653 5744 -653 
L 5369 -653 
Q 4869 -653 4869 -3 
L 4869 1072 
Q 4366 -41 3281 -841 
Q 3150 -647 2963 -484 
Q 4425 534 4778 2184 
L 3894 2184 
L 4063 4253 
L 4450 4253 
L 4313 2584 
z
M 75 1384 
Q 569 2369 856 3616 
L 169 3616 
L 169 4003 
L 913 4003 
L 913 5322 
L 1325 5322 
L 1325 4003 
L 1913 4003 
L 1913 3616 
L 1325 3616 
L 1325 2775 
L 1494 2922 
Q 1819 2578 2019 2309 
L 1725 2059 
Q 1534 2341 1325 2588 
L 1325 -822 
L 913 -822 
L 913 2691 
Q 622 1531 256 841 
Q 175 1103 75 1384 
z
M 2469 2397 
L 3206 2397 
L 3206 3297 
L 2469 3297 
L 2469 2397 
z
M 3206 4578 
L 2469 4578 
L 2469 3684 
L 3206 3684 
L 3206 4578 
z
" transform="scale(0.015625)"/>
       <path id="MicrosoftYaHei-7387" d="M 2525 2009 
Q 2622 2016 3928 2081 
Q 3772 2300 3625 2491 
L 3963 2703 
Q 4413 2203 4794 1653 
L 4394 1403 
Q 4284 1569 4178 1725 
Q 2991 1659 2213 1597 
Q 2075 1584 1881 1541 
L 1725 1966 
Q 1913 2028 2006 2084 
Q 2534 2441 3050 2913 
Q 2597 2894 2275 2866 
Q 2144 2847 1988 2809 
L 1800 3191 
Q 1956 3247 2088 3366 
Q 2509 3722 2875 4228 
L 231 4228 
L 231 4666 
L 3031 4666 
Q 2878 4944 2744 5153 
L 3194 5372 
Q 3438 5000 3616 4666 
L 6175 4666 
L 6175 4228 
L 3053 4228 
L 3350 4072 
Q 2844 3553 2494 3247 
Q 2850 3256 3425 3269 
Q 3675 3519 3925 3797 
L 4356 3547 
Q 3363 2603 2525 2009 
z
M 144 991 
L 2994 991 
L 2994 1541 
L 3488 1541 
L 3488 991 
L 6275 991 
L 6275 553 
L 3488 553 
L 3488 -853 
L 2994 -853 
L 2994 553 
L 144 553 
L 144 991 
z
M 1719 2672 
L 1944 2303 
Q 1200 1866 425 1409 
L 163 1828 
Q 813 2134 1719 2672 
z
M 4856 2678 
Q 5750 2172 6250 1816 
L 5975 1409 
Q 5331 1909 4600 2341 
L 4856 2678 
z
M 5994 3591 
Q 5519 3178 4963 2809 
L 4644 3141 
Q 5244 3534 5638 3928 
L 5994 3591 
z
M 363 3634 
L 681 3941 
Q 1200 3528 1588 3159 
L 1238 2816 
Q 875 3197 363 3634 
z
" transform="scale(0.015625)"/>
      </defs>
      <use xlink:href="#MicrosoftYaHei-751f"/>
      <use xlink:href="#MicrosoftYaHei-5b58" transform="translate(100 0)"/>
      <use xlink:href="#MicrosoftYaHei-6982" transform="translate(200 0)"/>
      <use xlink:href="#MicrosoftYaHei-7387" transform="translate(300 0)"/>
     </g>
    </g>
   </g>
   <g id="line2d_31">
    <path d="M 66.422727 39.644602 
L 73.576049 39.644602 
L 73.576049 42.836073 
L 74.246704 42.836073 
L 74.246704 46.027543 
L 76.870849 46.027543 
L 76.870849 49.258907 
L 80.681302 49.258907 
L 80.681302 52.490271 
L 86.568927 52.490271 
L 86.568927 55.721635 
L 86.700772 55.721635 
L 86.700772 58.952998 
L 87.315295 58.952998 
L 87.315295 62.184362 
L 91.706823 62.184362 
L 91.706823 65.415726 
L 101.744094 65.415726 
L 101.744094 68.691355 
L 101.971427 68.691355 
L 101.971427 71.966984 
L 105.627044 71.966984 
L 105.627044 75.242613 
L 108.759187 75.242613 
L 108.759187 78.518242 
L 108.910579 78.518242 
L 108.910579 81.793871 
L 118.86442 81.793871 
L 118.86442 85.0695 
L 119.785602 85.0695 
L 119.785602 88.345129 
L 121.689327 88.345129 
L 121.689327 91.620758 
L 123.061116 91.620758 
L 123.061116 94.896388 
L 127.178916 94.896388 
L 127.178916 98.172017 
L 129.254651 98.172017 
L 129.254651 101.447646 
L 130.6387 101.447646 
L 130.6387 104.723275 
L 131.522569 104.723275 
L 131.522569 107.998904 
L 138.11398 107.998904 
L 138.11398 111.330052 
L 144.695546 111.330052 
L 144.695546 114.6612 
L 145.370088 114.6612 
L 145.370088 117.992348 
L 146.534703 117.992348 
L 146.534703 121.323497 
L 147.8598 121.323497 
L 147.8598 124.654645 
L 148.203023 124.654645 
L 148.203023 127.985793 
L 154.124642 127.985793 
L 154.124642 131.316941 
L 155.913089 131.316941 
L 155.913089 134.648089 
L 161.296618 134.648089 
L 161.296618 137.979238 
L 163.654271 137.979238 
L 163.654271 141.310386 
L 164.557125 141.310386 
L 164.557125 144.641534 
L 168.347547 144.641534 
L 168.347547 147.972682 
L 170.840269 147.972682 
L 170.840269 151.30383 
L 174.078194 151.30383 
L 174.078194 154.634979 
L 187.639926 154.634979 
L 187.639926 158.041835 
L 188.334142 158.041835 
L 188.334142 161.448691 
L 189.239096 161.448691 
L 189.239096 164.855547 
L 189.801568 164.855547 
L 189.801568 168.262403 
L 197.769696 168.262403 
L 197.769696 171.669259 
L 202.354955 171.669259 
L 202.354955 175.076115 
L 218.720414 175.076115 
L 218.720414 178.482971 
L 221.609753 178.482971 
L 221.609753 181.889828 
L 232.174286 181.889828 
L 232.174286 185.296684 
L 237.809769 185.296684 
L 237.809769 188.70354 
L 239.874495 188.70354 
L 239.874495 192.110396 
L 240.151151 192.110396 
L 240.151151 195.517252 
L 240.553142 195.517252 
L 240.553142 198.924108 
L 243.89869 198.924108 
L 243.89869 202.330964 
L 253.101998 202.330964 
L 253.101998 205.73782 
L 268.925504 205.73782 
L 268.925504 209.144676 
L 280.718863 209.144676 
L 280.718863 212.677712 
L 283.218565 212.677712 
L 283.218565 216.210748 
L 299.251391 216.210748 
L 299.251391 219.743784 
L 307.577173 219.743784 
L 307.577173 223.27682 
L 320.626724 223.27682 
L 320.626724 227.146336 
L 328.171283 227.146336 
L 328.171283 231.015852 
L 335.705063 231.015852 
L 335.705063 234.885367 
L 336.282846 234.885367 
L 336.282846 238.754883 
L 342.924593 238.754883 
L 342.924593 242.624398 
L 346.085719 242.624398 
L 346.085719 246.493914 
L 354.914384 246.493914 
L 354.914384 250.363429 
L 370.965668 250.363429 
L 370.965668 254.5306 
L 437.532321 254.5306 
L 437.532321 260.781356 
L 456.004005 260.781356 
L 456.004005 271.720179 
L 458.285812 271.720179 
L 458.285812 282.659002 
L 460.828126 282.659002 
L 460.828126 293.597825 
L 469.816894 293.597825 
L 469.816894 304.536648 
L 469.816894 304.536648 
" clip-path="url(#p993628e532)" style="fill: none; stroke: #1f77b4; stroke-width: 1.5; stroke-linecap: square"/>
   </g>
   <g id="line2d_32">
    <path d="M 66.422727 39.644602 
L 69.105491 39.644602 
L 69.105491 43.540074 
L 69.391245 43.540074 
L 69.391245 47.435545 
L 96.796498 47.435545 
L 96.796498 51.331016 
L 104.717898 51.331016 
L 104.717898 55.226487 
L 106.323877 55.226487 
L 106.323877 59.121959 
L 108.425121 59.121959 
L 108.425121 63.01743 
L 111.333602 63.01743 
L 111.333602 66.976761 
L 112.994169 66.976761 
L 112.994169 70.936093 
L 122.651742 70.936093 
L 122.651742 74.895424 
L 128.575541 74.895424 
L 128.575541 78.854756 
L 129.634731 78.854756 
L 129.634731 82.814087 
L 141.161781 82.814087 
L 141.161781 86.773418 
L 146.872019 86.773418 
L 146.872019 90.882159 
L 147.736031 90.882159 
L 147.736031 94.990899 
L 154.520332 94.990899 
L 154.520332 99.099639 
L 161.435616 99.099639 
L 161.435616 103.208379 
L 167.007646 103.208379 
L 167.007646 107.317119 
L 168.029438 107.317119 
L 168.029438 111.42586 
L 183.14399 111.42586 
L 183.14399 115.5346 
L 195.456052 115.5346 
L 195.456052 119.64334 
L 203.577694 119.64334 
L 203.577694 123.75208 
L 211.827545 123.75208 
L 211.827545 127.86082 
L 220.376907 127.86082 
L 220.376907 131.96956 
L 229.740444 131.96956 
L 229.740444 136.078301 
L 230.299574 136.078301 
L 230.299574 140.187041 
L 232.378169 140.187041 
L 232.378169 144.295781 
L 234.723419 144.295781 
L 234.723419 148.404521 
L 257.272946 148.404521 
L 257.272946 152.624308 
L 266.766577 152.624308 
L 266.766577 156.844095 
L 292.917056 156.844095 
L 292.917056 161.187994 
L 304.361436 161.187994 
L 304.361436 165.531893 
L 305.012592 165.531893 
L 305.012592 169.875791 
L 324.821666 169.875791 
L 324.821666 174.364486 
L 340.928979 174.364486 
L 340.928979 179.185678 
L 345.057896 179.185678 
L 345.057896 184.006869 
L 356.763423 184.006869 
L 356.801236 194.051017 
L 359.557825 194.051017 
L 359.557825 199.073091 
L 364.486129 199.073091 
L 364.486129 204.095165 
L 371.734349 204.095165 
L 371.734349 209.117239 
L 413.39791 209.117239 
L 413.39791 216.457194 
L 472.877273 216.457194 
L 472.877273 304.536648 
L 472.877273 304.536648 
" clip-path="url(#p993628e532)" style="fill: none; stroke: #ff7f0e; stroke-width: 1.5; stroke-linecap: square"/>
   </g>
   <g id="patch_3">
    <path d="M 46.1 317.78125 
L 46.1 26.4 
" style="fill: none; stroke: #000000; stroke-width: 0.8; stroke-linejoin: miter; stroke-linecap: square"/>
   </g>
   <g id="patch_4">
    <path d="M 493.2 317.78125 
L 493.2 26.4 
" style="fill: none; stroke: #000000; stroke-width: 0.8; stroke-linejoin: miter; stroke-linecap: square"/>
   </g>
   <g id="patch_5">
    <path d="M 46.1 317.78125 
L 493.2 317.78125 
" style="fill: none; stroke: #000000; stroke-width: 0.8; stroke-linejoin: miter; stroke-linecap: square"/>
   </g>
   <g id="patch_6">
    <path d="M 46.1 26.4 
L 493.2 26.4 
" style="fill: none; stroke: #000000; stroke-width: 0.8; stroke-linejoin: miter; stroke-linecap: square"/>
   </g>
   <g id="text_18">
    <!-- RCT-A OS KM曲线 - 生物标志物X Positive -->
    <g transform="translate(154.216562 20.4) scale(0.12 -0.12)">
     <defs>
      <path id="MicrosoftYaHei-52" d="M 4159 0 
L 3422 0 
L 2619 1344 
Q 2378 1747 2178 1892 
Q 1978 2038 1700 2038 
L 1250 2038 
L 1250 0 
L 625 0 
L 625 4841 
L 2100 4841 
Q 2806 4841 3206 4500 
Q 3606 4159 3606 3547 
Q 3606 2541 2531 2241 
L 2531 2225 
Q 2731 2141 2876 1984 
Q 3022 1828 3253 1450 
L 4159 0 
z
M 1250 4294 
L 1250 2584 
L 1988 2584 
Q 2416 2584 2683 2834 
Q 2950 3084 2950 3491 
Q 2950 3869 2706 4081 
Q 2463 4294 1997 4294 
L 1250 4294 
z
" transform="scale(0.015625)"/>
      <path id="MicrosoftYaHei-43" d="M 3938 200 
Q 3403 -81 2597 -81 
Q 1556 -81 934 580 
Q 313 1241 313 2328 
Q 313 3497 1013 4209 
Q 1713 4922 2791 4922 
Q 3484 4922 3938 4725 
L 3938 4072 
Q 3419 4359 2797 4359 
Q 1988 4359 1478 3820 
Q 969 3281 969 2366 
Q 969 1497 1444 986 
Q 1919 475 2688 475 
Q 3406 475 3938 800 
L 3938 200 
z
" transform="scale(0.015625)"/>
      <path id="MicrosoftYaHei-54" d="M 3550 4284 
L 2153 4284 
L 2153 0 
L 1525 0 
L 1525 4284 
L 134 4284 
L 134 4841 
L 3550 4841 
L 3550 4284 
z
" transform="scale(0.015625)"/>
      <path id="MicrosoftYaHei-2d" d="M 2328 1681 
L 488 1681 
L 488 2153 
L 2328 2153 
L 2328 1681 
z
" transform="scale(0.015625)"/>
      <path id="MicrosoftYaHei-41" d="M 4428 0 
L 3738 0 
L 3244 1325 
L 1228 1325 
L 763 0 
L 72 0 
L 1916 4841 
L 2584 4841 
L 4428 0 
z
M 3050 1872 
L 2319 3884 
Q 2284 3981 2244 4222 
L 2228 4222 
Q 2194 4003 2150 3884 
L 1425 1872 
L 3050 1872 
z
" transform="scale(0.015625)"/>
      <path id="MicrosoftYaHei-4f" d="M 313 2363 
Q 313 3534 947 4228 
Q 1581 4922 2666 4922 
Q 3675 4922 4290 4244 
Q 4906 3566 4906 2478 
Q 4906 1300 4275 609 
Q 3644 -81 2588 -81 
Q 1556 -81 934 597 
Q 313 1275 313 2363 
z
M 969 2413 
Q 969 1534 1417 1004 
Q 1866 475 2588 475 
Q 3363 475 3805 983 
Q 4247 1491 4247 2403 
Q 4247 3341 3814 3850 
Q 3381 4359 2628 4359 
Q 1888 4359 1428 3821 
Q 969 3284 969 2413 
z
" transform="scale(0.015625)"/>
      <path id="MicrosoftYaHei-53" d="M 400 909 
Q 622 716 994 591 
Q 1366 466 1700 466 
Q 2719 466 2719 1191 
Q 2719 1394 2609 1556 
Q 2500 1719 2309 1844 
Q 2119 1969 1594 2228 
Q 866 2591 634 2902 
Q 403 3213 403 3613 
Q 403 4216 887 4569 
Q 1372 4922 2109 4922 
Q 2831 4922 3169 4747 
L 3169 4066 
Q 2731 4369 2063 4369 
Q 1619 4369 1339 4183 
Q 1059 3997 1059 3666 
Q 1059 3372 1253 3187 
Q 1447 3003 2094 2684 
Q 2806 2344 3090 2003 
Q 3375 1663 3375 1238 
Q 3375 600 2912 259 
Q 2450 -81 1628 -81 
Q 1341 -81 958 -1 
Q 575 78 400 197 
L 400 909 
z
" transform="scale(0.015625)"/>
      <path id="MicrosoftYaHei-4b" d="M 4069 0 
L 3213 0 
L 1394 2200 
Q 1300 2316 1266 2381 
L 1250 2381 
L 1250 0 
L 625 0 
L 625 4841 
L 1250 4841 
L 1250 2563 
L 1266 2563 
Q 1319 2647 1394 2741 
L 3150 4841 
L 3922 4841 
L 1891 2519 
L 4069 0 
z
" transform="scale(0.015625)"/>
      <path id="MicrosoftYaHei-4d" d="M 5003 0 
L 5003 3206 
Q 5003 3603 5050 4159 
L 5034 4159 
Q 4953 3809 4891 3672 
L 3294 0 
L 2947 0 
L 1353 3644 
Q 1297 3769 1209 4159 
L 1191 4159 
Q 1222 3822 1222 3178 
L 1222 0 
L 625 0 
L 625 4841 
L 1472 4841 
L 2900 1522 
Q 3063 1141 3116 928 
L 3138 928 
Q 3300 1375 3366 1534 
L 4819 4841 
L 5625 4841 
L 5625 0 
L 5003 0 
z
" transform="scale(0.015625)"/>
      <path id="MicrosoftYaHei-66f2" d="M 2163 5322 
L 2625 5322 
L 2625 4291 
L 3775 4291 
L 3775 5328 
L 4238 5328 
L 4238 4291 
L 5850 4291 
L 5850 -822 
L 5388 -822 
L 5388 -409 
L 1013 -409 
L 1013 -822 
L 550 -822 
L 550 4291 
L 2163 4291 
L 2163 5322 
z
M 1013 41 
L 2163 41 
L 2163 1753 
L 1013 1753 
L 1013 41 
z
M 4238 41 
L 5388 41 
L 5388 1753 
L 4238 1753 
L 4238 41 
z
M 2625 41 
L 3775 41 
L 3775 1753 
L 2625 1753 
L 2625 41 
z
M 1013 2203 
L 2163 2203 
L 2163 3841 
L 1013 3841 
L 1013 2203 
z
M 5388 3841 
L 4238 3841 
L 4238 2203 
L 5388 2203 
L 5388 3841 
z
M 2625 2203 
L 3775 2203 
L 3775 3841 
L 2625 3841 
L 2625 2203 
z
" transform="scale(0.015625)"/>
      <path id="MicrosoftYaHei-7ebf" d="M 1969 -347 
Q 3144 75 4003 631 
Q 3781 1197 3653 1972 
L 2319 1784 
L 2244 2234 
L 3591 2422 
Q 3538 2859 3513 3356 
L 2381 3228 
L 2306 3678 
L 3488 3809 
Q 3453 4459 3425 5303 
L 3938 5303 
Q 3953 4497 3978 3866 
L 6069 4103 
L 6125 3659 
L 3997 3413 
Q 4019 2919 4069 2488 
L 6225 2791 
L 6281 2347 
L 4128 2041 
Q 4234 1394 4416 916 
Q 5078 1416 5519 2009 
L 5925 1703 
Q 5363 1025 4619 475 
Q 4859 44 5194 -184 
Q 5606 -428 5725 66 
Q 5806 466 5856 953 
Q 6144 828 6338 772 
Q 6231 97 6125 -247 
Q 5944 -778 5506 -778 
Q 5050 -778 4663 -403 
Q 4409 -163 4209 194 
Q 3350 -363 2281 -772 
Q 2169 -597 1969 -347 
z
M 900 1541 
Q 1456 1622 2213 1753 
Q 2175 1522 2156 1272 
Q 1113 1109 325 978 
L 225 1447 
Q 659 1913 1178 2775 
Q 672 2747 225 2703 
L 106 3128 
Q 688 3922 1300 5353 
L 1775 5166 
Q 1131 3897 669 3166 
Q 1041 3178 1422 3194 
Q 1638 3578 1869 4028 
L 2331 3797 
Q 1569 2478 900 1541 
z
M 106 97 
Q 1206 334 2331 616 
Q 2313 366 2313 141 
Q 1269 -103 244 -378 
L 106 97 
z
M 4463 4972 
L 4731 5284 
Q 5175 5003 5681 4609 
L 5381 4247 
Q 4863 4691 4463 4972 
z
" transform="scale(0.015625)"/>
      <path id="MicrosoftYaHei-7269" d="M 2131 2866 
Q 2750 3816 3263 5341 
L 3719 5203 
Q 3541 4706 3363 4278 
L 6075 4278 
Q 5950 1759 5869 422 
Q 5800 -622 4869 -622 
Q 4519 -622 4044 -603 
Q 4013 -372 3956 -72 
Q 4500 -134 4819 -134 
Q 5325 -134 5375 441 
Q 5488 1759 5575 3834 
L 5097 3834 
Q 4934 2241 4569 1322 
Q 4069 134 2869 -716 
Q 2731 -522 2550 -334 
Q 3719 491 4169 1559 
Q 4531 2438 4634 3834 
L 4078 3834 
Q 3909 2641 3575 1916 
Q 3163 1097 2444 447 
Q 2288 647 2119 816 
Q 2831 1434 3175 2116 
Q 3509 2809 3619 3834 
L 3169 3834 
Q 2850 3125 2531 2628 
Q 2375 2734 2131 2866 
z
M 94 1584 
Q 669 1775 1288 1991 
L 1288 3466 
L 722 3466 
Q 597 2872 419 2378 
Q 219 2522 13 2653 
Q 363 3509 456 4709 
L 906 4634 
Q 863 4244 800 3884 
L 1288 3884 
L 1288 5291 
L 1756 5291 
L 1756 3884 
L 2375 3884 
L 2375 3466 
L 1756 3466 
L 1756 2156 
Q 2063 2269 2381 2384 
Q 2413 2109 2450 1909 
Q 2141 1797 1756 1653 
L 1756 -834 
L 1288 -834 
L 1288 1475 
Q 788 1288 188 1053 
L 94 1584 
z
" transform="scale(0.015625)"/>
      <path id="MicrosoftYaHei-6807" d="M 75 1409 
Q 769 2478 1025 3647 
L 119 3647 
L 119 4072 
L 1069 4072 
L 1069 5297 
L 1506 5297 
L 1506 4072 
L 2356 4072 
L 2356 3647 
L 1506 3647 
L 1506 2541 
L 1775 2822 
Q 2175 2478 2481 2159 
L 2150 1816 
Q 1850 2156 1506 2503 
L 1506 -797 
L 1069 -797 
L 1069 2588 
Q 738 1513 281 859 
Q 194 1128 75 1409 
z
M 2350 3097 
L 6250 3097 
L 6250 2659 
L 4525 2659 
L 4525 47 
Q 4525 -734 3806 -734 
Q 3469 -741 2975 -728 
Q 2944 -503 2888 -209 
Q 3319 -259 3675 -259 
Q 4050 -259 4050 203 
L 4050 2659 
L 2350 2659 
L 2350 3097 
z
M 2638 4928 
L 5963 4928 
L 5963 4491 
L 2638 4491 
L 2638 4928 
z
M 4938 1853 
L 5381 2066 
Q 5975 928 6369 72 
L 5869 -147 
Q 5463 822 4938 1853 
z
M 2931 2066 
L 3400 1878 
Q 2888 734 2381 -153 
Q 2188 -41 1925 66 
Q 2425 872 2931 2066 
z
" transform="scale(0.015625)"/>
      <path id="MicrosoftYaHei-5fd7" d="M 663 2703 
L 2944 2703 
L 2944 3903 
L 200 3903 
L 200 4341 
L 2944 4341 
L 2944 5341 
L 3456 5341 
L 3456 4341 
L 6213 4341 
L 6213 3903 
L 3456 3903 
L 3456 2703 
L 5738 2703 
L 5738 2266 
L 663 2266 
L 663 2703 
z
M 1625 1572 
L 2113 1572 
L 2113 153 
Q 2113 -222 2488 -222 
L 3806 -222 
Q 4256 -222 4338 109 
Q 4413 403 4469 866 
Q 4700 772 4963 684 
Q 4881 222 4800 -78 
Q 4656 -678 3950 -678 
L 2394 -678 
Q 1625 -678 1625 128 
L 1625 1572 
z
M 725 1684 
L 1194 1547 
Q 938 603 675 -91 
Q 469 -9 194 59 
Q 506 816 725 1684 
z
M 4981 1459 
L 5375 1709 
Q 5838 1091 6288 366 
L 5850 72 
Q 5394 859 4981 1459 
z
M 2600 1859 
L 2988 2116 
Q 3450 1547 3881 934 
L 3463 647 
Q 3006 1341 2600 1859 
z
" transform="scale(0.015625)"/>
      <path id="MicrosoftYaHei-58" d="M 4034 0 
L 3275 0 
L 2194 1822 
Q 2156 1884 2084 2072 
L 2069 2072 
Q 2063 2047 1956 1819 
L 844 0 
L 81 0 
L 1691 2431 
L 209 4841 
L 975 4841 
L 1931 3166 
Q 2016 3019 2100 2822 
L 2113 2822 
Q 2188 2991 2297 3181 
L 3297 4841 
L 4013 4841 
L 2500 2441 
L 4034 0 
z
" transform="scale(0.015625)"/>
      <path id="MicrosoftYaHei-50" d="M 1250 1809 
L 1250 0 
L 625 0 
L 625 4841 
L 2000 4841 
Q 2784 4841 3217 4462 
Q 3650 4084 3650 3381 
Q 3650 2669 3144 2226 
Q 2638 1784 1878 1809 
L 1250 1809 
z
M 1250 4291 
L 1250 2359 
L 1828 2359 
Q 2400 2359 2697 2617 
Q 2994 2875 2994 3356 
Q 2994 4291 1888 4291 
L 1250 4291 
z
" transform="scale(0.015625)"/>
      <path id="MicrosoftYaHei-6f" d="M 316 1691 
Q 316 2547 794 3042 
Q 1272 3538 2091 3538 
Q 2869 3538 3311 3061 
Q 3753 2584 3753 1744 
Q 3753 925 3281 422 
Q 2809 -81 2016 -81 
Q 1241 -81 778 406 
Q 316 894 316 1691 
z
M 941 1709 
Q 941 1113 1242 769 
Q 1544 425 2053 425 
Q 2578 425 2853 761 
Q 3128 1097 3128 1725 
Q 3128 2356 2853 2693 
Q 2578 3031 2053 3031 
Q 1538 3031 1239 2678 
Q 941 2325 941 1709 
z
" transform="scale(0.015625)"/>
      <path id="MicrosoftYaHei-73" d="M 353 747 
Q 816 413 1350 413 
Q 2066 413 2066 881 
Q 2066 1081 1909 1211 
Q 1753 1341 1275 1519 
Q 700 1750 528 1976 
Q 356 2203 356 2525 
Q 356 2984 745 3261 
Q 1134 3538 1703 3538 
Q 2144 3538 2522 3384 
L 2522 2794 
Q 2134 3044 1644 3044 
Q 1350 3044 1165 2916 
Q 981 2788 981 2578 
Q 981 2372 1114 2256 
Q 1247 2141 1703 1959 
Q 2281 1744 2484 1512 
Q 2688 1281 2688 941 
Q 2688 466 2298 192 
Q 1909 -81 1291 -81 
Q 753 -81 353 122 
L 353 747 
z
" transform="scale(0.015625)"/>
      <path id="MicrosoftYaHei-69" d="M 472 4675 
Q 472 4838 583 4948 
Q 694 5059 856 5059 
Q 1022 5059 1136 4950 
Q 1250 4841 1250 4675 
Q 1250 4513 1136 4405 
Q 1022 4297 856 4297 
Q 691 4297 581 4405 
Q 472 4513 472 4675 
z
M 544 0 
L 544 3456 
L 1156 3456 
L 1156 0 
L 544 0 
z
" transform="scale(0.015625)"/>
      <path id="MicrosoftYaHei-74" d="M 2206 34 
Q 2006 -75 1666 -75 
Q 738 -75 738 953 
L 738 2950 
L 144 2950 
L 144 3456 
L 738 3456 
L 738 4288 
L 1347 4481 
L 1347 3456 
L 2206 3456 
L 2206 2950 
L 1347 2950 
L 1347 1063 
Q 1347 722 1462 575 
Q 1578 428 1847 428 
Q 2053 428 2206 544 
L 2206 34 
z
" transform="scale(0.015625)"/>
      <path id="MicrosoftYaHei-76" d="M 3331 3456 
L 1963 0 
L 1344 0 
L 44 3456 
L 713 3456 
L 1556 988 
Q 1659 691 1678 491 
L 1694 491 
Q 1725 753 1803 975 
L 2688 3456 
L 3331 3456 
z
" transform="scale(0.015625)"/>
      <path id="MicrosoftYaHei-65" d="M 3363 1572 
L 944 1572 
Q 959 1019 1246 717 
Q 1534 416 2050 416 
Q 2631 416 3116 788 
L 3116 241 
Q 2659 -81 1906 -81 
Q 1156 -81 736 394 
Q 316 869 316 1713 
Q 316 2506 777 3022 
Q 1238 3538 1922 3538 
Q 2600 3538 2981 3102 
Q 3363 2666 3363 1881 
L 3363 1572 
z
M 2750 2063 
Q 2747 2531 2528 2787 
Q 2309 3044 1913 3044 
Q 1547 3044 1280 2772 
Q 1013 2500 944 2063 
L 2750 2063 
z
" transform="scale(0.015625)"/>
     </defs>
     <use xlink:href="#MicrosoftYaHei-52"/>
     <use xlink:href="#MicrosoftYaHei-43" transform="translate(63.783203 0)"/>
     <use xlink:href="#MicrosoftYaHei-54" transform="translate(130.677734 0)"/>
     <use xlink:href="#MicrosoftYaHei-2d" transform="translate(188.001953 0)"/>
     <use xlink:href="#MicrosoftYaHei-41" transform="translate(231.263672 0)"/>
     <use xlink:href="#MicrosoftYaHei-20" transform="translate(301.625 0)"/>
     <use xlink:href="#MicrosoftYaHei-4f" transform="translate(331.214844 0)"/>
     <use xlink:href="#MicrosoftYaHei-53" transform="translate(412.708984 0)"/>
     <use xlink:href="#MicrosoftYaHei-20" transform="translate(470.423828 0)"/>
     <use xlink:href="#MicrosoftYaHei-4b" transform="translate(500.013672 0)"/>
     <use xlink:href="#MicrosoftYaHei-4d" transform="translate(563.490234 0)"/>
     <use xlink:href="#MicrosoftYaHei-66f2" transform="translate(661.195312 0)"/>
     <use xlink:href="#MicrosoftYaHei-7ebf" transform="translate(761.195312 0)"/>
     <use xlink:href="#MicrosoftYaHei-20" transform="translate(861.195312 0)"/>
     <use xlink:href="#MicrosoftYaHei-2d" transform="translate(890.785156 0)"/>
     <use xlink:href="#MicrosoftYaHei-20" transform="translate(934.046875 0)"/>
     <use xlink:href="#MicrosoftYaHei-751f" transform="translate(963.636719 0)"/>
     <use xlink:href="#MicrosoftYaHei-7269" transform="translate(1063.636719 0)"/>
     <use xlink:href="#MicrosoftYaHei-6807" transform="translate(1163.636719 0)"/>
     <use xlink:href="#MicrosoftYaHei-5fd7" transform="translate(1263.636719 0)"/>
     <use xlink:href="#MicrosoftYaHei-7269" transform="translate(1363.636719 0)"/>
     <use xlink:href="#MicrosoftYaHei-58" transform="translate(1463.636719 0)"/>
     <use xlink:href="#MicrosoftYaHei-20" transform="translate(1528.138672 0)"/>
     <use xlink:href="#MicrosoftYaHei-50" transform="translate(1557.728516 0)"/>
     <use xlink:href="#MicrosoftYaHei-6f" transform="translate(1614.910156 0)"/>
     <use xlink:href="#MicrosoftYaHei-73" transform="translate(1678.484375 0)"/>
     <use xlink:href="#MicrosoftYaHei-69" transform="translate(1724.773438 0)"/>
     <use xlink:href="#MicrosoftYaHei-74" transform="translate(1751.384766 0)"/>
     <use xlink:href="#MicrosoftYaHei-69" transform="translate(1788.640625 0)"/>
     <use xlink:href="#MicrosoftYaHei-76" transform="translate(1815.251953 0)"/>
     <use xlink:href="#MicrosoftYaHei-65" transform="translate(1867.117188 0)"/>
    </g>
   </g>
   <g id="legend_1">
    <g id="patch_7">
     <path d="M 420.240625 65.426563 
L 486.2 65.426563 
Q 488.2 65.426563 488.2 63.426563 
L 488.2 33.4 
Q 488.2 31.4 486.2 31.4 
L 420.240625 31.4 
Q 418.240625 31.4 418.240625 33.4 
L 418.240625 63.426563 
Q 418.240625 65.426563 420.240625 65.426563 
z
" style="fill: #ffffff; opacity: 0.8; stroke: #cccccc; stroke-linejoin: miter"/>
    </g>
    <g id="line2d_33">
     <path d="M 422.240625 39.89375 
L 432.240625 39.89375 
L 432.240625 39.89375 
L 442.240625 39.89375 
L 442.240625 39.89375 
" style="fill: none; stroke: #1f77b4; stroke-width: 1.5; stroke-linecap: square"/>
    </g>
    <g id="text_19">
     <!-- control -->
     <g transform="translate(450.240625 43.39375) scale(0.1 -0.1)">
      <defs>
       <path id="MicrosoftYaHei-63" d="M 2934 156 
Q 2538 -81 1978 -81 
Q 1228 -81 772 400 
Q 316 881 316 1647 
Q 316 2497 808 3017 
Q 1300 3538 2125 3538 
Q 2600 3538 2938 3369 
L 2938 2763 
Q 2572 3031 2125 3031 
Q 1600 3031 1270 2667 
Q 941 2303 941 1697 
Q 941 1100 1252 762 
Q 1563 425 2091 425 
Q 2538 425 2934 719 
L 2934 156 
z
" transform="scale(0.015625)"/>
       <path id="MicrosoftYaHei-6e" d="M 3469 0 
L 2859 0 
L 2859 1966 
Q 2859 3031 2081 3031 
Q 1678 3031 1418 2731 
Q 1159 2431 1159 1972 
L 1159 0 
L 547 0 
L 547 3456 
L 1159 3456 
L 1159 2884 
L 1172 2884 
Q 1563 3538 2306 3538 
Q 2875 3538 3172 3173 
Q 3469 2809 3469 2113 
L 3469 0 
z
" transform="scale(0.015625)"/>
       <path id="MicrosoftYaHei-72" d="M 2400 2850 
Q 2247 2959 1978 2959 
Q 1622 2959 1390 2626 
Q 1159 2294 1159 1750 
L 1159 0 
L 547 0 
L 547 3456 
L 1159 3456 
L 1159 2753 
L 1172 2753 
Q 1434 3516 2078 3516 
Q 2288 3516 2400 3469 
L 2400 2850 
z
" transform="scale(0.015625)"/>
       <path id="MicrosoftYaHei-6c" d="M 544 0 
L 544 5116 
L 1156 5116 
L 1156 0 
L 544 0 
z
" transform="scale(0.015625)"/>
      </defs>
      <use xlink:href="#MicrosoftYaHei-63"/>
      <use xlink:href="#MicrosoftYaHei-6f" transform="translate(50.146484 0)"/>
      <use xlink:href="#MicrosoftYaHei-6e" transform="translate(113.720703 0)"/>
      <use xlink:href="#MicrosoftYaHei-74" transform="translate(175.341797 0)"/>
      <use xlink:href="#MicrosoftYaHei-72" transform="translate(212.597656 0)"/>
      <use xlink:href="#MicrosoftYaHei-6f" transform="translate(249.40625 0)"/>
      <use xlink:href="#MicrosoftYaHei-6c" transform="translate(312.980469 0)"/>
     </g>
    </g>
    <g id="line2d_34">
     <path d="M 422.240625 55.373438 
L 432.240625 55.373438 
L 432.240625 55.373438 
L 442.240625 55.373438 
L 442.240625 55.373438 
" style="fill: none; stroke: #ff7f0e; stroke-width: 1.5; stroke-linecap: square"/>
    </g>
    <g id="text_20">
     <!-- drug_a -->
     <g transform="translate(450.240625 58.873438) scale(0.1 -0.1)">
      <defs>
       <path id="MicrosoftYaHei-64" d="M 3547 0 
L 2934 0 
L 2934 575 
L 2922 575 
Q 2544 -81 1747 -81 
Q 1091 -81 703 386 
Q 316 853 316 1647 
Q 316 2503 753 3020 
Q 1191 3538 1897 3538 
Q 2603 3538 2922 2988 
L 2934 2988 
L 2934 5116 
L 3547 5116 
L 3547 0 
z
M 2938 2056 
Q 2938 2472 2664 2751 
Q 2391 3031 1991 3031 
Q 1503 3031 1222 2667 
Q 941 2303 941 1675 
Q 941 1097 1211 761 
Q 1481 425 1931 425 
Q 2375 425 2656 754 
Q 2938 1084 2938 1575 
L 2938 2056 
z
" transform="scale(0.015625)"/>
       <path id="MicrosoftYaHei-75" d="M 3400 0 
L 2784 0 
L 2784 544 
L 2772 544 
Q 2425 -81 1706 -81 
Q 478 -81 478 1388 
L 478 3456 
L 1084 3456 
L 1084 1478 
Q 1084 425 1891 425 
Q 2291 425 2537 720 
Q 2784 1016 2784 1466 
L 2784 3456 
L 3400 3456 
L 3400 0 
z
" transform="scale(0.015625)"/>
       <path id="MicrosoftYaHei-67" d="M 3547 291 
Q 3547 -1628 1684 -1628 
Q 1041 -1628 566 -1388 
L 566 -797 
Q 1144 -1119 1675 -1119 
Q 2934 -1119 2934 206 
L 2934 572 
L 2922 572 
Q 2528 -81 1747 -81 
Q 1097 -81 706 384 
Q 316 850 316 1619 
Q 316 2503 747 3020 
Q 1178 3538 1897 3538 
Q 2588 3538 2922 2988 
L 2934 2988 
L 2934 3456 
L 3547 3456 
L 3547 291 
z
M 2934 2056 
Q 2938 2456 2666 2743 
Q 2394 3031 1997 3031 
Q 1497 3031 1219 2664 
Q 941 2297 941 1656 
Q 941 1106 1209 765 
Q 1478 425 1922 425 
Q 2369 425 2653 750 
Q 2938 1075 2934 1575 
L 2934 2056 
z
" transform="scale(0.015625)"/>
       <path id="MicrosoftYaHei-5f" d="M 2869 -1634 
L 0 -1634 
L 0 -1231 
L 2869 -1231 
L 2869 -1634 
z
" transform="scale(0.015625)"/>
       <path id="MicrosoftYaHei-61" d="M 628 3216 
Q 1144 3538 1819 3538 
Q 3069 3538 3069 2225 
L 3069 0 
L 2463 0 
L 2463 534 
L 2447 534 
Q 2088 -81 1388 -81 
Q 884 -81 587 191 
Q 291 463 291 925 
Q 291 1894 1438 2053 
L 2463 2197 
Q 2463 3044 1763 3044 
Q 1141 3044 628 2625 
L 628 3216 
z
M 1653 1625 
Q 1228 1569 1067 1412 
Q 906 1256 906 975 
Q 906 728 1081 572 
Q 1256 416 1544 416 
Q 1944 416 2203 697 
Q 2463 978 2463 1403 
L 2463 1734 
L 1653 1625 
z
" transform="scale(0.015625)"/>
      </defs>
      <use xlink:href="#MicrosoftYaHei-64"/>
      <use xlink:href="#MicrosoftYaHei-72" transform="translate(63.964844 0)"/>
      <use xlink:href="#MicrosoftYaHei-75" transform="translate(102.148438 0)"/>
      <use xlink:href="#MicrosoftYaHei-67" transform="translate(163.769531 0)"/>
      <use xlink:href="#MicrosoftYaHei-5f" transform="translate(227.734375 0)"/>
      <use xlink:href="#MicrosoftYaHei-61" transform="translate(272.558594 0)"/>
     </g>
    </g>
   </g>
  </g>
 </g>
 <defs>
  <clipPath id="p993628e532">
   <rect x="46.1" y="26.4" width="447.1" height="291.38125"/>
  </clipPath>
 </defs>
</svg>
